<?xml version="1.0" encoding="UTF-8" standalone="no"?>
<svg
   xmlns:dc="http://purl.org/dc/elements/1.1/"
   xmlns:cc="http://creativecommons.org/ns#"
   xmlns:rdf="http://www.w3.org/1999/02/22-rdf-syntax-ns#"
   xmlns:svg="http://www.w3.org/2000/svg"
   xmlns="http://www.w3.org/2000/svg"
   width="210mm"
   height="297mm"
   viewBox="0 0 210 297"
   version="1.1"
   id="svg8">
  <defs
     id="defs2" />
  <metadata
     id="metadata5">
    <rdf:RDF>
      <cc:Work
         rdf:about="">
        <dc:format>image/svg+xml</dc:format>
        <dc:type
           rdf:resource="http://purl.org/dc/dcmitype/StillImage" />
        <dc:title></dc:title>
      </cc:Work>
    </rdf:RDF>
  </metadata>
  <g
     id="layer1">
    <g
       id="g873">
      <path
         style="fill:#ff2a2a;stroke:#000000;stroke-width:0.858;stroke-linecap:butt;stroke-linejoin:miter;stroke-opacity:1;stroke-miterlimit:4;stroke-dasharray:none"
         d="m 95.427518,137.50631 5.539242,-5.31457 6.16632,-4.31183 c 0,0 4.70312,-1.70467 5.53924,-1.90522 0.83611,-0.20063 7.94306,-0.90247 7.94306,-0.90247 0,0 3.86701,1.00275 4.70312,1.00275 0.83611,0 3.65799,-0.70193 3.65799,-0.70193 0,0 0.7316,-0.8022 1.88125,-0.90247 1.14965,-0.10022 4.28507,0.10021 4.80764,0.20063 0.52257,0.10021 9.71979,3.00825 9.71979,3.00825 l 7.73403,4.91347 2.50834,9.52612 -0.20912,13.63739 c 0,0 -1.88125,11.43135 -1.88125,11.83245 0,0.4011 -3.13541,5.61539 -3.13541,5.61539 l -2.82181,3.91073 -7.42056,5.61539 -6.16632,2.50688 -5.22569,-0.10022 -3.03091,-0.4011 c 0,0 -2.50833,-1.90522 -2.82187,-2.30632 -0.31355,-0.4011 -1.35868,-0.70192 -1.35868,-0.70192 l -4.18056,2.60714 -12.01911,-0.70209 c 0,0 -6.793401,-7.82128 -7.002428,-8.22238 -0.209114,-0.4011 -5.434724,-9.62656 -5.434724,-9.62656 l -2.717362,-10.5287 -0.731597,-7.01925 2.508334,-5.01374 3.239931,-5.2143"
         id="path853" />
      <path
         style="fill:#ffd5d5;stroke:none;stroke-width:0.858;stroke-linecap:butt;stroke-linejoin:miter;stroke-opacity:1;stroke-miterlimit:4;stroke-dasharray:none"
         d="m 124.49917,138.88173 -0.0422,-3.59922 2.96093,-0.11447 4.39766,6.26633 5.7644,6.73598 1.47805,5.31788 -0.51731,4.39613 -2.8822,1.98533 -5.02537,3.75799 -4.13854,3.47433 -2.29095,3.11982 -0.0739,7.65776 c 0,0 0.0194,4.06296 0.81292,5.45969 0.7939,1.39674 -3.38666,-1.61151 -3.38666,-1.61151 v 0 l -0.0129,-3.56457 -0.2956,-5.8851 -3.1778,-7.30323 -3.54734,-8.93404 0.73903,-9.21767 6.28171,-4.53793 z"
         id="path863" />
      <path
         style="fill:#f2f2f2;stroke:#000000;stroke-width:0.858;stroke-linecap:butt;stroke-linejoin:miter;stroke-opacity:1;stroke-miterlimit:4;stroke-dasharray:none"
         d="m 124.06434,133.89641 -3.03091,-3.71017 c 0,0 -0.7316,-1.00275 -2.09028,-1.00275 -1.35868,0 -2.82187,-0.20063 -3.97153,-0.20063 -1.14965,0 -1.98576,-0.20064 -2.50833,-0.20064 -0.52257,0 -0.94063,-0.10021 -3.65799,0.30083 -2.71736,0.4011 -6.47986,2.90797 -7.42049,3.2088 -0.94062,0.30082 -3.344444,3.40934 -4.807639,4.51237 -1.463195,1.10302 -6.584377,10.52887 -6.688891,11.03024 -0.104449,0.50138 -0.627083,4.011 -0.418055,5.11403 0.209114,1.10302 3.448959,12.83519 3.448959,12.83519 0,0 7.629516,12.13327 7.838546,12.53437 0.20911,0.4011 4.59861,5.31457 4.59861,5.31457 0,0 11.39202,1.2033 11.91459,0.8022 0.52257,-0.4011 2.82188,-2.0055 3.13542,-2.4066 0.31354,-0.4011 1.14965,-2.60715 1.14965,-3.00825 0,-0.4011 -0.41805,-5.31457 -0.52257,-5.71567 -0.10445,-0.4011 -2.61285,-7.82145 -3.0309,-8.4231 -0.41806,-0.60164 -3.44896,-6.71842 -3.44896,-9.02474 0,-2.30632 0.31354,-7.82145 0.62708,-8.8242 0.31354,-1.00275 7.00244,-5.31457 7.31598,-5.71567 0.31354,-0.4011 2.09028,-1.70467 2.19479,-2.10577 0.10445,-0.4011 -0.62708,-5.31457 -0.62708,-5.31457 z"
         id="path847" />
      <path
         style="fill:#f9f9f9;stroke:#000000;stroke-width:0.858;stroke-linecap:butt;stroke-linejoin:miter;stroke-opacity:1;stroke-miterlimit:4;stroke-dasharray:none"
         d="m 133.67962,128.38129 c 0,0 -4.4941,2.8077 -5.01667,3.81045 -0.52257,1.00275 -0.62709,0.90247 -0.7316,1.80495 -0.10445,0.90247 -0.41806,1.2033 -0.10445,2.0055 0.31354,0.80219 1.67222,3.20879 2.40382,3.81044 0.7316,0.60165 0.7316,0.90248 3.13542,2.90798 2.40382,2.0055 3.97153,4.91347 4.4941,5.81594 0.52257,0.90248 1.56771,4.8132 1.56771,5.41485 0,0.60165 0.20911,2.70742 -1.25417,4.21155 -1.4632,1.50412 -1.88125,1.70467 -4.07604,3.10852 -2.1948,1.40385 -3.34445,2.30633 -4.28507,3.40935 -0.94063,1.10302 -4.38959,2.50687 -4.91216,5.11402 -0.52257,2.60715 -0.7316,3.10853 -0.62708,4.51238 0.10445,1.40384 0.20911,5.71567 0.52257,6.71842 0.31354,1.00275 0.52257,2.70742 1.25416,3.30907 0.7316,0.60165 3.55348,0.90247 4.59862,0.90247 1.04514,0 4.28507,-0.4011 5.22569,-0.70192 0.94063,-0.30082 4.91216,-2.20605 5.43473,-2.60715 0.52257,-0.4011 6.27083,-4.8132 6.27083,-4.8132 0,0 3.03091,-4.01099 3.23993,-5.01374 0.20912,-1.00275 2.92639,-6.91897 3.34445,-8.52337 0.41805,-1.6044 0.7316,-4.4121 0.94062,-5.2143 0.20912,-0.8022 0.31355,-4.61265 0.52257,-6.51787 0.20912,-1.90523 1.04514,-3.81045 0.41806,-7.01925 -0.62708,-3.2088 -1.25417,-4.61265 -1.98577,-7.2198 -0.73159,-2.60714 -0.62708,-3.71017 -1.98576,-5.21429 -1.35868,-1.50413 -2.19479,-2.10578 -4.80764,-3.10853 -2.61285,-1.00275 -2.19479,-1.50412 -3.86702,-1.50412 -1.67222,0 -4.70312,-0.30083 -6.0618,0 -1.35868,0.30082 -3.65799,0.60165 -3.65799,0.60165 z"
         id="path849" />
      <path
         style="fill:none;stroke:#000000;stroke-width:0.858;stroke-linecap:butt;stroke-linejoin:miter;stroke-opacity:1;stroke-miterlimit:4;stroke-dasharray:none"
         d="m 126.49454,144.90866 -2.21708,3.68707 c 0,0 -1.55195,1.06358 -2.21709,1.77263 -0.66511,0.70904 -0.36951,0.92176 -1.18243,1.70172 -0.81291,0.77995 -1.62585,1.41809 -1.47805,2.48167 0.14773,1.06358 0.14773,2.26896 0.59122,2.7653 0.44343,0.49633 0.66512,0.56724 1.25635,0.56724 0.59122,0 2.43877,0 2.88219,-0.28361 0.44341,-0.28363 2.14317,-1.48902 2.14317,-1.48902 0,0 1.18244,0.63814 1.69977,0.92177 0.51732,0.28362 1.47803,0.49634 1.92146,0.49634 0.4434,0 1.18243,1.20538 1.62586,-0.14175 0.4434,-1.34719 0.73902,-1.63082 0.66511,-2.9071 -0.0739,-1.2763 0.14774,-2.97802 -0.51731,-3.75797 -0.66512,-0.77996 -1.77366,-2.05626 -2.5866,-3.11984 -0.81292,-1.06356 -0.51731,-2.69439 -0.96072,-2.8362 -0.44342,-0.14174 -1.62585,0.14175 -1.62585,0.14175 z"
         id="path855" />
      <path
         style="fill:#803300;stroke:#000000;stroke-width:0.858;stroke-linecap:butt;stroke-linejoin:miter;stroke-opacity:1;stroke-miterlimit:4;stroke-dasharray:none"
         d="m 124.27746,148.59573 -0.96074,4.46702 c 0,0 -0.51732,1.2763 -0.36952,1.63081 0.14774,0.35452 1.10854,0.63816 1.55197,0.21272 0.4434,-0.42542 0.73903,-1.06358 0.81291,-1.55992 0.0739,-0.49633 0.22172,-1.84352 0.14774,-2.33986 -0.0739,-0.49633 0.44343,0.70904 -0.36951,-0.85086 -0.81292,-1.55991 -0.81292,-1.55991 -0.81292,-1.55991"
         id="path857" />
      <path
         style="fill:#803300;stroke:#000000;stroke-width:0.858;stroke-linecap:butt;stroke-linejoin:miter;stroke-opacity:1;stroke-miterlimit:4;stroke-dasharray:none"
         d="m 128.26819,150.65198 c 0.44341,0.35452 0.81292,0.77994 1.03463,1.13447 0.22172,0.35453 0.59123,-0.35453 0.81294,1.48902 0.22169,1.84353 0.51732,1.70172 0.0739,1.91442 -0.4434,0.21272 -1.10854,0.14174 -1.55194,-0.14175 -0.44343,-0.28361 -1.25635,-1.98533 -1.25635,-1.98533 z"
         id="path859" />
      <path
         style="fill:#aa4400;stroke:#000000;stroke-width:0.858;stroke-linecap:butt;stroke-linejoin:miter;stroke-opacity:1;stroke-miterlimit:4;stroke-dasharray:none"
         d="m 123.31672,169.15821 0.96074,-7.44504 0.88682,-4.53793 0.29561,-7.09051 c 0,0 1.03465,-5.17607 1.03465,-5.17607 l -0.88683,-9.64309 -0.22171,-3.54525 c 0,0 0,-2.5526 0,-3.97068 0,-1.41811 0.2956,-4.53793 0.2956,-4.53793 0,0 -0.2956,-1.98536 -0.2956,-2.33988 0,-0.35453 -0.51732,-0.56723 -0.51732,-0.56723 0,0 -1.10854,-1.13449 -1.18245,-1.48902 -0.0739,-0.35453 -0.51732,-1.55991 -0.14774,-1.55991 0.36952,0 5.9122,-0.56723 5.9122,-0.56723 0,0 0.96074,-0.42544 1.03465,0.49633 0.0739,0.92176 -1.62586,3.04892 -1.62586,3.04892 0,0 -0.66513,0.92177 -0.81293,2.19805 -0.14774,1.2763 -1.77366,12.55022 -1.77366,12.55022 0,0 1.10854,4.89243 1.10854,5.24696 0,0.35453 -0.22171,7.30323 -0.22171,7.30323 l 0.0739,11.41572 c 0,0 -0.22172,1.84353 -0.44343,2.55258 -0.22171,0.70906 -0.96074,2.48169 -0.96074,2.48169 l -1.62583,6.23963 -0.96074,-1.34719"
         id="path861" />
    </g>
  </g>
</svg>
