<?xml version="1.0" encoding="UTF-8" standalone="no"?>
<svg
   xmlns:dc="http://purl.org/dc/elements/1.1/"
   xmlns:cc="http://creativecommons.org/ns#"
   xmlns:rdf="http://www.w3.org/1999/02/22-rdf-syntax-ns#"
   xmlns:svg="http://www.w3.org/2000/svg"
   xmlns="http://www.w3.org/2000/svg"
   xmlns:sodipodi="http://sodipodi.sourceforge.net/DTD/sodipodi-0.dtd"
   xmlns:inkscape="http://www.inkscape.org/namespaces/inkscape"
   width="210mm"
   height="297mm"
   viewBox="0 0 210 297"
   version="1.1"
   id="svg8"
   inkscape:version="1.0.2 (e86c870879, 2021-01-15, custom)"
   sodipodi:docname="bone.svg">
  <defs
     id="defs2" />
  <sodipodi:namedview
     id="base"
     pagecolor="#ffffff"
     bordercolor="#666666"
     borderopacity="1.0"
     inkscape:pageopacity="0.0"
     inkscape:pageshadow="2"
     inkscape:zoom="0.3144305"
     inkscape:cx="606.96289"
     inkscape:cy="1126.9438"
     inkscape:document-units="mm"
     inkscape:current-layer="layer1"
     inkscape:document-rotation="0"
     showgrid="false"
     inkscape:window-width="1920"
     inkscape:window-height="1017"
     inkscape:window-x="-8"
     inkscape:window-y="-8"
     inkscape:window-maximized="1" />
  <metadata
     id="metadata5">
    <rdf:RDF>
      <cc:Work
         rdf:about="">
        <dc:format>image/svg+xml</dc:format>
        <dc:type
           rdf:resource="http://purl.org/dc/dcmitype/StillImage" />
        <dc:title />
      </cc:Work>
    </rdf:RDF>
  </metadata>
  <g
     inkscape:label="Layer 1"
     inkscape:groupmode="layer"
     id="layer1">
    <g
       id="g918">
      <g
         id="g951"
         transform="matrix(0.94672176,0,0,0.90749562,7.906942,2.3448883)">
        <path
           style="fill:#f2f2f2;stroke:#000000;stroke-width:0.51832px;stroke-linecap:butt;stroke-linejoin:miter;stroke-opacity:1"
           d="M 109.10078,12.589553 94.010128,32.254009 81.71403,42.862466 80.596208,44.156178 c 0,0 0,7.503543 -0.558913,8.797254 -0.558917,1.293717 -3.074025,10.867203 -3.074025,10.867203 l -3.632938,4.916117 2.235652,6.468573 1.956197,2.069945 4.750766,-1.034982 10.898808,-4.398627 14.531765,0.517491 c 0,0 1.95618,-0.517491 4.47129,-2.587436 2.51512,-2.069946 6.98642,-5.43359 6.98642,-5.43359 0,0 0,-1.293719 0.83836,-5.692352 0.83837,-4.398625 1.11784,-2.846168 1.39729,-9.573482 0.27945,-6.727315 -0.27945,-13.713373 -0.27945,-15.265825 0,-1.552458 1.95619,-9.056004 3.35348,-11.125947 1.39728,-2.069942 6.42749,-10.090967 6.42749,-10.090967"
           id="path847" />
        <path
           style="fill:#f2f2f2;stroke:#000000;stroke-width:0.51832px;stroke-linecap:butt;stroke-linejoin:miter;stroke-opacity:1"
           d="m 147.38635,12.848295 -10.89882,25.615541 -5.58913,6.209831 -4.75075,4.398625 c 0,0 0.27947,2.846172 -1.11782,5.174857 -1.39729,2.328683 -2.86443,6.274513 -2.86443,6.274513 0,0 1.18769,2.716807 1.67674,3.234298 0.48904,0.517471 3.56307,4.139871 3.56307,4.139871 0,0 3.00415,0.97029 3.49319,0.258737 0.48906,-0.711533 5.03024,-2.587417 5.37954,-3.104909 0.34932,-0.517491 0.83838,-0.970289 0.97811,-2.328681 0.13966,-1.3584 0.83837,-6.856685 0.90824,-7.891657 0.0698,-1.034969 0.3493,-3.557714 0.9781,-4.657369 0.62877,-1.09966 16.41806,-31.178512 16.41806,-31.178512 l 6.07819,-5.562974"
           id="path849" />
        <path
           style="fill:#f2f2f2;stroke:#000000;stroke-width:0.51832px;stroke-linecap:butt;stroke-linejoin:miter;stroke-opacity:1"
           d="m 77.522177,77.27527 -9.986551,5.750046 -0.790426,2.469944 3.655707,0.823314 c 0,0 0.889224,0.457398 0.691619,1.921068 -0.197607,1.46367 -0.395212,3.567701 -0.296409,4.665448 0.0988,1.097758 0.197605,3.567699 0.494014,4.299537 0.296413,0.731828 1.482043,3.110293 1.482043,3.110293 l 2.568874,1.09775 0.790425,-0.0915 6.026976,-9.696822 -2.96409,-2.012546 c 0,0 -2.272465,-2.378465 -2.766477,-2.835862 -0.494012,-0.457396 -0.592815,-2.744382 0.0988,-3.750656 0.691619,-1.006274 2.07486,-3.613428 2.07486,-3.613428 l 2.223065,-1.326459 6.817395,-1.097754 1.778451,-0.04581 c 0,0 0.691619,0.228688 0.88923,0.594607 0.197606,0.365916 1.976057,3.156048 2.47007,3.887883 0.494014,0.731835 2.124261,4.025094 2.223064,4.208052 0.0988,0.183036 0.592814,2.561424 0.642226,3.064552 0.04948,0.503146 0.197688,3.659178 0.148215,4.619723 -0.04948,0.960523 -2.124262,3.933619 -2.124262,3.933619 0,0 -5.038943,-2.652907 -5.434153,-3.064567 -0.395216,-0.411649 -2.96409,-1.372195 -3.408701,-1.55516 -0.444612,-0.183034 -2.025458,-0.457391 -2.074859,-0.640356 -0.0494,-0.183034 -0.691618,-0.274437 -0.691618,-0.274437"
           id="path851" />
        <path
           style="fill:#f2f2f2;stroke:#000000;stroke-width:0.51832px;stroke-linecap:butt;stroke-linejoin:miter;stroke-opacity:1"
           d="m 93.870397,77.792743 4.960364,-1.875884 c 0,0 3.772669,-0.711534 4.611029,-0.711534 0.83838,0 2.72471,0 3.07403,0.388104 0.3493,0.388123 1.11782,1.681841 1.95619,2.199314 0.83837,0.517491 2.58497,2.264006 2.9343,2.393375 0.34932,0.129312 1.81646,0 1.81646,0 0,0 0.69865,-0.194062 0.69865,0.06465 0,0.258737 -0.69865,3.687075 -0.69865,5.304223 0,1.617148 1.04797,17.335769 1.04797,17.335769 l 2.23566,5.4336 -0.55892,2.39338 c 0,0 -5.65901,1.22902 -6.49738,1.3584 -0.83836,0.12931 -7.19599,0.19404 -7.96451,-0.19406 -0.76849,-0.38813 -4.750761,-1.61715 -5.100083,-1.87588 -0.349322,-0.25876 -3.493207,-0.97028 -5.100085,-1.48778 -1.606874,-0.51748 -3.42334,-1.81118 -3.42334,-1.81118 0,0 1.956197,-4.52803 2.095922,-4.91614 0.139724,-0.38812 3.71099,-4.540789 3.71099,-4.540789 0,0 2.437063,-3.480229 2.367191,-3.803654 -0.06983,-0.323436 -0.489047,-6.792009 -0.489047,-6.792009 L 91.634745,79.53922 Z"
           id="path853" />
        <path
           style="fill:#f2f2f2;stroke:#000000;stroke-width:0.51832px;stroke-linecap:butt;stroke-linejoin:miter;stroke-opacity:1"
           d="m 114.66458,79.823536 c 0,-0.183034 2.22306,-3.384737 2.42066,-3.476217 0.19769,-0.09143 2.32188,-0.548877 2.5689,-0.183035 0.247,0.365918 0.64221,0.869064 0.93861,1.555151 0.29641,0.686086 1.97606,3.247528 2.56888,3.750656 0.59282,0.503146 4.89075,5.214326 4.98956,5.397284 0.0987,0.183035 8.20063,9.37665 8.20063,9.37665 l 0.74102,1.463654 c 0,0 -1.67965,5.946181 -1.77845,6.266351 -0.0987,0.32019 -4.05093,5.0771 -4.24853,5.12285 -0.19768,0.0459 -10.86831,0.8233 -10.86831,0.8233 l -3.85331,-0.54887 0.16226,-1.04703 -2.23566,-5.43358 -1.13759,-18.356041 z"
           id="path855" />
        <path
           style="fill:#f2f2f2;stroke:#000000;stroke-width:0.51832px;stroke-linecap:butt;stroke-linejoin:miter;stroke-opacity:1"
           d="m 112.29332,71.087262 c 0,0 3.80392,0.365918 4.29793,-0.04581 0.49399,-0.411647 2.27245,-1.372191 2.27245,-1.372191 0,0 -0.0988,-0.548876 1.03744,0.411667 1.13622,0.960524 4.34733,5.214326 4.34733,5.214326 l -1.33384,5.717453"
           id="path857" />
        <path
           style="fill:#f2f2f2;stroke:#000000;stroke-width:0.51832px;stroke-linecap:butt;stroke-linejoin:miter;stroke-opacity:1"
           d="m 28.02342,126.14531 -0.209595,6.20984 c 0,0 9.012479,1.71417 9.152206,1.74652 0.139725,0.0322 5.449408,-0.64686 5.484341,-0.77624 0.0349,-0.12931 0.419182,-1.132 0.419182,-1.132"
           id="path861" />
        <path
           style="fill:#f2f2f2;stroke:#000000;stroke-width:0.51832px;stroke-linecap:butt;stroke-linejoin:miter;stroke-opacity:1"
           d="m 22.748675,163.82474 -0.279456,1.74652 1.921263,1.77885 2.550041,-0.29109 c 0,0 1.886331,-0.58216 2.026062,-0.74388 0.139725,-0.16173 0.978099,-0.87325 0.978099,-0.87325 l 0.209592,-1.52012"
           id="path865" />
        <path
           style="fill:#f2f2f2;stroke:#000000;stroke-width:0.51832px;stroke-linecap:butt;stroke-linejoin:miter;stroke-opacity:1"
           d="m 22.469219,165.57126 -3.598006,0.97029 c 0,0 -0.733574,-0.22641 -0.698642,0.90559 0.0349,1.13201 0.06987,1.84353 0.244524,2.32868 0.174661,0.48515 1.047963,2.39338 1.117828,2.81384 0.06985,0.42046 0.419182,2.23164 0.244524,2.58743 -0.174662,0.35577 -1.152761,4.07519 -1.152761,4.07519 l -0.593845,3.396 -0.244524,1.09965 -3.00416,0.25876 1.257555,10.67314 c 0,0 2.515114,-0.12931 2.584974,-0.38814 0.06987,-0.25872 2.79457,-4.0105 2.79457,-4.0105 l 2.02606,-1.81118 c 0,0 0.209592,-1.8759 0.139725,-2.45807 -0.06987,-0.58217 -0.279455,-0.45279 -0.279455,-1.48776 0,-1.03499 0.628777,-5.62767 0.628777,-5.62767 l 5.239814,-6.27451 1.53701,-0.71154 c 0,0 -0.06986,-1.74652 -0.209592,-2.06994 -0.139724,-0.32344 -1.257553,-1.55245 -1.397283,-1.87588 -0.139725,-0.32343 -2.165789,-0.90562 -2.165789,-0.90562"
           id="path867" />
        <path
           style="fill:#f2f2f2;stroke:#000000;stroke-width:0.51832px;stroke-linecap:butt;stroke-linejoin:miter;stroke-opacity:1"
           d="m 63.534109,170.34242 c 0,0 -0.247005,1.05201 -0.247005,1.32643 0,0.27444 0.296406,1.28072 0.444611,1.46369 0.148194,0.18303 2.86528,1.78385 2.964083,1.9668 0.0988,0.18304 3.359299,1.69236 3.655708,1.78384 0.296407,0.0915 3.952114,0.64036 3.952114,0.64036 0,0 2.964084,-0.27444 3.408701,-0.41165 0.444611,-0.13722 2.42067,-0.77757 2.42067,-0.77757"
           id="path871" />
        <path
           style="fill:#f2f2f2;stroke:#000000;stroke-width:0.51832px;stroke-linecap:butt;stroke-linejoin:miter;stroke-opacity:1"
           d="m 63.879919,180.81681 -2.173663,1.1435 2.717076,8.73627 1.28444,11.34345 -0.741024,7.31835 -3.359294,6.58652 -0.889228,1.23498 2.964087,1.69235 c 0,0 2.766478,-0.32016 3.062887,-0.77756 0.296408,-0.4574 1.185636,-2.0583 1.185636,-2.0583 0,0 0.296409,-0.36592 0.444613,-0.18303 0.148194,0.18303 4.297922,2.79013 4.643732,2.79013 0.34581,0 2.223064,0.13724 2.61828,-0.50314 0.395209,-0.64036 0.988026,-0.9148 0.938625,-1.5094 -0.0494,-0.59462 -3.408701,-5.62601 -3.507504,-5.85468 -0.0988,-0.22871 0.0494,-14.86542 0.0494,-14.86542 0,0 3.161697,-3.43047 3.507504,-3.88786 0.34581,-0.45741 2.519473,-3.93362 2.519473,-3.93362 l 1.086834,-4.7112 -2.025459,-1.5094 -0.0988,-0.32019"
           id="path875" />
        <path
           style="fill:#f2f2f2;stroke:#000000;stroke-width:0.51832px;stroke-linecap:butt;stroke-linejoin:miter;stroke-opacity:1"
           d="m 63.682309,218.87223 -0.444607,2.0583 3.260491,0.41166 5.03895,0.2287 c 0,0 2.766477,-0.0915 2.766477,-0.27444 0,-0.18302 0.247008,-1.64662 0.247008,-1.64662 l -0.0988,-0.82333"
           id="path877" />
        <path
           style="fill:#f2f2f2;stroke:#000000;stroke-width:0.51832px;stroke-linecap:butt;stroke-linejoin:miter;stroke-opacity:1"
           d="m 63.237702,220.93053 c 0,0 -1.580847,1.18924 -1.531446,1.37219 0.04939,0.18303 0.543414,1.50941 0.543414,2.01255 0,0.50314 0.296408,2.56143 0.494014,3.33899 0.197606,0.77758 0.247007,2.97308 0.296407,3.339 0.04939,0.36592 0.148214,4.34527 0.148214,4.52822 0,0.18304 -0.494019,9.6511 -0.494019,9.6511 0,0 3.803911,0.22868 4.001516,0.22868 0.197606,0 1.976057,0.2287 2.470072,0.2287 0.494018,0 1.72905,0.0459 2.371273,0.32017 0.642216,0.27445 1.086829,0.59463 1.383235,0.18304 0.296409,-0.41164 1.28444,-4.98561 1.28444,-4.98561 0,0 -4.54493,-2.37847 -4.791937,-3.06457 -0.247011,-0.68609 -0.642223,-4.20805 -0.642223,-4.89414 0,-0.68611 0.148195,-2.51569 0.296409,-3.20178 0.148194,-0.68611 0,-0.96055 0.790425,-1.69238 0.790421,-0.73183 1.383238,-1.41792 2.76648,-2.1955 1.383239,-0.77757 2.124259,-1.09776 2.17366,-1.32645 0.0494,-0.22871 -0.988024,-2.28699 -0.988024,-2.28699 l -0.592821,-0.82331"
           id="path879" />
        <path
           style="fill:#f2f2f2;stroke:#000000;stroke-width:0.51832px;stroke-linecap:butt;stroke-linejoin:miter;stroke-opacity:1"
           d="m 72.031155,227.28835 -1.185637,3.70491 c 0,0 0.494012,1.64664 0.543414,2.10403 0.0494,0.4574 0.148215,1.50941 0.148215,2.46995 0,0.96052 0.0988,2.24123 0.0988,2.42418 0,0.18304 -0.592821,1.41796 -0.592821,1.41796"
           id="path881" />
        <path
           style="fill:#f2f2f2;stroke:#000000;stroke-width:0.51832px;stroke-linecap:butt;stroke-linejoin:miter;stroke-opacity:1"
           d="m 62.694282,245.17258 c 0,0 0.197607,3.93361 0.247008,4.11657 0.0494,0.18303 1.037432,1.28072 1.235038,1.69236 0.197605,0.41166 0.592815,1.18923 0.642216,1.73811 0.0494,0.54887 0.148194,1.69238 0.148194,2.37847 0,0.68609 0,1.37218 0,1.69237 0,0.32017 -0.148194,1.46368 0.0988,1.73811 0.247011,0.27443 0.839827,0.91479 1.432641,0.54887 0.592817,-0.36592 0.88923,-0.0459 1.037434,-0.54887 0.148195,-0.50314 0.444611,-0.22871 0.197606,-1.46368 -0.247005,-1.23498 -0.691622,-1.9668 -0.543419,-3.1103 0.148214,-1.14349 0.0988,-1.82958 0.691623,-2.56142 0.592816,-0.73182 1.48204,-1.50941 1.877257,-1.78385 0.395209,-0.27444 1.383236,-0.64036 1.383236,-1.05201 0,-0.41166 0,-1.05201 0,-1.46366 0,-0.41168 -0.34581,-1.41795 -0.34581,-1.41795"
           id="path883" />
        <path
           style="fill:#f2f2f2;stroke:#000000;stroke-width:0.51832px;stroke-linecap:butt;stroke-linejoin:miter;stroke-opacity:1"
           d="m 63.682313,256.56175 c -0.444611,0.32019 -1.432643,1.69239 -1.482043,2.1955 -0.0494,0.50316 0.494012,1.96683 0.642217,2.5157 0.148194,0.54888 0.345814,0.91479 0.345814,1.28071 0,0.36592 0.345808,1.69236 0.345808,1.92107 0,0.22869 -0.345808,0.0915 0.148194,1.3722 0.494015,1.2807 1.235033,2.51566 2.124261,1.82958 0.889224,-0.6861 1.432638,-1.55515 1.482039,-1.96681 0.0494,-0.41165 0.444617,-0.96053 0.790427,-1.55516 0.34581,-0.59461 0.741019,-1.64662 1.432644,-1.9668 0.691618,-0.32018 2.07486,-0.13722 2.124261,-0.77758 0.0494,-0.64036 0.444611,-1.052 -0.0988,-1.64663 -0.54342,-0.5946 -0.197606,-0.86904 -1.136235,-1.05201 -0.938625,-0.18303 -2.42067,-0.45738 -2.42067,-0.45738"
           id="path885" />
        <path
           style="fill:#f2f2f2;stroke:#000000;stroke-width:0.51832px;stroke-linecap:butt;stroke-linejoin:miter;stroke-opacity:1"
           d="m 104.43847,174.0016 c 0,0 1.77848,4.48249 1.87729,4.71118 0.0987,0.2287 2.37124,2.79013 2.76647,3.11029 0.39522,0.32019 3.35931,1.18924 4.10032,1.23498 0.74102,0.0459 2.86527,0 3.7545,-0.59463 0.88922,-0.59459 2.02545,-0.77755 2.66768,-1.87531 0.64223,-1.09774 1.53143,-3.75065 1.53143,-3.75065 l 0.49403,-4.98564 -0.0495,-1.23497"
           id="path889" />
        <path
           style="fill:#f2f2f2;stroke:#000000;stroke-width:0.51832px;stroke-linecap:butt;stroke-linejoin:miter;stroke-opacity:1"
           d="m 111.4535,226.55651 -0.74103,5.39728 c 0,0 3.70512,3.93361 3.85331,4.11657 0.14822,0.18304 1.63026,2.28698 1.67965,3.33902 0.0495,1.052 0.74101,3.61342 0.83981,4.98561 0.0987,1.37219 0.0987,3.33902 -0.0495,3.93361 -0.14821,0.59463 -1.33383,3.56771 -2.07486,4.93989 -0.741,1.37219 -0.93862,3.47623 -0.83982,3.70493 0.0987,0.22869 0.247,1.60088 1.58085,1.32644 1.33383,-0.27443 2.17367,-0.73183 2.47007,-1.14348 0.29641,-0.41166 2.12426,-2.46994 2.12426,-2.46994 0,0 0.39521,-0.0915 0.83983,0.5946 0.44461,0.6861 1.58085,2.10403 1.72905,2.42421 0.1482,0.32018 1.38323,1.09775 2.17365,0.77756 0.79042,-0.32015 1.23505,-2.01254 1.38325,-2.28698 0.1482,-0.27444 0.64223,-0.96052 0.19768,-1.46366 -0.4446,-0.50314 -1.28444,-0.73184 -1.92665,-1.73812 -0.64223,-1.00626 -2.32188,-4.93989 -2.32188,-5.85467 0,-0.9148 2.32188,-11.25198 2.32188,-11.25198 l 2.47008,-2.51567 -1.77845,-6.76947"
           id="path895" />
        <path
           style="fill:#f2f2f2;stroke:#000000;stroke-width:0.51832px;stroke-linecap:butt;stroke-linejoin:miter;stroke-opacity:1"
           d="m 115.30681,258.84874 c 0,0 -0.93864,2.92734 -0.83983,3.339 0.0987,0.41165 1.58084,1.60089 1.82786,2.10403 0.247,0.50313 0.93862,1.09775 1.08684,1.92107 0.14821,0.82331 0.39521,2.19551 0.39521,2.19551 0,0 0.64221,0.73183 0.247,1.55515 -0.39522,0.82331 -1.58085,2.60715 -1.63025,2.92734 -0.0495,0.32017 0.0495,2.46994 0.14822,2.92735 0.0988,0.45738 0.79042,2.74437 1.03744,3.56768 0.24699,0.82332 1.23502,2.19551 1.43263,2.37847 0.19769,0.18304 2.56888,0.64035 2.56888,0.64035 0,0 1.97605,-2.69864 2.27246,-3.06456 0.29641,-0.36592 1.87726,-4.71119 1.82786,-5.0771 -0.0495,-0.36592 -0.64223,-3.01883 -1.13624,-3.56769 -0.49402,-0.54889 -0.83981,-0.64036 -1.03742,-2.60718 -0.19769,-1.9668 -0.29643,-2.60715 -0.29643,-3.1103 0,-0.50313 -0.4446,-0.86905 0.0495,-1.32645 0.49402,-0.45739 2.71707,-1.69238 2.76649,-1.96681 0.0495,-0.27444 0.19768,-1.64663 0.0987,-2.05828 -0.0987,-0.41166 -0.93864,-1.18924 -0.93864,-1.18924"
           id="path897" />
        <path
           style="fill:#f2f2f2;stroke:#000000;stroke-width:0.51832px;stroke-linecap:butt;stroke-linejoin:miter;stroke-opacity:1"
           d="m 133.78295,164.99086 4.69313,1.87533 c 0,0 4.49553,0.32017 4.89074,-0.0459 0.39521,-0.36592 3.5075,-3.65919 3.5075,-3.65919 0,0 0.69161,-2.60715 0.83983,-2.97306 0.14822,-0.36592 0.0493,-2.24126 0.0493,-2.24126"
           id="path901" />
        <path
           style="fill:#f2f2f2;stroke:#000000;stroke-width:0.51832px;stroke-linecap:butt;stroke-linejoin:miter;stroke-opacity:1"
           d="m 158.43433,237.89995 0.29632,1.23499 -0.98802,1.50939 c 0,0 0.29641,0.73184 0.69162,1.00628 0.39521,0.27444 1.08683,1.00628 1.53146,1.64663 0.4446,0.64036 1.58084,2.10402 1.63023,2.37846 0.0495,0.27443 0.39522,1.92107 0.39522,1.92107 l -1.77846,1.73811 c 0,0 -0.64221,0.9148 -0.3458,1.28071 0.29641,0.36592 2.56887,4.4825 2.56887,4.4825 l 2.66768,1.55514 1.63024,0.27444 c 0,0 2.32188,-7.59279 2.32188,-7.77575 0,-0.18303 0,-0.50313 -0.69162,-1.23496 -0.69162,-0.73184 -1.38324,-1.64664 -1.72907,-2.74438 -0.34579,-1.09776 -0.88922,-1.05203 -0.54339,-2.56142 0.34579,-1.50943 0.54339,-2.1955 0.69159,-2.37847 0.14822,-0.18304 0.74103,-0.6861 0.64223,-0.86907 -0.0987,-0.18304 -0.79043,-0.27443 -0.93862,-0.73184 -0.14821,-0.45739 0.099,-1.96674 0.099,-1.96674"
           id="path909" />
        <path
           style="fill:#f2f2f2;stroke:#000000;stroke-width:0.51832px;stroke-linecap:butt;stroke-linejoin:miter;stroke-opacity:1"
           d="m 155.70018,145.454 c 0,0 0.90623,1.78986 1.25202,2.24725 0.34583,0.45741 1.03744,1.41794 1.53144,1.64663 0.49403,0.2287 0.93864,0.4574 1.72906,0.41167 0.79043,-0.0459 3.0135,-0.64036 3.3593,-0.96054 0.34582,-0.32016 1.67965,-1.37219 1.72906,-1.64663 0.0495,-0.27444 0.19768,-2.46994 0.14822,-2.69864 -0.0495,-0.22871 -0.247,-1.37218 -0.29641,-1.55514 -0.0495,-0.18304 -0.99909,-0.80826 -0.99909,-0.80826"
           id="path913" />
        <path
           style="fill:#f2f2f2;stroke:#000000;stroke-width:0.51832px;stroke-linecap:butt;stroke-linejoin:miter;stroke-opacity:1"
           d="m 173.8475,176.10562 c 0,0 2.61828,1.37219 2.81588,1.37219 0.1977,0 4.34733,-1.46367 4.34733,-1.46367 0,0 0.0988,-1.82958 0.19769,-2.1955 0.0987,-0.36591 -0.39521,-2.24118 -0.39521,-2.24118"
           id="path917" />
        <path
           style="fill:#f2f2f2;stroke:#000000;stroke-width:0.51832px;stroke-linecap:butt;stroke-linejoin:miter;stroke-opacity:1"
           d="m 177.20679,177.84373 c -0.0987,0.22869 -0.4446,1.18924 -0.19768,1.46367 0.247,0.27443 3.06289,1.14349 3.50751,1.64663 0.4446,0.50314 1.48204,5.90042 1.48204,5.90042 0,0 0.5434,2.88159 0.5434,3.20177 0,0.32018 -0.14821,1.23499 -0.14821,1.23499 0,0 1.28444,0.0459 2.12426,0.0459 0.83983,0 2.81588,-0.13723 3.4087,-0.6861 0.59282,-0.54889 1.28444,-1.78384 1.33383,-2.24125 0.0495,-0.45739 0.39521,-1.73811 -0.14822,-2.24124 -0.54342,-0.50314 -1.97605,-0.73184 -2.32187,-1.32645 -0.34581,-0.59463 -2.61827,-4.11658 -2.61827,-4.66545 0,-0.54888 -0.34582,-1.92107 -0.34582,-2.37846 0,-0.45741 0.39521,-2.37847 0.39521,-2.56143 0,-0.18302 -0.39521,-0.68611 -0.88922,-0.73184 -0.49401,-0.0459 -1.92667,-0.68611 -1.92667,-0.68611"
           id="path919" />
        <path
           style="fill:#f2f2f2;stroke:#000000;stroke-width:0.51832px;stroke-linecap:butt;stroke-linejoin:miter;stroke-opacity:1"
           d="m 184.0736,191.88582 c 0,0 -0.83983,2.05829 -0.69163,2.24125 0.1482,0.18303 1.18564,0.77755 1.72905,0.96052 0.54343,0.18304 1.53146,0.36592 2.12427,0.18304 0.59282,-0.18304 1.97606,-0.41165 2.02545,-0.9148 0.0495,-0.50313 0.0987,-3.01883 0.0987,-3.01883 l -0.93862,-1.00626"
           id="path921" />
        <path
           style="fill:#f2f2f2;stroke:#000000;stroke-width:0.51832px;stroke-linecap:butt;stroke-linejoin:miter;stroke-opacity:1"
           d="m 187.33409,195.59073 c 0,0 1.18564,2.37847 1.28444,2.65291 0.0987,0.27444 0.64221,2.28699 0.64221,2.28699 0,0 1.53145,-0.73183 1.48205,-1.18924 -0.0495,-0.45739 -0.29641,-1.78386 -0.44461,-2.28697 -0.14822,-0.50316 -0.88923,-2.33275 -0.88923,-2.33275 l -0.19768,-0.32016 -1.72906,0.91479"
           id="path923" />
        <path
           style="fill:#f2f2f2;stroke:#000000;stroke-width:0.51832px;stroke-linecap:butt;stroke-linejoin:miter;stroke-opacity:1"
           d="m 189.26074,200.53063 c 0,0 -0.59282,1.00626 -0.79042,1.92106 -0.19769,0.9148 0.39521,2.69863 0.74103,3.52195 0.3458,0.82332 0.83981,1.69237 0.83981,1.69237 0,0 0.64223,0.68609 0.83983,0.4574 0.1977,-0.2287 1.82785,-1.92106 1.82785,-2.6529 0,-0.73183 -0.3458,-3.84213 -0.3458,-4.20805 0,-0.36591 -0.64223,-1.78385 -0.64223,-1.78385 l -1.23502,-0.18304"
           id="path925" />
        <path
           style="fill:#f2f2f2;stroke:#000000;stroke-width:0.51832px;stroke-linecap:butt;stroke-linejoin:miter;stroke-opacity:1"
           d="m 94.014788,114.95163 -0.395211,8.41611 7.706623,6.86095 4.05092,17.47256 -2.66768,19.30216 -1.48204,5.12285 c 0,0 6.12578,3.29326 6.52098,3.84214 0.39521,0.54887 2.96409,0.91478 4.14973,1.00627 1.18562,0.0915 5.82936,-1.00627 6.12578,-1.46368 0.2964,-0.45739 4.24851,-5.7632 4.24851,-5.7632 v -1.28071 c 0,0 -3.26049,-5.58024 -4.05091,-7.68427 -0.79043,-2.10402 -4.14972,-10.06273 -4.34733,-11.70937 -0.19768,-1.64662 -0.88923,-15.46 -0.59281,-16.19184 0.29641,-0.73184 1.38323,-5.58025 1.38323,-5.94616 0,-0.36592 2.17367,-3.38475 1.77846,-4.29954 -0.39522,-0.91479 -2.37127,-4.11658 -2.47008,-4.84841 -0.0987,-0.73184 -1.08683,-2.28698 -1.48204,-2.37846 -0.39521,-0.0915 -3.95211,-0.64035 -5.13774,-0.82332 -1.18564,-0.18304 -8.793461,-1.28072 -8.793461,-1.28072 z"
           id="path887" />
        <path
           style="fill:#f2f2f2;stroke:#000000;stroke-width:0.51832px;stroke-linecap:butt;stroke-linejoin:miter;stroke-opacity:1"
           d="m 104.14209,185.11633 c 0.69162,0.27444 4.29791,6.12913 4.54491,6.678 0.24702,0.54887 3.40871,8.27889 3.45812,8.7363 0.0495,0.45739 0.88923,2.69862 0.88923,2.69862 l 0.49401,10.42866 c 0,0 -1.92666,4.2538 -2.32188,4.52823 -0.39521,0.27444 -1.28444,0.82333 -1.38324,1.50942 -0.0987,0.68609 -0.79042,1.87533 -0.29641,2.88161 0.49402,1.00626 1.92667,3.97934 1.92667,3.97934 l 4.59432,-1.5094 3.55691,-1.96683 c 0,0 1.23504,1.00628 1.48205,1.32647 0.24701,0.32017 0.34581,0.77757 1.18562,1.28071 0.83982,0.50312 1.82787,0.9148 2.51948,0.96053 0.69163,0.0459 2.37126,-0.45741 2.56886,-0.82332 0.19769,-0.36592 1.13624,-1.92106 1.18566,-2.10403 0.0495,-0.18303 0.69159,-1.14347 0.34579,-2.14975 -0.34579,-1.00628 -1.43265,-3.29326 -1.77845,-3.65918 -0.34579,-0.36592 -1.38324,1.32644 -3.7545,-0.86906 -2.37128,-2.1955 -3.7051,-7.40983 -3.75451,-7.63852 -0.0495,-0.22871 0.69162,-14.68246 0.69162,-14.68246 l 2.91467,-7.54703 1.23505,-4.25381"
           id="path893" />
        <path
           style="fill:#f2f2f2;stroke:#000000;stroke-width:0.51832px;stroke-linecap:butt;stroke-linejoin:miter;stroke-opacity:1"
           d="m 107.25437,180.45089 -3.21108,3.75066 c 0,0 1.18563,0.32019 1.92664,0.64034 0.74102,0.32019 2.86529,1.73812 3.75451,2.19551 0.88923,0.4574 3.26049,1.18923 4.29794,1.28071 1.03742,0.0915 3.40868,0.0459 4.29791,-0.45739 0.88922,-0.50313 2.27246,-1.5094 3.0135,-2.10403 0.74101,-0.59461 2.81586,-2.69864 2.96408,-2.88159 0.14822,-0.18303 -0.14822,-0.96055 -0.49401,-1.23498 -0.34582,-0.27444 -2.47007,-1.60088 -2.47007,-1.60088 l -0.69162,-0.7776"
           id="path891" />
        <path
           style="fill:#f2f2f2;stroke:#000000;stroke-width:0.51832px;stroke-linecap:butt;stroke-linejoin:miter;stroke-opacity:1"
           d="m 63.830518,173.72716 -0.543414,4.20804 c 0,0 0.444611,1.9668 0.642216,2.28699 0.197607,0.32017 2.667675,1.69236 3.359294,1.9668 0.691623,0.27443 3.4087,0.73184 4.495535,0.59462 1.086828,-0.13722 4.594331,-0.41166 5.384752,-0.8233 0.790427,-0.41167 2.272466,-1.55515 2.470071,-2.05831 0.197606,-0.50311 0.395216,-1.09774 0.395216,-1.41791 0,-0.32019 0.0988,-2.14977 0.0988,-2.14977 v 0 0"
           id="path873" />
        <path
           style="fill:#f2f2f2;stroke:#000000;stroke-width:0.51832px;stroke-linecap:butt;stroke-linejoin:miter;stroke-opacity:1"
           d="m 76.131469,101.32126 -0.691618,6.95237 5.631763,5.7632 10.077893,-2.37846 -0.197605,9.60533 -9.188666,13.26452 c 0,0 -2.272466,5.39729 -1.580845,7.13539 0.691619,1.73812 -0.197607,8.05019 -0.296409,8.5076 -0.0988,0.45739 5.434157,20.67434 5.434157,20.67434 0,0 -0.69162,2.92735 -1.383241,3.1103 -0.691619,0.18303 -6.520988,2.01255 -6.9162,2.10403 -0.395211,0.0915 -2.766479,0.54888 -4.446128,-0.18304 -1.679648,-0.73183 -5.928171,-2.37847 -6.619791,-2.92734 -0.69162,-0.54888 -3.952114,-4.66546 -3.952114,-4.66546 0,0 3.359296,-9.69681 3.655705,-10.33717 0.296409,-0.64034 3.556903,-9.51385 3.556903,-9.97125 0,-0.45741 1.976057,-9.60534 1.976057,-9.60534 0,0 1.580846,-10.06273 1.580846,-10.79457 0,-0.73183 -1.976057,-9.3309 -1.976057,-9.3309 l -4.14972,-5.48877 5.928171,-5.94616 3.359298,1.92108 5.038945,5.21433 10.176692,-2.28699"
           id="path869" />
        <path
           style="fill:#f2f2f2;stroke:#000000;stroke-width:0.51832px;stroke-linecap:butt;stroke-linejoin:miter;stroke-opacity:1"
           d="m 136.35182,166.50029 c 0,0 1.92664,2.6529 2.42066,2.92733 0.49402,0.27444 2.71709,1.05201 3.21108,0.96053 0.49404,-0.0915 3.95212,-1.00628 4.24855,-1.37218 0.2964,-0.36592 1.18563,-2.01256 1.18563,-2.24126 0,-0.2287 -0.54342,-3.61352 -0.54342,-3.61352"
           id="path903" />
        <path
           style="fill:#f2f2f2;stroke:#000000;stroke-width:0.51832px;stroke-linecap:butt;stroke-linejoin:miter;stroke-opacity:1"
           d="m 114.46698,116.59826 6.6198,-3.65918 c 0,0 1.77845,-0.82331 3.16169,-0.82331 1.38323,0 6.32338,0.4574 6.71859,0.64036 0.39521,0.18303 1.97605,0.27444 2.07485,0.64035 0.0987,0.36592 0.29641,1.55515 -0.19768,2.19551 -0.49401,0.64035 -2.27247,3.47621 -2.07486,4.66544 0.19769,1.18924 1.87726,7.22688 1.87726,7.22688 l 4.94014,16.64925 c 0,0 4.74253,8.69054 5.13774,9.05646 0.39521,0.36592 3.3593,3.20177 4.14973,3.56769 0.79041,0.36593 0.88922,1.18924 0.88922,1.18924 l -5.33535,5.30581 c 0,0 -3.65571,1.37218 -5.03895,1.37218 -1.38324,0 -6.12578,0.18304 -6.12578,0.18304 0,0 -0.59282,-9.14794 -0.59282,-10.15421 0,-1.00628 -3.85331,-15.00262 -3.85331,-15.5515 0,-0.54888 -4.54493,-7.22687 -4.84133,-8.05019 -0.29641,-0.82332 -4.54494,-5.03137 -4.54494,-5.03137 l -1.48204,-2.01254 c 0,0 0.29641,-0.9148 0.29641,-1.28072 0,-0.36592 -1.77845,-6.12912 -1.77845,-6.12912 z"
           id="path899" />
        <path
           style="fill:#f2f2f2;stroke:#000000;stroke-width:0.51832px;stroke-linecap:butt;stroke-linejoin:miter;stroke-opacity:1"
           d="m 136.83686,100.10931 c 0,0 2.09593,-1.164339 2.51511,-0.970273 0.41919,0.194043 1.9562,0.646861 2.30553,1.099653 0.34931,0.4528 1.11781,1.55245 1.67673,2.78148 0.55892,1.22902 3.4932,9.50882 3.70279,10.09098 0.20961,0.58216 0.48906,3.42834 1.32744,4.46332 0.83837,1.03496 3.7028,4.0752 3.7028,4.0752 l 10.3399,12.54901 4.33155,4.1399 -2.58495,3.75176 -5.4494,2.84617 -3.00418,0.51749 -0.97809,-7.56822 -3.63294,-9.70286 -5.30967,-7.82697 -8.10425,-6.8567 -4.40144,-1.35839 c 0,0 0.69864,-2.06995 1.11784,-2.71681 0.41917,-0.64684 1.39726,-1.87588 1.60686,-2.13462 0.2096,-0.25873 3.28362,-2.06994 3.28362,-2.06994 l 4.54117,-1.03497"
           id="path911" />
        <path
           style="fill:#f2f2f2;stroke:#000000;stroke-width:0.51832px;stroke-linecap:butt;stroke-linejoin:miter;stroke-opacity:1"
           d="m 159.22468,150.12547 c -0.0495,0.32017 -0.39522,1.5094 -0.39522,1.9668 0,0.45739 0.19769,1.09775 0.59282,1.50942 0.39521,0.41165 3.26049,2.33272 3.50751,2.60716 0.24699,0.27443 1.82784,1.00627 2.47007,1.50941 0.64221,0.50313 1.72904,1.14349 1.92665,1.46365 0.19768,0.32018 0.49401,1.32646 0.74103,1.55517 0.247,0.2287 3.40869,11.8923 3.40869,11.8923 0,0 1.08683,3.01885 1.08683,3.2018 0,0.18303 1.72906,0.18303 2.76648,0.0459 1.03744,-0.13723 3.06289,-1.05203 3.26049,-1.28071 0.19769,-0.22871 2.22308,-3.01883 2.22308,-3.01883 l 0.14822,-2.05829 c 0,0 -3.2605,-2.01255 -3.45811,-2.37847 -0.19769,-0.36592 -2.27246,-3.20178 -2.42068,-3.9336 -0.14821,-0.73184 -2.32186,-3.43048 -2.51946,-4.07084 -0.19769,-0.64036 -2.91467,-9.65108 -2.91467,-9.65108 l -3.3593,-1.46368 -1.28444,-0.77756"
           id="path915" />
        <path
           style="fill:#f2f2f2;stroke:#000000;stroke-width:0.51832px;stroke-linecap:butt;stroke-linejoin:miter;stroke-opacity:1"
           d="m 151.17225,211.3252 -1.82787,3.79638 c 0,0 3.45811,3.61345 4.34733,4.39101 0.88923,0.77759 1.92667,1.8296 2.07487,2.37847 0.14821,0.54888 1.03744,1.82958 1.03744,2.46994 0,0.64036 0.0495,3.339 0.0495,3.93362 0,0.59462 -0.59281,6.31208 -0.59281,6.31208 0,0 0.0495,1.32646 0.247,1.46366 0.19768,0.13723 1.92666,1.82959 1.92666,1.82959 0,0 0.74101,-0.27443 1.08683,-0.54887 0.3458,-0.27444 1.82785,-1.00627 1.82785,-1.00627 0,0 1.38324,-0.13724 2.96409,-0.0915 1.58084,0.0459 2.27246,0.41167 2.27246,0.41167 0,0 0.24702,-1.50942 0.24702,-1.69237 0,-0.18304 -2.51948,-4.34527 -2.7171,-4.71119 -0.19768,-0.36591 -4.10031,-9.65109 -4.10031,-9.65109 0,0 -0.2964,-3.75064 -0.0987,-4.20805 0.1977,-0.4574 1.48204,-3.1103 1.48204,-3.47622 0,-0.36591 -1.33384,-1.60087 -1.33384,-1.60087 l -1.48204,-1.41795"
           id="path907" />
        <path
           style="fill:#f2f2f2;stroke:#000000;stroke-width:0.51832px;stroke-linecap:butt;stroke-linejoin:miter;stroke-opacity:1"
           d="m 136.25302,169.01597 -2.71709,4.34527 8.74407,9.01071 4.05091,9.55962 0.54341,6.81519 -0.69163,7.08967 -0.59281,1.82958 5.58237,3.65919 6.52099,-0.82333 c 0,0 1.97606,-1.46366 2.42066,-2.28697 0.4446,-0.82332 2.07486,-3.70493 2.07486,-3.70493 0,0 -3.70512,-3.61342 -3.9027,-3.88787 -0.1977,-0.27444 -6.42219,-9.51386 -6.42219,-9.51386 l -2.37127,-10.10848 c 0,0 0.39521,-4.71117 0.59279,-5.48877 0.1977,-0.77756 1.08686,-6.76947 1.08686,-6.76947 l -3.6557,-2.19551"
           id="path905" />
        <path
           style="fill:#f2f2f2;stroke:#000000;stroke-width:0.51832px;stroke-linecap:butt;stroke-linejoin:miter;stroke-opacity:1"
           d="m 27.813825,132.35515 c 0,0 -2.305519,2.26399 -2.51511,2.39337 -0.209589,0.12932 0.978099,5.56296 0.873301,5.85405 -0.104789,0.2911 -2.026058,9.63816 -2.026058,9.63816 l -3.039093,8.1504 c 0,0 -0.628777,1.1967 -0.279455,1.74652 0.349322,0.54983 1.117824,2.29635 1.432212,2.55509 0.31439,0.25875 4.715834,2.87852 4.855565,2.87852 0.139725,0 3.039089,-1.94058 3.108953,-2.23165 0.06988,-0.29109 0.908233,-1.22904 0.943165,-1.61716 0.0349,-0.38811 0.698644,-5.04549 0.593845,-5.23952 -0.104788,-0.19407 -0.384253,-2.36104 -0.384253,-2.81384 0,-0.45281 1.047963,-3.71943 1.222626,-3.97818 0.174661,-0.25875 6.148046,-8.92663 6.148046,-8.92663 0,0 0.803435,-0.97029 0.558911,-1.48776 -0.244523,-0.51749 -0.628776,-1.00264 -0.803434,-1.45543 -0.174661,-0.4528 -0.384255,-1.29373 -0.384255,-1.55247 0,-0.25872 1.187689,-2.1993 1.187689,-2.1993"
           id="path863" />
        <path
           style="fill:#f2f2f2;stroke:#000000;stroke-width:0.51832px;stroke-linecap:butt;stroke-linejoin:miter;stroke-opacity:1"
           d="m 69.697395,93.446692 -10.27003,1.423092 -4.191855,6.468566 -11.457719,12.29028 c 0,0 -15.649579,8.27976 -16.068759,8.73257 -0.419186,0.4528 0.558911,3.55772 0.908234,3.94582 0.349319,0.38813 7.615196,5.75705 8.104242,5.82172 0.489051,0.0647 3.702802,0.64686 4.471304,0.5175 0.768509,-0.12931 1.676742,-0.45281 1.676742,-0.45281 0,0 2.864433,-7.69759 2.864433,-7.95635 0,-0.25874 7.685057,-10.02627 7.685057,-10.02627 0,0 8.453565,-2.32868 9.291937,-2.52276 0.838369,-0.19405 4.471305,-0.58216 4.471305,-0.58216 0,0 0.489047,-0.0646 0.279455,-0.58219 -0.209588,-0.51747 -1.047961,-1.87587 -0.768506,-2.26398 0.279462,-0.38812 2.654839,-2.45807 2.654839,-2.45807 L 59.427365,94.934469"
           id="path859" />
      </g>
      <text
         xml:space="preserve"
         style="font-size:10.5833px;line-height:1.25;font-family:sans-serif;letter-spacing:0px;word-spacing:0px;stroke-width:0.264583"
         x="46.113125"
         y="277.27371"
         id="text873"><tspan
           sodipodi:role="line"
           id="tspan871"
           x="46.113125"
           y="277.27371"
           style="font-style:italic;font-variant:normal;font-weight:normal;font-stretch:normal;font-family:sans-serif;-inkscape-font-specification:'sans-serif Italic';stroke-width:0.264583">Bones in human hands</tspan></text>
    </g>
  </g>
</svg>
