<?xml version="1.0" encoding="UTF-8" standalone="no"?>
<svg
   xmlns:dc="http://purl.org/dc/elements/1.1/"
   xmlns:cc="http://creativecommons.org/ns#"
   xmlns:rdf="http://www.w3.org/1999/02/22-rdf-syntax-ns#"
   xmlns:svg="http://www.w3.org/2000/svg"
   xmlns="http://www.w3.org/2000/svg"
   width="210mm"
   height="297mm"
   viewBox="0 0 210 297"
   version="1.1"
   id="svg1801">
  <defs
     id="defs1795" />
  <metadata
     id="metadata1798">
    <rdf:RDF>
      <cc:Work
         rdf:about="">
        <dc:format>image/svg+xml</dc:format>
        <dc:type
           rdf:resource="http://purl.org/dc/dcmitype/StillImage" />
        <dc:title></dc:title>
      </cc:Work>
    </rdf:RDF>
  </metadata>
  <g
     id="layer1">
    <g
       id="g2682"
       transform="translate(3.6797543,-5.896974)">
      <path
         style="fill:#ff9955;stroke:#000000;stroke-width:1.06048;stroke-linecap:butt;stroke-linejoin:miter;stroke-miterlimit:4;stroke-dasharray:none;stroke-opacity:1"
         d="m 138.19716,236.05544 -6.04734,-12.5513 -5.75472,-8.30006 c 0,0 -1.46306,-1.92319 -1.95075,-1.92319 -0.48769,0 -7.12025,-4.75735 -7.12025,-4.75735 l -4.48673,-9.41347 -1.85323,-6.57931 0.0975,-1.5183 -5.85225,-1.11343 -4.48674,-2.93538 c 0,0 -1.56061,-4.04881 -1.75568,-4.55491 -0.19508,-0.50611 -0.39015,-2.22684 -0.39015,-2.83417 0,-0.60731 0.58522,-3.64392 0.58522,-3.64392 0,0 -2.43845,-0.91098 -3.31628,-1.41708 -0.87784,-0.5061 -1.5606,-1.5183 -1.5606,-2.32806 0,-0.80977 -0.29261,-5.4659 -0.29261,-5.4659 0,0 -0.19508,-1.82195 -1.170454,-2.5305 -0.97538,-0.70854 -2.633515,-1.82196 -3.316279,-1.72075 -0.682765,0.10122 -1.17045,0.70855 -1.658145,1.31587 -0.487685,0.60732 -0.780299,4.0488 -0.780299,4.0488 l -0.39015,4.25125 c 0,0 -0.19508,0.91099 -1.072915,1.21465 -0.877835,0.30365 -4.291659,2.0244 -5.169493,1.41707 -0.877845,-0.60731 -2.53598,-1.82195 -2.633524,-2.73295 -0.09753,-0.91097 -0.19507,-2.42927 0.292615,-3.34026 0.487685,-0.91097 0.682764,-1.82196 1.853214,-2.53049 1.170459,-0.70855 2.633524,-1.31588 3.023674,-2.02441 0.39015,-0.70854 1.36552,-1.72074 1.36552,-2.32806 0,-0.60733 -0.09754,-1.61953 -0.97537,-1.72075 -0.877845,-0.10122 -1.853215,1.51831 -3.121209,1.61952 -1.267985,0.10123 -2.633514,0.10123 -3.316279,-0.5061 -0.682765,-0.60732 -1.072915,-0.91099 -1.17045,-1.72075 -0.09753,-0.80976 -1.072915,-1.01219 0.292615,-1.92318 1.36552,-0.91098 2.633505,-1.5183 3.218744,-1.92318 0.58522,-0.40488 -4.584274,2.63172 -4.584274,2.63172 l -3.901513,0.40488 -8.778389,1.01221 c 0,0 -6.437482,-1.82196 -6.827637,-2.12563 -0.390147,-0.30366 -3.31628,-1.0122 -3.901505,-0.91098 -0.585225,0.10122 -8.583311,0.60732 -8.583311,0.60732 0,0 -6.43749,-2.93538 -7.315327,-3.13782 -0.877838,-0.20244 -5.559644,-4.4537 -5.559644,-4.4537 l -1.950752,-3.44148 c 0,0 -2.633521,-1.92319 -3.12121,-2.42928 -0.48769,-0.5061 -1.267993,-1.51831 -2.14583,-3.03661 -0.877837,-1.5183 -1.65814,-2.53051 -1.65814,-3.84636 0,-1.31587 -0.09754,-3.94759 -0.09754,-3.94759 l 0.975373,-11.43789 1.950759,-3.44148 c 0,0 -0.09754,-1.21464 -0.390155,-2.22684 -0.292612,-1.0122 -0.585225,-2.73295 -0.48769,-3.84637 0.09754,-1.11342 1.560605,-5.36467 1.658141,-5.76955 0.09754,-0.40488 1.170456,-3.5427 1.170456,-3.5427 l 1.267986,-2.42929 3.511357,-2.024411 2.145829,-0.30366 c 0,0 0.09754,-2.73294 0.195078,-3.5427 0.09753,-0.809764 1.560598,-4.352468 1.560598,-4.352468 0,0 2.731054,-3.340265 3.121209,-3.745146 0.390148,-0.40488 4.681807,-3.441494 4.681807,-3.441494 l 5.169496,-1.315853 h 0.682768 l 3.02366,-5.668328 c 0,0 4.584272,-3.542714 5.071962,-3.745145 0.487689,-0.20245 7.607939,-2.429292 7.607939,-2.429292 l 4.29166,-0.101221 c 0,0 1.072914,-4.858563 1.560597,-5.263449 0.48769,-0.404877 2.340905,-2.631721 3.121214,-3.239042 0.78029,-0.607328 3.901499,-2.226846 5.071949,-2.631723 1.170459,-0.404884 5.559653,-1.417083 5.559653,-1.417083 l 4.291649,-0.202442 c 0,0 1.658144,0.607321 2.731059,1.417082 1.072914,0.809756 0.39015,-0.202441 0.39015,-0.202441 l 2.828653,-2.024403 c 0,0 6.53502,-0.910981 6.92517,-0.910981 0.39015,0 16.28879,1.214641 16.28879,1.214641 l 4.77935,1.012197 c 0,0 1.95075,0.910987 2.04829,1.315865 0.0975,0.404878 0.87783,1.214648 0.87783,1.214648 0,0 4.68181,-1.113431 5.46211,-1.113431 0.78031,0 5.55966,0.809764 6.24242,1.012206 0.68277,0.202442 7.51039,3.745145 7.51039,3.745145 0,0 1.268,1.417083 1.56061,2.024403 0.29261,0.607328 0.48769,1.518305 0.48769,1.518305 0,0 -0.68277,0.20244 0.7803,0.40488 1.46306,0.202441 3.70643,0 4.48673,0.101221 0.78031,0.10122 2.14584,0.202439 3.02367,0.708541 0.87784,0.5061 6.63257,4.858566 6.92517,5.263456 0.29262,0.404872 1.65815,3.340256 1.85322,4.048805 0.19508,0.708532 1.07291,1.923184 1.26799,2.530504 0.19508,0.607321 0.0975,1.619513 0.68276,1.821963 0.58524,0.20244 2.34091,0.10122 3.12121,0.20244 0.78031,0.101211 2.43844,-0.10122 3.1212,0.404872 0.68277,0.506109 1.5606,1.01221 1.5606,1.01221 l 5.94981,8.097612 c 0,0 1.75567,3.947586 1.75567,4.352466 0,0.40488 0.29261,3.64393 0.19508,4.048811 -0.0975,0.40488 -0.29262,1.5183 -0.29262,1.5183 l 3.41382,1.11343 c 0,0 2.92613,0.70854 3.70644,1.92318 0.7803,1.21464 2.73105,2.93539 2.73105,2.93539 l 2.92614,5.87076 c 0,0 0.87784,3.74515 0.87784,4.15003 0,0.40489 -0.87784,3.94758 -0.87784,3.94758 l 2.04829,1.31588 c 0,0 1.17046,4.15001 1.17046,4.75734 0,0.60732 1.26798,10.42568 1.26798,10.42568 l -1.36553,8.19883 c 0,0 -1.26798,3.34027 -1.56061,3.74514 -0.2926,0.40489 -2.43843,2.4293 -2.43843,2.4293 l -1.26799,-0.91099 0.19507,4.15003 c 0,0 0.0975,3.64394 0,4.04881 -0.0975,0.40488 -1.5606,3.54271 -2.3409,3.84637 -0.78031,0.30366 -1.95076,0.80975 -3.51136,1.11343 -1.56061,0.30366 -2.92613,0.6073 -3.6089,0.6073 -0.68276,0 -2.92613,-0.10122 -3.31628,0 -0.39015,0.10124 -2.53598,0.10124 -2.53598,0.10124 l 0.68277,6.0732 -2.14583,9.21104 -3.6089,8.09761 -10.82668,6.5793 c 0,0 -11.99714,1.31588 -13.55773,1.51831 -1.56061,0.20245 -8.58332,1.72075 -8.97346,1.92319 -0.39015,0.20244 -2.92614,2.5305 -2.92614,2.5305 l 6.63256,12.95618 6.7301,14.9806 2.92614,5.76954 z"
         id="path851" />
      <path
         style="fill:#ffb380;stroke:#000000;stroke-width:1.06048;stroke-linecap:butt;stroke-linejoin:miter;stroke-miterlimit:4;stroke-dasharray:none;stroke-opacity:1"
         d="m 80.454865,113.07291 c -0.39016,0.10123 -6.632558,3.74515 -6.632558,3.74515 l -1.755689,4.75735 c 0,0 0.390159,2.32807 2.633523,3.0366 2.243365,0.70855 2.828585,1.11343 6.925173,0 4.096579,-1.11342 8.290703,-1.72074 10.924217,-2.93538 2.633519,-1.21464 7.803019,-3.94759 9.753769,-4.25125 1.95075,-0.30366 11.4119,-0.80976 12.38728,-0.70854 0.97538,0.10122 11.02175,2.32806 11.02175,2.32806 0,0 5.55966,2.42928 6.63257,3.03661 1.07291,0.60732 3.99905,1.51831 3.99905,1.51831 0,0 -1.56061,-3.84638 -2.53598,-4.4537 -0.97537,-0.60732 -8.29071,-4.35246 -9.5587,-4.75734 -1.26798,-0.40488 -13.55773,-4.35247 -14.43558,-4.35247 -0.87783,0 -10.53406,0.10122 -11.80205,0.30366 -1.268,0.20243 -6.242409,0.5061 -8.680853,0.91098 -2.438444,0.40488 -7.998088,1.31586 -7.998088,1.31586 z"
         id="path857" />
    </g>
    <g
       id="g1793"
       transform="translate(0.90814,-12.85232)">
      <g
         id="g1787">
        <path
           id="path847"
           style="fill:#ffe6d5;stroke:#000000;stroke-width:1.06048;stroke-linecap:butt;stroke-linejoin:miter;stroke-miterlimit:4;stroke-dasharray:none;stroke-opacity:1"
           d="m 13.014205,165.58004 c -6.0391064,11.94069 -5.1949225,31.90261 11.573503,22.20408 12.73765,-3.1521 25.861363,-0.50999 38.730607,0.25202 5.809529,2.57908 15.703536,0.83686 4.945797,-3.87765 C 57.634985,174.88711 49.062013,165.18517 34.349208,164.892 22.364489,159.31545 14.658559,145.05511 16.405458,131.40286 18.308851,119.01453 20.724625,105.44372 29.653481,96.355588 38.191855,84.571664 50.405619,76.396797 62.57892,69.163424 77.095449,61.374207 93.466232,55.13135 110.01466,57.960198 c 14.32143,2.536345 29.37563,4.525581 41.94049,12.657023 11.15892,4.848832 20.12052,13.120565 27.90004,22.574866 12.42935,13.710713 21.8093,31.550683 21.30303,50.814893 1.60824,20.11255 -11.07762,37.43997 -23.81801,51.20452 -9.82275,5.95035 -20.90872,10.46076 -32.1024,12.56326 -12.23305,-0.73668 -5.60881,3.60224 2.13791,2.40664 13.09283,-1.55368 24.68602,-8.78643 36.19106,-14.93974 9.47753,-8.02448 14.27583,-19.43707 17.68873,-31.31923 3.98183,-13.10753 5.53856,-27.20138 1.11195,-40.43598 -2.74277,-12.87323 -11.23951,-23.0887 -19.32068,-32.858508 C 174.07551,80.15643 163.2203,72.250256 151.33224,65.775975 141.1217,58.650086 128.51115,57.489654 116.71801,55.043376 103.17488,53.554071 89.856227,55.29288 76.826032,59.176195 64.611426,61.886032 54.602414,70.429483 43.871831,76.675685 34.310389,86.865439 23.085827,95.806567 17.6023,109.27498 c -7.9764003,16.66368 -4.401616,38.04271 -4.588095,56.30506 z" />
        <path
           style="fill:#ff5555;stroke:#000000;stroke-width:1.06048;stroke-linecap:butt;stroke-linejoin:miter;stroke-miterlimit:4;stroke-dasharray:none;stroke-opacity:1"
           d="m 28.638223,173.74649 c 0,0 -0.965574,-2.36193 -1.172482,-2.93452 -0.206909,-0.57259 -0.758665,-1.93247 -1.65527,-3.00609 -0.896604,-1.0736 -3.379507,-1.71775 -3.379507,-1.71775 0,0 -1.44836,-0.64417 -2.138056,1.21674 -0.689695,1.86092 -0.413817,4.867 -0.275879,5.58274 0.13794,0.71574 2.069088,4.22283 2.482904,4.79543 0.413817,0.57257 2.138056,2.21877 2.413934,2.43349 0.275878,0.21472 1.931148,1.71777 2.551874,1.78934 0.620725,0.0716 2.689811,0.42943 3.172599,0.42943 0.482787,0 2.275995,0.0716 2.89672,-0.0716 0.620726,-0.14314 2.344965,-1.43146 2.344965,-1.93248 0,-0.50101 0.13794,-1.57462 -0.620726,-2.29035 -0.758665,-0.71574 -0.965573,-0.93046 -2.482903,-1.57462 -1.517331,-0.64416 -2.413935,-1.28832 -2.965691,-1.57462 -0.551757,-0.28626 -0.758664,-0.35784 -0.896604,-0.64413 -0.137939,-0.28629 -0.275878,-0.50101 -0.275878,-0.50101 z"
           id="path849" />
      </g>
      <path
         style="fill:#ffccaa;stroke:#000000;stroke-width:1.06048;stroke-linecap:butt;stroke-linejoin:miter;stroke-miterlimit:4;stroke-dasharray:none;stroke-opacity:1"
         d="m 113.00162,207.73774 -5.02319,-5.11162 -8.53455,-6.07322 c 0,0 -4.876878,-2.63171 -5.120721,-2.68232 -0.243842,-0.0505 -3.462586,-1.61953 -3.462586,-1.61953 l -12.094676,-4.80795 -6.681331,-2.58112 -3.608891,-2.37868 -6.14487,-4.45368 -2.926132,-3.28966 -5.413342,-6.0226 -5.169497,-2.47989 c 0,0 -3.218745,-0.35427 -3.413815,-0.35427 -0.195077,0 -6.973946,-1.26525 -6.973946,-1.26525 0,0 -6.63256,-3.74515 -7.022714,-3.9476 -0.390148,-0.20243 -5.071955,-3.23903 -5.071955,-3.23903 0,0 -3.267512,-5.5165 -3.413822,-5.76956 -0.146302,-0.25304 -3.218738,-6.27565 -3.218738,-6.27565 l -0.829069,-3.94758 0.243844,-8.65433 0.341381,-10.17263 1.072914,-4.30186 2.633513,-9.31225 2.584752,-4.25126 6.925172,-10.122011 6.096102,-6.123819 11.411909,-9.464092 6.583791,-3.795755 10.046382,-6.731143 8.680855,-4.504299 5.852258,-2.024402 13.557741,-2.834165 c 0,0 7.071481,-0.60732 7.461621,-0.60732 0.39015,0 8.24193,0.404877 8.24193,0.404877 0,0 6.33995,0.809764 6.68133,0.809764 0.34139,0 6.09611,1.821967 6.09611,1.821967 l 4.38919,0.961588 14.43558,3.745145 6.53502,3.390877 7.26655,3.846369 5.26704,3.593314 11.31437,10.172624 5.46211,6.427488 c 0,0 9.02224,10.830563 9.16854,11.032993 0.14632,0.20245 5.41335,8.75555 5.41335,8.75555 l 4.82811,12.39947 1.07292,6.42749 0.53646,10.93177 -0.0976,5.36467 -1.90198,8.09762 -2.92613,7.38907 -4.29165,7.08543 c 0,0 -4.58429,3.13782 -4.77936,3.18843 -0.19508,0.0505 -5.26704,2.02441 -5.55965,2.17623 -0.29261,0.15182 -2.09705,2.07501 -2.48721,3.0366 -0.39015,0.96159 -0.73152,3.59332 -0.73152,3.59332 l -1.21923,6.17443 c 0,0 -1.80444,3.79576 -1.95076,4.15004 -0.1463,0.35426 -1.85321,2.27744 -1.85321,2.27744 l -6.14486,4.04881 -8.04687,3.34027 -9.21731,1.31586 -7.75425,0.65793 -2.63351,1.41708 -1.31676,1.16403 c 0,0 -0.63399,0.60732 -0.73153,0.20244 -0.0975,-0.40488 -0.0975,-0.80976 -0.0975,-1.01219 0,-0.20245 0.0975,-1.06282 0.48767,-1.31587 0.39016,-0.25305 2.48722,-1.21464 2.48722,-1.21464 0,0 8.7784,-1.01221 8.7784,-1.01221 l 12.48481,-1.92319 10.82668,-6.5793 3.6089,-8.09761 2.14583,-9.21104 c 0,0 2.04828,-2.58112 2.34091,-2.73295 0.2926,-0.15183 3.60888,-1.72073 3.60888,-1.72073 l 2.92614,-0.55672 4.97442,-4.40308 3.07244,-5.97199 1.80444,-2.83416 0.97538,-6.9842 1.60937,-7.0348 c 0,0 -0.19508,-8.047 -0.19508,-8.65432 0,-0.60732 -0.29261,-4.60552 -0.29261,-4.60552 l -2.38966,-10.88118 -2.63353,-5.061 -5.90103,-10.72934 -5.3158,-6.174431 -8.38825,-9.514697 -6.68132,-5.870777 -8.09563,-7.338461 -9.16854,-4.656126 -8.43701,-4.706741 -17.70309,-4.504298 -11.50943,-1.771352 -10.48531,-0.657929 -2.194599,0.202442 -18.385847,3.036601 -13.265117,7.136021 -12.338514,7.389084 c 0,0 -11.265605,8.097611 -11.509451,8.401262 -0.243837,0.30366 -3.999039,3.694545 -3.999039,3.694545 l -8.924699,10.577497 -2.926132,5.76956 -4.63304,10.62812 -1.658139,8.09761 0.146309,13.96839 3.901505,13.5635 4.535504,5.11162 4.437962,2.53051 4.486729,2.27745 7.022715,1.72075 4.29166,0.65792 7.022707,3.89699 3.462589,3.79576 7.900551,7.13601 5.120727,3.08722 3.950272,1.87257 17.995706,7.23724 6.193641,3.18845 5.1695,3.5427 2.43843,2.12563 4.04782,4.45368 z"
         id="path931" />
    </g>
    <g
       id="g3030"
       transform="translate(-1.1220127,218.33455)">
      <path
         style="fill:#ffccaa;stroke:#000000;stroke-width:1.06048;stroke-linecap:butt;stroke-linejoin:miter;stroke-miterlimit:4;stroke-dasharray:none;stroke-opacity:1"
         d="m 71.11361,-112.47447 -3.803969,4.35246 c 0,0 -0.877837,3.64393 -0.877837,4.35248 0,0.70854 0,3.0366 0,3.64392 0,0.60732 0.292612,1.72074 0.877837,2.73296 0.585224,1.01219 1.560605,1.72073 2.63352,2.32806 1.072914,0.6073 2.340907,0.80976 3.803969,1.11342 1.463063,0.30365 8.485773,1.5183 8.485773,1.5183 l 2.633514,0.30366 3.999053,2.32806 1.95075,6.57931 -0.7803,5.56711 -1.755679,4.95979 -4.974424,4.55491 -3.803964,2.12562 -12.679902,1.41709 -9.948839,-3.13783 -9.363614,0.70854 -7.803017,-3.5427 c 0,0 -5.071954,-4.04882 -5.071954,-4.04882 l -1.950752,-3.44148 c 0,0 -3.706435,-2.22685 -3.706435,-2.63173 0,-0.40488 -3.706435,-6.17443 -3.706435,-6.17443 l 1.365528,-15.89157 1.950759,-3.44148 -0.97538,-5.56711 4.194118,-12.24764 5.657186,-2.32807 0.48769,-4.65613 1.267986,-3.23904 7.803016,-7.18664 5.169496,-1.31585 h 0.682768 l 3.02366,-5.66833 4.876885,-3.74514 7.803016,-2.4293 4.29166,-0.10122 1.267984,-5.36466 3.413827,-3.64393 10.631602,-3.5427 4.291649,-0.20245 3.121209,1.21464 v 0 l 2.828598,-2.0244 6.047328,-0.80976 19.21492,1.82197 2.73106,0.30365 2.92612,2.53051 4.3892,-1.0122 4.68181,0.30366 4.97442,1.5183 5.16949,2.83416 2.0483,3.54271 v 0 l 4.48673,0.5061 5.75472,1.82196 5.16949,4.15004 1.75569,4.5549 1.75567,3.54271 5.75473,0.70854 2.14582,1.21464 5.94981,8.09761 1.75567,4.04881 0.39016,3.54271 -0.4877,2.32806 3.41382,1.11343 3.80398,2.32806 2.63351,2.53051 2.92614,5.87076 0.97537,4.45369 -0.97537,3.64392 2.04829,1.31588 1.36553,4.5549 1.07291,10.62812 -0.87784,5.97198 -2.63352,7.08541 -1.85321,1.31588 -1.26799,-0.91099 0.19507,7.79397 -1.95076,4.15002 -7.41286,2.12562 -5.9498,-0.20243 0.68277,6.0732 -2.14583,9.21104 -3.6089,8.09761 -10.82668,6.5793 -21.26321,2.9354 -4.19412,3.0366 -2.64671,-3.76988 c 0,0 -2.89671,-4.29441 -3.31053,-5.51117 -0.41382,-1.21673 -1.86218,-7.58678 -1.86218,-7.58678 l 0.34484,-11.09389 c 0,0 0.34485,-1.71775 0.34485,-2.64821 0,-0.93046 -1.5863,-4.79542 -1.5863,-4.79542 l -3.51744,-4.65228 -0.89661,-3.43552 1.31042,-2.64823 c 0,0 2.13806,-1.28832 2.13806,-1.64619 0,-0.35786 0.68969,-0.35786 0.20691,-1.57461 -0.48279,-1.21675 -2.68981,-4.50913 -2.68981,-4.50913 l -2.34497,-1.93249 -1.31042,-3.14923 1.17248,-1.3599 1.72424,-0.21472 c 0,0 2.48291,0.35787 3.58642,0.64416 1.10351,0.28629 4.96581,0.64417 5.31065,0.64417 0.34485,0 2.48291,-0.85889 2.48291,-0.85889 l 0.48279,-2.43349 c 0,0 -3.44849,-2.57665 -4.00025,-3.00608 -0.55175,-0.42945 -2.6898,-2.07564 -3.3795,-2.50508 -0.6897,-0.42945 -1.65527,-1.00203 -1.79321,-2.00406 -0.13794,-1.00203 -0.13794,-2.21877 0.20692,-2.64822 0.34484,-0.42944 2.00011,-1.28832 2.89671,-1.14517 0.8966,0.14315 1.51733,-0.0716 1.93115,0.57259 0.41382,0.64415 1.37939,1.78934 1.72423,2.36192 0.34486,0.57259 1.58631,2.21877 2.06909,2.86294 0.48279,0.64416 1.72424,1.71776 2.276,2.14721 0.55175,0.42944 0.27588,1.14517 2.00012,1.14517 1.72424,0 2.89672,0.14314 3.72435,-0.64416 0.82764,-0.78731 2.55187,-3.79341 2.55187,-3.79341 0,0 0,-2.36192 -0.13793,-2.71978 -0.13795,-0.35786 -0.62073,-3.5071 -0.62073,-3.5071 l -3.12139,-6.26976 c 0,0 -3.1212,-4.65613 -5.4621,-6.07321 -2.3409,-1.41708 -14.24051,-6.47809 -15.21588,-6.68053 -0.97538,-0.20244 -14.04542,-1.21463 -14.04542,-1.21463 l -16.191261,0.20243 -12.289746,2.0244 -6.242401,2.42929 z"
         id="path855-6" />
      <path
         style="fill:none;stroke:#000000;stroke-width:1.06048;stroke-linecap:butt;stroke-linejoin:miter;stroke-miterlimit:4;stroke-dasharray:none;stroke-opacity:1"
         d="m 83.15951,-91.62311 c 0,0 1.072915,2.17623 1.072915,2.42928 0,0.25306 0.341387,2.42928 0.341387,2.68234 0,0.25305 0.04877,3.64392 0.04877,3.89697 0,0.25305 -0.926607,2.4799 -1.024142,2.78356 -0.09754,0.30365 -1.609372,1.11343 -2.340909,1.36647 -0.731528,0.25305 -3.657657,0.70854 -4.096579,0.70854 -0.438913,0 -6.486252,-2.17623 -6.486252,-2.37867 0,-0.20245 -0.536457,-1.87258 -1.219223,-3.23905 -0.682761,-1.36647 -3.80397,-4.30186 -4.194118,-4.80795 -0.390155,-0.50611 -3.560125,-5.36467 -4.29166,-5.4659 -0.731534,-0.10121 -3.267512,-3.08722 -3.852737,-4.0488 -0.585225,-0.9616 -1.267992,-2.73295 -1.316759,-3.23905 -0.04874,-0.50609 2.194597,-12.45008 2.292139,-12.65252 0.09754,-0.20244 1.609365,-2.32806 1.950752,-2.78355 0.34138,-0.4555 2.682281,-2.73296 2.926125,-2.88478 0.243846,-0.15183 7.071482,-4.60552 7.120257,-4.80797 0.04874,-0.20243 1.414295,-2.22683 1.414295,-2.22683 l 0.68276,-5.06102 c 0,0 -0.68276,-2.0244 -1.267993,-2.78355 -0.585225,-0.75915 -2.389667,-3.0366 -3.072434,-3.59331 -0.68276,-0.55672 -4.047815,-2.42929 -4.437963,-2.58113 -0.390147,-0.15182 -2.097061,-0.75914 -2.097061,-0.75914"
         id="path865-2" />
      <path
         style="fill:none;stroke:#000000;stroke-width:1.06048;stroke-linecap:butt;stroke-linejoin:miter;stroke-miterlimit:4;stroke-dasharray:none;stroke-opacity:1"
         d="m 67.651021,-143.95395 c -0.438915,0.65794 -0.780295,3.13783 -0.780295,3.13783 l 0.780295,2.07501 3.560132,4.35247 c 0,0 2.243364,1.97379 2.974892,1.97379 0.731535,0 3.121207,0.0506 4.584271,0 1.463075,-0.0505 5.267029,-0.5061 6.632568,-0.86037 1.365529,-0.35427 4.486729,-0.86037 5.608416,-0.96159 1.121677,-0.10122 4.828116,-0.15183 5.657178,-0.10122 0.829072,0.0506 2.243374,0 2.974904,0.0506 0.731518,0.0506 1.804438,0.40489 3.365048,0 1.5606,-0.40487 2.14583,-0.50609 3.56012,-0.86037 1.4143,-0.35427 3.70643,-1.01219 4.58428,-1.41708 0.87783,-0.40488 6.58378,-3.28966 6.8764,-3.39088 0.29261,-0.10122 2.43844,-1.0122 3.95027,-0.96159 1.51184,0.0506 3.85274,0.30366 4.34043,0.55671 0.48769,0.25305 1.75567,1.46769 2.73105,2.17624 0.97538,0.70854 1.95076,1.61952 2.29215,2.17623 0.34137,0.55671 0.73152,1.72074 1.17045,2.78355 0.43891,1.06282 0.97537,3.08722 1.17045,3.54272 0.19507,0.45549 1.75567,2.68234 1.95075,2.83416 0.19507,0.15183 2.29213,1.41709 2.29213,1.41709"
         id="path867-7" />
      <path
         style="fill:none;stroke:#000000;stroke-width:1.06048;stroke-linecap:butt;stroke-linejoin:miter;stroke-miterlimit:4;stroke-dasharray:none;stroke-opacity:1"
         d="m 115.15186,-118.44646 c 0.14632,-0.20243 3.95028,-2.42928 4.04782,-2.63172 0.0975,-0.20245 1.02415,-1.92319 1.26799,-2.68235 0.24384,-0.75915 0.73153,-2.27745 0.82907,-2.88476 0.0975,-0.60733 0.34138,-2.63173 0.34138,-2.63173"
         id="path869-4" />
      <path
         style="fill:none;stroke:#000000;stroke-width:1.06048;stroke-linecap:butt;stroke-linejoin:miter;stroke-miterlimit:4;stroke-dasharray:none;stroke-opacity:1"
         d="m 121.34551,-124.72211 c 0,0 1.80445,3.44148 2.24336,3.94759 0.43892,0.5061 0.78031,1.67012 1.85323,2.58111 1.07291,0.91098 3.85273,2.42928 4.14534,2.5305 0.29261,0.10123 2.29213,1.21465 2.29213,1.21465"
         id="path871-7" />
      <path
         style="fill:none;stroke:#000000;stroke-width:1.06048;stroke-linecap:butt;stroke-linejoin:miter;stroke-miterlimit:4;stroke-dasharray:none;stroke-opacity:1"
         d="m 95.595564,-141.42345 c 0,0 2.048294,3.39089 2.438444,3.69455 0.390154,0.30366 1.901974,1.56891 2.828592,1.92318 0.92661,0.35427 5.02319,0.96159 5.02319,0.96159"
         id="path873-1" />
      <path
         style="fill:none;stroke:#000000;stroke-width:1.06048;stroke-linecap:butt;stroke-linejoin:miter;stroke-miterlimit:4;stroke-dasharray:none;stroke-opacity:1"
         d="m 101.25275,-134.08498 c -3.121207,0.25305 -3.706427,-0.25305 -5.705949,0.45549 -1.999532,0.70854 -2.731059,-0.30366 -4.633036,2.4799 -1.901987,2.78355 -2.584752,6.5793 -2.584752,6.5793"
         id="path875-1" />
      <path
         style="fill:none;stroke:#000000;stroke-width:1.06048;stroke-linecap:butt;stroke-linejoin:miter;stroke-miterlimit:4;stroke-dasharray:none;stroke-opacity:1"
         d="m 72.869293,-154.68329 1.706907,2.42929 c 0,0 1.365527,1.67013 2.487209,2.07502 1.121687,0.40487 4.974424,0.91098 6.339944,1.01219 1.365529,0.10122 14.435575,0 14.630655,0 0.19507,0 5.120722,-0.35427 6.876412,-0.70853 1.75567,-0.35428 6.92516,-1.61953 7.6567,-2.02441 0.73153,-0.40488 1.60937,-1.4677 1.90199,-2.32807 0.29261,-0.86037 1.95075,-6.0732 1.95075,-6.0732"
         id="path877-7" />
      <path
         style="fill:none;stroke:#000000;stroke-width:1.06048;stroke-linecap:butt;stroke-linejoin:miter;stroke-miterlimit:4;stroke-dasharray:none;stroke-opacity:1"
         d="m 108.95823,-150.53326 c 1.21922,-0.20243 5.65717,-0.45548 5.65717,-0.45548 0,0 2.14583,0.70853 2.68229,0.80976 0.53646,0.10121 2.29214,0.86037 2.29214,0.86037"
         id="path879-5" />
      <path
         style="fill:none;stroke:#000000;stroke-width:1.06048;stroke-linecap:butt;stroke-linejoin:miter;stroke-miterlimit:4;stroke-dasharray:none;stroke-opacity:1"
         d="m 85.061497,-149.01495 c -0.926607,0.0506 -3.511359,0.96158 -4.242886,1.5689 -0.731537,0.60732 -3.560122,4.30186 -3.560122,4.30186 l -0.390159,1.06282"
         id="path881-3" />
      <path
         style="fill:none;stroke:#000000;stroke-width:1.06048;stroke-linecap:butt;stroke-linejoin:miter;stroke-miterlimit:4;stroke-dasharray:none;stroke-opacity:1"
         d="m 95.595564,-166.22239 c 0,0 3.169968,2.07501 3.657668,2.53051 0.48768,0.45549 1.755678,1.67013 2.145828,2.12562 0.39015,0.45549 1.07291,1.26526 1.07291,1.26526 l 0.34138,0.80976"
         id="path883-9" />
      <path
         style="fill:none;stroke:#000000;stroke-width:1.06048;stroke-linecap:butt;stroke-linejoin:miter;stroke-miterlimit:4;stroke-dasharray:none;stroke-opacity:1"
         d="m 52.874072,-142.7393 -0.537693,3.53166 c 0,0 0.03447,3.18501 0.379331,4.43755 0.344849,1.25253 1.758724,5.47537 1.827693,5.61852 0.069,0.14315 1.413877,2.93451 1.413877,2.93451 0,0 -3.24157,-1.6104 -4.000234,-1.8967 -0.758665,-0.28629 -5.655503,-1.03781 -5.655503,-1.03781 l -2.000117,0.21472"
         id="path885-7" />
      <path
         style="fill:none;stroke:#000000;stroke-width:1.06048;stroke-linecap:butt;stroke-linejoin:miter;stroke-miterlimit:4;stroke-dasharray:none;stroke-opacity:1"
         d="m 37.463116,-126.34164 2.389675,0.15183 c 0,0 2.048287,0.5061 2.292133,0.60732 0.243844,0.10123 1.901985,1.41708 2.194596,1.77136 0.292613,0.35428 1.414296,1.56891 1.706908,1.97379 0.29262,0.40489 2.243373,3.69454 2.243373,3.69454"
         id="path887-3" />
      <path
         style="fill:none;stroke:#000000;stroke-width:1.06048;stroke-linecap:butt;stroke-linejoin:miter;stroke-miterlimit:4;stroke-dasharray:none;stroke-opacity:1"
         d="m 37.804497,-117.38365 c 0,0 -0.585225,1.72074 -0.243846,2.68234 0.341387,0.96159 0.682768,1.67013 1.170458,2.37867 0.487683,0.70854 1.609372,2.27745 2.340899,2.58111 0.731535,0.30367 3.365055,1.41709 3.706435,1.4677 0.34138,0.0505 3.121203,0.5567 4.437962,0.30366 1.31676,-0.25305 3.755202,-1.06281 4.14535,-1.36648 0.390155,-0.30366 2.29214,-1.77135 2.779822,-2.12561 0.48769,-0.35427 1.95076,-2.07502 1.95076,-2.07502"
         id="path889-4" />
      <path
         style="fill:none;stroke:#000000;stroke-width:1.06048;stroke-linecap:butt;stroke-linejoin:miter;stroke-miterlimit:4;stroke-dasharray:none;stroke-opacity:1"
         d="m 28.587192,-106.19882 c 0,0 2.535977,-2.0244 2.731055,-2.12562 0.19507,-0.10122 2.243364,-0.55671 2.974893,-0.70854 0.731534,-0.15183 3.218744,-0.40488 4.047814,-0.40488 0.82907,0 2.584751,0.20243 2.584751,0.20243 l 1.365528,0.10123"
         id="path891-3" />
      <path
         style="fill:none;stroke:#000000;stroke-width:1.06048;stroke-linecap:butt;stroke-linejoin:miter;stroke-miterlimit:4;stroke-dasharray:none;stroke-opacity:1"
         d="m 42.340001,-101.69452 c -0.243845,1.26525 -0.390155,2.68233 -0.926606,3.18844 -0.536457,0.5061 -1.219224,1.5183 -2.097062,1.82196 -0.877837,0.30366 -2.633519,0.55671 -3.267512,0.55671 -0.633992,0 -1.463063,-0.0505 -1.950752,-0.15183 -0.48769,-0.10122 -0.48769,-0.15184 -0.48769,-0.15184"
         id="path893-3" />
      <path
         style="fill:none;stroke:#000000;stroke-width:1.06048;stroke-linecap:butt;stroke-linejoin:miter;stroke-miterlimit:4;stroke-dasharray:none;stroke-opacity:1"
         d="m 39.023721,-96.0768 c 0,0 1.51183,3.44149 1.65814,3.99819 0.146303,0.55672 0.243844,3.39088 0.146303,3.84638 -0.09754,0.45549 -0.487683,1.46768 -1.024141,2.73294 -0.536457,1.26525 -1.853217,3.08721 -1.853217,3.08721 0,0 -2.29214,1.61952 -2.731054,1.92319 -0.438922,0.30367 -2.535977,2.42928 -2.535977,2.42928"
         id="path895-7" />
      <path
         style="fill:none;stroke:#000000;stroke-width:1.06048;stroke-linecap:butt;stroke-linejoin:miter;stroke-miterlimit:4;stroke-dasharray:none;stroke-opacity:1"
         d="m 39.023721,-96.0768 c 0,0 2.14583,1.67012 2.633513,2.27746 0.48769,0.60732 1.901985,2.12562 3.121209,2.37867 1.219218,0.25305 4.096582,0.80976 4.876884,0.45549 0.780303,-0.35427 2.097055,-0.45549 3.169971,-1.31586 1.072914,-0.86037 2.340907,-1.36648 2.535984,-2.07501 0.19507,-0.70854 1.51183,-3.89698 1.51183,-3.89698"
         id="path897-4" />
      <path
         style="fill:none;stroke:#000000;stroke-width:1.06048;stroke-linecap:butt;stroke-linejoin:miter;stroke-miterlimit:4;stroke-dasharray:none;stroke-opacity:1"
         d="m 62.140144,-82.31086 c 0,0 -5.949792,-0.65793 -7.461629,-0.10122 -1.511838,0.55671 -3.999048,1.67014 -4.535498,2.22686 -0.536464,0.5567 -1.463069,3.23903 -1.511837,3.44148 -0.04874,0.20243 -0.585225,2.075 -0.585225,2.075"
         id="path899-4" />
      <path
         style="fill:none;stroke:#000000;stroke-width:1.06048;stroke-linecap:butt;stroke-linejoin:miter;stroke-miterlimit:4;stroke-dasharray:none;stroke-opacity:1"
         d="m 44.583366,-86.20783 c 0,0 0.146309,1.26525 1.80445,2.42928 1.658139,1.16403 2.097055,1.36647 3.267511,1.56891 1.170451,0.20244 1.072908,0.25305 2.194598,0.35427 1.121682,0.10123 2.389675,-0.35427 2.389675,-0.35427"
         id="path901-6" />
      <path
         style="fill:none;stroke:#000000;stroke-width:1.06048;stroke-linecap:butt;stroke-linejoin:miter;stroke-miterlimit:4;stroke-dasharray:none;stroke-opacity:1"
         d="m 76.86833,-77.30045 c 0,0 -3.803967,0.60731 -4.681805,0.60731 -0.877837,0 -2.145829,-0.86037 -3.901505,0.40488 -1.755681,1.26526 -3.999046,2.68234 -4.779349,3.34027 -0.780302,0.65792 -2.243365,2.0244 -2.633512,2.68234 -0.390155,0.65793 -2.14583,2.93539 -2.14583,2.93539"
         id="path903-7" />
      <path
         style="fill:none;stroke:#000000;stroke-width:1.06048;stroke-linecap:butt;stroke-linejoin:miter;stroke-miterlimit:4;stroke-dasharray:none;stroke-opacity:1"
         d="m 77.160944,-119.05378 c 0,0 -1.755674,3.18844 -2.048287,3.44149 -0.292612,0.25304 -2.633519,2.22684 -2.633519,2.22684 l -1.365528,0.91098"
         id="path905-5" />
      <path
         style="fill:none;stroke:#000000;stroke-width:1.06048;stroke-linecap:butt;stroke-linejoin:miter;stroke-miterlimit:4;stroke-dasharray:none;stroke-opacity:1"
         d="m 66.041656,-104.32624 c -0.48769,0.30366 -3.12121,2.12562 -3.6089,2.37867 -0.487682,0.25305 -1.121682,0.60732 -1.121682,0.60732 0,0 3.706435,1.06282 3.999047,1.26524 0.292613,0.20245 1.267992,1.11344 1.267992,1.11344"
         id="path907-3" />
      <path
         style="fill:none;stroke:#000000;stroke-width:1.06048;stroke-linecap:butt;stroke-linejoin:miter;stroke-miterlimit:4;stroke-dasharray:none;stroke-opacity:1"
         d="m 72.527905,-93.79934 2.828597,4.75734 0.926608,2.53051 0.195079,1.11342"
         id="path909-7" />
      <path
         style="fill:none;stroke:#000000;stroke-width:1.06048;stroke-linecap:butt;stroke-linejoin:miter;stroke-miterlimit:4;stroke-dasharray:none;stroke-opacity:1"
         d="m 129.34359,-164.40042 c 0,0 1.56061,2.0244 1.65815,2.73294 0.0975,0.70855 0.7803,2.32806 0.87783,3.03661 0.0975,0.70854 0.97538,4.5549 0.97538,5.66832 0,1.11344 -1.07291,6.78176 -1.07291,6.78176 l -0.97538,4.55491 0.58523,3.94759 0.7803,3.13782"
         id="path911-0" />
      <path
         style="fill:none;stroke:#000000;stroke-width:1.06048;stroke-linecap:butt;stroke-linejoin:miter;stroke-miterlimit:4;stroke-dasharray:none;stroke-opacity:1"
         d="m 132.34105,-148.94164 c 0,0 1.37939,-2.79137 1.86218,-3.29238 0.48278,-0.50102 1.51732,-1.86091 3.17259,-2.64822 1.65527,-0.78731 2.9657,-1.35989 4.48302,-1.43146 1.51734,-0.0716 4.13818,-0.50102 4.75891,-0.50102 0.62072,0 3.98906,-0.39907 3.98906,-0.39907"
         id="path913-6" />
      <path
         style="fill:none;stroke:#000000;stroke-width:1.06048;stroke-linecap:butt;stroke-linejoin:miter;stroke-miterlimit:4;stroke-dasharray:none;stroke-opacity:1"
         d="m 143.9969,-143.43048 c 0,0 2.276,1.28832 2.48291,1.78933 0.20691,0.50102 1.17248,1.93249 1.31042,2.29036 0.13793,0.35786 0.55175,0.93046 0.55175,0.93046 0,0 -0.13793,-2.7198 -0.069,-3.14925 0.069,-0.42943 0.8966,-1.8609 1.31041,-2.29034 0.41382,-0.42944 3.03467,-2.07563 3.03467,-2.07563 l -2.75878,1.78934 -0.89661,1.0736 -0.68969,1.64619 c 0,0 -0.20691,2.43349 -0.13794,2.93451 0.069,0.50101 1.10351,2.64822 1.31042,3.5071 0.2069,0.85888 1.31042,8.01623 1.44836,9.01826 0.13794,1.00203 0.27588,12.16749 0.27588,12.16749 l -0.62073,3.72182 -3.44847,2.71979"
         id="path915-0" />
      <path
         style="fill:none;stroke:#000000;stroke-width:1.06048;stroke-linecap:butt;stroke-linejoin:miter;stroke-miterlimit:4;stroke-dasharray:none;stroke-opacity:1"
         d="m 151.0318,-112.00972 c 0,0 1.10351,2.71979 1.17248,3.14924 0.069,0.42944 0.96558,2.14719 1.5863,2.79136 0.62073,0.64416 1.17248,1.50305 1.51732,1.64619 0.34486,0.14315 0.75868,0.14315 0.75868,0.14315"
         id="path917-2" />
      <path
         style="fill:none;stroke:#000000;stroke-width:1.06048;stroke-linecap:butt;stroke-linejoin:miter;stroke-miterlimit:4;stroke-dasharray:none;stroke-opacity:1"
         d="m 149.99725,-133.05233 c 0,0 2.13806,1.93249 2.55188,2.29035 0.41381,0.35788 0.96557,0.78731 1.65526,1.14519 0.6897,0.35786 2.82776,1.78933 4.20715,1.28832 1.37939,-0.50101 2.89672,-0.85889 3.1726,-1.28832 0.27587,-0.42945 0.82763,-0.50102 1.24145,-1.43148 0.41382,-0.93046 1.10351,-2.36192 1.37939,-3.2208 0.27588,-0.85889 0.55175,-2.86294 0.75867,-3.50711 0.2069,-0.64415 4.56546,-4.8619 4.56546,-4.8619 l -4.35856,4.50404 c 0,0 -2.62084,7.51521 -2.62084,8.01623 0,0.50102 -0.069,3.79339 0,4.22283 0.069,0.42945 0.20691,3.14923 0.20691,3.43553"
         id="path919-2" />
      <path
         style="fill:none;stroke:#000000;stroke-width:1.06048;stroke-linecap:butt;stroke-linejoin:miter;stroke-miterlimit:4;stroke-dasharray:none;stroke-opacity:1"
         d="m 185.0376,-122.69771 -6.00417,2.31389 c 0,0 -4.13817,2.29036 -4.68992,2.64822 -0.55176,0.35787 -2.41394,2.07563 -3.03467,3.29239 -0.62072,1.21674 -5.79344,8.01623 -6.00035,8.37409 -0.20691,0.35786 -3.03466,5.51116 -3.65538,6.29846 -0.62073,0.78731 -4.00023,5.72588 -4.00023,6.2269 0,0.50101 -2.55188,2.29035 -3.31054,2.36192 -0.75867,0.0716 -1.86219,0.0716 -2.82775,-0.2863 -0.96558,-0.35786 -1.51734,-1.8609 -1.79322,-2.07562 -0.27587,-0.21473 -1.86217,-3.00608 -1.86217,-3.00608"
         id="path921-8" />
      <path
         style="fill:none;stroke:#000000;stroke-width:1.06048;stroke-linecap:butt;stroke-linejoin:miter;stroke-miterlimit:4;stroke-dasharray:none;stroke-opacity:1"
         d="m 197.81505,-102.75734 c 0,0 -4.29801,2.70039 -5.67739,3.05825 -1.3794,0.35787 -2.96571,0.42945 -4.27613,0.42945 -1.31041,0 -3.3795,-0.21473 -4.0692,-0.35787 -0.6897,-0.14315 -2.27599,-1.00202 -2.27599,-1.00202 l 3.03466,1.07359 3.65539,0.2863 c 0,0 -0.48279,0.64416 -0.89661,1.35989 -0.41382,0.71574 -0.55176,1.21676 -0.55176,2.14721 0,0.93045 0,2.4335 0.27587,2.86294 0.27589,0.42944 0.82764,1.35989 0.82764,1.35989"
         id="path923-5" />
      <path
         style="fill:none;stroke:#000000;stroke-width:1.06048;stroke-linecap:butt;stroke-linejoin:miter;stroke-miterlimit:4;stroke-dasharray:none;stroke-opacity:1"
         d="m 173.10205,-105.21024 2.68981,3.57868 0.89661,1.93247 -0.41382,3.0061 -0.27587,1.14516 -7.51769,1.43148 7.65562,-1.28833 4.48302,1.93249 c 0,0 2.62085,1.00203 2.96569,1.35989 0.34485,0.35787 2.9657,3.22082 2.9657,3.22082 l 2.27599,1.8609 3.03466,0.0716 c 0,0 1.31042,-0.14315 1.79321,-0.35788 0.48279,-0.21472 2.06909,-0.93044 2.27599,-1.28831 0.20692,-0.35787 1.10352,-1.57462 1.10352,-1.57462 l -1.17248,2.14721 -3.79333,1.28832 c 0,0 1.5863,1.78933 1.79321,2.14721 0.20691,0.35786 1.10352,1.78933 1.24145,2.07562 0.13794,0.2863 0.13794,0.42944 0.13794,0.42944"
         id="path925-7" />
      <path
         style="fill:none;stroke:#000000;stroke-width:1.06048;stroke-linecap:butt;stroke-linejoin:miter;stroke-miterlimit:4;stroke-dasharray:none;stroke-opacity:1"
         d="m 159.37711,-87.5316 c 0,0 8.55222,-0.0716 9.10398,-0.0716 0.55176,0 4.68994,-0.35786 5.72447,-0.57258 1.03454,-0.21472 3.03467,-1.14518 3.03467,-1.14518 0,0 0.48278,-0.35786 0.069,0.35788 -0.41382,0.71572 -0.68969,2.64821 -0.48278,3.43552 0.2069,0.78731 1.5863,2.36192 2.20702,3.00609 0.62073,0.64415 1.31042,1.28832 2.55188,1.93248 1.24145,0.64416 3.03465,0.85887 3.86228,1.07359 0.82764,0.21473 1.3794,0 2.62085,1.28833 1.24145,1.28833 3.17261,2.57664 3.51745,3.22081 0.34485,0.64416 0.46868,1.94118 2.276,2.07564 1.80733,0.13443 1.80733,0.13443 1.80733,0.13443"
         id="path927-4" />
    </g>
    <path
       style="fill:#ffe6d5;stroke:#000000;stroke-width:1.06048;stroke-linecap:butt;stroke-linejoin:miter;stroke-miterlimit:4;stroke-dasharray:none;stroke-opacity:1"
       d="m 136.01488,203.83441 -7.31531,-15.08182 -2.24337,-8.5025 -0.19507,-10.83056 0.19507,-6.27565 -6.04734,-11.5391 -3.41382,-7.59152 -0.48768,-6.17442 3.9015,-4.65613 1.95075,-4.95979 1.65814,-5.46589 c 0,0 0.19508,-2.53051 -0.19507,-3.13783 -0.39015,-0.60732 -1.75568,-2.73294 -3.12121,-2.73294 -1.36553,0 -10.33898,1.41709 -10.33898,1.41709 l -13.07006,3.64392 c 0,0 -4.584274,2.63172 -4.681809,3.0366 -0.09754,0.40489 1.267985,3.13783 1.267985,3.13783 0,0 1.658144,1.11342 1.75568,1.82196 0.09753,0.70854 0.780309,4.35247 0.390149,5.26345 -0.390149,0.91098 -1.658134,3.94759 -1.950749,4.85857 -0.292615,0.91098 -1.36553,7.4903 -1.36553,7.4903 0,0 -0.09754,2.12561 0.682765,2.83416 0.7803,0.70854 1.658144,1.72074 2.243365,1.41708 0.585229,-0.30366 4.291664,-2.22684 4.681814,-2.42928 0.39015,-0.20244 3.31628,-1.31586 4.38919,-1.31586 1.07292,0 5.85227,0.10121 5.85227,0.10121 l 4.97442,3.54271 4.09658,6.27565 2.04829,6.4781 1.36553,14.27204 2.82859,10.12202 4.29165,8.40127 z"
       id="path853" />
    <g
       id="g2995"
       transform="translate(-105.14038,6.34101)">
      <path
         style="fill:#ffb380;stroke:#000000;stroke-width:1.06048;stroke-linecap:butt;stroke-linejoin:miter;stroke-miterlimit:4;stroke-dasharray:none;stroke-opacity:1"
         d="m 255.77125,130.16357 c 0,0 0.53646,-0.5314 0.85345,-0.58201 0.317,-0.0505 0.634,-0.17714 1.29237,-0.076 0.65838,0.10121 0.99977,0.0505 1.46307,0.20243 0.4633,0.15184 1.36552,0.50612 1.48745,0.65793 0.12193,0.15184 0.56084,1.11343 0.56084,1.11343 l 1.48745,0.45549 1.19484,0.80975 c 0,0 0,0.30368 0.24384,0.53143 0.24384,0.22773 0.82907,0.50609 0.97538,0.65791 0.14631,0.15185 0.34138,0.43018 0.34138,0.53142 0,0.10122 0.0975,0.60732 0.12193,0.70853 0.0243,0.10122 0.48768,2.53051 0.51206,2.68234 0.0243,0.15183 0.21946,0.88568 0.21946,0.9869 0,0.10122 0.0488,0.63263 0.21946,0.80975 0.17069,0.17714 0.41454,0.25306 0.73154,0.25306 0.31699,0 0.97538,0.0505 0.99976,0.15183 0.0243,0.10122 0.21946,0.55671 0.56084,0.60732 0.34138,0.0505 1.46307,-0.15183 1.80445,-0.15183 0.34138,0 2.14583,0.35428 2.14583,0.35428 l 1.8776,1.18933 1.19483,0.43019 c 0,0 1.02415,0.80976 1.12168,0.96158 0.0975,0.15184 0.46331,0.93629 0.51207,1.13873 0.0488,0.20244 0.24385,0.91099 0.41454,1.29056 0.17069,0.37958 0.51208,1.13873 0.70715,1.26525 0.19507,0.12652 -0.41453,-0.45549 0.92661,0.35427 1.34114,0.80976 1.7069,1.16403 1.7069,1.16403 l 0.73154,0.78447 c 0,0 1.12168,1.11342 1.24361,1.29055 0.12192,0.17714 0.53646,1.41709 0.53646,1.41709 l 0.6096,0.91098 0.68277,6.0732 -2.14583,9.21104 -3.6089,8.09761 -7.04709,4.32717 -3.77959,2.25214 -15.04518,2.02442 -6.21803,0.91097 -4.19412,3.03661 -3.07243,-4.32716 -2.82859,-4.68144 -1.70692,-7.13601 -0.21148,-0.72323 -0.0812,-3.57864 0.97538,-6.27565 1.07291,-1.72074 2.87737,-0.88568 1.90201,0.98698 z"
         id="path929" />
      <g
         id="g2686"
         transform="translate(108.82014,-12.238131)">
        <path
           style="fill:#e9afaf;stroke:#000000;stroke-width:1.06048;stroke-linecap:butt;stroke-linejoin:miter;stroke-miterlimit:4;stroke-dasharray:none;stroke-opacity:1"
           d="m 134.50527,170.26789 -1.24145,-1.0736 c 0,0 -0.20692,0.21472 -0.27589,-0.71574 -0.069,-0.93045 0.13794,-1.8609 0.13794,-1.8609 l 0.62073,-0.64417 c 0,0 -1.03454,0.50101 -1.72424,0 -0.6897,-0.50102 -1.17248,-0.57259 -1.31042,-1.43147 -0.13794,-0.85888 -0.27588,-1.07359 -0.069,-1.43147 0.20691,-0.35786 2.00011,-0.42943 -0.13793,-0.28629 -2.13806,0.14315 -1.0375,-2.43089 -1.0375,-2.43089 0,0 0.34138,-0.60733 0.24385,-0.80977 -0.0975,-0.20244 -0.87785,-0.40488 -1.02415,-0.9616 -0.1463,-0.55669 -0.19507,-1.16403 -0.19507,-1.16403 l 0.63399,-0.50609 0.39015,-0.15184 c 0,0 0.19508,0.10123 -0.24384,-0.75915 -0.43893,-0.86037 -0.53646,-1.5183 -0.39015,-1.77135 0.1463,-0.25305 0.63399,-0.70854 0.87783,-0.70854 0.24384,0 0.4877,0.15183 0.4877,0.15183 0,0 -0.24386,-1.11343 -0.24386,-1.56891 0,-0.45549 -0.43892,-0.60733 0,-0.91098 0.43893,-0.30366 1.07292,-0.30366 1.07292,-0.30366 l 0.53646,0.20243 0.29261,-1.92318 0.43892,-1.06281 2.68228,-0.15183 0.19508,0.10122 0.58523,-1.51831 c 0,0 0.97538,-0.40488 1.36552,-0.20243 0.39016,0.20243 0.82907,0.35426 0.82907,0.35426 0,0 0.68277,0 0.68277,-0.75915 0,-0.75914 0,-1.46769 0,-1.46769 0,0 0.634,-0.70855 1.21922,-0.65794 0.58523,0.0505 1.17046,0.9616 1.17046,0.9616 0,0 0.53645,-0.40488 0.73152,-0.80975 0.19508,-0.40489 0.24385,-0.75916 0.43893,-1.01222 0.19508,-0.25305 0.97538,-0.60732 0.97538,-0.60732 0,0 1.21921,0.50612 1.21921,0.70854 0,0.20245 0.34139,1.11342 0.34139,1.11342 0,0 0.58522,-0.50609 0.82906,-0.80976 0.24385,-0.30366 0.73154,-0.86036 0.73154,-0.86036 0,0 0.87783,-0.0505 0.97538,0.15182 0.0975,0.20246 0.19507,1.01221 0.19507,1.01221 l 0.0975,1.56891 c 0,0 0.29262,-0.15183 0.82907,-0.60732 0.53646,-0.4555 1.41429,-0.80977 1.70691,-0.65792 0.2926,0.15182 0.73153,0.70852 0.7803,1.01218 0.0488,0.30367 -0.0488,1.11343 -0.0488,1.11343 l 0.0488,0.45549 c 0,0 0.63399,0.10122 0.97537,-0.15183 0.34139,-0.25305 1.07291,0.96159 1.07291,0.96159 0,0 -0.14629,0.91099 -0.19507,1.36647 -0.0488,0.4555 0.58523,0.75916 0.58523,0.75916 l 0.7803,0.35426 c 0,0 0,1.56892 -0.19508,1.67014 -0.19507,0.10122 -0.9266,0.40487 -0.9266,0.40487 l 1.5606,0.35428 c 0,0 0.73153,0.35427 0.73153,0.70854 0,0.35427 0.19508,0.91099 -0.39015,1.11343 -0.58523,0.20244 -0.7803,0.20244 -0.87784,0.40488 -0.0975,0.20244 0.24385,0.80976 0.24385,0.80976 0,0 0.48769,0.60732 0.19507,0.86037 -0.2926,0.25305 -0.73153,0.5061 -0.73153,0.5061 l -0.43892,0.30366 c 0,0 -0.0488,0.25305 -0.0488,0.60732 0,0.35427 -0.19507,0.80977 -0.43891,0.9616 -0.24385,0.15182 -0.73154,0.45548 -0.73154,0.45548 l -0.19507,1.21464 c 0,0 0.58522,-0.5567 0.87784,-0.25304 0.29261,0.30365 0.24384,0.60732 0.48768,0.9616 0.24385,0.35426 0.68277,0.40487 0.68277,0.40487 l 0.48768,-0.96158 0.43892,-1.61954 1.12169,-0.45549 c 0,0 0.0488,-0.65792 0.0975,-1.11342 0.0488,-0.45549 0.48768,-1.0628 0.78029,-1.11342 0.29262,-0.0505 1.07292,-0.15183 1.07292,-0.15183 0,0 0.0975,-0.65793 0.1463,-0.86037 0.0488,-0.20244 0.0975,-1.26526 0.78031,-1.31586 0.68276,-0.0505 1.4143,-0.25305 1.65814,0.0505 0.24384,0.30366 0.43891,0.65793 0.58523,1.06282 0.1463,0.40488 0.1463,1.01221 0.58522,1.11342 0.43892,0.10121 0.63399,-0.15182 0.92661,-0.35427 0.29261,-0.20243 0.97538,-0.60731 1.21922,-0.0505 0.24385,0.55672 0.0975,1.31587 0.0975,1.72075 0,0.40488 -0.24384,1.16403 0.14632,1.21464 0.39014,0.0505 1.36552,-0.25306 1.85321,-0.15184 0.48769,0.10123 0.87784,0.0505 0.97537,0.75915 0.0975,0.70855 -0.7803,2.07502 -0.7803,2.07502 0,0 -0.48768,0.86038 -0.0975,0.86038 0.39015,0 0.82907,-0.20245 1.12168,-0.0505 0.29261,0.15184 0.92661,1.41709 0.78031,1.67013 -0.14632,0.25306 -0.87785,0.55672 -0.87785,0.55672 l 0.92661,1.26526 c 0,0 0.87783,0.40488 0.7803,1.0628 -0.0975,0.65794 -0.1463,1.21465 -0.58522,1.4677 -0.43892,0.25305 -1.12169,0.35427 -1.12169,0.35427 0,0 -0.53646,0.55671 0,0.75915 0.53646,0.20244 0.97538,0.40489 0.97538,0.80977 0,0.40488 -0.29261,1.56891 -0.29261,1.56891 0,0 -1.02416,0.45548 -1.26799,0.50609 -0.24384,0.0505 -0.43892,0.15184 -0.43892,0.55672 0,0.40488 0.63399,1.11342 0.63399,1.11342 0,0 0.19508,1.0122 -0.24384,1.26525 -0.43892,0.25305 -1.07292,0.40488 -1.07292,0.40488 l 0.19507,0.86037 0.43893,0.80977 -0.24385,0.80976 -1.02414,0.40488 c 0,0 0,1.11343 0.24384,1.41708 0.24385,0.30366 0.48769,1.16403 0.39015,1.41709 -0.0975,0.25305 -1.4143,1.01219 -1.65814,0.91098 -0.24383,-0.10123 -1.21922,-0.75916 -1.21922,-0.75916 l -0.0975,1.67013 c 0,0 -1.07291,1.21464 -1.5606,0.91098 -0.48769,-0.30365 -1.02415,-0.80976 -1.02415,-0.80976 0,0 -0.53646,0.86039 -0.48768,1.16403 0.0488,0.30367 -0.0488,1.26526 -0.48769,1.41709 -0.43892,0.15182 -1.4143,-0.35428 -1.4143,-0.35428 0,0 -0.53646,-0.25305 -0.53646,-0.0505 0,0.20245 0.73154,1.16403 0.19508,1.5183 -0.53645,0.35427 -1.07291,0.9616 -1.46306,0.75915 -0.39015,-0.20243 -0.48769,-0.60732 -0.73154,-0.5567 -0.24384,0.0505 -0.0975,0.30365 -0.2926,0.5567 -0.19508,0.25306 -0.68277,0.91098 -1.41431,0.70855 -0.73152,-0.20245 -1.65813,-1.97379 -1.65813,-1.97379 l -0.14632,-0.55672 c 0,0 -0.53646,0.35427 -1.17045,0.10123 -0.63399,-0.25306 -1.07291,-0.35427 -1.17045,-1.06282 -0.0975,-0.70854 0.14631,-1.21464 -0.2926,-1.21464 -0.43892,0 -0.68278,0.15183 -0.53646,0.91098 0.1463,0.75915 -0.82907,2.58112 -0.82907,2.58112 h -1.268 c 0,0 -0.0975,1.26525 -0.0488,1.72073 0.0488,0.45549 -0.24384,1.82197 -0.53646,1.82197 -0.29261,0 -0.53645,-0.35427 -0.53645,-0.35427 l -0.7803,2.27745 -0.87785,-0.20243 -0.68276,-0.35428 -1.26799,0.75916 c 0,0 -1.75568,0.50609 -1.99953,0.25304 -0.24384,-0.25304 -0.58522,-0.65792 -0.58522,-1.06281 0,-0.40488 0,-0.96159 0,-0.96159 0,0 -1.02415,1.06281 -1.70691,1.16403 -0.68276,0.10122 -1.41429,0.35427 -1.65814,-0.35427 -0.24384,-0.70854 -0.29261,-1.41708 -0.29261,-1.41708 0,0 -0.0488,-0.25305 -0.97537,-0.35428 -0.92661,-0.10121 -1.17045,0.25306 -1.21923,-0.5567 -0.0488,-0.80976 0.0488,-1.31586 0.14631,-1.5183 0.0975,-0.20245 0.0488,-0.45549 -0.43892,-0.55671 -0.48769,-0.10123 -1.46307,-0.35427 -1.65814,-0.91099 -0.19508,-0.5567 -0.24384,-0.96158 -0.0975,-1.31586 0.14631,-0.35427 0.34139,-0.65793 0.34139,-0.65793 0,0 -1.75568,-0.30366 -1.95076,-0.86037 -0.19507,-0.55672 -0.43892,-1.36648 -0.19507,-1.77135 0.24384,-0.40488 0.68275,-0.55671 0.68275,-0.55671 0,0 0.0976,-0.55672 -0.0488,-0.91099 -0.14631,-0.35427 -0.19508,-1.4677 0,-1.56892 0.19508,-0.10121 0.0975,-0.10121 1.02415,-0.20242 0.92661,-0.10124 0.29261,-1.46771 0.24384,-1.72075 -0.0488,-0.25305 1.07291,-1.72076 1.07291,-1.72076 0,0 1.26799,0.0505 1.36553,-0.20242 0.0975,-0.25307 -0.0975,-1.9738 -0.0975,-1.9738 z"
           id="path863" />
        <path
           style="fill:none;stroke:#000000;stroke-width:1.06048;stroke-linecap:butt;stroke-linejoin:miter;stroke-miterlimit:4;stroke-dasharray:none;stroke-opacity:1"
           d="m 122.15972,161.17806 6.2349,6.95864 c 0,0 4.63305,2.37866 4.82812,2.37866 0.19507,0 1.56061,0.10124 2.24336,-0.35426 0.68278,-0.4555 1.60937,-0.86037 1.65815,-1.51831 0.0488,-0.65793 0.29261,-2.83416 0.29261,-3.28965 0,-0.45548 -0.48768,-3.34027 -0.82907,-3.84636 -0.34138,-0.50611 -0.58523,-1.77136 -1.36553,-1.9738 -0.7803,-0.20244 -1.90199,-0.50611 -1.90199,-0.50611 0,0 1.95076,-0.30366 2.14583,-0.20243 0.19508,0.10122 0.92661,0.30365 0.92661,0.30365 0,0 0.68276,-1.46768 0.48769,-2.42928 -0.19507,-0.96159 -0.68276,-2.4799 -0.9266,-2.93538 -0.24385,-0.4555 -0.634,-0.80976 -0.34138,-0.70856 0.2926,0.10124 2.6335,3.49212 2.6335,3.49212 0,0 0.0488,2.22683 0.0976,3.13782 0.0488,0.91098 0,4.40308 1.26798,2.5305 1.268,-1.87257 2.43845,-5.36467 2.43845,-5.5671 0,-0.20245 1.90198,-5.9214 1.90198,-6.17444 0,-0.25306 0.0975,-2.17623 0.0975,-2.17623 0,0 -0.58523,5.82016 -0.68277,6.37687 -0.0975,0.55672 -1.17045,3.84637 -1.46305,4.40307 -0.29262,0.55672 -1.21923,3.84638 -1.4143,4.4537 -0.19508,0.60733 -1.4143,2.53051 -1.31676,2.93539 0.0975,0.40487 0.0488,1.41707 0.63399,0.86037 0.58522,-0.55673 1.90199,-2.53052 2.34091,-3.4921 0.43891,-0.9616 2.63352,-3.89698 3.21874,-4.60551 0.58523,-0.70855 2.1946,-2.37869 2.9749,-2.9354 0.7803,-0.55671 2.73105,-1.5183 2.73105,-1.5183 0,0 -2.53597,2.22684 -2.73105,2.47989 -0.19508,0.25305 -2.8286,3.23905 -3.31628,4.09942 -0.4877,0.86037 -3.95027,6.5287 -3.95027,6.5287 0,0 -0.0488,1.06282 0.14629,1.21464 0.19508,0.15184 1.56061,0.65794 2.14583,0.60732 0.58523,-0.0505 2.24337,-1.31585 2.58476,-1.67012 0.34138,-0.35428 1.7069,-2.32807 1.7069,-2.58113 0,-0.25305 0.78031,-2.17622 0.78031,-2.17622 l -0.0975,3.44148 c 0,0 -0.68277,1.21464 0.9266,0.40487 1.60938,-0.80975 7.94933,-4.80795 7.94933,-4.80795 l 1.07291,-1.67013 c 0,0 -3.80397,4.95978 -4.04781,5.11163 -0.24384,0.15181 -7.94932,4.65612 -7.94932,4.65612 0,0 -0.0975,1.11342 0.82907,1.11342 0.9266,0 2.04829,-0.0505 3.51135,-0.20244 1.46307,-0.15183 7.02271,-0.40488 7.02271,-0.40488 l 3.65767,-1.21465 c 0,0 -2.38967,1.67014 -3.31628,1.77136 -0.92661,0.10122 -1.99952,0.45549 -3.02367,0.60732 -1.02415,0.15183 -1.90199,0.45549 -3.56013,0.55671 -1.65814,0.10122 -3.70643,0.10122 -4.0478,0.10122 -0.34139,0 -1.21923,-0.20244 -1.4143,0.25306 -0.19507,0.45548 -0.634,1.21464 -0.14631,1.36646 0.48769,0.15184 2.4872,1.16404 2.92613,1.41709 0.43892,0.25305 6.48625,3.79575 6.48625,3.79575 l 1.65814,0.86037 c 0,0 -3.51135,-0.65792 -3.95027,-0.80975 -0.43892,-0.15184 -6.0961,-3.44149 -6.7301,-3.69454 -0.63399,-0.25305 -1.31676,-1.41708 -2.38967,-2.02441 -1.07292,-0.60731 -1.60938,-1.67013 -2.8286,-1.11342 -1.21922,0.55672 -1.17045,0.25305 -1.26798,0.91099 -0.0975,0.65792 -0.19508,1.16403 0.0975,1.77134 0.29262,0.60733 1.36553,3.64393 1.60937,3.9476 0.24385,0.30366 1.26799,1.67012 1.56061,1.97379 0.29261,0.30366 1.36552,1.41708 1.36552,1.41708 0,0 -1.99952,-0.4555 -2.68228,-1.41708 -0.68277,-0.9616 -1.70692,-3.03661 -2.1946,-3.69454 -0.48769,-0.65793 -1.31676,-1.87257 -1.5606,-1.61952 -0.24385,0.25305 -0.53646,2.42928 -0.53646,2.88478 0,0.45549 0.29261,3.59331 0.29261,3.79576 0,0.20243 1.21923,5.41528 1.21923,5.41528 0,0 -2.14583,-5.76956 -2.24338,-5.97199 -0.0975,-0.20245 -0.39014,-1.72075 -1.17045,-1.82198 -0.7803,-0.10122 -1.36552,0.20245 -1.60937,0.45549 -0.24384,0.25305 -1.07292,1.56892 -1.07292,1.56892 0,0 1.36553,-2.83417 1.56061,-3.44148 0.19508,-0.60733 1.36553,-1.4677 0.73154,-2.78356 -0.634,-1.31586 -1.17046,-2.83416 -1.80445,-3.39088 -0.63399,-0.55671 -1.46307,-0.91098 -2.09707,-0.91098 -0.63399,0 -2.63351,0.91098 -2.63351,0.91098 l -1.07292,1.72075 -0.97538,6.27564 0.42598,-7.51524 0.30556,-2.65737 -1.54701,-4.78626 z"
           id="path859" />
      </g>
      <path
         style="fill:none;stroke:#000000;stroke-width:0.191526px;stroke-linecap:butt;stroke-linejoin:miter;stroke-opacity:1"
         d="m 255.89019,133.71233 c 0.73852,-1.00238 2.38457,-1.4397 2.21214,-3.00928"
         id="path935" />
      <path
         style="fill:none;stroke:#000000;stroke-width:0.191526px;stroke-linecap:butt;stroke-linejoin:miter;stroke-opacity:1"
         d="m 259.15773,134.5727 c 1.38138,-0.22267 2.65432,-0.59542 3.21875,-1.94848"
         id="path937" />
      <path
         style="fill:none;stroke:#000000;stroke-width:0.191526px;stroke-linecap:butt;stroke-linejoin:miter;stroke-opacity:1"
         d="m 261.25476,135.83795 c 1.09148,-0.0558 2.00671,-0.5231 2.73037,-1.43774"
         id="path939" />
      <path
         style="fill:none;stroke:#000000;stroke-width:0.191526px;stroke-linecap:butt;stroke-linejoin:miter;stroke-opacity:1"
         d="m 261.7922,137.50253 c 1.05754,-0.0904 2.11507,-0.25332 3.17261,-1.00203"
         id="path941" />
      <path
         style="fill:none;stroke:#000000;stroke-width:0.191526px;stroke-linecap:butt;stroke-linejoin:miter;stroke-opacity:1"
         d="m 262.65432,139.18451 c 2.65533,0.0801 2.65533,-0.81645 2.65533,-0.8231"
         id="path943" />
      <path
         style="fill:none;stroke:#000000;stroke-width:0.191526px;stroke-linecap:butt;stroke-linejoin:miter;stroke-opacity:1"
         d="m 262.86413,140.74713 c 0.94648,0.11519 1.85396,0.007 2.61794,-0.91845"
         id="path945" />
      <path
         style="fill:none;stroke:#000000;stroke-width:0.191526px;stroke-linecap:butt;stroke-linejoin:miter;stroke-opacity:1"
         d="m 269.44783,142.69161 c 0.72988,0.0874 1.7626,-0.90391 1.62078,-1.00203"
         id="path947" />
      <path
         style="fill:none;stroke:#000000;stroke-width:0.191526px;stroke-linecap:butt;stroke-linejoin:miter;stroke-opacity:1"
         d="m 271.7583,143.58628 c 0.48398,-0.31645 1.08073,-0.47688 1.31043,-1.14518"
         id="path949" />
      <path
         style="fill:none;stroke:#000000;stroke-width:0.191526px;stroke-linecap:butt;stroke-linejoin:miter;stroke-opacity:1"
         d="m 272.58594,145.30404 c 1.1712,-0.30803 2.21998,-0.87015 2.93373,-2.12762"
         id="path951" />
      <path
         style="fill:none;stroke:#000000;stroke-width:0.191526px;stroke-linecap:butt;stroke-linejoin:miter;stroke-opacity:1"
         d="m 274.58605,146.62815 2.17255,-1.43147"
         id="path953" />
      <path
         style="fill:none;stroke:#000000;stroke-width:0.191526px;stroke-linecap:butt;stroke-linejoin:miter;stroke-opacity:1"
         d="m 275.34472,148.52485 c 1.33144,0.55163 1.73551,-0.34033 2.37944,-0.85889"
         id="path955" />
      <path
         style="fill:none;stroke:#000000;stroke-width:0.191526px;stroke-linecap:butt;stroke-linejoin:miter;stroke-opacity:1"
         d="m 275.89648,150.5289 c 1.60254,0.0312 2.8916,-0.42546 3.75884,-1.53883"
         id="path957" />
      <path
         style="fill:none;stroke:#000000;stroke-width:0.191526px;stroke-linecap:butt;stroke-linejoin:miter;stroke-opacity:1"
         d="m 276.24132,152.1751 c 1.88321,0.0552 3.74663,-0.0537 5.4486,-1.50305"
         id="path959" />
      <path
         style="fill:none;stroke:#000000;stroke-width:0.191526px;stroke-linecap:butt;stroke-linejoin:miter;stroke-opacity:1"
         d="m 276.27559,153.95642 c 2.71734,0.90657 4.97271,0.0553 7.14464,-1.11347"
         id="path961" />
      <path
         style="fill:none;stroke:#000000;stroke-width:0.191526px;stroke-linecap:butt;stroke-linejoin:miter;stroke-opacity:1"
         d="m 276.86204,156.39793 c 2.32199,0.66616 4.64396,0.7261 6.96593,-0.32208"
         id="path963" />
      <path
         style="fill:none;stroke:#000000;stroke-width:0.191526px;stroke-linecap:butt;stroke-linejoin:miter;stroke-opacity:1"
         d="m 276.55168,158.61671 c 2.62979,1.2489 5.34722,1.6792 8.16092,1.21043"
         id="path965" />
      <path
         style="fill:none;stroke:#000000;stroke-width:0.191526px;stroke-linecap:butt;stroke-linejoin:miter;stroke-opacity:1"
         d="m 276.03174,159.97902 c 2.14384,2.34758 4.76315,3.37938 7.45138,4.22042"
         id="path967" />
      <path
         style="fill:none;stroke:#000000;stroke-width:0.191526px;stroke-linecap:butt;stroke-linejoin:miter;stroke-opacity:1"
         d="m 274.95882,162.15526 c 1.89703,2.96359 4.70812,4.03005 7.69667,4.72819"
         id="path969" />
      <path
         style="fill:none;stroke:#000000;stroke-width:0.191526px;stroke-linecap:butt;stroke-linejoin:miter;stroke-opacity:1"
         d="m 274.27606,165.49552 c 6.40655,6.88585 7.11113,5.01441 7.13798,4.93081"
         id="path971" />
      <path
         style="fill:none;stroke:#000000;stroke-width:0.191526px;stroke-linecap:butt;stroke-linejoin:miter;stroke-opacity:1"
         d="m 273.93085,168.27913 c 1.39043,2.51747 3.63938,4.14401 5.93137,5.72588"
         id="path973" />
      <path
         style="fill:none;stroke:#000000;stroke-width:0.191526px;stroke-linecap:butt;stroke-linejoin:miter;stroke-opacity:1"
         d="m 273.44806,169.85375 c 0.7974,3.04359 3.56679,4.91779 5.50982,7.28204"
         id="path975" />
      <path
         style="fill:none;stroke:#000000;stroke-width:0.191526px;stroke-linecap:butt;stroke-linejoin:miter;stroke-opacity:1"
         d="m 271.20654,170.67684 c 1.36728,4.82781 3.05353,5.35198 4.58648,7.94465"
         id="path977" />
      <path
         style="fill:none;stroke:#000000;stroke-width:0.191526px;stroke-linecap:butt;stroke-linejoin:miter;stroke-opacity:1"
         d="m 268.51673,172.53775 c 0.5414,4.47099 2.71075,5.56315 4.24163,7.98044"
         id="path979" />
      <path
         style="fill:none;stroke:#000000;stroke-width:0.191526px;stroke-linecap:butt;stroke-linejoin:miter;stroke-opacity:1"
         d="m 265.96486,174.43445 c -0.88088,4.20256 0.97701,6.51033 2.16633,9.28064"
         id="path981" />
      <path
         style="fill:none;stroke:#000000;stroke-width:0.191526px;stroke-linecap:butt;stroke-linejoin:miter;stroke-opacity:1"
         d="m 263.48195,176.36693 c -1.27522,2.67464 -0.64734,5.12986 -0.34484,7.62258"
         id="path983" />
      <path
         style="fill:none;stroke:#000000;stroke-width:0.191526px;stroke-linecap:butt;stroke-linejoin:miter;stroke-opacity:1"
         d="m 261.13699,177.08267 c -2.036,2.06137 -1.90519,5.08644 -2.79326,7.65836"
         id="path985" />
      <path
         style="fill:none;stroke:#000000;stroke-width:0.191526px;stroke-linecap:butt;stroke-linejoin:miter;stroke-opacity:1"
         d="m 259.10239,174.75653 c -2.5992,3.19139 -1.29276,6.75126 -1.93114,10.12765"
         id="path987" />
      <path
         style="fill:none;stroke:#000000;stroke-width:0.191526px;stroke-linecap:butt;stroke-linejoin:miter;stroke-opacity:1"
         d="m 254.92973,176.15221 c -0.41226,3.5768 -0.27743,6.49122 0.41382,8.73197"
         id="path989" />
      <path
         style="fill:none;stroke:#000000;stroke-width:0.191526px;stroke-linecap:butt;stroke-linejoin:miter;stroke-opacity:1"
         d="m 252.47642,180.88102 c -0.11248,5.62801 1.17165,4.61747 1.17737,4.61153"
         id="path991" />
      <path
         style="fill:none;stroke:#000000;stroke-width:0.191526px;stroke-linecap:butt;stroke-linejoin:miter;stroke-opacity:1"
         d="m 249.64782,181.08345 c -0.67524,2.32951 0.48148,3.30108 0.97132,4.76696"
         id="path993" />
      <path
         style="fill:none;stroke:#000000;stroke-width:0.191526px;stroke-linecap:butt;stroke-linejoin:miter;stroke-opacity:1"
         d="m 247.06721,181.05499 c -0.63524,2.38955 -0.29462,3.99144 0.72418,5.04594"
         id="path995" />
    </g>
  </g>
</svg>
