<?xml version="1.0" encoding="UTF-8" standalone="no"?>
<svg
   xmlns:dc="http://purl.org/dc/elements/1.1/"
   xmlns:cc="http://creativecommons.org/ns#"
   xmlns:rdf="http://www.w3.org/1999/02/22-rdf-syntax-ns#"
   xmlns:svg="http://www.w3.org/2000/svg"
   xmlns="http://www.w3.org/2000/svg"
   xmlns:sodipodi="http://sodipodi.sourceforge.net/DTD/sodipodi-0.dtd"
   xmlns:inkscape="http://www.inkscape.org/namespaces/inkscape"
   width="210mm"
   height="297mm"
   viewBox="0 0 210 297"
   version="1.1"
   id="svg8"
   inkscape:version="1.0.2 (e86c870879, 2021-01-15, custom)"
   sodipodi:docname="butterfly.svg">
  <defs
     id="defs2" />
  <sodipodi:namedview
     id="base"
     pagecolor="#ffffff"
     bordercolor="#666666"
     borderopacity="1.0"
     inkscape:pageopacity="0.0"
     inkscape:pageshadow="2"
     inkscape:zoom="0.68149425"
     inkscape:cx="820.26275"
     inkscape:cy="394.8911"
     inkscape:document-units="mm"
     inkscape:current-layer="layer1"
     inkscape:document-rotation="0"
     showgrid="false"
     inkscape:window-width="1920"
     inkscape:window-height="1017"
     inkscape:window-x="-8"
     inkscape:window-y="-8"
     inkscape:window-maximized="1" />
  <metadata
     id="metadata5">
    <rdf:RDF>
      <cc:Work
         rdf:about="">
        <dc:format>image/svg+xml</dc:format>
        <dc:type
           rdf:resource="http://purl.org/dc/dcmitype/StillImage" />
        <dc:title></dc:title>
      </cc:Work>
    </rdf:RDF>
  </metadata>
  <g
     inkscape:label="Layer 1"
     inkscape:groupmode="layer"
     id="layer1">
    <g
       id="g900">
      <path
         id="path847"
         style="fill:#fff6d5;stroke:#000000;stroke-width:0.565;stroke-linecap:butt;stroke-linejoin:miter;stroke-miterlimit:4;stroke-dasharray:none;stroke-opacity:1"
         d="m 80.20937,123.86973 c -2.645788,-7.2029 -7.758107,-12.97157 -12.072749,-19.1841 -6.394699,-3.36273 -12.789399,-6.725457 -19.184099,-10.088186 -5.729427,-0.159891 -11.530413,-1.6656 -17.22548,-0.903104 -2.968194,0.742048 -5.936388,1.484097 -8.904582,2.226145 -0.459762,3.788347 -2.300645,8.670495 2.04147,11.047825 3.187506,2.79614 6.94471,5.41445 8.881766,9.20444 0.3807,4.11651 1.120107,8.12757 2.259865,12.11746 0.942564,5.90976 7.556846,6.22947 12.269273,6.78767 5.769788,-0.35635 11.391738,-1.9546 17.141265,-2.58966 4.377987,-1.46589 9.935528,-0.10697 13.751838,-1.18329 0.07391,-2.69783 1.614012,-4.60517 1.041433,-7.4352 z" />
      <path
         id="path849"
         style="fill:#ffd5d5;stroke:#000000;stroke-width:0.565;stroke-linecap:butt;stroke-linejoin:miter;stroke-miterlimit:4;stroke-dasharray:none;stroke-opacity:1"
         d="m 79.217088,131.97336 c 0.769783,2.09574 2.410657,3.57653 3.737851,5.26115 0.643043,2.50821 0.183954,5.15081 0.359181,7.71316 -0.147288,2.21318 0.513069,4.58598 -0.631228,6.62126 -0.877147,1.83186 -1.377807,3.99653 -3.106516,5.23313 -1.748438,1.75038 -3.006751,3.92808 -4.311371,6.01136 -1.13994,1.86772 -1.340326,4.55672 -3.56189,5.51902 -2.358309,1.2135 -5.514504,0.93843 -7.259083,3.23347 -1.201403,1.35482 -4.115534,3.49755 -5.456778,1.47534 -1.278865,-2.13413 -4.063857,-0.87713 -6.005347,-0.78263 -2.701298,0.72404 -2.906425,-2.45834 -3.743845,-4.12547 -1.504501,-1.8187 -4.676141,-0.86747 -5.723864,-3.11558 -0.429886,-1.85718 -0.152823,-4.14794 -2.00378,-5.34304 -1.52137,-1.84772 0.0051,-4.37451 -0.661522,-6.44982 -1.973355,-1.54988 0.806379,-4.27547 -1.432701,-5.93835 0.418002,-1.88373 2.421309,-3.09157 2.326788,-5.16182 0.454604,-2.13785 2.383069,-3.26308 3.901938,-4.61095 1.214843,-0.77329 2.0612,-2.35896 3.617809,-2.38364 7.876066,-1.20498 15.749206,-2.48551 23.627098,-3.6433 2.109087,0.16224 4.218173,0.32447 6.32726,0.48671 z" />
      <path
         id="path851"
         style="fill:#fff6d5;stroke:#000000;stroke-width:0.565;stroke-linecap:butt;stroke-linejoin:miter;stroke-miterlimit:4;stroke-dasharray:none;stroke-opacity:1"
         d="m 85.515203,123.19405 c 1.460572,-3.04908 2.834023,-6.15451 4.348809,-9.16853 3.56052,-4.15016 7.121039,-8.30032 10.681558,-12.45048 3.79639,-2.224844 7.53314,-4.577007 11.37096,-6.716898 4.19454,-1.085168 8.37004,-2.370542 12.60095,-3.248327 2.81289,0.02353 5.66558,-0.510524 8.42876,0.215777 2.54164,0.462048 5.08143,1.047951 7.54302,1.788163 1.25766,2.225785 2.79391,4.380267 1.67892,7.103755 0.0282,2.59454 -2.40874,3.67075 -4.08853,5.12235 -0.45,2.69416 -3.18868,3.47802 -5.18385,4.80208 -0.87538,0.54398 -0.74142,1.85763 -1.15487,2.75385 -1.37157,1.81736 -0.44525,4.07803 -0.44833,6.22941 -0.47661,3.02498 -1.18211,6.08088 -2.05948,8.98608 -1.62842,1.49478 -3.11797,3.4998 -5.10404,4.42349 -2.85297,0.50534 -5.7402,1.28195 -8.63869,0.64795 -6.7711,-0.68533 -13.4728,-1.93372 -20.21446,-2.79962 -2.548498,-0.008 -5.16271,0.21101 -7.623352,0.85895 -1.144605,0.75536 -1.12163,-0.0693 -0.970637,-1.06713 -2.128174,-1.87009 -1.712541,-5.01179 -1.166738,-7.48087 z" />
      <path
         id="path853"
         style="fill:#ffd5d5;stroke:#000000;stroke-width:0.565;stroke-linecap:butt;stroke-linejoin:miter;stroke-miterlimit:4;stroke-dasharray:none;stroke-opacity:1"
         d="m 86.613311,132.11619 c -0.820727,1.79299 -1.294854,3.70711 -3.220531,4.9073 -1.037,1.60511 0.0076,3.96416 -0.17739,5.88601 0.198796,2.49464 0.105011,5.03104 0.477721,7.49994 0.383123,1.97733 1.244478,3.78134 2.991162,4.77371 1.657901,2.08986 3.671828,3.92157 5.110738,6.17018 0.408894,1.30519 0.543684,2.83826 1.784427,3.63748 1.155301,1.22393 2.310603,2.44787 3.465904,3.6718 2.522402,-0.10543 5.326138,0.46381 6.953258,2.56082 1.25011,1.77509 3.68289,2.75196 5.02996,0.50992 1.94148,-1.84307 4.3318,-0.20582 6.56881,-0.63 1.44832,-1.23824 0.44496,-4.41691 2.83964,-5.07877 1.91247,0.0799 4.21722,-0.66049 4.6675,-2.86109 -0.60972,-1.97211 0.90031,-3.25782 2.18281,-4.52112 0.50497,-1.94309 -0.925,-4.49989 0.87276,-5.9648 2.39599,-1.15788 -0.3723,-3.77747 0.31112,-5.13639 1.92266,-1.70841 -0.76188,-3.63833 -1.49274,-5.26749 0.45028,-2.25186 -1.41574,-3.67371 -2.98548,-4.87286 -1.67659,-1.20956 -3.4337,-2.35017 -5.49658,-2.74654 -2.69236,-0.89522 -5.4493,-1.51679 -8.26562,-1.85917 -3.45671,-0.49144 -6.89099,-1.22733 -10.359372,-1.58239 -2.377572,-0.002 -4.772898,-0.16952 -7.13952,-0.0694 -1.372859,0.3243 -2.745718,0.6486 -4.118577,0.9729 z" />
      <path
         style="fill:#ffe6d5;stroke:#000000;stroke-width:0.565;stroke-linecap:butt;stroke-linejoin:miter;stroke-miterlimit:4;stroke-dasharray:none;stroke-opacity:1"
         d="m 80.89951,122.00442 -0.690142,1.86531 v 3.96912 l -1.157658,1.98456 0.165378,2.14995 1.197123,2.40621 2.547824,2.66915 2.208117,-1.50443 0.752213,-1.4559 c 0,0 -0.14559,-1.01913 0,-1.14046 0.145589,-0.12132 0.759574,-2.27301 0.759574,-2.27301 l -1.075018,-1.391 -0.752216,-2.66915 c 0,0 0.660495,-3.42072 0.660495,-3.42072 0,0 -0.247988,-0.72859 -0.514905,-0.92271 -0.266915,-0.19412 -0.606624,-0.84928 -0.606624,-0.84928 l 0.19412,-0.99486 3.130184,-5.31404 c 0,0 3.20298,-6.3089 3.20298,-6.40596 0,-0.0971 0.09706,-4.29491 0.09706,-4.29491 l -0.121325,4.48903 -6.503019,12.08397 -1.407371,0.60663 c 0,0 -0.800743,0.21838 -0.970601,0 -0.169854,-0.21839 -1.213249,-2.45077 -1.286044,-2.66915 -0.07279,-0.21839 -3.10592,-3.97946 -3.469894,-4.70741 -0.363977,-0.72796 -2.620621,-5.87213 -3.05739,-6.55155 -0.436771,-0.67942 -1.01913,-3.49416 -1.01913,-3.49416 0,0 0.630888,3.63975 0.679418,3.73681 0.04853,0.0971 0.897806,1.50442 1.01913,1.77134 0.121328,0.26692 0.509567,1.16472 0.655156,1.48017 0.14559,0.31544 0.485302,0.9706 0.703686,1.62575 0.218385,0.65516 0.946335,2.08679 1.16472,2.25665 0.218384,0.16985 3.10592,4.00372 3.10592,4.00372 l 0.9706,2.25665 z"
         id="path855" />
      <path
         style="fill:none;stroke:#000000;stroke-width:0.565;stroke-linecap:butt;stroke-linejoin:miter;stroke-miterlimit:4;stroke-dasharray:none;stroke-opacity:1"
         d="m 86.165017,129.5751 2.305174,-1.62575 c 0,0 0.752216,-0.50957 0.946335,-0.63089 0.19412,-0.12133 -0.9706,0.82501 -0.9706,0.82501 0,0 0.339709,0.0243 0.703683,0.0485 0.363977,0.0243 0.461037,0.0485 0.461037,0.0485"
         id="path857" />
      <path
         style="fill:none;stroke:#000000;stroke-width:0.565;stroke-linecap:butt;stroke-linejoin:miter;stroke-miterlimit:4;stroke-dasharray:none;stroke-opacity:1"
         d="m 79.152432,129.28392 c -0.169858,-0.0971 -1.019131,-0.70368 -1.334577,-0.8978 -0.315445,-0.19412 -0.873541,-0.5581 -1.237515,-0.63089 -0.363974,-0.0728 -0.412504,-0.0728 -0.412504,-0.0728 l 1.407369,0.65516 -1.334574,0.36397"
         id="path859" />
      <path
         style="fill:none;stroke:#000000;stroke-width:0.565;stroke-linecap:butt;stroke-linejoin:miter;stroke-miterlimit:4;stroke-dasharray:none;stroke-opacity:1"
         d="m 81.95493,122.07021 c 0,0 -0.394634,0.163 -0.42037,0.36032 -0.02574,0.19731 -0.06005,0.42037 0,0.46326 0.06005,0.0429 0.128685,0.13726 0.274526,-0.0172 0.145844,-0.15442 0.326001,-0.40321 0.42037,-0.45469 0.09437,-0.0515 0.34316,-0.18873 0.291688,-0.27452 -0.05148,-0.0858 -0.566214,-0.0772 -0.566214,-0.0772 z"
         id="path861" />
      <path
         style="fill:none;stroke:#000000;stroke-width:0.565;stroke-linecap:butt;stroke-linejoin:miter;stroke-miterlimit:4;stroke-dasharray:none;stroke-opacity:1"
         d="m 83.807987,122.00158 c -0.231632,0.009 -0.549053,0.1201 -0.566211,0.23163 -0.01717,0.11152 0.291684,0.19732 0.428948,0.30026 0.137263,0.10295 0.09437,0.14585 0.240212,0.28311 0.145841,0.13726 0.257368,0.31742 0.334579,0.23163 0.07721,-0.0858 0.09437,-0.33458 0.05147,-0.49758 -0.04289,-0.163 -0.02574,-0.17158 -0.137263,-0.25737 -0.111528,-0.0858 -0.317424,-0.2831 -0.317424,-0.2831"
         id="path863" />
    </g>
  </g>
</svg>
