<?xml version="1.0" encoding="UTF-8" standalone="no"?>
<svg
   xmlns:dc="http://purl.org/dc/elements/1.1/"
   xmlns:cc="http://creativecommons.org/ns#"
   xmlns:rdf="http://www.w3.org/1999/02/22-rdf-syntax-ns#"
   xmlns:svg="http://www.w3.org/2000/svg"
   xmlns="http://www.w3.org/2000/svg"
   width="210mm"
   height="297mm"
   viewBox="0 0 210 297"
   version="1.1"
   id="svg1003">
  <defs
     id="defs997" />
  <metadata
     id="metadata1000">
    <rdf:RDF>
      <cc:Work
         rdf:about="">
        <dc:format>image/svg+xml</dc:format>
        <dc:type
           rdf:resource="http://purl.org/dc/dcmitype/StillImage" />
        <dc:title></dc:title>
      </cc:Work>
    </rdf:RDF>
  </metadata>
  <g
     id="layer1">
    <g
       id="g1907">
      <path
         style="fill:#ffccaa;stroke:#000000;stroke-width:1.465;stroke-linecap:butt;stroke-linejoin:miter;stroke-miterlimit:4;stroke-dasharray:none;stroke-opacity:1"
         d="m 80.37421,109.33691 -5.35328,5.90233 c 0,0 -1.23537,4.94148 -1.23537,5.90233 0,0.96085 0,4.11791 0,4.94149 0,0.82358 0.41179,2.33348 1.23537,3.70612 0.82358,1.37263 2.19622,2.33348 3.70612,3.15706 1.5099,0.82358 3.29433,1.09811 5.35328,1.5099 2.05895,0.41179 11.94193,2.05895 11.94193,2.05895 l 3.70611,0.41179 5.62781,3.15706 2.74527,8.92214 -1.09811,7.54949 -2.47074,6.72592 -7.00044,6.17685 -5.35328,2.88254 -17.84427,1.92169 -14.00088,-4.25517 -13.1773,0.96084 -10.98109,-4.80422 c 0,0 -7.1377,-5.49054 -7.1377,-5.49054 l -2.74527,-4.66696 c 0,0 -5.21602,-3.0198 -5.21602,-3.56886 0,-0.54905 -5.21602,-8.37307 -5.21602,-8.37307 l 1.92169,-21.55038 2.74528,-4.66696 -1.37264,-7.5495 5.90233,-16.608892 7.96129,-3.157062 0.68632,-6.314126 1.78442,-4.39243 10.98109,-9.74572 7.27497,-1.78442 h 0.96085 l 4.25516,-7.68676 6.86318,-5.07875 10.98109,-3.29433 6.0396,-0.13726 1.78442,-7.27497 4.80423,-4.94149 14.96173,-4.80422 6.03959,-0.27453 4.39244,1.64716 v 0 l 3.98064,-2.74527 8.51034,-1.09811 27.04092,2.47075 3.84338,0.41178 4.11791,3.4316 6.17686,-1.37264 6.58865,0.41179 7.00044,2.05895 7.27497,3.84338 2.88254,4.80423 v 0 l 6.31412,0.68632 8.09855,2.47074 7.27497,5.62781 2.47075,6.17686 2.47074,4.80422 8.09855,0.96085 3.0198,1.64716 8.37308,10.98108 2.47074,5.490547 0.54906,4.804225 -0.68632,3.157061 4.80422,1.509901 5.35328,3.157066 3.70612,3.43159 4.11791,7.96128 1.37263,6.0396 -1.37263,4.94149 2.88253,1.78442 1.92169,6.17686 1.5099,14.41268 -1.23537,8.09855 -3.70612,9.60845 -2.608,1.78443 -1.78443,-1.23538 0.27453,10.5693 -2.74528,5.6278 -10.43203,2.88254 -8.37308,-0.27453 0.96085,8.23581 -3.0198,12.49099 -5.07875,10.98108 -15.23626,8.92213 -29.92346,3.98065 -5.90233,4.11791 -3.72468,-5.1123 c 0,0 -4.07652,-5.8236 -4.65888,-7.47362 -0.58236,-1.65002 -2.62062,-10.28836 -2.62062,-10.28836 l 0.4853,-15.0443 c 0,0 0.4853,-2.32944 0.4853,-3.59122 0,-1.26178 -2.23238,-6.50302 -2.23238,-6.50302 l -4.95006,-6.3089 -1.26178,-4.65888 1.84414,-3.59122 c 0,0 3.00886,-1.74708 3.00886,-2.23238 0,-0.4853 0.9706,-0.4853 0.29118,-2.13532 -0.67942,-1.65001 -3.78534,-6.11478 -3.78534,-6.11478 l -3.30004,-2.62061 -1.84414,-4.27065 1.65002,-1.84413 2.4265,-0.29119 c 0,0 3.49416,0.4853 5.04712,0.87354 1.55296,0.38825 6.98832,0.87354 7.47362,0.87354 0.4853,0 3.49416,-1.16472 3.49416,-1.16472 l 0.67942,-3.30004 c 0,0 -4.853,-3.49416 -5.62948,-4.07652 -0.77648,-0.58236 -3.78534,-2.81474 -4.75594,-3.3971 -0.9706,-0.58236 -2.32944,-1.35884 -2.52356,-2.71768 -0.19412,-1.35884 -0.19412,-3.00886 0.29118,-3.59122 0.4853,-0.58235 2.81474,-1.74708 4.07652,-1.55295 1.26178,0.19411 2.13532,-0.0971 2.71768,0.77647 0.58236,0.87354 1.9412,2.4265 2.4265,3.20298 0.4853,0.77648 2.23238,3.00886 2.9118,3.8824 0.67942,0.87354 2.4265,2.32945 3.20298,2.9118 0.77648,0.58236 0.38824,1.55296 2.81474,1.55296 2.4265,0 4.07652,0.19412 5.24124,-0.87354 1.16472,-1.06766 3.59122,-5.14418 3.59122,-5.14418 0,0 0,-3.20298 -0.19412,-3.68828 -0.19412,-0.4853 -0.87354,-4.75594 -0.87354,-4.75594 l -4.39268,-8.50234 c 0,0 -4.39244,-6.31413 -7.68676,-8.23582 -3.29433,-1.92169 -20.04049,-8.78486 -21.41312,-9.05939 -1.37264,-0.27453 -19.76596,-1.64716 -19.76596,-1.64716 l -22.78575,0.27452 -17.29521,2.74528 -8.78486,3.29432 z"
         id="path855" />
      <path
         style="fill:none;stroke:#000000;stroke-width:1.465;stroke-linecap:butt;stroke-linejoin:miter;stroke-miterlimit:4;stroke-dasharray:none;stroke-opacity:1"
         d="m 97.32626,137.6132 c 0,0 1.5099,2.95116 1.5099,3.29433 0,0.34315 0.48043,3.29432 0.48043,3.63748 0,0.34316 0.0686,4.94149 0.0686,5.28465 0,0.34316 -1.30401,3.36296 -1.44127,3.77475 -0.13727,0.41179 -2.26485,1.50989 -3.29433,1.85306 -1.02947,0.34315 -5.14738,0.96084 -5.76507,0.96084 -0.61768,0 -9.12802,-2.95117 -9.12802,-3.22569 0,-0.27453 -0.75495,-2.53938 -1.7158,-4.39244 -0.96084,-1.85306 -5.35328,-5.8337 -5.90233,-6.52002 -0.54906,-0.68632 -5.01012,-7.27497 -6.0396,-7.41223 -1.02948,-0.13726 -4.59833,-4.18654 -5.42191,-5.49055 -0.82358,-1.304 -1.78443,-3.70611 -1.85306,-4.39243 -0.0686,-0.68632 3.08843,-16.88342 3.2257,-17.15795 0.13726,-0.27452 2.26484,-3.15706 2.74527,-3.77474 0.48042,-0.61769 3.77474,-3.70612 4.1179,-3.91201 0.34316,-0.205901 9.95161,-6.245497 10.02025,-6.520024 0.0686,-0.274527 1.99032,-3.019799 1.99032,-3.019799 l 0.96084,-6.863177 c 0,0 -0.96084,-2.74527 -1.78443,-3.77475 -0.82358,-1.02948 -3.36295,-4.11791 -4.3238,-4.87286 -0.96084,-0.75495 -5.69644,-3.29432 -6.24549,-3.50022 -0.54905,-0.20589 -2.95117,-1.02947 -2.95117,-1.02947"
         id="path865" />
      <path
         style="fill:none;stroke:#000000;stroke-width:1.465;stroke-linecap:butt;stroke-linejoin:miter;stroke-miterlimit:4;stroke-dasharray:none;stroke-opacity:1"
         d="m 75.50135,66.64793 c -0.61768,0.89222 -1.0981,4.25518 -1.0981,4.25518 l 1.0981,2.8139 5.01013,5.90233 c 0,0 3.15706,2.67664 4.18653,2.67664 1.02948,0 4.39244,0.0686 6.45139,0 2.05896,-0.0686 7.41223,-0.68632 9.33393,-1.16674 1.92169,-0.48042 6.31412,-1.16674 7.89265,-1.304 1.57853,-0.13727 6.79455,-0.2059 7.96129,-0.13727 1.16674,0.0686 3.15706,0 4.18654,0.0686 1.02947,0.0686 2.53937,0.54906 4.73559,0 2.19621,-0.54905 3.0198,-0.68631 5.01012,-1.16674 1.99032,-0.48042 5.21601,-1.37263 6.45139,-1.92169 1.23537,-0.54905 9.26529,-4.46106 9.67708,-4.59833 0.41179,-0.13726 3.43159,-1.37263 5.55917,-1.304 2.12759,0.0686 5.42191,0.41179 6.10823,0.75495 0.68632,0.34316 2.47074,1.99032 3.84338,2.95117 1.37264,0.96084 2.74527,2.19621 3.2257,2.95116 0.48042,0.75495 1.02947,2.33348 1.64716,3.77475 0.61768,1.44127 1.37263,4.18654 1.64716,4.804226 0.27453,0.617686 2.47074,3.637484 2.74527,3.84338 0.27453,0.205895 3.2257,1.92169 3.2257,1.92169"
         id="path867" />
      <path
         style="fill:none;stroke:#000000;stroke-width:1.465;stroke-linecap:butt;stroke-linejoin:miter;stroke-miterlimit:4;stroke-dasharray:none;stroke-opacity:1"
         d="m 142.34871,101.23835 c 0.2059,-0.27452 5.55918,-3.294321 5.69644,-3.568848 0.13726,-0.274529 1.44127,-2.608008 1.78443,-3.637485 0.34316,-1.029477 1.02947,-3.088431 1.16674,-3.912012 0.13726,-0.823582 0.48042,-3.568853 0.48042,-3.568853"
         id="path869" />
      <path
         style="fill:none;stroke:#000000;stroke-width:1.465;stroke-linecap:butt;stroke-linejoin:miter;stroke-miterlimit:4;stroke-dasharray:none;stroke-opacity:1"
         d="m 151.06495,92.728013 c 0,0 2.53938,4.66696 3.15706,5.353279 0.61769,0.686318 1.09811,2.264848 2.60801,3.500218 1.5099,1.23538 5.42191,3.29433 5.8337,3.43159 0.41179,0.13727 3.22569,1.64717 3.22569,1.64717"
         id="path871" />
      <path
         style="fill:none;stroke:#000000;stroke-width:1.465;stroke-linecap:butt;stroke-linejoin:miter;stroke-miterlimit:4;stroke-dasharray:none;stroke-opacity:1"
         d="m 114.82737,70.07952 c 0,0 2.88253,4.59833 3.43159,5.01012 0.54905,0.4118 2.67663,2.12759 3.98064,2.60801 1.304,0.48042 7.06907,1.30401 7.06907,1.30401"
         id="path873" />
      <path
         style="fill:none;stroke:#000000;stroke-width:1.465;stroke-linecap:butt;stroke-linejoin:miter;stroke-miterlimit:4;stroke-dasharray:none;stroke-opacity:1"
         d="m 122.78865,80.03113 c -4.39243,0.34316 -5.21601,-0.34316 -8.02991,0.61769 -2.81391,0.96084 -3.84338,-0.41179 -6.52002,3.36296 -2.67664,3.774744 -3.63749,8.922128 -3.63749,8.922128"
         id="path875" />
      <path
         style="fill:none;stroke:#000000;stroke-width:1.465;stroke-linecap:butt;stroke-linejoin:miter;stroke-miterlimit:4;stroke-dasharray:none;stroke-opacity:1"
         d="m 82.84496,52.098 2.40211,3.29432 c 0,0 1.92169,2.26485 3.50022,2.81391 1.57853,0.54905 7.00044,1.23537 8.92213,1.37263 1.92169,0.13726 20.31501,0 20.58954,0 0.27452,0 7.20633,-0.48042 9.67708,-0.96084 2.47074,-0.48043 9.74571,-2.19622 10.77519,-2.74528 1.02947,-0.54905 2.26485,-1.99032 2.67664,-3.15706 0.41179,-1.16674 2.74527,-8.23581 2.74527,-8.23581"
         id="path877" />
      <path
         style="fill:none;stroke:#000000;stroke-width:1.465;stroke-linecap:butt;stroke-linejoin:miter;stroke-miterlimit:4;stroke-dasharray:none;stroke-opacity:1"
         d="m 133.63248,57.7258 c 1.71579,-0.27452 7.96128,-0.61768 7.96128,-0.61768 0,0 3.0198,0.96084 3.77475,1.09811 0.75495,0.13726 3.22569,1.16674 3.22569,1.16674"
         id="path879" />
      <path
         style="fill:none;stroke:#000000;stroke-width:1.465;stroke-linecap:butt;stroke-linejoin:miter;stroke-miterlimit:4;stroke-dasharray:none;stroke-opacity:1"
         d="m 100.0029,59.78476 c -1.304,0.0686 -4.94149,1.304 -5.97096,2.12758 -1.02948,0.82358 -5.01012,5.8337 -5.01012,5.8337 l -0.54906,1.44127"
         id="path881" />
      <path
         style="fill:none;stroke:#000000;stroke-width:1.465;stroke-linecap:butt;stroke-linejoin:miter;stroke-miterlimit:4;stroke-dasharray:none;stroke-opacity:1"
         d="m 114.82737,36.44995 c 0,0 4.46106,2.8139 5.14738,3.43159 0.68632,0.61769 2.47075,2.26485 3.0198,2.88253 0.54905,0.61769 1.5099,1.7158 1.5099,1.7158 l 0.48042,1.09811"
         id="path883" />
      <path
         style="fill:none;stroke:#000000;stroke-width:1.465;stroke-linecap:butt;stroke-linejoin:miter;stroke-miterlimit:4;stroke-dasharray:none;stroke-opacity:1"
         d="m 54.70593,68.2951 -0.75669,4.78924 c 0,0 0.0485,4.31917 0.53383,6.01772 0.4853,1.69855 2.47503,7.425093 2.57209,7.619213 0.0971,0.19412 1.98973,3.97946 1.98973,3.97946 0,0 -4.56182,-2.18385 -5.62948,-2.57209 -1.06766,-0.38824 -7.95892,-1.40737 -7.95892,-1.40737 l -2.81474,0.29118"
         id="path885" />
      <path
         style="fill:none;stroke:#000000;stroke-width:1.465;stroke-linecap:butt;stroke-linejoin:miter;stroke-miterlimit:4;stroke-dasharray:none;stroke-opacity:1"
         d="m 33.01828,90.531796 3.36296,0.205895 c 0,0 2.88253,0.686318 3.22569,0.823581 0.34316,0.137264 2.67664,1.92169 3.08843,2.402113 0.41179,0.480423 1.99032,2.127584 2.40211,2.676639 0.4118,0.549056 3.15707,5.010116 3.15707,5.010116"
         id="path887" />
      <path
         style="fill:none;stroke:#000000;stroke-width:1.465;stroke-linecap:butt;stroke-linejoin:miter;stroke-miterlimit:4;stroke-dasharray:none;stroke-opacity:1"
         d="m 33.4987,102.67962 c 0,0 -0.82358,2.33348 -0.34316,3.63749 0.48043,1.304 0.96085,2.26485 1.64717,3.22569 0.68631,0.96085 2.26485,3.08843 3.29432,3.50022 1.02948,0.41179 4.7356,1.92169 5.21602,1.99032 0.48042,0.0686 4.39243,0.75495 6.24549,0.41179 1.85306,-0.34316 5.28465,-1.44126 5.8337,-1.85306 0.54906,-0.41179 3.2257,-2.40211 3.91201,-2.88253 0.68632,-0.48042 2.74528,-2.8139 2.74528,-2.8139"
         id="path889" />
      <path
         style="fill:none;stroke:#000000;stroke-width:1.465;stroke-linecap:butt;stroke-linejoin:miter;stroke-miterlimit:4;stroke-dasharray:none;stroke-opacity:1"
         d="m 20.5273,117.84725 c 0,0 3.56885,-2.74528 3.84338,-2.88254 0.27452,-0.13726 3.15706,-0.75495 4.18653,-0.96084 1.02948,-0.2059 4.5297,-0.54906 5.69644,-0.54906 1.16674,0 3.63749,0.27453 3.63749,0.27453 l 1.92169,0.13726"
         id="path891" />
      <path
         style="fill:none;stroke:#000000;stroke-width:1.465;stroke-linecap:butt;stroke-linejoin:miter;stroke-miterlimit:4;stroke-dasharray:none;stroke-opacity:1"
         d="m 39.88146,123.95548 c -0.34316,1.71579 -0.54906,3.63748 -1.304,4.3238 -0.75495,0.68632 -1.7158,2.05895 -2.95117,2.47074 -1.23537,0.41179 -3.70612,0.75495 -4.59833,0.75495 -0.89221,0 -2.05895,-0.0686 -2.74527,-0.20589 -0.68632,-0.13727 -0.68632,-0.2059 -0.68632,-0.2059"
         id="path893" />
      <path
         style="fill:none;stroke:#000000;stroke-width:1.465;stroke-linecap:butt;stroke-linejoin:miter;stroke-miterlimit:4;stroke-dasharray:none;stroke-opacity:1"
         d="m 35.2145,131.5736 c 0,0 2.12758,4.66696 2.33348,5.42191 0.20589,0.75495 0.34316,4.59833 0.20589,5.21602 -0.13726,0.61768 -0.68631,1.99032 -1.44126,3.70612 -0.75495,1.71579 -2.60801,4.18654 -2.60801,4.18654 0,0 -3.2257,2.19621 -3.84338,2.608 -0.61769,0.41179 -3.56885,3.29433 -3.56885,3.29433"
         id="path895" />
      <path
         style="fill:none;stroke:#000000;stroke-width:1.465;stroke-linecap:butt;stroke-linejoin:miter;stroke-miterlimit:4;stroke-dasharray:none;stroke-opacity:1"
         d="m 35.2145,131.5736 c 0,0 3.0198,2.26485 3.70611,3.08843 0.68632,0.82358 2.67664,2.88254 4.39244,3.2257 1.71579,0.34316 5.76507,1.0981 6.86318,0.61768 1.09811,-0.48042 2.95116,-0.61768 4.46106,-1.78442 1.5099,-1.16674 3.29433,-1.85306 3.56886,-2.81391 0.27452,-0.96084 2.12758,-5.28464 2.12758,-5.28464"
         id="path897" />
      <path
         style="fill:none;stroke:#000000;stroke-width:1.465;stroke-linecap:butt;stroke-linejoin:miter;stroke-miterlimit:4;stroke-dasharray:none;stroke-opacity:1"
         d="m 67.74596,150.24145 c 0,0 -8.37307,-0.89221 -10.50066,-0.13727 -2.12759,0.75495 -5.62781,2.26485 -6.38275,3.0198 -0.75496,0.75495 -2.05896,4.39244 -2.12759,4.66696 -0.0686,0.27453 -0.82358,2.81391 -0.82358,2.81391"
         id="path899" />
      <path
         style="fill:none;stroke:#000000;stroke-width:1.465;stroke-linecap:butt;stroke-linejoin:miter;stroke-miterlimit:4;stroke-dasharray:none;stroke-opacity:1"
         d="m 43.03852,144.9568 c 0,0 0.2059,1.71579 2.53938,3.29433 2.33348,1.57853 2.95116,1.85305 4.59833,2.12758 1.64716,0.27453 1.50989,0.34316 3.08843,0.48042 1.57853,0.13727 3.36296,-0.48042 3.36296,-0.48042"
         id="path901" />
      <path
         style="fill:none;stroke:#000000;stroke-width:1.465;stroke-linecap:butt;stroke-linejoin:miter;stroke-miterlimit:4;stroke-dasharray:none;stroke-opacity:1"
         d="m 88.47276,157.036 c 0,0 -5.35328,0.82358 -6.58865,0.82358 -1.23537,0 -3.0198,-1.16674 -5.49054,0.54905 -2.47075,1.7158 -5.62781,3.63749 -6.72592,4.5297 -1.09811,0.89221 -3.15706,2.74527 -3.70611,3.63748 -0.54906,0.89222 -3.0198,3.98064 -3.0198,3.98064"
         id="path903" />
      <path
         style="fill:none;stroke:#000000;stroke-width:1.465;stroke-linecap:butt;stroke-linejoin:miter;stroke-miterlimit:4;stroke-dasharray:none;stroke-opacity:1"
         d="m 88.88455,100.41477 c 0,0 -2.47074,4.32381 -2.88253,4.66696 -0.41179,0.34316 -3.70612,3.0198 -3.70612,3.0198 l -1.92169,1.23538"
         id="path905" />
      <path
         style="fill:none;stroke:#000000;stroke-width:1.465;stroke-linecap:butt;stroke-linejoin:miter;stroke-miterlimit:4;stroke-dasharray:none;stroke-opacity:1"
         d="m 73.23651,120.38662 c -0.68632,0.41179 -4.39244,2.88254 -5.07876,3.2257 -0.68631,0.34316 -1.57853,0.82358 -1.57853,0.82358 0,0 5.21602,1.44126 5.62781,1.71579 0.41179,0.27453 1.78443,1.5099 1.78443,1.5099"
         id="path907" />
      <path
         style="fill:none;stroke:#000000;stroke-width:1.465;stroke-linecap:butt;stroke-linejoin:miter;stroke-miterlimit:4;stroke-dasharray:none;stroke-opacity:1"
         d="m 82.36453,134.66203 3.98065,6.45139 1.304,3.43159 0.27453,1.5099"
         id="path909" />
      <path
         style="fill:none;stroke:#000000;stroke-width:1.465;stroke-linecap:butt;stroke-linejoin:miter;stroke-miterlimit:4;stroke-dasharray:none;stroke-opacity:1"
         d="m 162.32056,38.9207 c 0,0 2.19622,2.74527 2.33348,3.70611 0.13727,0.96085 1.09811,3.15706 1.23537,4.11791 0.13727,0.96084 1.37264,6.17686 1.37264,7.68676 0,1.5099 -1.5099,9.19666 -1.5099,9.19666 l -1.37264,6.17686 0.82359,5.35328 1.0981,4.25517"
         id="path911" />
      <path
         style="fill:none;stroke:#000000;stroke-width:1.465;stroke-linecap:butt;stroke-linejoin:miter;stroke-miterlimit:4;stroke-dasharray:none;stroke-opacity:1"
         d="m 166.53884,59.88418 c 0,0 1.9412,-3.78534 2.62062,-4.46476 0.67942,-0.67942 2.13532,-2.52356 4.46476,-3.59122 2.32944,-1.06766 4.17358,-1.84414 6.3089,-1.9412 2.13532,-0.0971 5.8236,-0.67942 6.69714,-0.67942 0.87354,0 5.61376,-0.54117 5.61376,-0.54117"
         id="path913" />
      <path
         style="fill:none;stroke:#000000;stroke-width:1.465;stroke-linecap:butt;stroke-linejoin:miter;stroke-miterlimit:4;stroke-dasharray:none;stroke-opacity:1"
         d="m 182.94198,67.3578 c 0,0 3.20298,1.74708 3.49416,2.4265 0.29118,0.67942 1.65002,2.62062 1.84414,3.10592 0.19412,0.4853 0.77648,1.26178 0.77648,1.26178 0,0 -0.19412,-3.68828 -0.0971,-4.27064 0.0971,-0.58236 1.26178,-2.52356 1.84414,-3.10592 0.58236,-0.58236 4.27064,-2.81474 4.27064,-2.81474 l -3.8824,2.4265 -1.26178,1.4559 -0.9706,2.23238 c 0,0 -0.29118,3.30004 -0.19412,3.97946 0.0971,0.67942 1.55296,3.59122 1.84414,4.75594 0.29118,1.16472 1.84414,10.870723 2.03826,12.229563 0.19412,1.35884 0.38824,16.500197 0.38824,16.500197 l -0.87354,5.04712 -4.853,3.68828"
         id="path915" />
      <path
         style="fill:none;stroke:#000000;stroke-width:1.465;stroke-linecap:butt;stroke-linejoin:miter;stroke-miterlimit:4;stroke-dasharray:none;stroke-opacity:1"
         d="m 192.8421,109.96714 c 0,0 1.55296,3.68828 1.65002,4.27064 0.0971,0.58236 1.35884,2.9118 2.23238,3.78534 0.87354,0.87354 1.65002,2.03826 2.13532,2.23238 0.4853,0.19412 1.06766,0.19412 1.06766,0.19412"
         id="path917" />
      <path
         style="fill:none;stroke:#000000;stroke-width:1.465;stroke-linecap:butt;stroke-linejoin:miter;stroke-miterlimit:4;stroke-dasharray:none;stroke-opacity:1"
         d="m 191.3862,81.4315 c 0,0 3.00886,2.62062 3.59122,3.10592 0.58236,0.4853 1.35884,1.067663 2.32944,1.552963 0.9706,0.4853 3.97946,2.4265 5.92066,1.74708 1.9412,-0.67942 4.07652,-1.16472 4.46476,-1.74708 0.38824,-0.58236 1.16472,-0.67942 1.74708,-1.941203 0.58236,-1.26178 1.55296,-3.20298 1.9412,-4.3677 0.38824,-1.16472 0.77648,-3.8824 1.06766,-4.75594 0.29118,-0.87354 6.42493,-6.59318 6.42493,-6.59318 l -6.13375,6.10788 c 0,0 -3.68828,10.1913 -3.68828,10.870723 0,0.67942 -0.0971,5.14418 0,5.72654 0.0971,0.58236 0.29118,4.27064 0.29118,4.658881"
         id="path919" />
      <path
         style="fill:none;stroke:#000000;stroke-width:1.465;stroke-linecap:butt;stroke-linejoin:miter;stroke-miterlimit:4;stroke-dasharray:none;stroke-opacity:1"
         d="m 240.69806,95.473283 -8.4496,3.137839 c 0,0 -5.8236,3.105918 -6.60008,3.591218 -0.77648,0.4853 -3.3971,2.81474 -4.27064,4.46476 -0.87354,1.65002 -8.15304,10.87072 -8.44422,11.35602 -0.29118,0.4853 -4.27064,7.47362 -5.14418,8.54128 -0.87354,1.06766 -5.62948,7.7648 -5.62948,8.44422 0,0.67942 -3.59122,3.10592 -4.65888,3.20298 -1.06766,0.0971 -2.62062,0.0971 -3.97946,-0.38824 -1.35884,-0.4853 -2.13532,-2.52356 -2.52356,-2.81474 -0.38824,-0.29118 -2.62062,-4.07652 -2.62062,-4.07652"
         id="path921" />
      <path
         style="fill:none;stroke:#000000;stroke-width:1.465;stroke-linecap:butt;stroke-linejoin:miter;stroke-miterlimit:4;stroke-dasharray:none;stroke-opacity:1"
         d="m 258.67959,122.51421 c 0,0 -6.04853,3.66195 -7.98973,4.14725 -1.9412,0.4853 -4.17358,0.58236 -6.01772,0.58236 -1.84414,0 -4.75594,-0.29118 -5.72654,-0.4853 -0.9706,-0.19412 -3.20298,-1.35883 -3.20298,-1.35883 l 4.27064,1.45589 5.14418,0.38824 c 0,0 -0.67942,0.87354 -1.26178,1.84414 -0.58236,0.9706 -0.77648,1.65002 -0.77648,2.9118 0,1.26178 0,3.30004 0.38824,3.8824 0.38824,0.58236 1.16472,1.84414 1.16472,1.84414"
         id="path923" />
      <path
         style="fill:none;stroke:#000000;stroke-width:1.465;stroke-linecap:butt;stroke-linejoin:miter;stroke-miterlimit:4;stroke-dasharray:none;stroke-opacity:1"
         d="m 223.9013,119.18784 3.78534,4.853 1.26178,2.62062 -0.58236,4.07652 -0.38824,1.55296 -10.57954,1.9412 10.77366,-1.74708 6.3089,2.62062 c 0,0 3.68828,1.35884 4.17358,1.84414 0.4853,0.4853 4.17358,4.3677 4.17358,4.3677 l 3.20298,2.52356 4.27064,0.0971 c 0,0 1.84414,-0.19411 2.52356,-0.4853 0.67942,-0.29118 2.9118,-1.26178 3.20298,-1.74707 0.29118,-0.48531 1.55296,-2.13533 1.55296,-2.13533 l -1.65002,2.9118 -5.3383,1.74708 c 0,0 2.23238,2.4265 2.52356,2.9118 0.29118,0.4853 1.55296,2.4265 1.74708,2.81474 0.19412,0.38824 0.19412,0.58236 0.19412,0.58236"
         id="path925" />
      <path
         style="fill:none;stroke:#000000;stroke-width:1.465;stroke-linecap:butt;stroke-linejoin:miter;stroke-miterlimit:4;stroke-dasharray:none;stroke-opacity:1"
         d="m 204.58636,143.16166 c 0,0 12.03544,-0.0971 12.81192,-0.0971 0.77648,0 6.60008,-0.4853 8.05598,-0.77648 1.4559,-0.29118 4.27064,-1.55295 4.27064,-1.55295 0,0 0.67942,-0.48531 0.0971,0.48529 -0.58236,0.9706 -0.9706,3.59122 -0.67942,4.65888 0.29118,1.06766 2.23238,3.20298 3.10592,4.07653 0.87354,0.87353 1.84414,1.74707 3.59122,2.62061 1.74708,0.87354 4.27064,1.16472 5.43536,1.45591 1.16472,0.29117 1.9412,0 3.68828,1.74707 1.74708,1.74708 4.46476,3.49416 4.95006,4.36771 0.4853,0.87353 0.65956,2.63241 3.20298,2.81473 2.54343,0.18232 2.54343,0.18232 2.54343,0.18232"
         id="path927" />
    </g>
  </g>
</svg>
