<?xml version="1.0" encoding="UTF-8" standalone="no"?>
<svg
   xmlns:dc="http://purl.org/dc/elements/1.1/"
   xmlns:cc="http://creativecommons.org/ns#"
   xmlns:rdf="http://www.w3.org/1999/02/22-rdf-syntax-ns#"
   xmlns:svg="http://www.w3.org/2000/svg"
   xmlns="http://www.w3.org/2000/svg"
   width="210mm"
   height="297mm"
   viewBox="0 0 210 297"
   version="1.1"
   id="svg2793">
  <defs
     id="defs2787" />
  <metadata
     id="metadata2790">
    <rdf:RDF>
      <cc:Work
         rdf:about="">
        <dc:format>image/svg+xml</dc:format>
        <dc:type
           rdf:resource="http://purl.org/dc/dcmitype/StillImage" />
        <dc:title></dc:title>
      </cc:Work>
    </rdf:RDF>
  </metadata>
  <g
     id="layer1">
    <g
       id="g3692">
      <path
         style="fill:#ffb380;stroke:#000000;stroke-width:1.465;stroke-linecap:butt;stroke-linejoin:miter;stroke-miterlimit:4;stroke-dasharray:none;stroke-opacity:1"
         d="m 109.90654,117.93213 c 0,0 0.75495,-0.72063 1.20105,-0.78927 0.44611,-0.0686 0.89222,-0.24021 1.81874,-0.10294 0.92653,0.13726 1.40696,0.0686 2.05896,0.27452 0.652,0.2059 1.92169,0.68632 2.09327,0.89222 0.17158,0.20589 0.78926,1.5099 0.78926,1.5099 l 2.09327,0.61768 1.68148,1.09811 c 0,0 0,0.41179 0.34316,0.72063 0.34316,0.30885 1.16674,0.68632 1.37264,0.89222 0.20589,0.20589 0.48042,0.58337 0.48042,0.72063 0,0.13727 0.13726,0.82358 0.17158,0.96085 0.0343,0.13726 0.68632,3.43159 0.72063,3.63748 0.0343,0.2059 0.30885,1.20106 0.30885,1.33832 0,0.13727 0.0686,0.8579 0.30884,1.09811 0.24021,0.24021 0.58337,0.34316 1.02947,0.34316 0.44611,0 1.37264,0.0686 1.40696,0.20589 0.0343,0.13727 0.30884,0.75495 0.78926,0.82358 0.48043,0.0686 2.05896,-0.20589 2.53938,-0.20589 0.48042,0 3.0198,0.48042 3.0198,0.48042 l 2.64232,1.61285 1.68148,0.58337 c 0,0 1.44127,1.0981 1.57853,1.304 0.13726,0.2059 0.652,1.26969 0.72063,1.54422 0.0686,0.27452 0.34316,1.23537 0.58337,1.75011 0.24022,0.51473 0.72064,1.54421 0.99517,1.71579 0.27452,0.17158 -0.58337,-0.61769 1.304,0.48042 1.88737,1.09811 2.40211,1.57853 2.40211,1.57853 l 1.02948,1.0638 c 0,0 1.57853,1.5099 1.75011,1.75011 0.17158,0.24021 0.75495,1.92169 0.75495,1.92169 l 0.85789,1.23537 0.96085,8.23581 -3.0198,12.49099 -5.07875,10.98108 -9.91729,5.86802 -5.31897,3.05411 -21.1729,2.74528 -8.750561,1.23537 -5.90233,4.11791 -4.3238,-5.86802 -3.98064,-6.34844 -2.40212,-9.67708 -0.29762,-0.98074 -0.11417,-4.85296 1.37264,-8.51034 1.5099,-2.33349 4.04927,-1.20105 2.67669,1.33842 z"
         id="path929" />
      <path
         style="fill:#e9afaf;stroke:#000000;stroke-width:1.465;stroke-linecap:butt;stroke-linejoin:miter;stroke-miterlimit:4;stroke-dasharray:none;stroke-opacity:1"
         d="m 92.391569,155.72148 -1.74708,-1.4559 c 0,0 -0.29118,0.29118 -0.38824,-0.9706 -0.0971,-1.26178 0.19412,-2.52356 0.19412,-2.52356 l 0.87354,-0.87354 c 0,0 -1.4559,0.67942 -2.4265,0 -0.9706,-0.67942 -1.65002,-0.77648 -1.84414,-1.9412 -0.19412,-1.16472 -0.38824,-1.4559 -0.0971,-1.9412 0.29118,-0.4853 2.81474,-0.58236 -0.19412,-0.38824 -3.00886,0.19412 -1.46005,-3.29651 -1.46005,-3.29651 0,0 0.48042,-0.82359 0.34316,-1.09811 -0.13726,-0.27453 -1.23537,-0.54906 -1.44127,-1.30401 -0.20589,-0.75494 -0.27452,-1.57853 -0.27452,-1.57853 l 0.89221,-0.68632 0.54905,-0.20589 c 0,0 0.27453,0.13726 -0.34316,-1.02948 -0.61768,-1.16674 -0.75494,-2.05895 -0.54905,-2.40211 0.2059,-0.34315 0.89221,-0.96084 1.23537,-0.96084 0.34316,0 0.68632,0.20589 0.68632,0.20589 0,0 -0.34316,-1.5099 -0.34316,-2.12758 0,-0.61769 -0.61769,-0.82358 0,-1.23538 0.61769,-0.41178 1.5099,-0.41178 1.5099,-0.41178 l 0.75495,0.27452 0.41179,-2.608 0.61769,-1.44127 3.77474,-0.2059 0.27453,0.13727 0.82358,-2.05896 c 0,0 1.37264,-0.54905 1.92169,-0.27453 0.54906,0.27453 1.16674,0.48043 1.16674,0.48043 0,0 0.96085,0 0.96085,-1.02948 0,-1.02948 0,-1.99032 0,-1.99032 0,0 0.89221,-0.96085 1.71579,-0.89221 0.823591,0.0686 1.647171,1.304 1.647171,1.304 0,0 0.75495,-0.54905 1.02947,-1.09811 0.27453,-0.54905 0.34316,-1.02947 0.61769,-1.37263 0.27453,-0.34316 1.37264,-0.82359 1.37264,-0.82359 0,0 1.71579,0.68632 1.71579,0.96085 0,0.27453 0.48042,1.5099 0.48042,1.5099 0,0 0.82358,-0.68632 1.16674,-1.09811 0.34316,-0.41179 1.02948,-1.16674 1.02948,-1.16674 0,0 1.23537,-0.0686 1.37264,0.2059 0.13726,0.27452 0.27452,1.37263 0.27452,1.37263 l 0.13727,2.12759 c 0,0 0.41179,-0.2059 1.16674,-0.82359 0.75495,-0.61768 1.99032,-1.0981 2.40211,-0.89221 0.41179,0.2059 1.02947,0.96085 1.09811,1.37264 0.0686,0.41179 -0.0686,1.5099 -0.0686,1.5099 l 0.0686,0.61768 c 0,0 0.89221,0.13727 1.37263,-0.20589 0.48042,-0.34316 1.5099,1.304 1.5099,1.304 0,0 -0.20589,1.23537 -0.27452,1.85306 -0.0686,0.61769 0.82358,1.02948 0.82358,1.02948 l 1.09811,0.48042 c 0,0 0,2.12758 -0.27453,2.26485 -0.27453,0.13726 -1.30401,0.54905 -1.30401,0.54905 l 2.19622,0.48042 c 0,0 1.02948,0.48042 1.02948,0.96085 0,0.48042 0.27453,1.23537 -0.54906,1.5099 -0.82358,0.27452 -1.0981,0.27452 -1.23537,0.54905 -0.13726,0.27453 0.34316,1.09811 0.34316,1.09811 0,0 0.68632,0.82358 0.27453,1.16674 -0.41179,0.34316 -1.02948,0.68632 -1.02948,0.68632 l -0.61769,0.41179 c 0,0 -0.0686,0.34316 -0.0686,0.82358 0,0.48042 -0.27453,1.09811 -0.61768,1.304 -0.34316,0.2059 -1.02948,0.61769 -1.02948,0.61769 l -0.27453,1.64716 c 0,0 0.82358,-0.75495 1.23538,-0.34316 0.41178,0.41179 0.34315,0.82358 0.68631,1.30401 0.34316,0.48042 0.96085,0.54905 0.96085,0.54905 l 0.68631,-1.304 0.61769,-2.19622 1.57853,-0.61769 c 0,0 0.0686,-0.89221 0.13727,-1.5099 0.0686,-0.61768 0.68631,-1.44126 1.0981,-1.5099 0.41179,-0.0686 1.5099,-0.20589 1.5099,-0.20589 0,0 0.13727,-0.89221 0.2059,-1.16674 0.0686,-0.27453 0.13726,-1.71579 1.09811,-1.78442 0.96084,-0.0686 1.99032,-0.34316 2.33348,0.0686 0.34316,0.41179 0.61768,0.89221 0.82358,1.44126 0.20589,0.54906 0.20589,1.37264 0.82358,1.5099 0.61769,0.13726 0.89221,-0.20589 1.304,-0.48042 0.4118,-0.27453 1.37264,-0.82358 1.7158,-0.0686 0.34316,0.75495 0.13726,1.78442 0.13726,2.33348 0,0.54905 -0.34316,1.57853 0.2059,1.64716 0.54905,0.0686 1.92169,-0.34316 2.60801,-0.2059 0.68631,0.13727 1.23537,0.0686 1.37263,1.02948 0.13727,0.96085 -1.09811,2.8139 -1.09811,2.8139 0,0 -0.68631,1.16675 -0.13726,1.16675 0.54905,0 1.16674,-0.27453 1.57853,-0.0686 0.41179,0.2059 1.30401,1.92169 1.09811,2.26485 -0.2059,0.34316 -1.23537,0.75495 -1.23537,0.75495 l 1.304,1.7158 c 0,0 1.23537,0.54905 1.09811,1.44126 -0.13726,0.89222 -0.20589,1.64717 -0.82358,1.99033 -0.61769,0.34315 -1.57853,0.48042 -1.57853,0.48042 0,0 -0.75495,0.75495 0,1.02947 0.75495,0.27453 1.37263,0.54906 1.37263,1.09811 0,0.54906 -0.41179,2.12759 -0.41179,2.12759 0,0 -1.44127,0.61768 -1.78442,0.68632 -0.34316,0.0686 -0.61769,0.20589 -0.61769,0.75495 0,0.54905 0.89221,1.5099 0.89221,1.5099 0,0 0.27453,1.37263 -0.34316,1.71579 -0.61768,0.34316 -1.5099,0.54906 -1.5099,0.54906 l 0.27453,1.16673 0.61769,1.09811 -0.34316,1.09811 -1.44127,0.54906 c 0,0 0,1.5099 0.34316,1.92169 0.34316,0.41179 0.68632,1.57853 0.54905,1.92169 -0.13726,0.34316 -1.99032,1.37263 -2.33348,1.23537 -0.34315,-0.13727 -1.71579,-1.02948 -1.71579,-1.02948 l -0.13726,2.26485 c 0,0 -1.5099,1.64716 -2.19622,1.23537 -0.68632,-0.41179 -1.44127,-1.09811 -1.44127,-1.09811 0,0 -0.75495,1.16675 -0.68632,1.57853 0.0686,0.4118 -0.0686,1.7158 -0.68631,1.92169 -0.61769,0.2059 -1.99033,-0.48042 -1.99033,-0.48042 0,0 -0.75495,-0.34316 -0.75495,-0.0686 0,0.27453 1.02948,1.57853 0.27453,2.05896 -0.75495,0.48042 -1.5099,1.304 -2.05895,1.02947 -0.54906,-0.27453 -0.68632,-0.82358 -1.02948,-0.75495 -0.34316,0.0686 -0.13726,0.41179 -0.41179,0.75495 -0.27453,0.34316 -0.96084,1.23537 -1.99032,0.96085 -1.02948,-0.27453 -2.33348,-2.67664 -2.33348,-2.67664 l -0.2059,-0.75495 c 0,0 -0.75495,0.48042 -1.64716,0.13726 -0.89221,-0.34316 -1.5099,-0.48042 -1.64716,-1.44127 -0.13727,-0.96084 0.20589,-1.64716 -0.41179,-1.64716 -0.61769,0 -0.96085,0.2059 -0.75495,1.23537 0.20589,1.02948 -1.16674,3.50022 -1.16674,3.50022 h -1.78443 c 0,0 -0.13726,1.7158 -0.0686,2.33348 0.0686,0.61769 -0.34316,2.47075 -0.75495,2.47075 -0.41179,0 -0.75495,-0.48042 -0.75495,-0.48042 l -1.09811,3.08843 -1.23537,-0.27453 -0.96085,-0.48042 -1.78442,1.02947 c 0,0 -2.470751,0.68632 -2.813911,0.34316 -0.34316,-0.34316 -0.82358,-0.89221 -0.82358,-1.44126 0,-0.54906 0,-1.30401 0,-1.30401 0,0 -1.44127,1.44127 -2.40211,1.57853 -0.96085,0.13727 -1.99032,0.48042 -2.33348,-0.48042 -0.34316,-0.96085 -0.41179,-1.92169 -0.41179,-1.92169 0,0 -0.0686,-0.34316 -1.37264,-0.48042 -1.304,-0.13727 -1.64716,0.34316 -1.71579,-0.75495 -0.0686,-1.09811 0.0686,-1.78443 0.20589,-2.05896 0.13727,-0.27452 0.0686,-0.61768 -0.61768,-0.75495 -0.68632,-0.13726 -2.05896,-0.48042 -2.33348,-1.23537 -0.27453,-0.75495 -0.34316,-1.304 -0.13727,-1.78442 0.2059,-0.48043 0.48043,-0.89222 0.48043,-0.89222 0,0 -2.47075,-0.41179 -2.74528,-1.16674 -0.27452,-0.75495 -0.61768,-1.85306 -0.27452,-2.40211 0.34316,-0.54905 0.96084,-0.75495 0.96084,-0.75495 0,0 0.13727,-0.75495 -0.0686,-1.23537 -0.2059,-0.48042 -0.27453,-1.99033 0,-2.12759 0.27453,-0.13726 0.13726,-0.13726 1.44127,-0.27452 1.304,-0.13727 0.41179,-1.99033 0.34316,-2.33348 -0.0686,-0.34316 1.50989,-2.33349 1.50989,-2.33349 0,0 1.78443,0.0686 1.92169,-0.27452 0.13727,-0.34316 -0.13726,-2.67664 -0.13726,-2.67664 z"
         id="path863" />
      <path
         style="fill:none;stroke:#000000;stroke-width:1.465;stroke-linecap:butt;stroke-linejoin:miter;stroke-miterlimit:4;stroke-dasharray:none;stroke-opacity:1"
         d="m 75.017829,143.39486 8.77431,9.43653 c 0,0 6.52002,3.22569 6.79455,3.22569 0.27452,0 2.19622,0.13727 3.15706,-0.48042 0.96085,-0.61769 2.26485,-1.16674 2.33348,-2.05895 0.0686,-0.89222 0.41179,-3.84338 0.41179,-4.46107 0,-0.61768 -0.68631,-4.5297 -1.16674,-5.21601 -0.48042,-0.68632 -0.82358,-2.40212 -1.92169,-2.67664 -1.09811,-0.27453 -2.67664,-0.68632 -2.67664,-0.68632 0,0 2.74527,-0.41179 3.0198,-0.27453 0.27453,0.13726 1.304,0.41179 1.304,0.41179 0,0 0.96085,-1.99032 0.68632,-3.29432 -0.27452,-1.30401 -0.96084,-3.36296 -1.304,-3.98064 -0.34316,-0.61769 -0.89221,-1.09811 -0.48042,-0.96085 0.41179,0.13726 3.70611,4.73559 3.70611,4.73559 0,0 0.0686,3.0198 0.13727,4.25517 0.0686,1.23537 0,5.97097 1.78442,3.43159 1.784431,-2.53938 3.431591,-7.27497 3.431591,-7.54949 0,-0.27453 2.67664,-8.02992 2.67664,-8.37308 0,-0.34316 0.13726,-2.95117 0.13726,-2.95117 0,0 -0.82358,7.89266 -0.96084,8.64761 -0.13726,0.75495 -1.64716,5.21601 -2.05895,5.97096 -0.41179,0.75495 -1.7158,5.21602 -1.99032,6.0396 -0.27453,0.82358 -1.990331,3.43159 -1.853061,3.98064 0.13726,0.54905 0.0686,1.92169 0.89221,1.16674 0.823581,-0.75495 2.676641,-3.43159 3.294331,-4.73559 0.61768,-1.30401 3.70611,-5.28465 4.52969,-6.24549 0.82359,-0.96085 3.08843,-3.2257 4.18654,-3.98065 1.09811,-0.75495 3.84338,-2.05895 3.84338,-2.05895 0,0 -3.56885,3.0198 -3.84338,3.36296 -0.27453,0.34315 -3.98064,4.39243 -4.66696,5.55917 -0.68632,1.16674 -5.55917,8.8535 -5.55917,8.8535 0,0 -0.0686,1.44127 0.20589,1.64716 0.27453,0.2059 2.19622,0.89222 3.0198,0.82358 0.82358,-0.0686 3.15706,-1.78442 3.63749,-2.26484 0.48042,-0.48043 2.40211,-3.15707 2.40211,-3.50023 0,-0.34316 1.09811,-2.95116 1.09811,-2.95116 l -0.13727,4.66696 c 0,0 -0.96084,1.64716 1.30401,0.54905 2.26484,-1.0981 11.18698,-6.52002 11.18698,-6.52002 l 1.5099,-2.26484 c 0,0 -5.35328,6.72591 -5.69644,6.93181 -0.34316,0.20589 -11.18698,6.31412 -11.18698,6.31412 0,0 -0.13727,1.5099 1.16674,1.5099 1.304,0 2.88253,-0.0686 4.94149,-0.27453 2.05895,-0.20589 9.88297,-0.54905 9.88297,-0.54905 l 5.14739,-1.64717 c 0,0 -3.36296,2.26485 -4.66696,2.40212 -1.30401,0.13726 -2.81391,0.61768 -4.25517,0.82358 -1.44127,0.20589 -2.67665,0.61768 -5.01012,0.75495 -2.33349,0.13726 -5.21602,0.13726 -5.69644,0.13726 -0.48043,0 -1.7158,-0.27453 -1.99032,0.34316 -0.27453,0.61769 -0.89222,1.64716 -0.2059,1.85306 0.68632,0.2059 3.50022,1.57853 4.11791,1.92169 0.61768,0.34316 9.12802,5.14738 9.12802,5.14738 l 2.33348,1.16674 c 0,0 -4.94148,-0.89221 -5.55917,-1.0981 -0.61769,-0.2059 -8.57897,-4.66697 -9.47119,-5.01013 -0.89221,-0.34315 -1.85305,-1.92168 -3.36295,-2.74527 -1.5099,-0.82358 -2.26485,-2.26485 -3.98065,-1.5099 -1.715791,0.75495 -1.647161,0.34316 -1.784421,1.23538 -0.13727,0.89221 -0.27453,1.57853 0.13726,2.40211 0.411791,0.82358 1.921691,4.94149 2.264851,5.35328 0.34316,0.41179 1.78442,2.26485 2.19622,2.67664 0.41179,0.41179 1.92169,1.92169 1.92169,1.92169 0,0 -2.81391,-0.61769 -3.77475,-1.92169 -0.96085,-1.30401 -2.40212,-4.11791 -3.088431,-5.01012 -0.68632,-0.89222 -1.85306,-2.53938 -2.19622,-2.19622 -0.34316,0.34316 -0.75495,3.29433 -0.75495,3.91201 0,0.61769 0.41179,4.87286 0.41179,5.14739 0,0.27452 1.7158,7.3436 1.7158,7.3436 0,0 -3.0198,-7.82403 -3.15707,-8.09855 -0.13726,-0.27453 -0.54905,-2.33349 -1.64716,-2.47075 -1.09811,-0.13726 -1.92169,0.27453 -2.26485,0.61769 -0.34316,0.34316 -1.5099,2.12758 -1.5099,2.12758 0,0 1.92169,-3.84338 2.19622,-4.66696 0.27453,-0.82358 1.92169,-1.99032 1.02948,-3.77475 -0.89222,-1.78442 -1.64717,-3.84338 -2.53938,-4.59833 -0.89221,-0.75495 -2.05895,-1.23537 -2.95117,-1.23537 -0.89221,0 -3.70611,1.23537 -3.70611,1.23537 l -1.5099,2.33349 -1.37264,8.51034 0.59947,-10.19134 0.43001,-3.60365 -2.17709,-6.49059 z"
         id="path859" />
      <path
         style="fill:none;stroke:#000000;stroke-width:0.264583px;stroke-linecap:butt;stroke-linejoin:miter;stroke-opacity:1"
         d="m 129.91252,133.98653 c 1.02715,0.11858 2.4805,-1.22578 2.28091,-1.35884"
         id="path947" />
      <path
         style="fill:none;stroke:#000000;stroke-width:0.264583px;stroke-linecap:butt;stroke-linejoin:miter;stroke-opacity:1"
         d="m 133.16403,135.19978 c 0.6811,-0.42914 1.52089,-0.64669 1.84414,-1.55296"
         id="path949" />
      <path
         style="fill:none;stroke:#000000;stroke-width:0.264583px;stroke-linecap:butt;stroke-linejoin:miter;stroke-opacity:1"
         d="m 134.32875,137.52922 c 1.64822,-0.41772 3.12416,-1.18 4.12861,-2.88525"
         id="path951" />
      <path
         style="fill:none;stroke:#000000;stroke-width:0.264583px;stroke-linecap:butt;stroke-linejoin:miter;stroke-opacity:1"
         d="m 137.14349,139.32483 3.05739,-1.9412"
         id="path953" />
      <path
         style="fill:none;stroke:#000000;stroke-width:0.264583px;stroke-linecap:butt;stroke-linejoin:miter;stroke-opacity:1"
         d="m 138.21115,141.89692 c 1.87372,0.74806 2.44236,-0.46151 3.34857,-1.16472"
         id="path955" />
      <path
         style="fill:none;stroke:#000000;stroke-width:0.264583px;stroke-linecap:butt;stroke-linejoin:miter;stroke-opacity:1"
         d="m 138.98763,144.6146 c 2.25523,0.0424 4.06932,-0.57698 5.28977,-2.08679"
         id="path957" />
      <path
         style="fill:none;stroke:#000000;stroke-width:0.264583px;stroke-linecap:butt;stroke-linejoin:miter;stroke-opacity:1"
         d="m 139.47293,146.84698 c 2.6502,0.0749 5.27258,-0.0728 7.66774,-2.03826"
         id="path959" />
      <path
         style="fill:none;stroke:#000000;stroke-width:0.264583px;stroke-linecap:butt;stroke-linejoin:miter;stroke-opacity:1"
         d="m 139.52114,149.26261 c 3.82408,1.2294 6.99804,0.075 10.05457,-1.50997"
         id="path961" />
      <path
         style="fill:none;stroke:#000000;stroke-width:0.264583px;stroke-linecap:butt;stroke-linejoin:miter;stroke-opacity:1"
         d="m 140.34647,152.57352 c 3.26769,0.90336 6.53537,0.98465 9.80306,-0.43677"
         id="path963" />
      <path
         style="fill:none;stroke:#000000;stroke-width:0.264583px;stroke-linecap:butt;stroke-linejoin:miter;stroke-opacity:1"
         d="m 139.9097,155.58238 c 3.70086,1.69362 7.52507,2.27715 11.48475,1.64144"
         id="path965" />
      <path
         style="fill:none;stroke:#000000;stroke-width:0.264583px;stroke-linecap:butt;stroke-linejoin:miter;stroke-opacity:1"
         d="m 139.17798,157.42979 c 3.017,3.18353 6.70312,4.58275 10.48625,5.72327"
         id="path967" />
      <path
         style="fill:none;stroke:#000000;stroke-width:0.264583px;stroke-linecap:butt;stroke-linejoin:miter;stroke-opacity:1"
         d="m 137.66808,160.38096 c 2.66966,4.01891 6.62568,5.46512 10.83143,6.41185"
         id="path969" />
      <path
         style="fill:none;stroke:#000000;stroke-width:0.264583px;stroke-linecap:butt;stroke-linejoin:miter;stroke-opacity:1"
         d="m 136.70724,164.91065 c 9.01586,9.33784 10.0074,6.80001 10.04519,6.68663"
         id="path971" />
      <path
         style="fill:none;stroke:#000000;stroke-width:0.264583px;stroke-linecap:butt;stroke-linejoin:miter;stroke-opacity:1"
         d="m 136.22142,168.68548 c 1.95674,3.41391 5.12166,5.61965 8.34716,7.7648"
         id="path973" />
      <path
         style="fill:none;stroke:#000000;stroke-width:0.264583px;stroke-linecap:butt;stroke-linejoin:miter;stroke-opacity:1"
         d="m 135.542,170.8208 c 1.12218,4.12739 5.01951,6.66897 7.7539,9.87509"
         id="path975" />
      <path
         style="fill:none;stroke:#000000;stroke-width:0.264583px;stroke-linecap:butt;stroke-linejoin:miter;stroke-opacity:1"
         d="m 132.38755,171.93699 c 1.92413,6.54693 4.2972,7.25776 6.45449,10.77366"
         id="path977" />
      <path
         style="fill:none;stroke:#000000;stroke-width:0.264583px;stroke-linecap:butt;stroke-linejoin:miter;stroke-opacity:1"
         d="m 128.60221,174.46055 c 0.7619,6.06306 3.81479,7.54412 5.96919,10.82219"
         id="path979" />
      <path
         style="fill:none;stroke:#000000;stroke-width:0.264583px;stroke-linecap:butt;stroke-linejoin:miter;stroke-opacity:1"
         d="m 125.01099,177.03264 c -1.23965,5.69904 1.37493,8.82859 3.04865,12.58538"
         id="path981" />
      <path
         style="fill:none;stroke:#000000;stroke-width:0.264583px;stroke-linecap:butt;stroke-linejoin:miter;stroke-opacity:1"
         d="m 121.51683,179.65326 c -1.79461,3.62706 -0.911,6.95654 -0.4853,10.33689"
         id="path983" />
      <path
         style="fill:none;stroke:#000000;stroke-width:0.264583px;stroke-linecap:butt;stroke-linejoin:miter;stroke-opacity:1"
         d="m 118.21679,180.62386 c -2.86525,2.79541 -2.68114,6.89768 -3.93093,10.38542"
         id="path985" />
      <path
         style="fill:none;stroke:#000000;stroke-width:0.264583px;stroke-linecap:butt;stroke-linejoin:miter;stroke-opacity:1"
         d="m 115.35352,177.46941 c -3.65783,4.32782 -1.81929,9.15531 -2.71768,13.73399"
         id="path987" />
      <path
         style="fill:none;stroke:#000000;stroke-width:0.264583px;stroke-linecap:butt;stroke-linejoin:miter;stroke-opacity:1"
         d="m 109.48139,179.36208 c -0.58018,4.85045 -0.39042,8.80265 0.58236,11.84132"
         id="path989" />
      <path
         style="fill:none;stroke:#000000;stroke-width:0.264583px;stroke-linecap:butt;stroke-linejoin:miter;stroke-opacity:1"
         d="m 106.02886,185.77475 c -0.15828,7.6321 1.64887,6.26171 1.65692,6.25366"
         id="path991" />
      <path
         style="fill:none;stroke:#000000;stroke-width:0.264583px;stroke-linecap:butt;stroke-linejoin:miter;stroke-opacity:1"
         d="m 102.04822,186.04927 c -0.95026,3.15903 0.67757,4.47656 1.36692,6.46444"
         id="path993" />
      <path
         style="fill:none;stroke:#000000;stroke-width:0.264583px;stroke-linecap:butt;stroke-linejoin:miter;stroke-opacity:1"
         d="m 98.416549,186.01069 c -0.89395,3.24042 -0.41462,5.41274 1.01913,6.84273"
         id="path995" />
    </g>
  </g>
</svg>
