<?xml version="1.0" encoding="UTF-8" standalone="no"?>
<svg
   xmlns:dc="http://purl.org/dc/elements/1.1/"
   xmlns:cc="http://creativecommons.org/ns#"
   xmlns:rdf="http://www.w3.org/1999/02/22-rdf-syntax-ns#"
   xmlns:svg="http://www.w3.org/2000/svg"
   xmlns="http://www.w3.org/2000/svg"
   xmlns:sodipodi="http://sodipodi.sourceforge.net/DTD/sodipodi-0.dtd"
   xmlns:inkscape="http://www.inkscape.org/namespaces/inkscape"
   width="210mm"
   height="297mm"
   viewBox="0 0 210 297"
   version="1.1"
   id="svg8"
   sodipodi:docname="cone.svg"
   inkscape:version="1.0.2 (e86c870879, 2021-01-15, custom)">
  <sodipodi:namedview
     pagecolor="#ffffff"
     bordercolor="#666666"
     borderopacity="1"
     objecttolerance="10"
     gridtolerance="10"
     guidetolerance="10"
     inkscape:pageopacity="0"
     inkscape:pageshadow="2"
     inkscape:window-width="1920"
     inkscape:window-height="1017"
     id="namedview71"
     showgrid="false"
     inkscape:zoom="0.36860322"
     inkscape:cx="-162.20661"
     inkscape:cy="502.49544"
     inkscape:window-x="-8"
     inkscape:window-y="-8"
     inkscape:window-maximized="1"
     inkscape:current-layer="svg8" />
  <defs
     id="defs2" />
  <metadata
     id="metadata5">
    <rdf:RDF>
      <cc:Work
         rdf:about="">
        <dc:format>image/svg+xml</dc:format>
        <dc:type
           rdf:resource="http://purl.org/dc/dcmitype/StillImage" />
        <dc:title />
      </cc:Work>
    </rdf:RDF>
  </metadata>
  <g
     id="layer1"
     transform="matrix(1.7548859,0,0,1.5399092,-59.071354,-73.246862)">
    <g
       id="g1114">
      <g
         id="g1044">
        <path
           style="fill:#d45500;stroke:#000000;stroke-width:1.165;stroke-linecap:butt;stroke-linejoin:miter;stroke-miterlimit:4;stroke-dasharray:none;stroke-opacity:1"
           d="m 41.397263,187.10628 14.032971,-13.79909 7.016485,-17.07345 1.871065,-5.84707 2.338827,-1.87106 0.233883,2.80659 c 0,0 -0.935532,4.91154 -0.935532,5.84707 0,0.93553 0.233884,2.33883 0.233884,2.33883 l 4.91154,-6.7826 1.169413,-8.1859 3.508243,-2.8066 c 0,0 0,-1.40329 -0.467765,2.8066 -0.467765,4.20989 -0.467765,6.08095 -0.467765,6.08095 l 4.677656,-6.54872 2.104946,-5.61319 c 0,0 2.57271,-2.80659 2.57271,-1.63718 0,1.16942 -0.467765,2.10495 -0.467765,2.10495 l 11.928025,-13.79909 3.508243,-3.976 0.935533,1.87106 c 0,0 0.93553,0 2.10494,0 1.16942,0 4.2099,-1.16942 5.14543,-0.46777 0.93553,0.70165 3.74212,1.63718 3.74212,1.63718 0,0 0.46777,1.63718 -2.33883,2.80659 -2.80659,1.16942 -10.056958,4.44378 -11.226374,5.84708 -1.169413,1.40329 -10.290844,14.73462 -10.290844,14.73462 l -15.670152,20.58169 -2.57271,2.10494 c 0,0 -5.145424,0.93553 -4.209891,0.93553 0.935532,0 9.589195,0 9.589195,0 0,0 1.637181,-2.57271 1.169416,0.23389 -0.467767,2.80659 1.403298,2.80659 -0.701648,2.80659 -2.104946,0 -11.226377,0.23388 -11.226377,0.23388 l -0.233883,2.57271 c 0,0 -4.91154,1.87107 -3.742127,2.33883 1.169416,0.46777 7.016486,-0.46776 8.185902,0 1.169413,0.46777 2.104945,-0.70165 2.338826,0.70165 0.233884,1.4033 -6.548718,2.10495 -6.548718,2.10495 0,0 -5.613188,-0.23389 -6.080955,0.93553 -0.467765,1.16941 -0.233881,2.80659 -1.169414,2.80659 -0.935532,0 -14.968503,1.16942 -14.968503,1.16942 z"
           id="path861" />
        <path
           style="fill:#d38d5f;stroke:#000000;stroke-width:1.165;stroke-linecap:butt;stroke-linejoin:miter;stroke-miterlimit:4;stroke-dasharray:none;stroke-opacity:1"
           d="m 107.66248,127.34271 -5.12679,5.95369 -6.615205,9.42667 -3.142224,7.77286 -2.315321,8.93053 2.149941,1.6538 c 0,0 -0.99228,7.44211 -0.330758,7.93825 0.661519,0.49614 1.98456,0.99228 1.98456,0.99228 l -1.81918,7.77287 c 0,0 2.97684,4.9614 3.307601,5.7883 0.330761,0.8269 0.826903,10.08819 0.826903,10.08819 l 5.457543,2.31532 0.8269,8.93053 5.78831,1.48842 1.15766,5.78831 5.7883,0.8269 1.15766,6.61521 6.11907,2.31532 2.81146,3.14222 4.29989,-0.33076 4.46526,1.48842 0.49614,-3.96912 2.64608,-1.48842 0.33076,-5.62293 0.66152,-4.79602 1.81919,-5.62293 1.65379,-5.7883 1.15767,-6.28445 -2.64608,-4.46526 3.3076,-2.64608 -0.49614,-2.31533 2.64608,-8.76514 -2.4807,-3.47299 0.8269,-7.44211 -1.98456,-3.3076 1.32304,-6.94596 -4.46527,-1.81919 v -5.7883 l -2.81146,-3.14222 -0.66152,-3.14223 -5.12678,-3.47298 -3.80375,-0.49614 v -4.46526 l -8.43439,-5.29217 -7.31783,-1.49712 z"
           id="path863" />
        <path
           style="fill:none;stroke:#000000;stroke-width:1.165;stroke-linecap:butt;stroke-linejoin:miter;stroke-miterlimit:4;stroke-dasharray:none;stroke-opacity:1"
           d="m 102.53569,133.2964 3.55567,2.97684 -3.88643,8.68246 -1.48842,-1.40573 -4.796025,-0.8269"
           id="path865" />
        <path
           style="fill:none;stroke:#000000;stroke-width:1.165;stroke-linecap:butt;stroke-linejoin:miter;stroke-miterlimit:4;stroke-dasharray:none;stroke-opacity:1"
           d="m 102.20493,144.9557 -2.976841,3.55567 -1.323041,3.05954 v 1.6538 0.99228 c 0,0 2.646082,0.99228 3.224912,1.40573 0.57883,0.41345 1.07497,-0.41345 1.07497,-0.41345 0,0 1.15766,-4.05182 1.40573,-4.54796 0.24807,-0.49614 2.23263,-3.88643 2.23263,-3.88643 l -0.41345,-0.8269 z"
           id="path867" />
        <path
           style="fill:#784421;stroke:#000000;stroke-width:1.165;stroke-linecap:butt;stroke-linejoin:miter;stroke-miterlimit:4;stroke-dasharray:none;stroke-opacity:1"
           d="m 105.84329,146.77488 4.54796,2.06725 c 0,0 0.99228,1.24035 1.07497,1.6538 0.0827,0.41345 0.57883,1.81918 0.57883,1.81918 0,0 -2.14994,1.90188 -2.14994,2.23264 0,0.33076 -1.48842,3.55567 -1.48842,4.05181 0,0.49614 0,1.6538 0,1.6538 l -4.79603,-3.14222 -1.40573,-1.90187"
           id="path869" />
        <path
           style="fill:#c87137;stroke:#000000;stroke-width:1.165;stroke-linecap:butt;stroke-linejoin:miter;stroke-miterlimit:4;stroke-dasharray:none;stroke-opacity:1"
           d="m 102.20493,155.20927 -4.299882,8.68246 c 0,0 0.578828,1.57111 0.578828,1.90187 0,0.33076 0,2.06725 0,2.06725 0,0 1.736494,-0.24807 2.811464,0.57883 1.07497,0.8269 3.14222,2.14994 3.3076,2.4807 0.16538,0.33076 1.07497,1.24035 1.07497,1.24035 l -0.16538,-1.73649 c 0,0 -0.16538,-4.05181 0.66152,-5.45754 0.8269,-1.40574 2.23264,-4.71334 2.23264,-4.71334 v 0"
           id="path871" />
        <path
           style="fill:none;stroke:#000000;stroke-width:1.165;stroke-linecap:butt;stroke-linejoin:miter;stroke-miterlimit:4;stroke-dasharray:none;stroke-opacity:1"
           d="m 98.483874,167.86085 -1.819177,5.12678 c 0,0 -0.08269,3.63837 -0.08269,4.05182 0,0.41345 0.413448,3.14222 0.413448,3.14222 0,0 1.736492,-0.8269 2.480704,-0.49614 0.744211,0.33076 2.232631,1.40573 2.232631,1.40573"
           id="path873" />
        <path
           style="fill:#c87137;stroke:#000000;stroke-width:1.165;stroke-linecap:butt;stroke-linejoin:miter;stroke-miterlimit:4;stroke-dasharray:none;stroke-opacity:1"
           d="m 101.70879,181.09126 v 0 c 0,0 0.99228,-3.47298 0.99228,-3.47298 l 2.97684,-5.45755 3.14223,0.66153 c 0,0 1.40573,0.66152 1.73649,0.99228 0.33076,0.33076 1.98456,2.14994 1.98456,2.14994"
           id="path875" />
        <path
           style="fill:none;stroke:#000000;stroke-width:1.165;stroke-linecap:butt;stroke-linejoin:miter;stroke-miterlimit:4;stroke-dasharray:none;stroke-opacity:1"
           d="m 101.70879,181.09126 5.45754,0.66152 c 0,0 1.15767,1.24035 1.48843,1.40573 0.33076,0.16538 2.64608,1.48842 2.64608,1.48842 l 0.49614,-5.87099 0.74421,-2.81146"
           id="path877" />
        <path
           style="fill:none;stroke:#000000;stroke-width:1.165;stroke-linecap:butt;stroke-linejoin:miter;stroke-miterlimit:4;stroke-dasharray:none;stroke-opacity:1"
           d="m 108.40669,160.25336 2.89415,1.40573 2.31532,2.31533 2.23263,1.73649 -1.32304,2.39801 c 0,0 -0.74421,2.23263 -0.99228,2.89415 -0.24807,0.66152 -0.41345,1.57111 -0.41345,1.90187 0,0.33076 -0.57883,3.05954 -0.57883,3.05954"
           id="path879" />
        <path
           style="fill:none;stroke:#000000;stroke-width:1.165;stroke-linecap:butt;stroke-linejoin:miter;stroke-miterlimit:4;stroke-dasharray:none;stroke-opacity:1"
           d="m 115.84879,165.71091 2.97685,1.57111 1.6538,1.24035 c 0,0 0.74421,0.74421 1.24035,1.15766 0.49614,0.41345 0.90959,0.90959 0.90959,0.90959 0,0 0.16538,0.24807 -0.0827,0.74421 -0.24807,0.49614 -0.90959,2.14994 -0.99228,2.97685 -0.0827,0.8269 -0.33076,2.97684 -0.33076,3.3076 0,0.33076 -0.0827,1.40573 -0.16538,2.14994 -0.0827,0.74421 -0.24807,2.31532 -0.24807,2.31532 l -5.0441,-4.46526 c 0,0 -0.24807,-0.33076 -0.90959,-0.66152 -0.66152,-0.33076 -2.31532,-0.99228 -2.31532,-0.99228"
           id="path881" />
        <path
           style="fill:none;stroke:#000000;stroke-width:1.165;stroke-linecap:butt;stroke-linejoin:miter;stroke-miterlimit:4;stroke-dasharray:none;stroke-opacity:1"
           d="m 115.84879,165.71091 c 0.41345,-1.81918 1.40573,-4.54796 1.40573,-4.54796 0,0 0.33076,-1.6538 0.57884,-1.98456 0.24806,-0.33076 1.24035,-2.14994 1.24035,-2.14994 l 3.14222,1.15766 c 0,0 1.48842,2.06725 1.98456,2.56339 0.49614,0.49614 1.57111,1.57111 1.73649,1.98456 0.16538,0.41346 0.66152,0.24808 0.24807,0.74421 -0.41345,0.49615 -2.81146,2.97685 -2.97684,3.80375 -0.16538,0.8269 -0.57883,3.3076 -0.57883,3.3076"
           id="path883" />
        <path
           style="fill:none;stroke:#000000;stroke-width:1.165;stroke-linecap:butt;stroke-linejoin:miter;stroke-miterlimit:4;stroke-dasharray:none;stroke-opacity:1"
           d="m 126.35043,163.31289 3.72106,3.47299 c 0,0 1.48842,1.07497 1.6538,1.90187 0.16538,0.8269 0.49614,1.73649 0.49614,1.73649 l -1.6538,3.47298 -1.24035,4.2172 -2.5634,-4.05182 -4.1345,-3.47298 v 0"
           id="path885" />
        <path
           style="fill:none;stroke:#000000;stroke-width:1.165;stroke-linecap:butt;stroke-linejoin:miter;stroke-miterlimit:4;stroke-dasharray:none;stroke-opacity:1"
           d="m 120.81019,182.08354 c 0,0 3.80375,1.6538 4.05182,2.23263 0.24807,0.57883 1.90187,2.06725 1.90187,2.06725 l 0.49614,-2.89415 0.0827,-3.14222 1.98457,-2.23263 4.54794,4.1345 0.8269,1.65381 0.49614,1.24035 c 0,0 -0.99228,3.14222 -1.07497,3.47298 -0.0827,0.33076 -0.33076,1.90187 -0.33076,1.90187 0,0 -0.74421,-1.57111 -1.73649,-2.23263 -0.99228,-0.66152 -5.12679,-2.23263 -5.12679,-2.23263"
           id="path887" />
        <path
           style="fill:none;stroke:#000000;stroke-width:1.165;stroke-linecap:butt;stroke-linejoin:miter;stroke-miterlimit:4;stroke-dasharray:none;stroke-opacity:1"
           d="m 132.22143,170.42424 2.4807,3.47298 c 0,0 0.90959,1.57112 1.32304,1.98457 0.41345,0.41345 1.40573,1.81918 1.40573,1.81918 v 1.24035 l -2.23263,6.20176"
           id="path889" />
        <path
           style="fill:#784421;stroke:#000000;stroke-width:1.165;stroke-linecap:butt;stroke-linejoin:miter;stroke-miterlimit:4;stroke-dasharray:none;stroke-opacity:1"
           d="m 137.4309,177.70097 3.3076,3.14222 c 0,0 0.41345,0.57883 0.66153,0.99228 0.24807,0.41345 2.4807,3.72106 2.4807,3.72106 l -3.3076,2.64608"
           id="path891" />
        <path
           style="fill:none;stroke:#000000;stroke-width:1.165;stroke-linecap:butt;stroke-linejoin:miter;stroke-miterlimit:4;stroke-dasharray:none;stroke-opacity:1"
           d="m 135.19827,185.14308 5.37486,3.05953"
           id="path893" />
        <path
           style="fill:none;stroke:#000000;stroke-width:1.165;stroke-linecap:butt;stroke-linejoin:miter;stroke-miterlimit:4;stroke-dasharray:none;stroke-opacity:1"
           d="m 133.79254,190.51793 c 0,0 5.45754,5.20947 5.54023,5.62292 0.0827,0.41345 2.5634,-5.54023 2.5634,-5.54023"
           id="path895" />
        <path
           style="fill:#a05a2c;stroke:#000000;stroke-width:1.165;stroke-linecap:butt;stroke-linejoin:miter;stroke-miterlimit:4;stroke-dasharray:none;stroke-opacity:1"
           d="m 133.79254,190.51793 c 0,0 -1.73649,4.54795 -1.73649,5.20947 0,0.66152 0.0827,2.5634 0.0827,2.89416 0,0.33076 0.49614,0.57883 0.99228,0.99228 0.49614,0.41345 2.23263,2.31532 2.56339,2.64608 0.33076,0.33076 1.07497,1.15766 1.07497,1.15766 0,0 0.24807,0.24807 0.41345,-0.33076 0.16538,-0.57883 0.24807,-2.89415 0.41345,-3.55567 0.16538,-0.66152 1.57111,-3.55568 1.57111,-3.55568"
           id="path897" />
        <path
           style="fill:none;stroke:#000000;stroke-width:1.165;stroke-linecap:butt;stroke-linejoin:miter;stroke-miterlimit:4;stroke-dasharray:none;stroke-opacity:1"
           d="m 126.76388,186.38342 -1.24035,4.2172 v 1.73649 c 0,0 0.57883,0.8269 1.24035,1.07497 0.66152,0.24807 2.72877,1.73649 3.22492,2.23263 0.49614,0.49614 1.90187,1.98456 1.90187,1.98456"
           id="path899" />
        <path
           style="fill:none;stroke:#000000;stroke-width:1.165;stroke-linecap:butt;stroke-linejoin:miter;stroke-miterlimit:4;stroke-dasharray:none;stroke-opacity:1"
           d="m 125.52353,192.33711 c 0,0 -1.40573,5.12678 -1.40573,5.54024 0,0.41345 0,1.48842 0,2.23263 0,0.74421 0.16538,0.99228 0.16538,0.99228 0,0 1.90187,0.57883 2.72877,0.90959 0.8269,0.33076 2.81146,1.6538 2.81146,1.6538 0,0 1.40574,0.99228 1.40574,1.32304 0,0.33076 0.41345,-2.81146 0.41345,-2.81146 0,0 0,-1.07497 0,-1.73649 0,-0.66152 0.24807,-2.81147 0.24807,-2.81147"
           id="path901" />
        <path
           style="fill:none;stroke:#000000;stroke-width:1.165;stroke-linecap:butt;stroke-linejoin:miter;stroke-miterlimit:4;stroke-dasharray:none;stroke-opacity:1"
           d="m 124.28318,201.10226 c 0,0 -0.90959,3.22491 -0.90959,4.05181 0,0.8269 -0.0827,3.63836 -0.0827,3.96913 0,0.33076 1.98456,0.24807 2.97684,0.57883 0.99228,0.33076 2.14994,1.15766 2.56339,1.48842 0.41346,0.33076 1.57112,1.32304 1.57112,1.32304 0,0 0.49614,-0.33076 0.49614,-0.99228 0,-0.66152 0.33076,-6.78059 0.33076,-6.78059"
           id="path903" />
        <path
           style="fill:none;stroke:#000000;stroke-width:1.165;stroke-linecap:butt;stroke-linejoin:miter;stroke-miterlimit:4;stroke-dasharray:none;stroke-opacity:1"
           d="m 131.31184,206.47711 4.05181,1.57112 0.99228,0.7442 0.41345,-2.72877 0.24807,-2.64608"
           id="path905" />
        <path
           style="fill:none;stroke:#000000;stroke-width:1.165;stroke-linecap:butt;stroke-linejoin:miter;stroke-miterlimit:4;stroke-dasharray:none;stroke-opacity:1"
           d="m 136.35593,208.79243 -1.24035,5.20948 -1.48842,-0.90959 c 0,0 0.57884,0.0827 -1.32304,-0.24807 -1.90188,-0.33076 -1.90188,-0.33076 -1.90188,-0.33076 0,0 -0.16537,2.4807 1e-5,3.72105 0.16538,1.24036 1.57111,2.97685 1.57111,2.97685 l 2.97684,3.05953 2.64608,-1.48842 c 0,0 0.33076,-5.62293 0.33076,-5.62293 l -2.23263,-1.40573"
           id="path907" />
        <path
           style="fill:none;stroke:#000000;stroke-width:1.165;stroke-linecap:butt;stroke-linejoin:miter;stroke-miterlimit:4;stroke-dasharray:none;stroke-opacity:1"
           d="m 123.70435,209.45396 c 0,0 0,3.05953 0,3.39029 0,0.33076 0.8269,3.14222 0.8269,3.14222 0,0 1.32304,1.48842 2.4807,2.23263 1.15766,0.74421 4.96141,0.99229 4.96141,0.99229 v 0"
           id="path909" />
        <path
           style="fill:#a05a2c;stroke:#000000;stroke-width:1.165;stroke-linecap:butt;stroke-linejoin:miter;stroke-miterlimit:4;stroke-dasharray:none;stroke-opacity:1"
           d="m 130.15418,219.62484 -0.16538,5.12678"
           id="path911" />
        <path
           style="fill:none;stroke:#000000;stroke-width:1.165;stroke-linecap:butt;stroke-linejoin:miter;stroke-miterlimit:4;stroke-dasharray:none;stroke-opacity:1"
           d="m 124.53125,215.98647 -1.6538,5.95369"
           id="path913" />
        <path
           style="fill:none;stroke:#000000;stroke-width:1.165;stroke-linecap:butt;stroke-linejoin:miter;stroke-miterlimit:4;stroke-dasharray:none;stroke-opacity:1"
           d="m 116.84107,206.64249 c -0.24807,1.7365 -0.16538,4.63065 -0.16538,4.63065 l 3.96913,4.29988 3.88643,0.41345 -0.8269,-6.53251 -2.56339,-2.64609 z"
           id="path915" />
        <path
           style="fill:#784421;stroke:#000000;stroke-width:1.165;stroke-linecap:butt;stroke-linejoin:miter;stroke-miterlimit:4;stroke-dasharray:none;stroke-opacity:1"
           d="m 108.65476,206.39442 8.18631,0.24807 -0.16538,4.63065 -1.07497,1.73649"
           id="path917" />
        <path
           style="fill:#c87137;stroke:#000000;stroke-width:1.165;stroke-linecap:butt;stroke-linejoin:miter;stroke-miterlimit:4;stroke-dasharray:none;stroke-opacity:1"
           d="m 116.84107,206.64249 -0.99228,-7.35941 0.33076,-1.07497 4.54796,0.49614 3.55567,2.39801"
           id="path919" />
        <path
           style="fill:#a05a2c;stroke:#000000;stroke-width:1.165;stroke-linecap:butt;stroke-linejoin:miter;stroke-miterlimit:4;stroke-dasharray:none;stroke-opacity:1"
           d="m 116.17955,198.20811 0.0827,-4.2172 0.8269,-2.31532 c 0,0 0.66153,-1.32304 0.82691,-1.6538 0.16537,-0.33076 3.14222,-0.16538 3.14222,-0.16538 0,0 0.57883,0 1.32304,0.57883 0.74421,0.57883 3.14222,1.90187 3.14222,1.90187 v 0"
           id="path921" />
        <path
           style="fill:none;stroke:#000000;stroke-width:1.165;stroke-linecap:butt;stroke-linejoin:miter;stroke-miterlimit:4;stroke-dasharray:none;stroke-opacity:1"
           d="m 120.81019,182.08354 -2.81145,4.38258 c 0,0 -0.33076,1.57111 -0.41346,2.23263 -0.0827,0.66152 -0.0827,1.32304 -0.0827,1.32304"
           id="path923" />
        <path
           style="fill:none;stroke:#000000;stroke-width:1.165;stroke-linecap:butt;stroke-linejoin:miter;stroke-miterlimit:4;stroke-dasharray:none;stroke-opacity:1"
           d="m 111.30084,184.64693 2.4807,0.33076 c 0,0 0.99228,1.65381 1.32304,1.98457 0.33076,0.33076 2.398,3.05953 2.398,3.05953"
           id="path925" />
        <path
           style="fill:#502d16;stroke:#000000;stroke-width:1.165;stroke-linecap:butt;stroke-linejoin:miter;stroke-miterlimit:4;stroke-dasharray:none;stroke-opacity:1"
           d="m 111.30084,184.64693 c 0,0 -2.72877,4.38258 -2.81146,4.71334 -0.0827,0.33076 -0.33076,2.31532 -0.33076,2.72877 0,0.41345 0.16538,2.39801 0.16538,2.39801 0,0 0.41345,0.0827 1.32304,0.16538 0.90959,0.0827 5.04409,1.73649 5.04409,1.73649 l 1.48842,1.81919"
           id="path927" />
        <path
           style="fill:none;stroke:#000000;stroke-width:1.165;stroke-linecap:butt;stroke-linejoin:miter;stroke-miterlimit:4;stroke-dasharray:none;stroke-opacity:1"
           d="m 101.70879,181.09126 c 0,0 0.0827,6.11907 0.24807,6.94597 0.16538,0.8269 0.33076,3.3076 0.33076,3.80374 0,0.49614 0,2.14994 0,2.14994 0,0 2.4807,-0.33076 3.05953,-0.24807 0.57883,0.0827 2.97685,0.74421 2.97685,0.74421 v 0"
           id="path929" />
        <path
           style="fill:#c87137;stroke:#000000;stroke-width:1.165;stroke-linecap:butt;stroke-linejoin:miter;stroke-miterlimit:4;stroke-dasharray:none;stroke-opacity:1"
           d="m 96.582007,193.66015 5.705613,0.33076"
           id="path931" />
        <path
           style="fill:none;stroke:#000000;stroke-width:1.165;stroke-linecap:butt;stroke-linejoin:miter;stroke-miterlimit:4;stroke-dasharray:none;stroke-opacity:1"
           d="m 108.324,194.48705 -0.99228,6.20176 c 0,0 0.49614,1.32304 0.66152,2.4807 0.16538,1.15766 0.66152,3.22491 0.66152,3.22491"
           id="path933" />
        <path
           style="fill:#c87137;stroke:#000000;stroke-width:1.165;stroke-linecap:butt;stroke-linejoin:miter;stroke-miterlimit:4;stroke-dasharray:none;stroke-opacity:1"
           d="m 112.04505,152.31511 5.13025,1.93063 1.89841,2.78271 v 0"
           id="path935" />
        <path
           style="fill:#a05a2c;stroke:#000000;stroke-width:1.165;stroke-linecap:butt;stroke-linejoin:miter;stroke-miterlimit:4;stroke-dasharray:none;stroke-opacity:1"
           d="m 110.39125,148.84213 3.05953,-2.31532 c 0,0 0.99228,-1.24035 1.32304,-1.48842 0.33076,-0.24807 1.73649,-0.99228 1.73649,-0.99228 0,0 1.81918,1.07497 2.31533,1.57111 0.49614,0.49614 2.97684,2.4807 3.3076,2.81146 0.33076,0.33076 0.90959,0.99228 0.90959,0.99228 l -0.16538,0.57883 c 0,0 -1.6538,1.65381 -1.98456,2.14994 -0.33076,0.49615 -1.81918,4.87872 -1.81918,4.87872"
           id="path937" />
        <path
           style="fill:#d45500;stroke:#000000;stroke-width:1.165;stroke-linecap:butt;stroke-linejoin:miter;stroke-miterlimit:4;stroke-dasharray:none;stroke-opacity:1"
           d="m 122.87745,149.99979 4.21719,2.81147 1.40573,1.40573 c 0,0 0.66153,0.66152 0.74422,0.99228 0.0827,0.33076 -0.41346,0.49614 -0.66153,0.90959 -0.24807,0.41345 -2.97684,1.90187 -3.22491,2.31532 -0.24807,0.41345 -0.90959,2.23263 -0.90959,2.23263"
           id="path939" />
        <path
           style="fill:#a05a2c;stroke:#000000;stroke-width:1.165;stroke-linecap:butt;stroke-linejoin:miter;stroke-miterlimit:4;stroke-dasharray:none;stroke-opacity:1"
           d="m 129.49265,155.20927 3.05954,2.4807 2.39801,3.63836 0.24807,1.65381 c 0,0 -0.90959,1.24035 -1.15766,1.57111 -0.24807,0.33076 -1.24035,2.14994 -1.24035,2.14994 l -0.57883,3.72105"
           id="path941" />
        <path
           style="fill:none;stroke:#000000;stroke-width:1.165;stroke-linecap:butt;stroke-linejoin:miter;stroke-miterlimit:4;stroke-dasharray:none;stroke-opacity:1"
           d="m 135.19827,162.98214 2.89415,2.31532 0.90959,1.40573 1.15766,3.88643 c 0,0 -0.0827,0.16538 -0.41345,0.33076 -0.33076,0.16538 -2.31532,6.78059 -2.31532,6.78059 v 0"
           id="path943" />
        <path
           style="fill:none;stroke:#000000;stroke-width:1.165;stroke-linecap:butt;stroke-linejoin:miter;stroke-miterlimit:4;stroke-dasharray:none;stroke-opacity:1"
           d="m 140.15967,170.58962 v 0 c 0,0 0.0827,-1.90187 1.7365,-0.74421 1.6538,1.15766 1.6538,1.15766 1.6538,1.15766"
           id="path945" />
        <path
           style="fill:none;stroke:#000000;stroke-width:1.165;stroke-linecap:butt;stroke-linejoin:miter;stroke-miterlimit:4;stroke-dasharray:none;stroke-opacity:1"
           d="m 107.66248,127.34271 4.79602,2.23263 c 0,0 -0.16538,1.15767 0.57883,0.99229 0.74421,-0.16538 1.32304,-0.16538 1.57111,-0.49614 0.24807,-0.33077 0.99228,-1.32305 1.81918,-1.7365 0.8269,-0.41345 1.98456,-2.64608 1.98456,-2.64608"
           id="path947" />
        <path
           style="fill:none;stroke:#000000;stroke-width:1.165;stroke-linecap:butt;stroke-linejoin:miter;stroke-miterlimit:4;stroke-dasharray:none;stroke-opacity:1"
           d="m 112.4585,129.57534 -3.39029,3.72106 -2.97685,2.97684 v 0"
           id="path949" />
        <path
           style="fill:#a05a2c;stroke:#000000;stroke-width:1.165;stroke-linecap:butt;stroke-linejoin:miter;stroke-miterlimit:4;stroke-dasharray:none;stroke-opacity:1"
           d="m 113.94692,130.65032 c 0.74421,0.66152 4.38257,4.38257 4.38257,4.38257 0,0 0,0.33076 0.57884,0.0827 0.57882,-0.24807 1.90187,-0.74421 2.39801,-0.90959 0.49614,-0.16538 3.63836,-0.49614 3.63836,-0.49614 l 1.73649,-0.41345"
           id="path951" />
        <path
           style="fill:none;stroke:#000000;stroke-width:1.165;stroke-linecap:butt;stroke-linejoin:miter;stroke-miterlimit:4;stroke-dasharray:none;stroke-opacity:1"
           d="m 118.32949,135.03289 c 0,0 3.30761,1.98456 3.63837,2.39801 0.33076,0.41345 1.90187,1.90187 2.31532,2.14994 0.41345,0.24807 0.24807,0.49614 0.57883,0.49614 0.33076,0 1.98456,-0.49614 2.39801,-0.57883 0.41345,-0.0827 3.14223,-0.41345 3.63837,-0.49614 0.49614,-0.0827 3.22491,-0.66152 3.22491,-0.66152"
           id="path953" />
        <path
           style="fill:#a05a2c;stroke:#000000;stroke-width:1.165;stroke-linecap:butt;stroke-linejoin:miter;stroke-miterlimit:4;stroke-dasharray:none;stroke-opacity:1"
           d="m 126.26774,140.15967 2.72878,3.30761 c 0,0 -0.24808,0.8269 0.57882,0.66152 0.82691,-0.16538 3.05954,-1.40573 3.05954,-1.40573 0,0 1.15766,-0.33076 1.57111,-0.33076 0.41345,0 2.23263,0.16538 2.23263,0.16538"
           id="path955" />
        <path
           style="fill:none;stroke:#000000;stroke-width:1.165;stroke-linecap:butt;stroke-linejoin:miter;stroke-miterlimit:4;stroke-dasharray:none;stroke-opacity:1"
           d="m 128.99652,143.46728 c 0,0 2.39801,4.05181 2.72877,4.46526 0.33076,0.41345 1.98456,2.39801 2.14994,2.72877 0.16538,0.33076 2.14994,0.33076 2.14994,0.33076 l 3.22491,0.49614"
           id="path957" />
        <path
           style="fill:#784421;stroke:#000000;stroke-width:1.165;stroke-linecap:butt;stroke-linejoin:miter;stroke-miterlimit:4;stroke-dasharray:none;stroke-opacity:1"
           d="m 136.02517,150.99207 2.89415,5.45755 c 0,0 1.15766,2.72877 1.24035,3.05953 0.0827,0.33076 0.57883,1.57111 0.74421,1.98456 0.16538,0.41345 0.41346,0.49614 0.41346,0.49614 h 1.57111"
           id="path959" />
        <path
           style="fill:#a05a2c;stroke:#000000;stroke-width:1.165;stroke-linecap:butt;stroke-linejoin:miter;stroke-miterlimit:4;stroke-dasharray:none;stroke-opacity:1"
           d="m 141.31734,161.98985 -3.22492,3.30761"
           id="path961" />
        <path
           style="fill:none;stroke:#000000;stroke-width:1.165;stroke-linecap:butt;stroke-linejoin:miter;stroke-miterlimit:4;stroke-dasharray:none;stroke-opacity:1"
           d="m 131.14646,155.87079 c 0,0 0.0827,-1.81918 0.74421,-3.96912 0.66152,-2.14995 0.74421,-2.14995 0.74421,-2.14995 l 0.49614,-0.74421 h -0.0827"
           id="path963" />
        <path
           style="fill:none;stroke:#000000;stroke-width:1.165;stroke-linecap:butt;stroke-linejoin:miter;stroke-miterlimit:4;stroke-dasharray:none;stroke-opacity:1"
           d="m 123.04283,149.42096 5.04409,-3.3076 0.9096,-2.64608"
           id="path965" />
        <path
           style="fill:none;stroke:#000000;stroke-width:1.165;stroke-linecap:butt;stroke-linejoin:miter;stroke-miterlimit:4;stroke-dasharray:none;stroke-opacity:1"
           d="m 116.51031,144.04611 c 0,0 0.74421,-1.32304 1.48843,-2.4807 0.74421,-1.15766 1.24035,-1.57112 1.48841,-1.90188 0.24808,-0.33076 2.06726,-1.98456 2.06726,-1.98456"
           id="path967" />
        <path
           style="fill:none;stroke:#000000;stroke-width:1.165;stroke-linecap:butt;stroke-linejoin:miter;stroke-miterlimit:4;stroke-dasharray:none;stroke-opacity:1"
           d="m 107.41441,135.03289 4.63064,1.57111 0.74421,0.74421 3.80374,-1.98456 1.73649,-0.33076"
           id="path969" />
        <path
           style="fill:#a05a2c;stroke:#000000;stroke-width:1.165;stroke-linecap:butt;stroke-linejoin:miter;stroke-miterlimit:4;stroke-dasharray:none;stroke-opacity:1"
           d="m 105.42984,145.94798 3.55568,-4.87872 3.80374,-3.72105 3.72105,6.6979"
           id="path971" />
        <path
           style="fill:#00aa00;stroke:#000000;stroke-width:1.165;stroke-linecap:butt;stroke-linejoin:miter;stroke-miterlimit:4;stroke-dasharray:none;stroke-opacity:1"
           d="m 64.317784,150.38667 c 0,0 -0.467768,-11.92803 -0.467768,-13.09744 0,-1.16941 1.169416,-11.46026 1.169416,-13.09744 0,-1.63718 3.508243,-15.67015 3.508243,-16.83956 0,-1.16942 3.742124,-20.113928 3.742124,-20.113928 l 4.209891,-9.82308 c 0,0 0.467768,7.016486 0,10.290845 -0.467765,3.274361 -0.93553,8.419782 -2.338827,14.968503 -1.403297,6.54872 -2.338829,14.9685 -3.742126,19.41227 -1.403297,4.44378 -2.806594,21.51723 -2.806594,21.51723 l -0.935532,4.91154"
           id="path973" />
        <path
           style="fill:none;stroke:#000000;stroke-width:1.165;stroke-linecap:butt;stroke-linejoin:miter;stroke-miterlimit:4;stroke-dasharray:none;stroke-opacity:1"
           d="m 97.905048,154.21699 -5.292167,6.86327 v 0"
           id="path975" />
        <path
           style="fill:none;stroke:#000000;stroke-width:1.165;stroke-linecap:butt;stroke-linejoin:miter;stroke-miterlimit:4;stroke-dasharray:none;stroke-opacity:1"
           d="m 98.483874,167.86085 -4.217191,2.14994"
           id="path977" />
        <path
           style="fill:none;stroke:#000000;stroke-width:1.165;stroke-linecap:butt;stroke-linejoin:miter;stroke-miterlimit:4;stroke-dasharray:none;stroke-opacity:1"
           d="m 96.995455,180.18167 -0.986547,5.17049"
           id="path979" />
        <path
           style="fill:none;stroke:#000000;stroke-width:1.165;stroke-linecap:butt;stroke-linejoin:miter;stroke-miterlimit:4;stroke-dasharray:none;stroke-opacity:1"
           d="m 92.778259,150.49593 5.126789,3.72106"
           id="path981" />
      </g>
      <text
         xml:space="preserve"
         style="font-size:10.5833px;line-height:1.25;font-family:sans-serif;letter-spacing:0px;word-spacing:0px;stroke-width:0.264583"
         x="82.794525"
         y="58.002945"
         id="text1048"><tspan
           id="tspan1046"
           x="82.794525"
           y="58.002945"
           style="font-style:italic;font-variant:normal;font-weight:normal;font-stretch:normal;font-family:sans-serif;-inkscape-font-specification:'sans-serif Italic';stroke-width:0.264583">cone</tspan></text>
    </g>
  </g>
</svg>
