<?xml version="1.0" encoding="UTF-8" standalone="no"?>
<svg
   xmlns:dc="http://purl.org/dc/elements/1.1/"
   xmlns:cc="http://creativecommons.org/ns#"
   xmlns:rdf="http://www.w3.org/1999/02/22-rdf-syntax-ns#"
   xmlns:svg="http://www.w3.org/2000/svg"
   xmlns="http://www.w3.org/2000/svg"
   xmlns:sodipodi="http://sodipodi.sourceforge.net/DTD/sodipodi-0.dtd"
   xmlns:inkscape="http://www.inkscape.org/namespaces/inkscape"
   width="210mm"
   height="297mm"
   viewBox="0 0 210 297"
   version="1.1"
   id="svg8"
   sodipodi:docname="earthworm.svg"
   inkscape:version="1.0.2 (e86c870879, 2021-01-15, custom)">
  <sodipodi:namedview
     pagecolor="#ffffff"
     bordercolor="#666666"
     borderopacity="1"
     objecttolerance="10"
     gridtolerance="10"
     guidetolerance="10"
     inkscape:pageopacity="0"
     inkscape:pageshadow="2"
     inkscape:window-width="1920"
     inkscape:window-height="1017"
     id="namedview68"
     showgrid="false"
     inkscape:zoom="0.52128367"
     inkscape:cx="-437.45185"
     inkscape:cy="258.15598"
     inkscape:window-x="-8"
     inkscape:window-y="-8"
     inkscape:window-maximized="1"
     inkscape:current-layer="svg8" />
  <defs
     id="defs2" />
  <metadata
     id="metadata5">
    <rdf:RDF>
      <cc:Work
         rdf:about="">
        <dc:format>image/svg+xml</dc:format>
        <dc:type
           rdf:resource="http://purl.org/dc/dcmitype/StillImage" />
        <dc:title />
      </cc:Work>
    </rdf:RDF>
  </metadata>
  <g
     id="g1206">
    <path
       style="fill:#d38d5f;stroke:none;stroke-width:0.264583px;stroke-linecap:butt;stroke-linejoin:miter;stroke-opacity:1"
       d="m 1.7944996,116.7322 -1.1767256,0.40809 -0.43832404,3.45008 0.62807485,3.85818 H 2.6020244 l 1.0766999,0.80752 0.8972497,0.80753 5.2937737,-1.16643 1.9739493,-1.70477 4.486249,-1.7945 0.448625,-0.7178 3.947899,-0.53835 1.345875,-0.80753 4.037624,-0.0897 2.053704,-1.6735 2.073645,0.9557 4.396891,-1.27873 2.960558,1.63763 4.157006,-1.74531 3.290168,1.92476 3.734985,-2.03243 1.558788,1.31463 c 0,0 2.960923,0.53835 3.40955,0.53835 0.448625,0 1.409695,-1.20695 1.409695,-1.20695 l 2.358752,2.4631 c 0,0 0.986976,0.3589 1.884225,0.3589 0.89725,0 3.706548,-0.23794 3.706548,-0.23794 l 2.680642,0.53835 8.596881,4.18584 7.394549,0.98231 5.7053,3.95256 8.703323,3.49927 6.370471,1.97395 12.9204,3.49928 11.57452,0.26917 c 0,0 18.84225,-0.17945 19.29087,-0.26917 0.44863,-0.0897 14.80462,-0.89725 14.80462,-0.89725 l 14.26628,-2.5123 c 0,0 7.62662,0 8.16497,0.17945 0.53835,0.17945 8.34442,1.52532 8.9725,1.88422 0.62807,0.35891 5.83212,6.54993 5.83212,6.54993 0,0 1.4356,6.01157 1.25615,6.37047 -0.17945,0.3589 -2.69175,4.39652 -3.14038,4.57598 -0.44862,0.17945 -6.99854,7.89579 -6.99854,7.89579 l -7.80608,8.70333 -9.60057,3.9479 -17.13747,3.49927 -14.08682,2.69175 -19.91895,0.26917 -21.783255,0.50106 -9.620486,1.38317 -6.819098,2.60202 -3.499273,4.84515 -4.127349,5.83213 -1.345875,5.11432 -0.89725,2.8712 c 0,0 -0.986975,1.34587 0.538351,1.70477 1.525323,0.3589 4.845148,1.16643 5.473223,1.16643 0.628074,0 8.254699,0.26917 8.972497,-0.3589 0.717799,-0.62808 6.011574,-7.178 6.729373,-7.178 0.717801,0 19.201142,0.62807 19.649772,0.62807 0.44862,0 21.62372,0.17946 21.62372,0.17946 l 13.36902,-3.2301 17.04775,-4.75543 17.22719,-8.88277 13.72793,-12.11287 9.15194,-8.43415 3.67873,-6.90882 0.53835,-7.35745 -1.70478,-9.06223 -1.97395,-6.81909 -7.08827,-11.4848 -1.7945,-2.33285 -11.57452,-4.12735 -17.76555,3.2301 -15.25324,1.88422 -8.79305,-1.52532 -11.8437,1.16642 -9.15195,-1.61505 -13.54847,-1.25615 -29.070893,-10.31837 -22.700421,-7.716348 -23.328495,0.717798 -12.382046,-0.0897 -8.075248,1.88422 -5.8321239,3.76845 -3.7684492,4.39653 -1.5253248,3.76844 z"
       id="path1016" />
    <path
       style="fill:none;stroke:#000000;stroke-width:0.681651;stroke-linecap:butt;stroke-linejoin:miter;stroke-miterlimit:4;stroke-dasharray:none;stroke-opacity:1"
       d="m 0.617774,117.14029 c -0.31039297,0.75136 -0.11039991,1.59107 -0.27730878,2.36875 -0.0575363,0.26804 -0.3057136,0.56302 -0.36974465,0.86135 -0.05014722,0.23364 0,0.62201 0,0.86136 0,1.20677 0.15129124,1.87938 0.73948931,2.90708 0.26985823,0.4715 0.57769242,0.96903 1.10923062,0.96903 0.1307237,0 0.1848729,-0.21534 0.2773088,-0.32301 0.730163,-0.8505 0.9469195,-0.91136 1.1092306,-2.04573 0.1168544,-0.81666 0.089351,0.24771 0.1848718,-0.75368 0.041674,-0.43681 0.1312502,-3.20214 0,-3.66077 -0.069184,-0.24176 -1.025333,-1.08664 -1.2016665,-1.29205 -0.1312257,-0.15285 -1.55535761,0.075 -1.5714112,0.10768 -0.0966838,0.19709 0.12324859,0.4307 0.18487177,0.64604"
       id="path849" />
    <path
       style="fill:none;stroke:#000000;stroke-width:0.681651;stroke-linecap:butt;stroke-linejoin:miter;stroke-miterlimit:4;stroke-dasharray:none;stroke-opacity:1"
       d="m 0.617774,117.14029 c 2.2681825,0.75086 1.8460728,-3.15727 3.1428223,-3.66077 0.6610848,-0.25668 1.4509047,-0.3089 2.1260287,0.21534 0.3022471,0.23472 0.7095754,0.40747 1.0167947,0.64602 0.2190213,0.17008 0.2358183,0.41203 0.3697447,0.64602 0.1450145,0.25337 0.4707993,0.56846 0.5546131,0.86136 0.2706217,0.94565 0.6242021,1.83279 0.7394893,2.90709 0.088982,0.82914 0,1.75144 0,2.58407 0,1.02295 0.013694,2.33684 -0.3697447,3.23009 -0.4615914,1.07533 -2.2186535,1.18436 -3.1428223,1.18436 -0.082029,0 -0.3784103,0.0488 -0.4621805,0 -0.1814333,-0.10573 -0.7730084,-1.33108 -1.0167948,-1.61504"
       id="path851" />
    <path
       style="fill:none;stroke:#000000;stroke-width:0.681651;stroke-linecap:butt;stroke-linejoin:miter;stroke-miterlimit:4;stroke-dasharray:none;stroke-opacity:1"
       d="M 4.0379051,112.72584 C 4.07883,111.41556 4.9208204,110.1 5.886625,109.81876 c 0.3786618,-0.11029 0.8183343,0.0893 1.2016665,0 1.0478411,-0.2441 2.0781642,0.15959 2.8655147,1.07669 0.7451088,0.86791 1.0523018,1.99582 1.2941038,3.12242 0.03414,0.15907 0.249597,0.37697 0.277307,0.53835 0.111596,0.64992 0.238076,1.32459 0.369745,1.93807 0.07992,0.37233 -0.06477,0.80717 0,1.18436 0.108567,0.63231 0.188703,3.21671 0,3.87611 -0.03513,0.12279 -0.143613,0.20286 -0.184872,0.32301 -0.03433,0.1 0.04134,0.2267 0,0.32301 -0.18531,0.43169 -0.820689,1.46712 -1.201667,1.61504 -0.05846,0.0227 -0.129756,-0.0322 -0.184872,0 -0.184873,0.10768 -0.138656,0.21534 -0.277309,0.32301 -0.4258422,0.33068 -1.1569643,0.75369 -1.663847,0.75369"
       id="path853" />
    <path
       style="fill:none;stroke:#000000;stroke-width:0.681651;stroke-linecap:butt;stroke-linejoin:miter;stroke-miterlimit:4;stroke-dasharray:none;stroke-opacity:1"
       d="m 8.1050863,109.06507 c -0.072639,-0.52569 -0.2563914,-1.32111 -0.092436,-1.83038 0.1950521,-0.60586 1.0417543,-1.0374 1.4789752,-1.29204 0.1518882,-0.0885 0.2775089,-0.26923 0.4621806,-0.32301 0.2577109,-0.075 0.5706979,0.0507 0.8319219,0 0.774449,-0.15035 1.871012,-0.26485 2.680645,-0.10767 0.576975,0.112 2.290212,1.32064 2.865515,1.72271 0.565921,0.39551 0.949546,1.35071 1.201666,1.93806 0.146752,0.34186 0.465406,0.713 0.554618,1.0767 0.03386,0.13803 -0.03386,0.29264 0,0.43067 0.116858,0.47641 0.402861,1.08476 0.554616,1.61505 0.06068,0.21206 0,0.53203 0,0.75369 0,2.26618 -0.610339,4.22126 -1.478977,6.24485 -0.158679,0.36965 -0.600053,0.8066 -0.831923,1.07669 -0.182033,0.21204 -0.229083,0.58985 -0.369745,0.75369 -0.968481,1.12809 -2.809312,1.72271 -4.159617,1.72271 -0.163263,0 -1.016798,0.10092 -1.016798,-0.10768"
       id="path855" />
    <path
       style="fill:none;stroke:#000000;stroke-width:0.681651;stroke-linecap:butt;stroke-linejoin:miter;stroke-miterlimit:4;stroke-dasharray:none;stroke-opacity:1"
       d="m 13.096628,104.86595 c -0.07238,-0.80888 0.144321,-0.97782 0.554618,-1.61504 0.191858,-0.29798 0.328225,-0.70533 0.554614,-0.96903 0.111093,-0.1294 0.313132,-0.0498 0.462181,-0.10767 1.072396,-0.41638 3.207356,-0.59442 4.252053,-0.10767 0.44091,0.20543 0.250322,0.20748 0.647053,0.32301 0.472305,0.13753 1.037386,0.17349 1.478975,0.43068 0.04152,0.0242 2.015908,2.12249 2.033592,2.15339 0.168216,0.29391 0.148944,0.40481 0.277308,0.75369 -0.498901,0.41049 0.268163,0.30703 0.277307,0.32301 0.322246,0.56302 0.542632,1.37675 0.647052,2.04572 0.272378,1.74497 0.75716,6.19337 0.184871,7.85989 -0.163777,0.47691 -0.653333,1.28076 -0.924358,1.72272 -0.190953,0.31138 -3.022587,2.61419 -3.42013,2.79941 -0.338624,0.15776 -1.63095,0.469 -1.941156,0.10769 -0.124429,-0.14494 -0.124208,-0.32301 -0.277309,-0.32301"
       id="path857" />
    <path
       style="fill:none;stroke:#000000;stroke-width:0.681651;stroke-linecap:butt;stroke-linejoin:miter;stroke-miterlimit:4;stroke-dasharray:none;stroke-opacity:1"
       d="m 20.399069,101.95887 c 0.115524,-0.4265 0.277663,-1.15755 0.739489,-1.29204 1.084193,-0.31571 2.746351,-0.50008 3.789874,0.10767 0.35188,0.20493 0.476499,0.66269 0.739487,0.96903 0.385159,0.44863 0.934241,0.83314 1.386538,1.18437 0.719992,0.55909 1.507413,1.87178 1.848718,2.79941 0.150497,0.40901 0.17803,0.8873 0.277308,1.29204 0.503227,2.05155 -0.108209,-0.91635 0.369754,0.75368 0.105079,0.36701 -0.04661,0.91199 0,1.29204 0.200656,1.63615 0.01118,3.29308 -0.369754,4.84513 -0.127794,0.52101 -0.03711,0.61791 -0.184872,1.0767 -0.269941,0.8385 -0.838977,1.51972 -1.201667,2.15339 -0.629646,1.10014 -3.085149,2.38553 -4.25205,2.04574 -0.22203,-0.0647 -0.367531,-0.32172 -0.554616,-0.43068 -0.209487,-0.12201 -0.462179,-0.26593 -0.462179,-0.53835"
       id="path859" />
    <path
       style="fill:none;stroke:#000000;stroke-width:0.681651;stroke-linecap:butt;stroke-linejoin:miter;stroke-miterlimit:4;stroke-dasharray:none;stroke-opacity:1"
       d="m 26.77715,101.52819 c -0.06048,-0.72008 0.542318,-1.15997 1.10923,-1.29204 0.571685,-0.13317 1.636727,-0.301273 2.218461,-0.10767 0.106868,0.0356 0.174163,0.16728 0.277319,0.21534 0.571216,0.26615 1.271555,0.31426 1.848718,0.53835 0.336386,0.13061 0.70888,0.64616 1.016795,0.86136 1.697482,1.18634 3.374921,2.91177 3.882307,5.27582 0.387171,1.80392 0.158702,3.6283 -0.09245,5.38348 -0.05288,0.36975 -0.292869,0.76331 -0.369744,1.07669 -0.456679,1.86179 -0.719656,2.24568 -2.126025,3.33776 -0.162123,0.12591 -0.376361,0.4553 -0.554615,0.53836 -0.08585,0.04 -0.189623,-0.0341 -0.277308,0 -0.534706,0.20761 -0.882383,0.63787 -1.478974,0.75369 -0.3938,0.0764 -0.808873,0.14998 -1.201667,0.21534 -0.190248,0.0316 -0.544297,-0.0758 -0.739498,0 -0.202288,0.0785 -0.486091,0.18146 -0.739476,0.10768 -0.323475,-0.0943 -0.669632,-0.24164 -0.831934,-0.43068 -0.0436,-0.0508 -0.141298,0.0508 -0.184872,0 -0.122081,-0.14221 -0.202433,-0.43067 -0.369743,-0.43067"
       id="path861" />
    <path
       style="fill:none;stroke:#000000;stroke-width:0.681651;stroke-linecap:butt;stroke-linejoin:miter;stroke-miterlimit:4;stroke-dasharray:none;stroke-opacity:1"
       d="m 33.340108,101.52819 c 0.849955,-1.0974 1.890873,-0.86136 3.050385,-0.86136 0.336129,0 0.965608,-0.12754 1.294102,0 0.353065,0.13709 0.782346,0.42391 1.109231,0.64602 0.453024,0.30782 2.47539,1.13688 2.773076,1.83039 0.02761,0.0642 -0.02761,0.15113 0,0.21534 0.210236,0.48974 0.637952,0.83485 0.831923,1.3997 0.06193,0.18025 0.405035,1.33314 0.46218,1.39971 0.208469,0.24281 0.02392,-0.8019 0.184883,0.32301 0.242877,1.69748 0.277307,3.4315 0.277307,5.16814 0,1.14309 0.06327,2.533 -0.46219,3.5531 -0.97359,1.89008 -3.288187,3.09681 -5.083974,3.44544 -0.327466,0.0635 -0.968056,0.26591 -1.294102,0.10768 -0.681113,-0.33057 -1.370732,-0.95061 -1.848718,-1.50739"
       id="path863" />
    <path
       style="fill:none;stroke:#000000;stroke-width:0.681651;stroke-linecap:butt;stroke-linejoin:miter;stroke-miterlimit:4;stroke-dasharray:none;stroke-opacity:1"
       d="m 40.919851,101.52819 c 0.3956,-1.19919 1.519038,-0.90502 2.403344,-1.0767 1.590939,-0.30885 3.119871,-0.26905 4.436923,0.75369 0.09245,0.0718 0.09815,0.24217 0.184871,0.32301 0.442707,0.41254 0.857265,0.86801 1.294103,1.29204 0.438905,0.42603 1.160462,0.84902 1.386538,1.50737 0.03432,0.1 -0.02918,0.22087 0,0.32301 0.05355,0.18721 0.316176,0.45881 0.369744,0.64602 0.03901,0.13619 -0.04583,0.29739 0,0.43068 0.198677,0.57853 0.273797,1.05626 0.369743,1.61505 0.07009,0.40817 0.300861,0.78319 0.369744,1.18436 0.192819,1.12296 0.352606,3.10387 0,4.19912 -0.186549,0.57945 -0.366502,0.53331 -0.647051,0.96902 -0.275564,0.42799 -0.621978,1.01831 -0.831923,1.50738 -0.175169,0.40809 -0.959203,1.00961 -1.294103,1.3997 -0.476622,0.55517 -1.78434,1.49489 -2.403333,1.61506 -1.300038,0.25238 -3.115287,0.77774 -4.252051,-0.21534 -0.382543,-0.33419 -0.554626,-0.33552 -0.554626,-0.86137"
       id="path865" />
    <path
       style="fill:none;stroke:#000000;stroke-width:0.681651;stroke-linecap:butt;stroke-linejoin:miter;stroke-miterlimit:4;stroke-dasharray:none;stroke-opacity:1"
       d="m 48.869348,101.8512 c -0.08418,-0.96607 0.461766,-1.74415 1.294103,-1.938053 0.514842,-0.119936 2.408877,0.0064 2.68064,0.323003 0.25874,0.30137 0.801495,0.73597 1.201667,0.96903 0.333603,0.19429 0.595205,0.42693 0.92437,0.64602 0.615371,0.4096 1.233011,0.43161 1.663835,1.18437 0.474509,0.82904 0.786314,1.64442 1.016806,2.58407 0.05589,0.22797 0.02974,0.53469 0.09245,0.75369 0.155203,0.54234 0.419991,1.06621 0.554615,1.61504 0.199907,0.81497 0.212416,3.5897 0,4.41446 -0.743623,2.88722 -1.408035,3.25513 -3.142831,5.27582 -0.244544,0.28485 -0.698317,0.6053 -1.016795,0.75369 -0.673276,0.31369 -3.577422,0.24746 -4.067179,-0.32301 -0.08887,-0.10351 -0.158669,-0.29249 -0.277308,-0.43068 -0.215288,-0.25077 -1.016794,-0.39803 -1.016794,-0.64603"
       id="path867" />
    <path
       style="fill:none;stroke:#000000;stroke-width:0.681651;stroke-linecap:butt;stroke-linejoin:miter;stroke-miterlimit:4;stroke-dasharray:none;stroke-opacity:1"
       d="m 56.171794,101.8512 c -0.0285,-0.74759 0.435921,-1.63432 1.109231,-1.83038 0.57543,-0.167574 2.018878,-0.08289 2.588205,0 0.368659,0.0537 0.740471,0.34477 1.10923,0.43067 0.286519,0.0667 1.470233,0.28033 1.663846,0.43068 0.151973,0.11802 0.401703,0.49759 0.554616,0.64602 0.335268,0.32543 0.834941,0.47797 1.10923,0.86136 0.454142,0.63477 0.929278,1.4083 1.294103,2.04572 0.108097,0.18887 0.108097,0.43739 0.184871,0.64602 0.904629,2.45866 1.201667,3.95542 1.201667,6.67552 0,0.55948 0.03912,1.18624 -0.09245,1.72271 -0.10329,0.42131 -0.274625,1.0174 -0.46218,1.39971 -0.144405,0.29436 -0.541335,0.66121 -0.647051,0.96903 -0.122685,0.35726 -0.08809,0.81693 -0.277307,1.18436 -0.172889,0.33564 -0.702129,0.84994 -0.831923,1.07671 -0.191255,0.33416 0.314051,0.14011 -0.184872,0.43067 -0.2465,0.14356 -0.128532,-0.15227 -0.277308,0.10768 -0.05399,0.0944 -0.02359,0.24275 -0.09245,0.32301 -0.533745,0.62171 -3.308498,1.07669 -4.159615,1.07669 -0.531397,0 -1.141134,0.10144 -1.663846,0 -0.7545,-0.14647 -1.260902,-0.78819 -1.941153,-1.18436 -0.20989,-0.12227 -0.441935,-0.19028 -0.647051,-0.32302 -0.388714,-0.25154 -0.330518,-0.60032 -0.554627,-0.86135"
       id="path869" />
    <path
       style="fill:none;stroke:#000000;stroke-width:0.681651;stroke-linecap:butt;stroke-linejoin:miter;stroke-miterlimit:4;stroke-dasharray:none;stroke-opacity:1"
       d="m 65.045639,103.68159 c 0.230682,-0.53415 1.502092,-0.90847 2.03359,-0.75369 0.223002,0.0649 0.968123,0.82026 1.10923,0.86135 0.08965,0.0261 0.187633,-0.0261 0.277319,0 0.194195,0.0566 0.464997,0.51879 0.647051,0.64602 1.291487,0.9026 2.367137,2.71961 2.588205,4.52213 0.07411,0.60451 -0.459172,4.78606 -0.739487,5.27581 -0.07255,0.1267 -0.204803,0.19632 -0.277308,0.32301 -0.346894,0.6061 -0.473592,1.41964 -0.831922,2.04572 -0.390905,0.683 -1.080782,1.15123 -1.571411,1.72273 -1.036346,1.20713 -2.562102,1.66127 -3.882318,2.04572 -0.149178,0.0435 -1.294102,0.11185 -1.294102,-0.10768"
       id="path871" />
    <path
       style="fill:none;stroke:#000000;stroke-width:0.681651;stroke-linecap:butt;stroke-linejoin:miter;stroke-miterlimit:4;stroke-dasharray:none;stroke-opacity:1"
       d="m 70.406932,105.94265 c 1.114015,-0.85786 2.71288,-0.17385 3.882307,0.21534 0.416716,0.13868 0.885938,0.2722 1.294102,0.43068 0.248031,0.0963 0.341864,0.46901 0.554616,0.64602 0.111853,0.0434 0.353367,0.12028 0.462179,0.21533 0.304192,0.26574 0.581992,0.67791 0.831923,0.96903 0.292231,0.34039 0.796084,1.66705 1.109231,2.1534 0.0835,0.12968 0.543749,0.93103 0.554615,0.96902 0.450889,1.57559 0.451917,5.41938 0,6.99853 -0.0351,0.12278 -0.149737,0.20024 -0.184872,0.32302 -0.21767,0.76063 -0.232045,1.72421 -0.647051,2.36873 -1.03894,1.61355 -2.865468,2.47639 -4.529358,2.79941 -1.065321,0.20681 -3.512352,0.61029 -4.436934,-0.10768 -0.249339,-0.19364 -0.194362,-0.43805 -0.462168,-0.64602 -0.389206,-0.30223 -0.956766,-0.33811 -1.386538,-0.53835 -0.177494,-0.0827 -0.01554,-0.19148 -0.184872,-0.32301 -0.05131,-0.0398 -0.126419,0.0227 -0.184883,0 -0.146127,-0.0568 -0.409215,-0.346 -0.554616,-0.43068 -0.412758,-0.24039 -0.457573,-0.85599 -0.739487,-1.18436"
       id="path873" />
    <path
       style="fill:none;stroke:#000000;stroke-width:0.681651;stroke-linecap:butt;stroke-linejoin:miter;stroke-miterlimit:4;stroke-dasharray:none;stroke-opacity:1"
       d="m 76.137957,107.23468 c 0.554615,0.10767 1.102165,0.29327 1.663846,0.32301 0.202243,0.0107 0.703123,-0.34478 0.924358,-0.43067 0.373209,-0.14491 1.229446,-0.0797 1.571422,0 0.375333,0.0874 2.366153,1.26317 2.68064,1.50737 0.404968,0.31448 0.770117,1.0287 1.109231,1.29204 0.719265,0.55854 1.412283,1.69003 1.756282,2.69174 0.102172,0.29756 0.167668,0.71362 0.277307,0.96902 0.03901,0.0908 0.136525,0.13088 0.184872,0.21534 0.06841,0.11941 -0.02415,0.28991 0,0.43068 0.07043,0.41006 0.217469,0.82963 0.369744,1.18437 0.08172,0.19031 0.04248,2.55221 0,2.79942 -0.09636,0.56114 -0.398585,1.0698 -0.554616,1.61505 -0.231922,0.8104 -0.39693,1.65936 -0.831923,2.36873 -0.480948,0.7843 -1.046462,1.32164 -1.663845,1.93805 -0.752511,0.7513 -1.312548,1.19296 -2.218462,1.61504 -0.469814,0.2189 0.466193,-0.001 -0.277307,0.21534 -0.603287,0.17568 -3.015284,0.62286 -3.605011,0.10769 -0.388021,-0.33899 -1.746691,-1.72272 -2.03359,-1.72272"
       id="path875" />
    <path
       style="fill:none;stroke:#000000;stroke-width:0.681651;stroke-linecap:butt;stroke-linejoin:miter;stroke-miterlimit:4;stroke-dasharray:none;stroke-opacity:1"
       d="m 85.936172,112.29516 c -0.0294,-0.6533 0.476924,-1.30921 0.831923,-1.72271 0.02448,-0.0285 0.239244,0 0.277307,0 1.421941,0 2.627263,0.6753 3.974743,1.3997 0.500265,0.26895 1.448334,1.96225 1.848729,2.58407 0.565392,0.8781 1.159333,2.06386 1.386538,3.12243 0.141689,0.66017 0,1.58847 0,2.26106 0,0.24749 0.06506,0.98877 0,1.29204 -0.206111,0.96029 -0.559399,1.84709 -0.831934,2.79941 -0.324414,1.13366 -0.444338,2.34796 -1.201666,3.23009 -0.194631,0.22671 -0.519828,0.3556 -0.739487,0.53835 -1.07745,0.89644 -1.799968,1.30221 -3.14282,1.61504 -1.296886,0.30212 -4.129947,-0.18078 -5.083974,-1.29203 -0.112636,-0.1312 -0.164672,-0.40715 -0.277308,-0.53835 -0.09748,-0.11354 -0.27231,-0.10183 -0.369743,-0.21534 -0.33689,-0.3924 -0.831923,-0.88709 -0.831923,-1.39971"
       id="path877" />
    <path
       style="fill:none;stroke:#000000;stroke-width:0.681651;stroke-linecap:butt;stroke-linejoin:miter;stroke-miterlimit:4;stroke-dasharray:none;stroke-opacity:1"
       d="m 92.961299,114.87923 c 0.56282,-0.4662 1.34188,-0.76064 2.033601,-0.86136 0.268744,-0.0392 0.566699,0.0618 0.831922,0 0.208839,-0.0487 0.503328,-0.19936 0.739488,-0.10768 0.162045,0.0629 0.395476,0.43244 0.554615,0.53835 0.123244,0.0717 0.246488,0.14357 0.369743,0.21534 0.06159,0 0.127649,-0.0267 0.184872,0 0.761599,0.35484 1.941433,1.5617 2.40333,2.36873 0.92038,1.60809 1.15368,2.73114 1.38654,4.62981 0.11654,0.95019 0.27914,1.91886 0.18487,2.90708 -0.1717,1.79999 -0.0101,-0.67549 -0.18487,0.75368 -0.0841,0.68498 -0.34721,1.26847 -0.46218,1.93806 -0.0241,0.14076 0.0684,0.31122 0,0.43067 -0.0382,0.0668 -0.15406,0.0359 -0.18487,0.10769 -0.0414,0.0964 0.0181,0.21743 0,0.32301 -0.0424,0.24643 -0.24948,0.65125 -0.36974,0.86135 -0.33197,0.58003 -0.958714,1.35912 -1.478977,1.72272 -0.355625,0.24854 -0.844175,0.2885 -1.201667,0.53836 -0.512394,0.3581 -0.886486,0.61565 -1.478974,0.75367 -0.304215,0.0708 -0.609234,0.24961 -0.924359,0.32302 -1.049727,0.24454 -3.598605,0.0275 -4.436934,-0.7537 -0.169087,-0.15756 -0.29308,-0.38077 -0.462179,-0.53833 -0.260394,-0.24266 -0.739487,-0.62426 -0.739487,-0.96904"
       id="path879" />
    <path
       style="fill:none;stroke:#000000;stroke-width:0.681651;stroke-linecap:butt;stroke-linejoin:miter;stroke-miterlimit:4;stroke-dasharray:none;stroke-opacity:1"
       d="m 100.9108,117.24796 c -0.41492,-1.93773 3.29202,-2.38257 4.43693,-1.93805 0.10541,0.0409 0.17519,0.16437 0.2773,0.21534 0.0914,0.0456 0.44332,0.0857 0.55462,0.21534 0.26672,0.31069 0.50003,0.7048 0.73949,1.07669 0.27442,0.4262 0.0984,0.007 0.46218,0.43068 0.1571,0.18301 0.2275,0.4472 0.36974,0.64603 0.4563,0.6378 0.88403,1.19808 1.20167,1.93806 0.62973,1.46704 0.64705,3.14362 0.64705,4.73746 0,5.24439 -1.99139,9.05595 -6.56296,10.12096 -0.65008,0.15144 -1.46112,0 -2.12602,0 -0.27058,0 -0.4784,0.0139 -0.73949,-0.10769 -0.52648,-0.2453 -2.403334,-1.89998 -2.403334,-2.69175"
       id="path881" />
    <path
       style="fill:none;stroke:#000000;stroke-width:0.681651;stroke-linecap:butt;stroke-linejoin:miter;stroke-miterlimit:4;stroke-dasharray:none;stroke-opacity:1"
       d="m 107.8435,118.10933 c 0.53946,-0.71734 1.44573,-0.64602 2.21846,-0.64602 0.44021,0 1.04883,-0.12526 1.47897,0 0.49012,0.14271 0.63989,0.42442 1.0168,0.75369 0.35217,0.30765 0.83434,0.49697 1.20167,0.75369 1.38899,0.97074 2.77996,3.17054 3.05038,5.06047 0.31781,2.2211 -0.39146,4.09768 -1.0168,6.13717 -0.23501,0.76651 -0.33247,1.39798 -0.46217,2.1534 -0.2095,1.22011 -1.39118,2.58677 -2.3109,3.12242 -0.7012,0.40838 -0.20878,0.22728 -0.83192,0.53835 -0.53184,0.26548 -3.59576,0.92058 -4.06718,0.64602 -0.55936,-0.32577 -1.05268,-0.92511 -1.66385,-1.39971 -0.41687,-0.32371 -1.01679,-0.69475 -1.01679,-1.18436"
       id="path883" />
    <path
       style="fill:none;stroke:#000000;stroke-width:0.681651;stroke-linecap:butt;stroke-linejoin:miter;stroke-miterlimit:4;stroke-dasharray:none;stroke-opacity:1"
       d="m 115.23837,120.26272 c 0.0662,-0.82478 0.84294,-1.06089 1.47897,-1.18436 2.1998,-0.42706 6.63525,1.67578 7.57976,3.8761 0.28787,0.67063 0.11917,0.66296 0.2773,1.39971 0.51852,2.41588 0.52122,4.46245 0,6.89087 -0.0559,0.26066 -0.0867,0.63275 -0.18487,0.86135 -0.039,0.0908 -0.1459,0.12448 -0.18487,0.21534 -0.34219,0.79717 -0.32271,1.26371 -0.83192,2.1534 -0.39068,0.68259 -0.66852,1.57659 -1.10923,2.26106 -0.15819,0.24568 -0.38128,0.3076 -0.55462,0.53835 -0.27746,0.36936 -0.5947,0.97366 -1.01679,1.18436 -1.25666,0.62732 -2.89449,0.96961 -4.25206,0.53835 -0.47675,-0.15145 -0.86372,-0.50304 -1.29411,-0.75369 -0.27945,-0.16275 -0.90191,-0.35724 -1.10923,-0.53835 -0.22365,-0.19537 -0.54751,-0.53008 -0.73948,-0.75368 -0.0218,-0.0254 0,-0.0717 0,-0.10769 -0.0309,-0.0717 -0.0437,-0.15859 -0.0924,-0.21533 -0.19963,-0.23254 -0.55462,0.15799 -0.55462,-0.75369"
       id="path885" />
    <path
       style="fill:none;stroke:#000000;stroke-width:0.681651;stroke-linecap:butt;stroke-linejoin:miter;stroke-miterlimit:4;stroke-dasharray:none;stroke-opacity:1"
       d="m 122.72569,120.80107 c 0.12355,-0.49143 0.38301,-0.92731 0.83192,-1.07669 1.10351,-0.36726 -0.10318,0.0738 0.83192,-0.10769 0.16367,-0.0318 0.30121,-0.16846 0.46218,-0.21534 0.19517,-0.0568 0.45478,0.0374 0.64705,0 0.65247,-0.12669 1.43992,-0.20756 2.12603,-0.10768 0.36558,0.0533 0.40826,0.22655 0.73949,0.32301 0.0598,0.0174 0.1336,-0.0398 0.18487,0 0.0726,0.0562 0.10474,0.17535 0.18487,0.21534 0.23354,0.11654 0.50358,0.10547 0.73949,0.21534 0.41254,0.19221 0.74785,0.65576 1.0168,0.96902 0.0975,0.11355 0.25509,0.12631 0.36975,0.21534 0.12559,0.0975 0.78943,1.14359 0.83192,1.29204 0.15607,0.54539 0.36001,1.12767 0.46218,1.72271 0.0271,0.15739 0.16221,0.27236 0.18487,0.43068 0.1716,1.19934 0.22494,4.30314 0.0924,5.38348 -0.12815,1.04488 -0.43291,2.23231 -0.64705,3.23009 -0.40911,1.90607 -0.60664,3.41351 -1.66386,4.95282 -0.0962,0.14013 -0.15895,0.31579 -0.27731,0.43067 -0.23022,0.22348 -0.64462,0.28228 -0.92436,0.32301 -0.38925,0.0566 -0.72628,0.24868 -1.10923,0.32301 -1.24856,0.24239 -3.72468,-0.0398 -4.8991,-0.43068 -0.22382,-0.0745 -1.20167,-0.55219 -1.20167,-0.75368"
       id="path887" />
    <path
       style="fill:none;stroke:#000000;stroke-width:0.681651;stroke-linecap:butt;stroke-linejoin:miter;stroke-miterlimit:4;stroke-dasharray:none;stroke-opacity:1"
       d="m 131.32222,121.66243 c 1.27763,-0.74439 3.93439,-1.20788 5.26886,-0.43068 0.27052,0.15754 1.50142,0.0805 1.84872,0.21534 0.75648,0.29371 2.32232,1.99169 2.77308,2.69174 0.7406,1.1502 1.07837,4.80951 0.83192,6.24484 -0.0806,0.46966 -0.30396,0.93995 -0.36975,1.3997 -0.17798,1.24395 0.35781,-0.71195 -0.18487,1.18438 -0.13663,0.47746 -0.39045,0.84586 -0.55461,1.29204 -0.10598,0.28798 -0.10866,0.59945 -0.27731,0.86135 -0.3558,0.5526 -0.88362,0.92158 -1.2941,1.39971 -0.677,0.78857 -1.25236,1.53516 -2.21846,1.72271 -1.02493,0.19897 -2.11852,-0.0911 -3.14282,0.10769 -0.12505,0.0242 -2.98147,0.40328 -3.14282,0.21533 -0.19367,-0.22557 -0.55463,-0.53832 -0.55463,-0.96902"
       id="path889" />
    <path
       style="fill:none;stroke:#000000;stroke-width:0.681651;stroke-linecap:butt;stroke-linejoin:miter;stroke-miterlimit:4;stroke-dasharray:none;stroke-opacity:1"
       d="m 138.99441,121.44709 c 0.90855,-0.86235 2.11269,-1.24586 3.23526,-1.50738 0.41468,-0.0966 0.87487,0.0698 1.2941,0 0.45163,-0.0751 1.22445,-0.31239 1.66386,-0.10768 1.00014,0.46598 1.8475,1.50596 2.5882,2.36873 0.19752,0.23007 0.21786,0.596 0.36975,0.86136 0.2842,0.49656 0.66567,0.92644 0.83192,1.50738 0.47624,1.66418 0.46218,3.5267 0.46218,5.27581 0,1.80992 -0.001,4.09321 -1.20167,5.49116 -1.93791,2.25729 -3.85223,2.4764 -6.47052,2.4764 -0.49494,0 -1.08874,0.1125 -1.57141,0 -0.19176,-0.0447 -0.47589,-0.21534 -0.64705,-0.21534"
       id="path891" />
    <path
       style="fill:none;stroke:#000000;stroke-width:0.681651;stroke-linecap:butt;stroke-linejoin:miter;stroke-miterlimit:4;stroke-dasharray:none;stroke-opacity:1"
       d="m 147.6834,122.09311 c 1.37036,-1.90935 4.55794,-1.57477 6.37807,-0.96903 0.38847,0.1293 1.97837,1.01236 2.21847,1.29204 0.0218,0.0254 0,0.0717 0,0.10768 0.12325,0.10768 0.23911,0.2279 0.36974,0.32301 0.77342,0.56305 1.33004,0.94505 1.75629,1.93805 0.0683,0.15909 0.23119,0.35033 0.27731,0.53835 0.24326,0.99175 0.47318,4.39479 0.27731,5.38348 -0.19739,0.99634 -0.65643,1.98361 -1.0168,2.90709 -0.64619,1.65589 -1.54609,3.56005 -3.14283,4.09145 -0.25952,0.0863 -0.61889,0.39522 -0.83192,0.43068 -0.32813,0.0546 -0.68865,-0.0637 -1.0168,0 -1.04226,0.20234 -2.75121,0.2805 -3.78987,0.10768 -0.45718,-0.076 -0.93208,-0.43248 -1.38654,-0.53835 -0.24826,-0.0578 -1.57141,-0.16105 -1.57141,-0.53835"
       id="path893" />
    <path
       style="fill:none;stroke:#000000;stroke-width:0.681651;stroke-linecap:butt;stroke-linejoin:miter;stroke-miterlimit:4;stroke-dasharray:none;stroke-opacity:1"
       d="m 156.27994,122.5238 c 0.30811,-0.46658 0.57872,-0.97028 0.92437,-1.39972 0.30192,-0.37513 1.07091,-0.51473 1.38653,-0.64602 0.93222,-0.3878 2.86134,-0.87664 3.88231,-0.43068 0.2297,0.10027 0.42169,0.2355 0.64705,0.32301 0.0482,0.0187 1.58074,1.51822 1.75628,1.72272 0.65614,0.76427 1.34002,1.50664 1.75629,2.4764 0.3104,0.72311 0.22408,1.15172 0.36974,1.83038 0.10307,0.48016 0.11726,-0.0918 0.18488,0.53835 0.19023,1.77269 0.0395,3.98415 -0.55462,5.59883 -0.19933,0.54174 -0.6155,0.95001 -0.92436,1.39971 -0.12635,0.18397 -0.15587,0.4574 -0.27731,0.64602 -0.1918,0.29787 -0.50138,0.41489 -0.73949,0.64601 -0.39135,0.37987 -0.75539,0.88734 -1.20166,1.18437 -0.29761,0.19809 -0.73993,0.28746 -0.92436,0.43068 -0.0573,0.0445 -0.0351,0.17082 -0.0924,0.21534 -0.13072,0.10156 -0.31631,0.0397 -0.46218,0.10768 -1.14753,0.53466 -3.56596,0.6843 -4.80667,0.32301 -0.34396,-0.10013 -1.38653,-0.0566 -1.38653,-0.53835"
       id="path895" />
    <path
       style="fill:none;stroke:#000000;stroke-width:0.681651;stroke-linecap:butt;stroke-linejoin:miter;stroke-miterlimit:4;stroke-dasharray:none;stroke-opacity:1"
       d="m 164.22943,120.90874 c 1.19876,-1.73925 3.36036,-1.50737 5.08399,-1.50737 0.46522,0 1.1306,-0.12058 1.57141,0.10768 0.99162,0.51335 2.08963,1.07181 2.95795,1.83038 0.50728,0.44317 0.85462,1.10314 1.2941,1.61505 0.58067,0.67637 1.13125,1.36897 1.38654,2.26106 0.14399,0.50315 0.0924,1.19461 0.0924,1.72271 0,1.3965 -0.21428,2.61588 -0.64705,3.87612 -0.0733,0.21336 -0.29646,0.32498 -0.36974,0.53834 -0.0343,0.1 0.0292,0.22087 0,0.32301 -0.26778,0.93574 -0.95836,1.64104 -1.47897,2.36874 -0.18556,0.25935 -0.23669,0.53481 -0.46218,0.75369 -0.52626,0.51081 -1.12641,0.82251 -1.66385,1.29203 -0.92899,0.81157 -4.70683,1.27912 -5.6386,0.96903 -0.0946,-0.0315 -0.87382,-0.21199 -1.0168,-0.32301 -0.18896,-0.14673 -0.8092,-0.64602 -0.92435,-0.64602"
       id="path897" />
    <path
       style="fill:none;stroke:#000000;stroke-width:0.681651;stroke-linecap:butt;stroke-linejoin:miter;stroke-miterlimit:4;stroke-dasharray:none;stroke-opacity:1"
       d="m 174.02765,120.26272 c -0.41769,-0.55651 -0.32484,-0.68664 0,-1.29203 0.61344,-1.14325 2.26438,-1.18437 3.32769,-1.18437 1.89442,0 2.46964,-0.12291 4.15961,0.86136 0.67875,0.39529 1.18253,0.72246 1.66386,1.50737 1.06166,1.73127 1.3851,5.39186 1.0168,7.53688 -0.18578,1.08195 -0.70241,2.19196 -1.20167,3.12243 -0.22592,0.42103 -0.43253,1.04216 -0.73949,1.3997 -0.25024,0.29148 -0.86397,1.09536 -1.20166,1.29204 -0.0551,0.032 -0.12326,0 -0.18488,0 -0.15406,0.10768 -0.31598,0.20137 -0.46219,0.32301 -0.47373,0.39415 -0.95681,0.8497 -1.57141,0.96902 -0.39279,0.0763 -0.69125,0.30896 -1.10923,0.43068 -0.61697,0.17967 -3.8823,-0.39881 -3.8823,-1.07669"
       id="path899" />
    <path
       style="fill:none;stroke:#000000;stroke-width:0.681651;stroke-linecap:butt;stroke-linejoin:miter;stroke-miterlimit:4;stroke-dasharray:none;stroke-opacity:1"
       d="m 183.09095,117.83915 c 2.58294,-2.17398 6.24744,-1.40223 8.36635,1.06587 0.28144,0.32783 0.61773,0.62921 0.78434,1.06588 0.69521,1.822 1.39698,5.72036 1.04579,7.76566 -0.0857,0.499 -0.28989,0.89391 -0.39216,1.37042 -0.14775,0.68835 0.0291,1.30274 -0.26146,1.97948 -0.28571,0.66561 -0.89362,1.40134 -1.30724,1.97948 -0.27046,0.37806 -0.49247,1.03043 -0.78434,1.37042 -0.21233,0.24732 -0.67584,0.44983 -0.91507,0.60907 -2.15719,1.43584 -4.40464,1.4143 -6.79766,1.06587 -0.30267,-0.044 -0.61916,0.0862 -0.91507,0 -0.41734,-0.12148 -0.70955,-0.79391 -1.17652,-1.06587 -0.13961,-0.0813 -0.6289,0.32131 -0.52289,-0.30454 0.0804,-0.47425 0.43526,-0.82319 0.65289,-1.23479"
       id="path901" />
    <path
       style="fill:none;stroke:#000000;stroke-width:0.681651;stroke-linecap:butt;stroke-linejoin:miter;stroke-miterlimit:4;stroke-dasharray:none;stroke-opacity:1"
       d="m 191.9802,118.90502 c 1.10991,0.28521 2.20851,0.19767 3.2681,0.60908 0.4829,0.18749 0.95294,0.21037 1.43797,0.30453 0.92818,0.1802 1.73673,1.10934 2.35303,1.82722 0.26926,0.31364 0.63846,0.64106 0.78434,1.06588 0.56943,1.65816 1.10182,9.00555 0.39218,10.65874 -0.26349,0.61382 -1.74117,2.88087 -2.35304,3.19763 -1.09821,0.56854 -0.45078,0.0341 -1.43797,0.60908 -0.41458,0.24146 -1.08194,0.76134 -1.56868,0.76134 -0.67276,0 -1.4952,0.364 -2.22232,0.15227 -0.76013,-0.22136 -1.14957,-0.97405 -1.83014,-1.37041 -0.2757,-0.16057 -0.67918,-0.18204 -0.91507,-0.45681 -0.12451,-0.14503 -0.26144,-0.32485 -0.26144,-0.60907"
       id="path903" />
    <path
       style="fill:none;stroke:#000000;stroke-width:0.681651;stroke-linecap:butt;stroke-linejoin:miter;stroke-miterlimit:4;stroke-dasharray:none;stroke-opacity:1"
       d="m 200.08509,123.92987 c 0.83931,0.78086 2.9873,3.56426 3.26811,4.87257 0.38999,1.81704 0.94023,6.30732 0.39217,8.22247 -0.27116,0.94757 -0.85407,1.64451 -1.30724,2.43629 -0.0765,0.13355 -0.0333,0.3433 -0.13072,0.45681 -0.9795,1.14091 -2.88119,1.21814 -4.18318,1.21814 -0.51982,0 -0.96967,0.0228 -1.43796,-0.30453 -0.30767,-0.21503 -0.48546,-0.68152 -0.78435,-0.91361 -0.0725,-0.0564 -0.19983,0.0717 -0.26146,0 -0.15921,-0.18547 -0.0613,-0.34021 -0.26144,-0.45681 -0.3368,-0.19615 -1.04579,-0.51636 -1.04579,-0.91361"
       id="path905" />
    <path
       style="fill:none;stroke:#000000;stroke-width:0.681651;stroke-linecap:butt;stroke-linejoin:miter;stroke-miterlimit:4;stroke-dasharray:none;stroke-opacity:1"
       d="m 203.22248,128.65017 c 0.71553,1.48591 1.90271,2.43901 2.61448,3.95897 1.32553,2.83065 2.50942,8.65685 -0.13072,10.96329 -1.34935,1.1788 -2.40109,1.97949 -4.18318,1.97949 -0.66459,0 -1.50963,0.42898 -2.22231,0.15227 -1.28948,-0.50067 -1.13731,-2.69516 -1.83014,-3.50216 -0.13441,-0.15657 -0.0581,-0.67683 -0.26145,-0.91361"
       id="path907" />
    <path
       style="fill:none;stroke:#000000;stroke-width:0.681651;stroke-linecap:butt;stroke-linejoin:miter;stroke-miterlimit:4;stroke-dasharray:none;stroke-opacity:1"
       d="m 207.14421,137.02491 c 1.54248,2.75919 1.83012,4.92172 1.83012,8.07021 0,0.72222 0.1225,1.59583 -0.1307,2.28402 -0.4231,1.14985 -1.37121,1.92763 -2.22234,2.58855 -0.94918,0.73708 -3.23437,0.78529 -4.44461,0.60908 -0.50114,-0.0729 -0.93594,-0.56762 -1.30725,-0.91361 -0.12268,-0.11433 -0.32191,-0.14086 -0.39216,-0.30455 -0.33804,-0.7875 -0.32915,-1.07672 -0.5229,-1.97947 -0.1535,-0.71517 -0.65362,-1.27813 -0.65362,-1.82722"
       id="path909" />
    <path
       style="fill:none;stroke:#000000;stroke-width:0.681651;stroke-linecap:butt;stroke-linejoin:miter;stroke-miterlimit:4;stroke-dasharray:none;stroke-opacity:1"
       d="m 209.23578,145.70419 c 0.27122,1.52615 1.00032,5.73988 0.39219,7.15659 -0.65675,1.52992 -4.75611,3.73414 -6.40549,3.3499 -0.28766,-0.0671 -0.29884,-0.26107 -0.52291,-0.45681 -1.5446,-1.34937 -1.96086,-3.90743 -1.96086,-6.09071"
       id="path911" />
    <path
       style="fill:none;stroke:#000000;stroke-width:0.681651;stroke-linecap:butt;stroke-linejoin:miter;stroke-miterlimit:4;stroke-dasharray:none;stroke-opacity:1"
       d="m 209.8894,152.86078 c 0.10485,1.1877 0,2.23094 -0.26143,3.3499 -0.306,1.30686 -0.69654,2.70752 -1.43799,3.8067 -0.17237,0.25555 -0.45631,0.37926 -0.65361,0.60907 -0.36241,0.42213 -0.47906,0.92591 -0.78435,1.3704 -0.85898,1.2507 -2.52696,1.37043 -3.79099,1.37043 -0.54928,0 -1.71017,-0.63412 -1.96087,-1.21816 -0.42344,-0.98643 -0.6113,-2.13614 -0.91507,-3.19763 -0.13686,-0.47825 -0.24814,-5.54361 -0.13072,-6.09071 0.1034,-0.48185 0.13603,-0.31071 0.39217,-0.60907 0.51678,-0.60196 0.39217,-1.89386 0.39217,-2.58855"
       id="path913" />
    <path
       style="fill:none;stroke:#000000;stroke-width:0.681651;stroke-linecap:butt;stroke-linejoin:miter;stroke-miterlimit:4;stroke-dasharray:none;stroke-opacity:1"
       d="m 207.66709,159.25604 c 0.0504,2.12017 -1.0676,3.83209 -2.22231,5.17711 -0.14939,0.17401 -0.29434,0.62823 -0.52289,0.76133 -0.29851,0.17386 -0.56348,0.59753 -0.91507,0.76135 -0.8371,0.39002 -2.73185,0.96956 -3.66028,0.60907 -0.26211,-0.10182 -1.24624,-1.50746 -1.43797,-1.67495 -0.28105,-0.24552 -0.60085,-0.42607 -0.91507,-0.60908 -0.44858,-0.26125 -1.03963,-0.55592 -1.56869,-0.76133 -0.23371,-0.0908 -0.89677,0.0214 -1.04579,-0.15226 -2.7e-4,-3.2e-4 -0.0101,-2.80978 0,-2.8931 0.0658,-0.53655 0.4505,-1.0495 0.65362,-1.52269 0.0721,-0.16798 0.60605,-1.70242 0.65363,-1.97947 0.0256,-0.14931 -0.0485,-0.31543 0,-0.45681 0.16645,-0.4847 1.34797,-2.48373 1.6994,-2.89308 0.43948,-0.51191 1.00982,-0.89266 1.5687,-1.21816 0.13061,-0.076 0.30989,0.19279 0.39217,-0.15226 0.20133,-0.84423 0.26145,-1.7257 0.39217,-2.58855"
       id="path915" />
    <path
       style="fill:none;stroke:#000000;stroke-width:0.681651;stroke-linecap:butt;stroke-linejoin:miter;stroke-miterlimit:4;stroke-dasharray:none;stroke-opacity:1"
       d="m 201.39234,167.17397 c -0.82424,1.24277 -1.91417,2.18069 -3.13739,2.89309 -0.29284,0.17055 -0.6142,0.66122 -0.91506,0.76135 -0.58657,0.19521 -1.2201,0 -1.83015,0 -0.0815,0 -0.71775,0.0776 -0.78433,0 -0.41062,-0.47829 0.89084,-1.74075 -1.5687,-1.97949 -0.79624,-0.0773 -3.15021,-0.33443 -3.52955,-1.21814 -0.74207,-1.72874 0.79011,-5.03157 1.83014,-6.24299 0.72457,-0.84399 3.13237,-2.4363 4.18316,-2.4363"
       id="path917" />
    <path
       style="fill:none;stroke:#000000;stroke-width:0.681651;stroke-linecap:butt;stroke-linejoin:miter;stroke-miterlimit:4;stroke-dasharray:none;stroke-opacity:1"
       d="m 189.16963,164.88995 c -0.41772,0.3619 -0.94285,0.50375 -1.37261,0.83748 -0.31173,0.24207 -1.42735,1.72017 -1.5687,2.13175 -0.0483,0.14058 -0.008,0.39935 -0.0654,0.53293 -0.0481,0.11198 -0.51735,0.84393 -0.39217,0.98974 0.0616,0.0718 0.17599,-0.0199 0.26145,0 0.35235,0.082 0.70491,0.17219 1.04579,0.30455 0.77276,0.30004 1.36711,0.83888 2.02623,1.37041 1.2062,0.97268 0.86753,2.04177 1.24188,3.34989 0.0664,0.23199 -0.0323,0.53375 0.0654,0.76134 0.0331,0.0771 1.38871,-0.33617 1.69942,-0.45681 0.56963,-0.22116 1.11007,-0.5759 1.63404,-0.83748 0.89368,-0.4461 -0.18079,-0.009 0.58827,-0.45679 0.31399,-0.18287 0.67642,-0.29688 0.98043,-0.53294 0.30808,-0.23923 0.67202,-0.97995 0.98043,-1.29428 0.24947,-0.25426 0.98043,-1.20141 0.98043,-1.52268"
       id="path919" />
    <path
       style="fill:none;stroke:#000000;stroke-width:0.681651;stroke-linecap:butt;stroke-linejoin:miter;stroke-miterlimit:4;stroke-dasharray:none;stroke-opacity:1"
       d="m 185.70543,168.46824 c -0.10899,0.0762 -0.21318,0.16223 -0.32681,0.22841 -0.20988,0.12227 -0.44374,0.1823 -0.65362,0.30454 -0.21424,0.12474 -0.26603,0.57544 -0.45754,0.76134 -0.7446,0.72276 -0.85028,0.61008 -1.3726,1.52267 -0.0598,0.10456 -0.45754,0.5807 -0.45754,0.60908 0,0.004 0.95792,-0.005 0.98043,0 0.68196,0.14442 1.22442,1.04478 1.5687,1.67494 0.40225,0.73628 1.11115,2.89098 1.11115,3.73057 0,0.11915 0.13808,0.66269 0.19609,0.6852 0.56153,0.21802 1.88966,0.58597 2.4184,0.38068 0.21351,-0.0829 0.4458,-0.36878 0.65362,-0.45681 0.24954,-0.10573 0.548,-0.11042 0.78435,-0.2284 0.34658,-0.17302 0.31344,-0.28896 0.52289,-0.53295 0.27883,-0.32476 0.68889,-0.51841 0.91507,-0.91359 0.11307,-0.19757 0.19768,-0.42107 0.32682,-0.60908 0.32193,-0.46874 0.78433,-0.97896 0.78433,-1.59881"
       id="path921" />
    <path
       style="fill:none;stroke:#000000;stroke-width:0.681651;stroke-linecap:butt;stroke-linejoin:miter;stroke-miterlimit:4;stroke-dasharray:none;stroke-opacity:1"
       d="m 182.63341,171.5136 c -0.37327,-0.10442 -0.62974,0.23296 -0.91507,0.38068 -0.14494,0.075 -0.31314,0.0758 -0.45753,0.15227 -0.29564,0.15652 -0.43726,0.35706 -0.65363,0.60906 -0.35257,0.41068 -0.92682,0.5108 -1.30723,0.91361 -0.2853,0.30211 -0.16928,0.32524 -0.39218,0.53295 -0.0858,0.0801 -0.75886,0.70004 -0.65361,0.76133 0.19266,0.11224 0.49378,-0.0431 0.71897,0.0762 0.20807,0.11016 1.11168,0.77452 1.17653,0.83746 0.0529,0.0514 0.0166,0.17166 0.0654,0.2284 0.0689,0.0802 0.18747,0.0784 0.26145,0.15228 0.46374,0.463 0.75484,1.47855 0.91507,2.13175 0.306,1.24752 0.19608,2.63999 0.19608,3.95896 0,0.26555 -0.19733,0.9883 -0.19608,0.98974 0.1977,0.23029 1.28863,-0.44957 1.50333,-0.53293 0.38953,-0.15125 0.77975,-0.32476 1.17651,-0.45681 0.12092,-0.0402 0.40313,-0.0725 0.5229,-0.15227 0.6585,-0.4383 1.39403,-1.14896 2.02623,-1.67494 0.30187,-0.25117 0.46088,-0.6891 0.71898,-0.98974 0.22787,-0.26543 0.8497,-0.75257 0.8497,-1.06587"
       id="path923" />
    <path
       style="fill:none;stroke:#000000;stroke-width:0.681651;stroke-linecap:butt;stroke-linejoin:miter;stroke-miterlimit:4;stroke-dasharray:none;stroke-opacity:1"
       d="m 178.31952,174.10217 c -0.87787,0.65344 -1.9569,0.88854 -2.81057,1.5988 -0.34391,0.28614 -0.62109,0.64731 -0.91507,0.98975 -0.14025,0.16334 -0.84971,0.48344 -0.84971,0.76134 0,0.0254 0.0436,0 0.0654,0 0.19609,0 0.39217,0 0.58826,0 0.32444,0 0.80756,-0.0599 1.11116,0.15227 0.69221,0.48377 1.50665,2.23112 1.63404,3.12149 0.0381,0.26613 0,0.56688 0,0.83748 0,1.33867 -0.27202,2.03108 -1.17651,2.89308 -0.40019,0.38139 -0.84989,0.83727 -0.71899,0.98974 0.12586,0.1466 0.54903,0.16241 0.71899,0.2284 1.02957,0.39976 2.62813,-0.31088 3.59492,-0.76133 0.30888,-0.14392 0.483,-0.4085 0.78434,-0.60908 0.11965,-0.0797 0.26626,-0.0871 0.39217,-0.15226 0.19635,-0.1017 0.88363,-0.6204 0.98043,-0.76135 0.1912,-0.27838 0.39218,-0.75066 0.39218,-0.53293"
       id="path925" />
    <path
       style="fill:none;stroke:#000000;stroke-width:0.681651;stroke-linecap:butt;stroke-linejoin:miter;stroke-miterlimit:4;stroke-dasharray:none;stroke-opacity:1"
       d="m 174.21252,176.25098 c -0.90471,-0.27171 -2.01677,-0.58079 -2.95795,-0.21536 -0.0523,0.0203 -0.24018,-0.0432 -0.27731,0 -0.0181,0.0211 -0.0477,0.55402 -0.18487,0.7537 -0.13894,0.20228 -0.55461,0.49537 -0.55461,0.75369 0,0.0359 0.0668,-0.0199 0.0924,0 0.18129,0.14077 0.32607,0.34017 0.46218,0.53835 0.1885,0.27445 0.27064,0.68043 0.36975,0.96903 0.0949,0.27621 0.31191,0.84333 0.46218,1.07669 0.0184,0.0286 0.085,-0.0348 0.0924,0 0.36153,1.68443 0.27731,3.51419 0.27731,5.27581 0,1.05079 -0.27905,1.83647 -0.55461,2.79941 -0.0195,0.0681 -0.0436,0.16459 0,0.21534 0.27356,0.31865 1.05842,0.43068 1.47897,0.43068 0.61376,0 1.26546,0.0622 1.84872,-0.10768 0.17518,-0.051 0.0493,-0.11485 0.0924,-0.21534 0.16505,-0.38447 0.49962,-0.51789 0.64706,-0.86136 0.0924,-0.21534 -0.0462,-0.1615 0,-0.32301 -0.0557,-0.19487 0.14973,-0.20025 0.18487,-0.32301 0.0296,-0.10338 -0.0444,-0.32733 0,-0.43067 0.17377,-0.40481 0.27731,-0.901 0.27731,-1.39971"
       id="path927" />
    <path
       style="fill:none;stroke:#000000;stroke-width:0.681651;stroke-linecap:butt;stroke-linejoin:miter;stroke-miterlimit:4;stroke-dasharray:none;stroke-opacity:1"
       d="m 170.51508,176.89699 c 0.0305,-1.10342 -0.68688,-1.27658 -1.47898,-0.96904 -0.39795,0.15452 -0.50105,0.50515 -0.92436,0.64603 -0.48839,0.16254 -1.03179,0.25705 -1.47897,0.43068 -0.14472,0.0561 -0.31837,0.25601 -0.46218,0.32301 -0.17916,0.0835 -0.56599,0.0806 -0.73949,0.21534 -0.23068,0.17913 0.59505,0.80078 0.64705,0.86136 0.29478,0.34335 0.64969,1.19051 0.83192,1.61504 0.52915,1.2327 0.82334,2.41639 1.0168,3.76844 0.0759,0.53063 0.30282,1.0693 0.36975,1.61504 0.11949,0.9743 0.10475,3.51483 -0.18488,4.41447 -0.0563,0.17513 -0.62744,1.42253 -0.55462,1.50737 0.0821,0.0956 0.902,0 1.01681,0 0.34141,0 2.57699,-0.51222 2.68064,-0.7537 0.0276,-0.0642 -0.0436,-0.16458 0,-0.21533 0.0911,-0.10612 0.27191,0.013 0.36975,-0.21533 0.0852,-0.19854 0.21587,-0.53903 0.2773,-0.7537 0.039,-0.13619 -0.039,-0.29448 0,-0.43068 0.0613,-0.21402 0.18487,-0.38413 0.18487,-0.64602"
       id="path929" />
    <path
       style="fill:none;stroke:#000000;stroke-width:0.681651;stroke-linecap:butt;stroke-linejoin:miter;stroke-miterlimit:4;stroke-dasharray:none;stroke-opacity:1"
       d="m 165.70841,177.54301 c -0.80922,-0.0204 -1.33153,0.55469 -2.03359,0.86136 -0.27972,0.12213 -0.67852,0.14432 -0.83193,0.32301 -0.009,0.0104 -0.009,0.31224 0,0.32301 0.0549,0.0639 0.3832,0.0464 0.46218,0.10768 0.29769,0.23116 0.59141,0.61883 0.83193,0.96902 0.67107,0.97708 1.14369,3.18804 1.2941,4.41446 0.0614,0.49997 0.14871,4.00247 0,4.52212 -0.0487,0.17025 -0.20841,0.27019 -0.27731,0.43068 -0.17233,0.40147 -1.07796,2.6205 -0.73949,3.01476 0.16074,0.18722 0.72879,-0.16729 0.83193,-0.21534 0.31796,-0.14815 0.63861,-0.0822 0.92436,-0.21535 0.0809,-0.0376 0.10329,-0.17969 0.18487,-0.21532 0.1806,-0.0789 0.83802,-0.12188 0.92436,-0.32301 0.0276,-0.0642 -0.0342,-0.15563 0,-0.21534 0.15354,-0.26826 0.39051,-0.3714 0.55461,-0.7537"
       id="path931" />
    <path
       style="fill:none;stroke:#000000;stroke-width:0.681651;stroke-linecap:butt;stroke-linejoin:miter;stroke-miterlimit:4;stroke-dasharray:none;stroke-opacity:1"
       d="m 163.1202,178.51204 c -0.12104,-0.2567 -0.17576,-0.63541 -0.36974,-0.86136 -0.20609,-0.24007 -1.89296,0.37455 -2.12603,0.64602 -0.4915,0.5725 1.62125,4.43413 1.75629,5.16814 0.29015,1.57722 -0.0183,0.23848 0.0924,1.3997 0.17222,1.80544 0.016,-1.19501 0.18487,0.96903 0.10151,1.30059 0.12953,3.44478 -0.0924,4.73746 -0.0455,0.26525 -0.38161,1.02432 -0.46218,1.39972 -0.0682,0.31752 0.0272,0.51314 -0.0924,0.86136 -0.0459,0.13395 -0.27904,1.61303 -0.18487,1.72271 0.10631,0.12383 1.65419,-0.0964 1.75628,-0.21534 0.11903,-0.13864 0.62224,-0.44114 0.73949,-0.64601 0.21374,-0.37347 0.0847,-1.17538 0.36974,-1.50738"
       id="path933" />
    <path
       style="fill:none;stroke:#000000;stroke-width:0.681651;stroke-linecap:butt;stroke-linejoin:miter;stroke-miterlimit:4;stroke-dasharray:none;stroke-opacity:1"
       d="m 160.80931,178.08136 c -0.33753,-0.0793 -0.44243,-0.23651 -0.73949,-0.32301 -0.34218,-0.0996 -0.55376,0.10729 -0.83192,0.21534 -0.14566,0.0565 -0.34763,-0.0258 -0.46218,0.10768 -0.0899,0.10469 -0.0453,0.29328 -0.0925,0.43068 -0.16183,0.47127 -0.33262,1.09972 -0.27731,1.61504 0.0577,0.53761 0.30337,0.90641 0.46218,1.39971 0.36219,1.125 0.74635,2.29041 1.0168,3.44543 0.1744,0.74488 0.22745,4.97824 0.0924,5.92183 -0.0636,0.44467 -0.30771,0.75083 -0.36974,1.18436 -0.0758,0.5294 -0.46443,3.01085 -0.46218,3.01476 0.11022,0.19253 0.65646,0.28347 0.83192,0.21534 0.13546,-0.0526 0.20828,-0.26032 0.36975,-0.32301 0.33594,-0.13044 1.26474,-0.28882 1.47897,-0.53834 0.0988,-0.11511 -0.1314,-0.21534 0.0925,-0.21534"
       id="path937" />
    <path
       style="fill:none;stroke:#000000;stroke-width:0.681651;stroke-linecap:butt;stroke-linejoin:miter;stroke-miterlimit:4;stroke-dasharray:none;stroke-opacity:1"
       d="m 158.49841,178.40437 c -0.30238,0.71051 -1.77921,0.48408 -2.0336,1.07669 -0.25709,0.59893 0.18442,1.61238 0.27732,2.1534 0.16175,0.94211 -0.0647,0.2261 0,0.75368 0.18191,1.48326 0.0924,3.01997 0.0924,4.52213 0,1.03956 0.27105,2.18982 0.0924,3.2301 -0.12988,0.75642 -0.36876,1.28972 -0.64706,1.93804 -0.14636,0.34098 -0.26325,2.01995 -0.18486,2.47641 0.24375,1.41963 2.21831,1.39996 2.77307,0.43068"
       id="path939" />
    <path
       style="fill:none;stroke:#000000;stroke-width:0.681651;stroke-linecap:butt;stroke-linejoin:miter;stroke-miterlimit:4;stroke-dasharray:none;stroke-opacity:1"
       d="m 155.9102,179.58873 c -0.0112,0.0104 -0.60099,0.58553 -0.73949,0.64602 -0.4204,0.18363 -1.23197,0.25063 -1.57141,0.64602 -0.06,0.0699 -0.33452,0.57167 -0.46218,0.64602 -0.0551,0.0322 -0.12975,-0.0322 -0.18488,0 -0.14313,0.0833 -0.79522,1.0134 -0.83192,1.18436 -0.18867,0.87908 0.003,2.62245 0.0925,3.5531 0.0867,0.90916 0,1.88296 0,2.79941 0,1.64576 0.18874,3.25261 0.46218,4.84515 0.088,0.51269 -0.0101,1.05422 0.18487,1.50737 0.19575,0.45602 3.69743,0.13704 3.69743,-0.32301"
       id="path941" />
    <path
       style="fill:none;stroke:#000000;stroke-width:0.681651;stroke-linecap:butt;stroke-linejoin:miter;stroke-miterlimit:4;stroke-dasharray:none;stroke-opacity:1"
       d="m 152.30519,180.7731 c -0.0101,0.49516 -2.07591,0.0494 -2.21846,0.21534 -0.5122,0.59662 -0.39326,1.73835 -0.55461,2.58407 -0.0786,0.4122 -0.0476,0.76664 -0.0924,1.18437 -0.0618,0.57614 -0.21634,1.15454 -0.27731,1.72271 -0.13504,1.25827 0.10519,2.45794 0.27731,3.66078 0.0336,0.23553 -0.0499,0.5212 0,0.75367 0.0334,0.15572 0.16221,0.27237 0.18487,0.43069 0.055,0.38412 -0.055,0.80024 0,1.18437 0.10787,0.75367 0.21092,1.52106 0.36974,2.26106 0.0508,0.23645 -0.0507,0.51724 0,0.75369 0.0584,0.27212 0.17242,0.72466 0.27731,0.96903 0.14899,0.34708 0.66294,0.21534 0.92436,0.21534 0.31575,0 1.06409,0.16026 1.2941,-0.10769 0.0309,-0.0359 0.0616,-0.28712 0.0925,-0.32301 0.19126,-0.22277 -0.008,0.34043 0.18487,-0.10768 0.0276,-0.0642 -0.0276,-0.15113 0,-0.21534 0.19235,-0.4481 -0.007,0.11511 0.18487,-0.10768 0.11945,-0.13913 0.0925,-0.64903 0.0925,-0.86136"
       id="path943" />
    <path
       style="fill:none;stroke:#000000;stroke-width:0.681651;stroke-linecap:butt;stroke-linejoin:miter;stroke-miterlimit:4;stroke-dasharray:none;stroke-opacity:1"
       d="m 149.80942,180.55776 c -0.11439,-0.0638 -0.0729,-0.83864 -0.18487,-0.96903 -0.0304,-0.0354 -0.88616,-0.0138 -1.01679,0 -0.61435,0.0651 -0.87971,0.16332 -1.29411,0.64602 -0.0975,0.11354 -0.30811,0.0718 -0.36974,0.21534 -0.20703,0.48229 -0.17912,1.20806 -0.27731,1.72271 -0.21765,1.14087 -0.54026,2.28512 -0.73948,3.44543 -0.39083,2.27617 -0.46218,4.68356 -0.46218,6.99854 0,0.78443 -0.11,1.70801 0,2.4764 0.043,0.30043 0.21325,0.77825 0.2773,1.0767 0.0786,0.36635 0.0899,0.82061 0.27731,1.18436 0.35087,0.68115 1.30521,1.25184 2.03359,0.96903 0.24256,-0.0941 0.48039,-0.2799 0.73949,-0.32301 0.51125,-0.085 0.89513,-0.0736 1.20167,-0.43068 0.0999,-0.1164 0.48235,-0.0234 0.55461,-0.10768 0.0705,-0.0822 0.0924,-0.98274 0.0924,-1.18437"
       id="path945" />
    <path
       style="fill:none;stroke:#000000;stroke-width:0.681651;stroke-linecap:butt;stroke-linejoin:miter;stroke-miterlimit:4;stroke-dasharray:none;stroke-opacity:1"
       d="m 146.096,181.3349 c -0.54566,0.67003 -3.82803,0.95672 -4.44462,1.67494 -0.65945,0.76811 0.14972,2.46113 0.26144,3.50216 0.28344,2.64118 0.0439,6.24179 -0.65362,8.67927 -0.0551,0.19261 0.0422,0.41211 0,0.60908 -0.16999,0.79203 -0.55976,1.49923 -0.78435,2.28402 -0.0246,0.0861 0.0525,0.39565 0,0.45679 -0.0436,0.0508 -0.17429,0.10157 -0.13072,0.15228 0.0927,0.10795 0.99677,0 1.17653,0 1.07432,0 1.76547,-0.0385 2.7452,-0.60907 0.12325,-0.0718 0.33054,-0.009 0.39217,-0.15227 0.039,-0.0908 -0.039,-0.21374 0,-0.30453 0.11369,-0.26486 0.53343,-0.62135 0.65363,-0.76135 0.18041,-0.21015 -0.13196,-0.60907 0.26144,-0.60907"
       id="path947" />
    <path
       style="fill:none;stroke:#000000;stroke-width:0.681651;stroke-linecap:butt;stroke-linejoin:miter;stroke-miterlimit:4;stroke-dasharray:none;stroke-opacity:1"
       d="m 141.12848,183.1621 c -0.29728,0.0117 -3.89077,0.83344 -3.52956,1.67496 0.20081,0.4678 0.0738,-0.25185 0.39218,0.30453 0.0483,0.0845 -0.0484,0.22008 0,0.30453 0.054,0.0944 0.20298,0.0615 0.26145,0.15227 0.37771,0.58661 0.69487,1.70679 0.78434,2.4363 0.24067,1.96224 0.26145,3.94516 0.26145,5.93844 0,1.7381 -0.11089,3.60815 -0.78435,5.17711 -0.0229,0.0534 -1.09274,1.9248 -1.04579,1.97949 0.22219,0.2588 0.50329,-0.44539 0.78435,-0.60908 0.77309,-0.45024 -0.27959,0.54879 0.5229,-0.15227 0.31921,-0.27886 0.55999,-0.85907 0.91507,-1.06587 0.30153,-0.17561 1.17651,-0.52355 1.17651,-0.91361"
       id="path949" />
    <path
       style="fill:none;stroke:#000000;stroke-width:0.681651;stroke-linecap:butt;stroke-linejoin:miter;stroke-miterlimit:4;stroke-dasharray:none;stroke-opacity:1"
       d="m 137.33748,184.68479 c -0.44378,-0.54526 -1.18703,-1.33541 -1.83014,-1.52269 -0.69397,-0.20208 -4.50623,-1.14638 -5.09824,-0.45679 -0.24059,0.28023 -1.06769,1.01486 -0.91508,1.3704 0.13073,0.25378 0.26146,0.50756 0.39218,0.76135 0.0872,0.0508 0.20058,0.0637 0.26144,0.15226 0.12174,0.17726 0.14819,0.42437 0.26146,0.60907 1.11557,1.8192 2.09158,3.00727 2.09158,5.32939 0,1.22313 -0.0902,2.36829 -0.5229,3.50216 -0.3718,0.97442 -0.70918,2.30259 -1.43796,3.04536 -0.23648,0.24102 -0.54787,0.36805 -0.78434,0.60907 -0.12042,0.12278 -0.97312,1.3028 -0.91507,1.3704 0.16592,0.19329 0.44373,0.18231 0.65361,0.30455 0.12592,0.0733 0.46286,0.43349 0.5229,0.4568 0.31906,0.12383 0.58755,0.0569 0.91507,0.15226 0.26006,0.0758 0.61476,0.36935 0.91507,0.45681 1.03528,0.30148 2.69653,0.62325 3.791,0.30454 0.38935,-0.11341 0.72745,-0.2714 1.04579,-0.4568 0.27049,-0.15754 -0.0267,-0.45681 0.26146,-0.45681"
       id="path951" />
    <path
       style="fill:none;stroke:#000000;stroke-width:0.681651;stroke-linecap:butt;stroke-linejoin:miter;stroke-miterlimit:4;stroke-dasharray:none;stroke-opacity:1"
       d="m 129.49402,184.07571 c -0.56648,-0.0508 -1.13755,-0.0542 -1.69941,-0.15226 -0.0973,-0.0171 -2.19575,-0.73041 -2.22231,-0.76135 -0.0806,-0.0939 -0.33366,-0.42531 -0.52289,-0.45679 -0.42918,-0.10769 -0.87588,0.0717 -1.30725,0 -0.92094,-0.15326 -1.89814,-0.37761 -2.61449,0.45679 -0.55006,0.64072 1.18338,1.3864 1.43797,1.97949 0.32822,0.76461 0.74519,1.46187 1.17652,2.13175 0.63706,0.98939 0.78434,3.08359 0.78434,4.2635 0,0.6958 0.1448,1.60937 0,2.28402 -0.15438,0.71933 -0.50637,1.44574 -0.65362,2.13175 -0.0519,0.24165 -0.45456,0.37027 -0.52289,0.60908 -0.13086,0.45724 -0.24419,0.72523 -0.65362,1.06588 -0.19591,0.16299 -2.24288,1.49871 -1.69942,2.13175 0.195,0.22712 0.80154,0.53794 1.04579,0.60906 0.55212,0.16079 4.34354,0.21115 4.70607,0 0.54405,-0.31685 -0.13974,0.0104 0.13074,-0.30453 0.87014,-1.01356 -0.0908,0.22276 0.39216,-0.15226 0.2514,-0.19523 0.40223,-0.56613 0.65363,-0.76135 0.25599,-0.19879 0.78434,-0.30643 0.78434,-0.60908"
       id="path953" />
    <path
       style="fill:none;stroke:#000000;stroke-width:0.681651;stroke-linecap:butt;stroke-linejoin:miter;stroke-miterlimit:4;stroke-dasharray:none;stroke-opacity:1"
       d="m 120.86623,183.00984 c -0.68042,-0.45931 -1.56038,-0.50434 -2.22231,-0.76135 -0.36281,-0.14085 -1.09845,0 -1.43797,0 -0.40847,0 -1.5489,-0.23992 -1.96086,0 -0.84105,0.48984 -0.25254,2.1828 0.13072,2.74083 0.19248,0.28025 0.4827,0.46271 0.65362,0.76133 0.38026,0.66439 0.79323,2.1125 0.91507,2.8931 0.16566,1.06129 0.15665,4.02066 -0.13072,5.02485 -0.29629,1.03533 -0.90382,2.65896 -1.43797,3.65442 -0.37789,0.70428 -1.39657,1.16993 -1.83014,1.67496 -0.12263,0.14285 -0.49422,0.947 -0.26144,1.21814 0.22175,0.25829 1.61126,0.52763 1.96086,0.60907 1.02411,0.23857 2.70586,0.66703 3.66028,0 0.48208,-0.33692 1.52347,-1.06587 1.96086,-1.06587"
       id="path955" />
    <path
       style="fill:none;stroke:#000000;stroke-width:0.681651;stroke-linecap:butt;stroke-linejoin:miter;stroke-miterlimit:4;stroke-dasharray:none;stroke-opacity:1"
       d="m 113.67639,183.46664 c -0.94057,-0.44254 -1.93479,-1.00499 -2.87593,-1.37041 -0.78244,-0.30379 -4.55237,-0.0267 -4.96751,0.45681 -0.61186,0.71268 1.67792,3.56194 1.96086,4.11122 1.0932,2.12228 1.25517,5.17463 1.04579,7.61341 -0.0901,1.05009 -0.46597,2.65793 -1.04579,3.50216 -0.57072,0.83097 -2.35304,1.85665 -2.35304,2.8931 0,0.70729 0.86217,0.60906 1.30725,0.60906 1.25584,0 2.80605,0.29037 4.05244,0 0.42637,0.18845 0.59112,-0.37294 0.91507,-0.4568 0.25523,-0.066 0.52913,0.066 0.78435,0 0.45352,-0.11744 0.91507,-0.72629 0.91507,-1.21814"
       id="path957" />
    <path
       style="fill:none;stroke:#000000;stroke-width:0.681651;stroke-linecap:butt;stroke-linejoin:miter;stroke-miterlimit:4;stroke-dasharray:none;stroke-opacity:1"
       d="m 105.44077,182.70531 c -0.60669,0.10104 -4.90052,-0.53485 -5.22896,-0.15227 -0.59212,0.68969 1.2186,3.14341 1.56868,3.95896 0.55864,1.3014 -0.236,-0.36791 0.13074,0.91361 0.0496,0.17362 0.20309,0.28689 0.26144,0.45681 0.28404,0.82712 -0.37737,4.78636 -0.5229,5.63391 -0.32875,1.91469 -1.51728,3.23014 -2.222308,4.87257 -0.07758,0.18066 -0.668693,0.89606 -0.522901,1.06587 1.119089,1.30352 4.093949,1.06588 5.621139,1.06588 0.31466,0 1.04579,-10e-4 1.04579,-0.4568"
       id="path959" />
    <path
       style="fill:none;stroke:#000000;stroke-width:0.681651;stroke-linecap:butt;stroke-linejoin:miter;stroke-miterlimit:4;stroke-dasharray:none;stroke-opacity:1"
       d="m 99.166017,182.55304 c -0.848803,-0.5118 -2.135393,-0.98111 -3.006665,-0.30455 -0.430309,0.33416 -0.601218,0.87292 -1.045792,1.21815 -0.111674,0.0867 -0.575933,0.0617 -0.653624,0.15228 -0.18969,0.22095 -0.434523,1.8808 -0.261445,2.28401 0.646816,1.50682 1.726524,3.0194 2.091584,4.72031 0.06629,0.30902 -0.02661,1.12255 0,1.3704 0.07836,0.72997 0.239613,1.52303 0.130734,2.28403 -0.06897,0.4824 -0.160849,1.05393 -0.261457,1.52268 -0.182256,0.84919 -0.956575,1.36321 -1.176514,2.13175 -0.103738,0.36261 -0.657447,2.27956 -0.522902,2.43628 0.06808,0.0793 0.412368,0 0.522902,0 0.45033,0 1.659799,0.25148 2.091584,0 0.165354,-0.0964 0.226825,-0.36049 0.392179,-0.45679 0.499337,-0.29083 1.699416,-0.65321 1.699416,-1.52269"
       id="path961" />
    <path
       style="fill:none;stroke:#000000;stroke-width:0.681651;stroke-linecap:butt;stroke-linejoin:miter;stroke-miterlimit:4;stroke-dasharray:none;stroke-opacity:1"
       d="m 93.806323,184.53253 c -1.906489,-0.42415 -4.94784,-1.87307 -6.144041,0.91359 -0.178164,0.41507 -0.229966,1.05391 0,1.52269 0.810237,1.65158 3.4651,2.5177 3.791001,4.41577 0.156791,0.91317 0.144047,6.31768 0,7.15658 -0.09412,0.54817 -0.261446,1.12509 -0.261446,1.67496 0,0.18225 -0.332742,1.13511 -0.130722,1.37041 0.494351,0.57583 1.613408,-1.11796 1.830139,-1.37041 0.07579,-0.0883 0.447122,-0.21628 0.52289,-0.30453 0.177505,-0.20676 0.236864,-1.06588 0.522902,-1.06588"
       id="path963" />
    <path
       style="fill:none;stroke:#000000;stroke-width:0.681651;stroke-linecap:butt;stroke-linejoin:miter;stroke-miterlimit:4;stroke-dasharray:none;stroke-opacity:1"
       d="m 87.008658,186.81654 c -0.305019,0 -0.610039,0 -0.915069,0 -0.923264,0 -1.967848,-0.17629 -2.875931,0 -0.549272,0.10664 -0.693834,0.6559 -1.045792,1.06588 -0.611034,0.71173 -2.333735,2.16547 -1.568694,3.50216 0.160156,0.27982 1.903493,0.72792 2.222318,0.91361 2.370434,1.38054 2.614486,3.90207 2.614486,6.69979 0,0.82472 -0.01498,1.55172 -0.392179,2.28401 -0.06338,0.12305 -0.21568,0.17125 -0.261446,0.30454 -0.04851,0.14138 0.04852,0.31543 0,0.45681 -0.06864,0.19993 -0.333714,0.25251 -0.392178,0.4568 -0.09099,0.31802 -0.119902,0.58386 -0.261446,0.9136 -0.09122,0.21238 -1.080535,1.95926 -0.784347,2.13176 0.715454,0.41668 4.301181,0.62389 4.967527,-0.15227 0.46921,-0.54655 0.673533,-1.438 1.045792,-2.13175 0.318903,-0.59433 1.307237,-1.27757 1.307237,-1.82722"
       id="path965" />
    <path
       style="fill:none;stroke:#000000;stroke-width:0.681651;stroke-linecap:butt;stroke-linejoin:miter;stroke-miterlimit:4;stroke-dasharray:none;stroke-opacity:1"
       d="m 80.341727,190.92778 c -0.386769,0.4033 -1.804026,1.03545 -2.091584,1.37041 -0.05735,0.0668 -0.705359,2.16027 -0.784347,2.43628 -0.532224,1.8598 2.029263,1.71833 2.614486,2.74083 0.619563,1.0825 0.915069,2.26747 0.915069,3.65443 0,0.64509 0.133517,1.50962 0,2.13175 -0.171312,0.79814 -0.418527,1.58524 -0.522901,2.43628 -0.06137,0.50028 -0.356732,0.83106 -0.522891,1.21814 -0.03901,0.0908 0.06159,0.23277 0,0.30455 -0.03085,0.0359 -0.174308,0 -0.130722,0 0.465108,0 0.987629,0.10495 1.437959,0 0.671097,-0.15634 2.353041,-1.87469 2.353041,-2.4363"
       id="path967" />
    <path
       style="fill:none;stroke:#000000;stroke-width:0.681651;stroke-linecap:butt;stroke-linejoin:miter;stroke-miterlimit:4;stroke-dasharray:none;stroke-opacity:1"
       d="m 77.073628,195.95261 c 0.0078,0.54908 -0.917495,0.61189 -1.176526,0.91361 -0.551641,0.64256 -0.813388,2.68444 -0.392167,3.50216 0.459742,0.89252 1.346217,1.70427 1.568693,2.74083 0.103961,0.4845 0.135306,1.81118 0,2.28402 -0.08742,0.30539 -0.454924,0.46291 -0.261456,0.91361 0.333983,0.77806 1.630891,-0.0629 2.091584,-0.15227 0.21492,-0.0417 0.472341,0.14077 0.653624,0 0.288643,-0.22414 2.24026,-1.67495 1.045792,-1.67495"
       id="path969" />
    <path
       style="fill:none;stroke:#000000;stroke-width:0.681651;stroke-linecap:butt;stroke-linejoin:miter;stroke-miterlimit:4;stroke-dasharray:none;stroke-opacity:1"
       d="m 74.85131,199.60705 c 0.0474,0.91464 -0.235756,1.96205 -0.653624,2.74082 -0.486504,0.90671 -0.357212,0.18238 -0.653613,1.21814 -0.06472,0.22624 -0.286943,1.09748 -0.130734,1.37041 0.160894,0.28111 1.124166,0.79184 1.437971,0.60908 0.03901,-0.0227 0,-0.10157 0,-0.15227 0.130723,-0.0508 0.257052,-0.12083 0.392179,-0.15227 0.390067,-0.0909 1.162452,-0.13589 1.43796,-0.45681 0.09245,-0.10768 0,-0.30453 0,-0.4568"
       id="path971" />
  </g>
</svg>
