<?xml version="1.0" encoding="UTF-8" standalone="no"?>
<svg
   xmlns:dc="http://purl.org/dc/elements/1.1/"
   xmlns:cc="http://creativecommons.org/ns#"
   xmlns:rdf="http://www.w3.org/1999/02/22-rdf-syntax-ns#"
   xmlns:svg="http://www.w3.org/2000/svg"
   xmlns="http://www.w3.org/2000/svg"
   xmlns:sodipodi="http://sodipodi.sourceforge.net/DTD/sodipodi-0.dtd"
   xmlns:inkscape="http://www.inkscape.org/namespaces/inkscape"
   width="210mm"
   height="297mm"
   viewBox="0 0 210 297"
   version="1.1"
   id="svg8"
   inkscape:version="1.0.2 (e86c870879, 2021-01-15, custom)"
   sodipodi:docname="epithelialtissue.svg">
  <defs
     id="defs2" />
  <sodipodi:namedview
     id="base"
     pagecolor="#ffffff"
     bordercolor="#666666"
     borderopacity="1.0"
     inkscape:pageopacity="0.0"
     inkscape:pageshadow="2"
     inkscape:zoom="0.48188921"
     inkscape:cx="502.9458"
     inkscape:cy="486.12295"
     inkscape:document-units="mm"
     inkscape:current-layer="layer1"
     inkscape:document-rotation="0"
     showgrid="false"
     showguides="true"
     inkscape:guide-bbox="true"
     inkscape:window-width="1920"
     inkscape:window-height="1017"
     inkscape:window-x="-8"
     inkscape:window-y="-8"
     inkscape:window-maximized="1">
    <sodipodi:guide
       position="286.60634,-41.217439"
       orientation="1,0"
       id="guide849" />
  </sodipodi:namedview>
  <metadata
     id="metadata5">
    <rdf:RDF>
      <cc:Work
         rdf:about="">
        <dc:format>image/svg+xml</dc:format>
        <dc:type
           rdf:resource="http://purl.org/dc/dcmitype/StillImage" />
        <dc:title></dc:title>
      </cc:Work>
    </rdf:RDF>
  </metadata>
  <g
     inkscape:label="Layer 1"
     inkscape:groupmode="layer"
     id="layer1">
    <g
       id="g1233">
      <g
         id="g1156"
         transform="translate(-2.1962171,38.4338)">
        <path
           style="fill:none;stroke:#000000;stroke-width:0.465;stroke-linecap:butt;stroke-linejoin:miter;stroke-miterlimit:4;stroke-dasharray:none;stroke-opacity:1"
           d="m 63.141243,41.590862 58.954697,0.617685 14.20678,-0.411789 18.78194,0.02055"
           id="path847"
           sodipodi:nodetypes="cccc" />
        <path
           style="fill:#ffccaa;stroke:#000000;stroke-width:0.465;stroke-linecap:butt;stroke-linejoin:miter;stroke-miterlimit:4;stroke-dasharray:none;stroke-opacity:1"
           d="m 63.553032,37.953378 c 0,0 2.264849,-0.240213 2.676639,-0.308843 0.411792,-0.06863 1.338321,0.102947 2.264849,-0.480422 0.926531,-0.583372 2.402113,-1.509901 3.054115,-1.647164 0.652002,-0.137263 2.916851,-0.652002 3.843379,-0.549055 0.926532,0.102949 2.676642,0.583372 2.813905,0.652002 0.137263,0.06863 1.098108,0.652002 1.304004,0.823582 0.205894,0.171579 1.612847,0.789265 2.09327,0.857898 0.480422,0.06863 0.377473,0.17158 1.235371,0.308843 0.857898,0.137263 0.549056,-0.205896 1.201058,0.205893 0.651999,0.411792 0.823579,0.652002 0.823579,0.857898 0,0.205897 0.274529,1.132425 -0.03431,1.544215 -0.308843,0.411792 -0.256447,1.519951 -0.256447,1.519951 L 63.141243,41.590862 c 0,0 -1.578531,-0.274527 -1.750111,-0.617686 -0.171579,-0.343159 -0.995166,-2.264849 -0.137265,-2.436429 0.857898,-0.171579 2.299165,-0.583369 2.299165,-0.583369 z"
           id="path851"
           sodipodi:nodetypes="csssssssssssccssc" />
        <path
           style="fill:#d38d5f;stroke:#000000;stroke-width:0.465;stroke-linecap:butt;stroke-linejoin:miter;stroke-miterlimit:4;stroke-dasharray:none;stroke-opacity:1"
           d="m 72.50948,36.374845 c -1.063792,0.171579 -3.019798,0.583372 -3.088429,0.857898 -0.06863,0.274526 -0.411792,0.652002 0.205894,0.823582 0.617685,0.171579 0.960845,0.274526 1.68148,0.274526 0.720632,0 2.024636,-0.06863 2.299163,-0.06863 0.274529,0 1.372637,0.06863 1.990323,-0.10295 0.617685,-0.171579 1.647163,-0.411789 1.75011,-0.583369 0.102949,-0.171579 0.240212,-0.686318 -0.274527,-0.857898 -0.514738,-0.17158 -1.063791,-0.205893 -1.441267,-0.24021 -0.377476,-0.03432 -1.235371,-0.205896 -1.85306,-0.205896 -0.617685,0 -1.269687,0.102947 -1.269687,0.102947 z"
           id="path853" />
        <path
           style="fill:#ffccaa;stroke:#000000;stroke-width:0.465;stroke-linecap:butt;stroke-linejoin:miter;stroke-miterlimit:4;stroke-dasharray:none;stroke-opacity:1"
           d="m 87.398437,38.030785 c 0,0 2.264849,-0.240213 2.676639,-0.308843 0.411792,-0.06863 1.338321,0.102947 2.264849,-0.480422 0.926531,-0.583372 2.402113,-1.509901 3.054115,-1.647164 0.652002,-0.137263 2.916851,-0.652002 3.843379,-0.549055 0.926531,0.102949 2.676641,0.583372 2.813901,0.652002 0.13727,0.06863 1.09811,0.652002 1.30401,0.823582 0.20589,0.171579 1.61285,0.789265 2.09327,0.857898 0.48042,0.06863 0.37747,0.17158 1.23537,0.308843 0.8579,0.137263 0.54906,-0.205896 1.20106,0.205893 0.652,0.411792 0.89638,0.312292 0.89638,0.518188 0,0.205897 0.20173,1.472135 -0.1071,1.883925 -0.30885,0.411792 -0.13512,1.689806 -0.13512,1.689806 L 86.986648,41.668269 c 0,0 -2.430009,0.332719 -2.259676,-0.01106 0.109168,-0.220332 0.227243,-2.559605 0.3723,-3.043054 0.251433,-0.83798 2.299165,-0.583369 2.299165,-0.583369 z"
           id="path851-0"
           sodipodi:nodetypes="csssssssssssccsscc" />
        <path
           style="fill:#d38d5f;stroke:#000000;stroke-width:0.465;stroke-linecap:butt;stroke-linejoin:miter;stroke-miterlimit:4;stroke-dasharray:none;stroke-opacity:1"
           d="m 96.354885,36.452252 c -1.063792,0.171579 -3.019798,0.583372 -3.088429,0.857898 -0.06863,0.274526 -0.411792,0.652002 0.205894,0.823582 0.617685,0.171579 0.960845,0.274526 1.68148,0.274526 0.720632,0 2.024636,-0.06863 2.299163,-0.06863 0.274529,0 1.372637,0.06863 1.990323,-0.10295 0.617684,-0.171579 1.647164,-0.411789 1.750114,-0.583369 0.10295,-0.171579 0.24021,-0.686318 -0.27453,-0.857898 -0.51474,-0.17158 -1.063792,-0.205893 -1.441268,-0.24021 -0.377476,-0.03432 -1.235371,-0.205896 -1.85306,-0.205896 -0.617685,0 -1.269687,0.102947 -1.269687,0.102947 z"
           id="path853-4" />
        <path
           style="fill:#ffccaa;stroke:#000000;stroke-width:0.465;stroke-linecap:butt;stroke-linejoin:miter;stroke-miterlimit:4;stroke-dasharray:none;stroke-opacity:1"
           d="m 111.17814,38.224905 c 0,0 2.26485,-0.240213 2.67664,-0.308843 0.41179,-0.06863 1.33832,0.102947 2.26484,-0.480422 0.92654,-0.583372 2.40212,-1.509901 3.05412,-1.647164 0.652,-0.137263 2.91685,-0.652002 3.84338,-0.549055 0.92653,0.102949 2.67664,0.583372 2.8139,0.652002 0.13727,0.06863 1.09811,0.652002 1.30401,0.823582 0.20589,0.171579 1.61285,0.789265 2.09327,0.857898 0.48042,0.06863 0.37747,0.17158 1.23537,0.308843 0.8579,0.137263 0.54906,-0.205896 1.20106,0.205893 0.652,0.411792 0.82358,0.652002 0.82358,0.857898 0,0.205897 -0.0102,1.030055 -0.0343,1.544215 -0.0537,1.145468 0.0472,1.363266 0.0469,1.362228 l -21.73451,0.01041 c 0,0 -1.84545,0.404893 -2.01703,0.06173 -0.17158,-0.343159 -0.4856,-3.453834 0.3723,-3.625414 0.8579,-0.171579 2.05652,-0.0738 2.05652,-0.0738 z"
           id="path851-2"
           sodipodi:nodetypes="csssssssssssccsscc" />
        <path
           style="fill:#d38d5f;stroke:#000000;stroke-width:0.465;stroke-linecap:butt;stroke-linejoin:miter;stroke-miterlimit:4;stroke-dasharray:none;stroke-opacity:1"
           d="m 120.13459,36.646372 c -1.0638,0.171579 -3.0198,0.583372 -3.08843,0.857898 -0.0686,0.274526 -0.4118,0.652002 0.20589,0.823582 0.61768,0.171579 0.96085,0.274526 1.68148,0.274526 0.72063,0 2.02464,-0.06863 2.29916,-0.06863 0.27453,0 1.37264,0.06863 1.99033,-0.10295 0.61768,-0.171579 1.64716,-0.411789 1.75011,-0.583369 0.10295,-0.171579 0.24021,-0.686318 -0.27453,-0.857898 -0.51474,-0.17158 -1.06379,-0.205893 -1.44127,-0.24021 -0.37747,-0.03432 -1.23537,-0.205896 -1.85306,-0.205896 -0.61768,0 -1.26968,0.102947 -1.26968,0.102947 z"
           id="path853-49" />
        <path
           style="fill:#ffccaa;stroke:#000000;stroke-width:0.465;stroke-linecap:butt;stroke-linejoin:miter;stroke-miterlimit:4;stroke-dasharray:none;stroke-opacity:1"
           d="m 135.18143,38.008244 c 0,0 2.26485,-0.240213 2.67664,-0.308843 0.41179,-0.06863 1.33832,0.102947 2.26485,-0.480422 0.92653,-0.583372 2.40211,-1.509901 3.05411,-1.647164 0.652,-0.137263 2.91685,-0.652002 3.84338,-0.549055 0.92653,0.102949 2.67664,0.583372 2.8139,0.652002 0.13727,0.06863 1.09811,0.652002 1.30401,0.823582 0.20589,0.171579 1.61285,0.789265 2.09327,0.857898 0.48042,0.06863 0.37747,0.17158 1.23537,0.308843 0.8579,0.137263 0.54906,-0.205896 1.20106,0.205893 0.652,0.411792 0.82358,0.652002 0.82358,0.857898 0,0.205897 0.27453,1.132425 -0.0343,1.544215 -0.30885,0.411792 -1.37264,1.544216 -1.37264,1.544216 l -20.31501,-0.171579 c 0,0 -2.29404,0.490792 -2.18688,0.122397 0.10363,-0.356265 -0.1591,-3.023946 0.2995,-3.176512 0.83016,-0.276174 2.29917,-0.583369 2.29917,-0.583369 z"
           id="path851-04"
           sodipodi:nodetypes="csssssssssssccsscc" />
        <path
           style="fill:#d38d5f;stroke:#000000;stroke-width:0.465;stroke-linecap:butt;stroke-linejoin:miter;stroke-miterlimit:4;stroke-dasharray:none;stroke-opacity:1"
           d="m 144.13788,36.429711 c -1.0638,0.171579 -3.0198,0.583372 -3.08843,0.857898 -0.0686,0.274526 -0.4118,0.652002 0.20589,0.823582 0.61769,0.171579 0.96085,0.274526 1.68148,0.274526 0.72063,0 2.02464,-0.06863 2.29916,-0.06863 0.27453,0 1.37264,0.06863 1.99033,-0.10295 0.61768,-0.171579 1.64716,-0.411789 1.75011,-0.583369 0.10295,-0.171579 0.24021,-0.686318 -0.27453,-0.857898 -0.51474,-0.17158 -1.06379,-0.205893 -1.44127,-0.24021 -0.37747,-0.03432 -1.23537,-0.205896 -1.85306,-0.205896 -0.61768,0 -1.26968,0.102947 -1.26968,0.102947 z"
           id="path853-0" />
      </g>
      <g
         id="g1183"
         transform="translate(-47.87714,43.86916)">
        <path
           style="fill:none;stroke:#000000;stroke-width:0.501;stroke-linecap:butt;stroke-linejoin:miter;stroke-miterlimit:4;stroke-dasharray:none;stroke-opacity:1"
           d="m 107.827,147.61462 32.66873,0.13726 c 0,0 2.74527,-0.27452 11.25561,-0.68632 8.51034,-0.41179 16.60889,-0.54905 19.49143,-0.82358 2.88254,-0.27452 24.96009,0.54073 24.96009,0.54073"
           id="path903"
           sodipodi:nodetypes="ccssc" />
        <path
           style="fill:#ffb380;stroke:#000000;stroke-width:0.501;stroke-linecap:butt;stroke-linejoin:miter;stroke-miterlimit:4;stroke-dasharray:none;stroke-opacity:1"
           d="m 108.0329,123.11307 -1.09811,2.33348 0.0686,3.98065 0.75495,10.91245 c 0,0 -0.54906,3.15706 -0.61769,3.91201 -0.0686,0.75495 0.68632,3.36296 0.68632,3.36296 v 0 l 13.10867,0.2059 c 0,0 -0.41179,-6.38276 -0.41179,-6.65729 0,-0.27452 0.0686,-7.06907 0,-7.48086 -0.0686,-0.41179 0.61769,-11.25562 0.61769,-11.25562 0,0 -0.41179,-0.96084 -0.89222,-0.89221 -0.48042,0.0686 -0.20589,0.48042 -2.40211,0.68632 -2.19621,0.20589 -2.05895,0.20589 -3.22569,0.41179 -1.16674,0.20589 -1.64717,0.0686 -2.74527,0.20589 -1.09811,0.13727 -3.2257,0.27453 -3.2257,0.27453 z"
           id="path905" />
        <path
           style="fill:#ffb380;stroke:#000000;stroke-width:0.501;stroke-linecap:butt;stroke-linejoin:miter;stroke-miterlimit:4;stroke-dasharray:none;stroke-opacity:1"
           d="m 121.79357,121.77475 2.67664,-0.652 c 0,0 0.61768,-0.17158 2.12759,-0.37748 1.50989,-0.20589 2.02463,-0.41178 2.36779,-0.41178 0.34316,0 0.8579,0.17158 1.20106,0.34315 0.34316,0.17158 1.33832,0.82359 1.99032,1.02948 0.652,0.2059 1.71579,0.54906 2.53937,0.72063 0.82359,0.17158 1.75011,0.44611 2.05896,0.54906 0.30884,0.10295 0.92653,0.61769 0.99516,0.75495 0.0686,0.13726 -0.27453,19.011 -0.30884,19.14827 -0.0343,0.13726 -0.0686,4.1179 -0.0686,4.1179 l -0.17158,0.48043 c 0,0 -16.26577,0.34316 -16.26577,0.34316 l -0.61765,-8.8535 0.82355,-16.54027 z"
           id="path907" />
        <path
           style="fill:#ffb380;stroke:#000000;stroke-width:0.501;stroke-linecap:butt;stroke-linejoin:miter;stroke-miterlimit:4;stroke-dasharray:none;stroke-opacity:1"
           d="m 138.12793,123.5935 c 0,0 1.99032,-0.99517 2.09327,-1.23538 0.10295,-0.24021 0.44611,-1.16674 1.26969,-1.20105 0.82358,-0.0343 1.78443,-0.48043 2.98548,0.17158 1.20106,0.652 1.61285,0.61768 2.71096,1.20105 1.09811,0.58337 2.23053,1.0638 2.23053,1.0638 0,0 0.27453,0.0343 0.30885,0.17158 0.0343,0.13726 0.54905,2.43642 0.72063,3.43158 0.17158,0.99516 0.27453,15.78531 0.27453,15.78531 l -0.68632,4.11791 -12.83411,0.37748 0.41176,-11.97625 0.20589,-11.35856 z"
           id="path909" />
        <path
           style="fill:#ffb380;stroke:#000000;stroke-width:0.501;stroke-linecap:butt;stroke-linejoin:miter;stroke-miterlimit:4;stroke-dasharray:none;stroke-opacity:1"
           d="m 150.51597,121.26002 c -0.36604,0.77783 -1.09811,2.33348 -1.09811,2.33348 -0.0688,1.45778 1.30991,1.67831 0.99067,3.83506 1.04114,4.40552 0.0173,7.66456 0.26965,11.30069 0,0 -0.11229,3.64236 -0.18092,4.39731 -0.0686,0.75495 -0.18722,2.63501 -0.18722,2.63501 l -0.27449,1.33831 13.39177,-0.7292 c 0,0 -0.4204,-6.78597 -0.4204,-7.0605 0,-0.27452 0.0686,-7.06907 0,-7.48086 -0.0686,-0.41179 0.61769,-11.25562 0.61769,-11.25562 0,0 -0.41179,-0.96084 -0.89222,-0.89221 -0.48042,0.0686 -0.20589,0.48042 -2.40211,0.68632 -2.19621,0.20589 -2.05895,0.20589 -3.22569,0.41179 -1.16674,0.20589 -1.64717,0.0686 -2.74527,0.20589 -1.09811,0.13727 -3.2257,0.27453 -3.2257,0.27453 z"
           id="path905-2"
           sodipodi:nodetypes="ccccscccsscsssscc" />
        <path
           style="fill:#ffb380;stroke:#000000;stroke-width:0.501;stroke-linecap:butt;stroke-linejoin:miter;stroke-miterlimit:4;stroke-dasharray:none;stroke-opacity:1"
           d="m 164.27664,119.9217 2.67664,-0.652 c 0,0 0.61768,-0.17158 2.12759,-0.37748 1.50989,-0.20589 2.02463,-0.41178 2.36779,-0.41178 0.34316,0 0.8579,0.17158 1.20106,0.34315 0.34316,0.17158 1.33832,0.82359 1.99032,1.02948 0.652,0.2059 1.71579,0.54906 2.53937,0.72063 0.82359,0.17158 1.75011,0.44611 2.05896,0.54906 0.30884,0.10295 0.92653,0.61769 0.99516,0.75495 0.0686,0.13726 -0.27453,19.011 -0.30884,19.14827 -0.0343,0.13726 -0.0686,4.1179 -0.0686,4.1179 l -0.0686,1.14959 -16.36014,0.0772 -0.62623,-9.25671 0.82355,-16.54027 z"
           id="path907-5"
           sodipodi:nodetypes="ccsssssssscccccc" />
        <path
           style="fill:#ffb380;stroke:#000000;stroke-width:0.501;stroke-linecap:butt;stroke-linejoin:miter;stroke-miterlimit:4;stroke-dasharray:none;stroke-opacity:1"
           d="m 180.611,121.74045 c 0,0 1.99021,-0.99522 2.09327,-1.23538 0.10304,-0.24012 2.0562,-0.70123 2.50721,-1.20105 0.2189,-0.24259 0.66442,-0.006 1.74796,0.17158 1.34873,0.22042 1.61285,0.61768 2.71096,1.20105 1.09811,0.58337 2.23053,1.0638 2.23053,1.0638 0,0 0.27453,0.0343 0.30885,0.17158 0.0343,0.13726 0.54905,2.43642 0.72063,3.43158 0.17158,0.99516 0.37748,16.45447 0.37748,16.45447 l -0.72064,4.70128 -12.79979,-0.20589 0.30881,-12.64541 0.20589,-11.35856 z"
           id="path909-7"
           sodipodi:nodetypes="csssscsscccccc" />
        <path
           style="fill:#ffb380;stroke:#000000;stroke-width:0.501;stroke-linecap:butt;stroke-linejoin:miter;stroke-miterlimit:4;stroke-dasharray:none;stroke-opacity:1"
           d="m 107.34658,98.354159 -1.09811,2.333481 0.0686,3.98065 0.75495,10.91245 c 0,0 -0.54906,3.15706 -0.61769,3.91201 -0.0686,0.75495 0.68632,3.36296 0.68632,3.36296 v 0 c 4.43974,0.44961 9.11849,-0.568 12.79322,-1.17721 0,0 -0.0963,-4.99965 -0.0963,-5.27418 0,-0.27452 0.0686,-7.06907 0,-7.48086 -0.0686,-0.41179 0.61769,-11.255621 0.61769,-11.255621 0,0 -0.41179,-0.96084 -0.89222,-0.89221 -0.48042,0.0686 -0.20589,0.48042 -2.40211,0.68632 -2.19621,0.20589 -2.05895,0.20589 -3.22569,0.41179 -1.16674,0.20589 -1.64717,0.0686 -2.74527,0.20589 -1.09811,0.13727 -3.2257,0.27453 -3.2257,0.27453 z"
           id="path905-29"
           sodipodi:nodetypes="ccccscccsscsssscc" />
        <path
           style="fill:#ffb380;stroke:#000000;stroke-width:0.501;stroke-linecap:butt;stroke-linejoin:miter;stroke-miterlimit:4;stroke-dasharray:none;stroke-opacity:1"
           d="m 121.10725,97.015839 2.67664,-0.652 c 0,0 0.61768,-0.17158 2.12759,-0.37748 1.50989,-0.20589 2.02463,-0.41178 2.36779,-0.41178 0.34316,0 0.8579,0.17158 1.20106,0.34315 0.34316,0.17158 1.33832,0.82359 1.99032,1.02948 0.652,0.2059 1.71579,0.54906 2.53937,0.72063 0.82359,0.17158 1.75011,0.44611 2.05896,0.54906 0.30884,0.10295 0.92653,0.61769 0.99516,0.75495 0.0686,0.13726 -0.27453,19.011001 -0.30884,19.148271 -0.0343,0.13726 -0.0686,4.1179 -0.0686,4.1179 l -0.17158,0.48043 c -1.13929,-0.68337 -2.33603,-0.50577 -3.61387,-0.93787 -0.18408,-0.0622 -0.98606,-0.36923 -1.19545,-0.43697 -0.36496,-0.11808 -0.64078,-0.58072 -0.97537,-0.6621 -4.58259,-1.11461 -5.53898,1.1096 -10.79656,0.99699 l -0.30217,-7.47039 0.82355,-16.540271 z"
           id="path907-3"
           sodipodi:nodetypes="ccssssssssccssscccc" />
        <path
           style="fill:#ffb380;stroke:#000000;stroke-width:0.501;stroke-linecap:butt;stroke-linejoin:miter;stroke-miterlimit:4;stroke-dasharray:none;stroke-opacity:1"
           d="m 137.44161,98.834589 c 0,0 1.99032,-0.99517 2.09327,-1.23538 0.10295,-0.24021 0.44611,-1.16674 1.26969,-1.20105 0.82358,-0.0343 1.78443,-0.48043 2.98548,0.17158 1.20106,0.652 1.61285,0.61768 2.71096,1.20105 1.09811,0.58337 2.23053,1.0638 2.23053,1.0638 0,0 0.27453,0.0343 0.30885,0.17158 0.0343,0.13726 0.54905,2.436421 0.72063,3.431581 0.17158,0.99516 0.27453,15.78531 0.27453,15.78531 l -0.61769,5.37044 c -2.49811,-1.08544 -6.32608,-3.74772 -8.22931,-2.31934 -0.9549,0.71665 -2.05417,1.36616 -3.11863,2.21595 -0.53788,0.42941 -0.91999,-1.11546 -1.5548,-0.77166 l 0.41176,-11.97625 0.20589,-11.358561 z"
           id="path909-76"
           sodipodi:nodetypes="csssscssccsscccc" />
        <path
           style="fill:#ffb380;stroke:#000000;stroke-width:0.501;stroke-linecap:butt;stroke-linejoin:miter;stroke-miterlimit:4;stroke-dasharray:none;stroke-opacity:1"
           d="m 149.82965,96.501109 c -0.36604,0.77783 -1.09811,2.33348 -1.09811,2.33348 -0.0688,1.457781 1.30991,1.678311 0.99067,3.835061 1.04114,4.40552 0.0173,7.66456 0.26965,11.30069 0,0 -0.11229,3.64236 -0.18092,4.39731 -0.0686,0.75495 -0.18722,2.63501 -0.18722,2.63501 l -0.008,1.77508 c 0.2782,-2.60272 8.73291,-1.81178 13.80427,-2.69467 0,0 -1.09982,-5.25727 -1.09982,-5.5318 0,-0.27452 0.0686,-7.06907 0,-7.48086 -0.0686,-0.41179 0.61769,-11.255621 0.61769,-11.255621 0,0 -0.41179,-0.96084 -0.89222,-0.89221 -0.48042,0.0686 -0.20589,0.48042 -2.40211,0.68632 -2.19621,0.20589 -2.05895,0.20589 -3.22569,0.41179 -1.16674,0.20589 -1.64717,0.0686 -2.74527,0.20589 -1.09811,0.13727 -3.2257,0.27453 -3.2257,0.27453 z"
           id="path905-2-3"
           sodipodi:nodetypes="ccccscccsscsssscc" />
        <path
           style="fill:#ffb380;stroke:#000000;stroke-width:0.501;stroke-linecap:butt;stroke-linejoin:miter;stroke-miterlimit:4;stroke-dasharray:none;stroke-opacity:1"
           d="m 163.59032,95.162789 2.67664,-0.652 c 0,0 0.61768,-0.17158 2.12759,-0.37748 1.50989,-0.20589 2.02463,-0.41178 2.36779,-0.41178 0.34316,0 0.8579,0.17158 1.20106,0.34315 0.34316,0.17158 1.33832,0.82359 1.99032,1.02948 0.652,0.2059 1.71579,0.54906 2.53937,0.72063 0.82359,0.17158 1.75011,0.44611 2.05896,0.54906 0.30884,0.10295 1.11235,0.65587 0.99516,0.75495 -0.28947,0.24473 -0.38897,18.021261 0.54044,18.565911 0.6764,0.39638 0.31964,4.38481 0.31964,4.38481 l 0.20371,1.67093 c -1.44751,-1.13462 -4.98847,-1.7292 -6.3079,-2.22335 -4.18788,-1.56847 -7.15085,-0.67645 -10.67843,1.05659 l -1.50987,-8.21864 0.82355,-16.540271 z"
           id="path907-5-3"
           sodipodi:nodetypes="ccssssssssccscccc" />
        <path
           style="fill:#ffb380;stroke:#000000;stroke-width:0.501;stroke-linecap:butt;stroke-linejoin:miter;stroke-miterlimit:4;stroke-dasharray:none;stroke-opacity:1"
           d="m 179.92468,96.981539 c 0,0 1.99032,-0.99517 2.09327,-1.23538 0.10295,-0.24021 0.44611,-1.16674 1.26969,-1.20105 0.82358,-0.0343 1.78443,-0.48043 2.98548,0.17158 1.20106,0.652 1.61285,0.61768 2.71096,1.20105 1.09811,0.58337 2.23053,1.0638 2.23053,1.0638 0,0 0.27453,0.0343 0.30885,0.17158 0.0343,0.13726 0.54905,2.43642 0.72063,3.431581 0.17158,0.99516 0.37748,16.45447 0.37748,16.45447 l -0.72064,4.70128 c -3.45801,-1.50139 -4.36151,-4.64793 -11.28993,0 l -1.20105,-12.8513 0.20589,-11.358561 z"
           id="path909-7-2"
           sodipodi:nodetypes="csssscsscccccc" />
        <path
           id="path1027"
           style="fill:#c87137;stroke:#000000;stroke-width:0.501;stroke-linecap:butt;stroke-linejoin:miter;stroke-miterlimit:4;stroke-dasharray:none;stroke-opacity:1"
           d="m 112.97784,111.81312 c -0.81126,0.22956 -1.61787,0.68385 -2.04103,1.43961 -0.22025,0.39626 -0.27784,0.87279 -0.17671,1.31297 -0.14883,0.75015 -0.20457,1.55794 0.0722,2.28587 0.16726,0.45696 0.58776,0.81656 1.07938,0.85785 0.58692,0.0688 1.20615,-0.0816 1.65664,-0.47598 0.60622,-0.50349 0.92747,-1.31493 0.84825,-2.09675 -0.0264,-1.18819 -0.66884,-2.24234 -1.33781,-3.18203 -0.0335,-0.0473 -0.0672,-0.0945 -0.10094,-0.14154 z" />
        <path
           id="path1027-6"
           style="fill:#c87137;stroke:#000000;stroke-width:0.501;stroke-linecap:butt;stroke-linejoin:miter;stroke-miterlimit:4;stroke-dasharray:none;stroke-opacity:1"
           d="m 129.43825,111.47751 c -0.81126,0.22956 -1.61787,0.68385 -2.04103,1.43961 -0.22025,0.39626 -0.27784,0.87279 -0.17671,1.31297 -0.14883,0.75015 -0.20457,1.55794 0.0722,2.28587 0.16726,0.45696 0.58776,0.81656 1.07938,0.85785 0.58692,0.0688 1.20615,-0.0816 1.65664,-0.47598 0.60622,-0.50349 0.92747,-1.31493 0.84825,-2.09675 -0.0264,-1.18819 -0.66884,-2.24234 -1.33781,-3.18203 -0.0335,-0.0473 -0.0672,-0.0945 -0.10094,-0.14154 z" />
        <path
           id="path1027-4"
           style="fill:#c87137;stroke:#000000;stroke-width:0.501;stroke-linecap:butt;stroke-linejoin:miter;stroke-miterlimit:4;stroke-dasharray:none;stroke-opacity:1"
           d="m 141.66781,112.73929 c -0.81126,0.22956 -1.61787,0.68385 -2.04103,1.43961 -0.22025,0.39626 -0.27784,0.87279 -0.17671,1.31297 -0.14883,0.75015 -0.20457,1.55794 0.0722,2.28587 0.16726,0.45696 0.58776,0.81656 1.07938,0.85785 0.58692,0.0688 1.20615,-0.0816 1.65664,-0.47598 0.60622,-0.50349 0.92747,-1.31493 0.84825,-2.09675 -0.0264,-1.18819 -0.66884,-2.24234 -1.33781,-3.18203 -0.0335,-0.0473 -0.0672,-0.0945 -0.10094,-0.14154 z" />
        <path
           id="path1027-7"
           style="fill:#c87137;stroke:#000000;stroke-width:0.501;stroke-linecap:butt;stroke-linejoin:miter;stroke-miterlimit:4;stroke-dasharray:none;stroke-opacity:1"
           d="m 159.04155,112.05987 c -0.81126,0.22956 -1.61787,0.68385 -2.04103,1.43961 -0.22025,0.39626 -0.27784,0.87279 -0.17671,1.31297 -0.14883,0.75015 -0.20457,1.55794 0.0722,2.28587 0.16726,0.45696 0.58776,0.81656 1.07938,0.85785 0.58692,0.0688 1.20615,-0.0816 1.65664,-0.47598 0.60622,-0.50349 0.92747,-1.31493 0.84825,-2.09675 -0.0264,-1.18819 -0.66884,-2.24234 -1.33781,-3.18203 -0.0335,-0.0473 -0.0672,-0.0945 -0.10094,-0.14154 z" />
        <path
           id="path1027-5"
           style="fill:#c87137;stroke:#000000;stroke-width:0.501;stroke-linecap:butt;stroke-linejoin:miter;stroke-miterlimit:4;stroke-dasharray:none;stroke-opacity:1"
           d="m 171.17405,110.50691 c -0.81126,0.22956 -1.61787,0.68385 -2.04103,1.43961 -0.22025,0.39626 -0.27784,0.87279 -0.17671,1.31297 -0.14883,0.75015 -0.20457,1.55794 0.0722,2.28587 0.16726,0.45696 0.58776,0.81656 1.07938,0.85785 0.58692,0.0688 1.20615,-0.0816 1.65664,-0.47598 0.60622,-0.50349 0.92747,-1.31493 0.84825,-2.09675 -0.0264,-1.18819 -0.66884,-2.24234 -1.33781,-3.18203 -0.0335,-0.0473 -0.0672,-0.0945 -0.10094,-0.14154 z" />
        <path
           id="path1027-3"
           style="fill:#c87137;stroke:#000000;stroke-width:0.501;stroke-linecap:butt;stroke-linejoin:miter;stroke-miterlimit:4;stroke-dasharray:none;stroke-opacity:1"
           d="m 186.80071,112.73929 c -0.81126,0.22956 -1.61787,0.68385 -2.04103,1.43961 -0.22025,0.39626 -0.27784,0.87279 -0.17671,1.31297 -0.14883,0.75015 -0.20457,1.55794 0.0722,2.28587 0.16726,0.45696 0.58776,0.81656 1.07938,0.85785 0.58692,0.0688 1.20615,-0.0816 1.65664,-0.47598 0.60622,-0.50349 0.92747,-1.31493 0.84825,-2.09675 -0.0264,-1.18819 -0.66884,-2.24234 -1.33781,-3.18203 -0.0335,-0.0473 -0.0672,-0.0945 -0.10094,-0.14154 z" />
        <path
           id="path1027-57"
           style="fill:#c87137;stroke:#000000;stroke-width:0.501;stroke-linecap:butt;stroke-linejoin:miter;stroke-miterlimit:4;stroke-dasharray:none;stroke-opacity:1"
           d="m 116.39276,139.52785 c 0.9176,0.22956 1.82995,0.68385 2.30858,1.43961 0.24912,0.39626 0.31426,0.87279 0.19987,1.31297 0.16834,0.75015 0.23139,1.55794 -0.0817,2.28587 -0.18919,0.45696 -0.66481,0.81656 -1.22087,0.85785 -0.66386,0.0688 -1.36427,-0.0816 -1.87381,-0.47598 -0.68569,-0.50349 -1.04905,-1.31493 -0.95944,-2.09675 0.0299,-1.18819 0.75651,-2.24234 1.51318,-3.18203 0.0379,-0.0473 0.076,-0.0945 0.11417,-0.14154 z" />
        <path
           id="path1027-39"
           style="fill:#c87137;stroke:#000000;stroke-width:0.501;stroke-linecap:butt;stroke-linejoin:miter;stroke-miterlimit:4;stroke-dasharray:none;stroke-opacity:1"
           d="m 130.70003,139.23667 c -0.81126,0.22956 -1.61787,0.68385 -2.04103,1.43961 -0.22025,0.39626 -0.27784,0.87279 -0.17671,1.31297 -0.14883,0.75015 -0.20457,1.55794 0.0722,2.28587 0.16726,0.45696 0.58776,0.81656 1.07938,0.85785 0.58692,0.0688 1.20615,-0.0816 1.65664,-0.47598 0.60622,-0.50349 0.92747,-1.31493 0.84825,-2.09675 -0.0264,-1.18819 -0.66884,-2.24234 -1.33781,-3.18203 -0.0335,-0.0473 -0.0672,-0.0945 -0.10094,-0.14154 z" />
        <path
           id="path1027-0"
           style="fill:#c87137;stroke:#000000;stroke-width:0.501;stroke-linecap:butt;stroke-linejoin:miter;stroke-miterlimit:4;stroke-dasharray:none;stroke-opacity:1"
           d="m 145.35609,138.26607 c -0.81126,0.22956 -1.61787,0.68385 -2.04103,1.43961 -0.22025,0.39626 -0.27784,0.87279 -0.17671,1.31297 -0.14883,0.75015 -0.20457,1.55794 0.0722,2.28587 0.16726,0.45696 0.58776,0.81656 1.07938,0.85785 0.58692,0.0688 1.20615,-0.0816 1.65664,-0.47598 0.60622,-0.50349 0.92747,-1.31493 0.84825,-2.09675 -0.0264,-1.18819 -0.66884,-2.24234 -1.33781,-3.18203 -0.0335,-0.0473 -0.0672,-0.0945 -0.10094,-0.14154 z" />
        <path
           id="path1027-48"
           style="fill:#c87137;stroke:#000000;stroke-width:0.501;stroke-linecap:butt;stroke-linejoin:miter;stroke-miterlimit:4;stroke-dasharray:none;stroke-opacity:1"
           d="m 156.03269,131.95717 c -0.81126,0.22956 -1.61787,0.68385 -2.04103,1.43961 -0.22025,0.39626 -0.27784,0.87279 -0.17671,1.31297 -0.14883,0.75015 -0.20457,1.55794 0.0722,2.28587 0.16726,0.45696 0.58776,0.81656 1.07938,0.85785 0.58692,0.0688 1.20615,-0.0816 1.65664,-0.47598 0.60622,-0.50349 0.92747,-1.31493 0.84825,-2.09675 -0.0264,-1.18819 -0.66884,-2.24234 -1.33781,-3.18203 -0.0335,-0.0473 -0.0672,-0.0945 -0.10094,-0.14154 z" />
        <path
           id="path1027-43"
           style="fill:#c87137;stroke:#000000;stroke-width:0.501;stroke-linecap:butt;stroke-linejoin:miter;stroke-miterlimit:4;stroke-dasharray:none;stroke-opacity:1"
           d="m 174.76527,138.26607 c -0.81126,0.22956 -1.61787,0.68385 -2.04103,1.43961 -0.22025,0.39626 -0.27784,0.87279 -0.17671,1.31297 -0.14883,0.75015 -0.20457,1.55794 0.0722,2.28587 0.16726,0.45696 0.58776,0.81656 1.07938,0.85785 0.58692,0.0688 1.20615,-0.0816 1.65664,-0.47598 0.60622,-0.50349 0.92747,-1.31493 0.84825,-2.09675 -0.0264,-1.18819 -0.66884,-2.24234 -1.33781,-3.18203 -0.0335,-0.0473 -0.0672,-0.0945 -0.10094,-0.14154 z" />
        <path
           id="path1027-2"
           style="fill:#c87137;stroke:#000000;stroke-width:0.501;stroke-linecap:butt;stroke-linejoin:miter;stroke-miterlimit:4;stroke-dasharray:none;stroke-opacity:1"
           d="m 186.50953,136.03369 c -0.81126,0.22956 -1.61787,0.68385 -2.04103,1.43961 -0.22025,0.39626 -0.27784,0.87279 -0.17671,1.31297 -0.14883,0.75015 -0.20457,1.55794 0.0722,2.28587 0.16726,0.45696 0.58776,0.81656 1.07938,0.85785 0.58692,0.0688 1.20615,-0.0816 1.65664,-0.47598 0.60622,-0.50349 0.92747,-1.31493 0.84825,-2.09675 -0.0264,-1.18819 -0.66884,-2.24234 -1.33781,-3.18203 -0.0335,-0.0473 -0.0672,-0.0945 -0.10094,-0.14154 z" />
      </g>
      <text
         xml:space="preserve"
         style="font-size:10.5833px;line-height:1.25;font-family:sans-serif;letter-spacing:0px;word-spacing:0px;stroke-width:0.264583"
         x="56.039783"
         y="63.669399"
         id="text1187"><tspan
           sodipodi:role="line"
           id="tspan1185"
           x="56.039783"
           y="63.669399"
           style="font-size:7.05556px;stroke-width:0.264583">simple squamous epithelium</tspan></text>
      <text
         xml:space="preserve"
         style="font-size:10.5833px;line-height:1.25;font-family:sans-serif;letter-spacing:0px;word-spacing:0px;stroke-width:0.264583"
         x="59.057652"
         y="126.56428"
         id="text1191"><tspan
           sodipodi:role="line"
           id="tspan1189"
           x="59.057652"
           y="126.56428"
           style="font-size:7.05556px;stroke-width:0.264583">stratified columnar epithelium</tspan></text>
    </g>
  </g>
</svg>
