<?xml version="1.0" encoding="UTF-8" standalone="no"?>
<svg
   xmlns:dc="http://purl.org/dc/elements/1.1/"
   xmlns:cc="http://creativecommons.org/ns#"
   xmlns:rdf="http://www.w3.org/1999/02/22-rdf-syntax-ns#"
   xmlns:svg="http://www.w3.org/2000/svg"
   xmlns="http://www.w3.org/2000/svg"
   width="210mm"
   height="297mm"
   viewBox="0 0 210 297"
   version="1.1"
   id="svg8">
  <defs
     id="defs2" />
  <metadata
     id="metadata5">
    <rdf:RDF>
      <cc:Work
         rdf:about="">
        <dc:format>image/svg+xml</dc:format>
        <dc:type
           rdf:resource="http://purl.org/dc/dcmitype/StillImage" />
        <dc:title></dc:title>
      </cc:Work>
    </rdf:RDF>
  </metadata>
  <g
     id="layer1">
    <g
       id="g909"
       transform="translate(-202.3265,-35.963056)">
      <path
         style="fill:#ccff00;stroke:#000000;stroke-width:0.865;stroke-linecap:butt;stroke-linejoin:miter;stroke-miterlimit:4;stroke-dasharray:none;stroke-opacity:1"
         d="m 34.178629,139.87158 c 1.098108,0 7.27497,3.0198 7.27497,3.0198 0,0 10.981083,4.66696 11.667402,4.80422 0.686319,0.13726 6.451388,1.64716 6.451388,1.64716 l -3.980643,0.96085 c 0,0 -4.804224,0 -6.039598,0.13726 -1.235372,0.13727 -2.745272,-0.41179 -2.745272,0.27453 0,0.68632 -0.137263,1.64716 -0.274526,2.60801 -0.137264,0.96084 -0.137264,2.60801 -0.137264,2.60801 0,0 0.686319,0.68631 1.92169,0.96084 1.235372,0.27453 2.196217,0.41179 3.706117,0.82358 1.5099,0.41179 4.666961,1.23537 4.666961,1.23537 l 4.117907,0.68632 c 0,0 0.274526,0.54905 -0.823582,0.68632 -1.098108,0.13726 -4.666962,0 -6.725915,0.27453 -2.058953,0.27452 -3.84338,0.27452 -4.529698,0.68631 -0.686316,0.4118 -4.941488,1.09811 -5.902333,1.5099 -0.960845,0.41179 -2.196216,0.68632 -4.255169,1.23537 -2.058953,0.54906 -5.35328,1.09811 -5.35328,1.09811 0,0 -0.41179,-0.96084 -0.41179,-2.47074 0,-1.5099 0.274526,-4.11791 0.274526,-5.49054 0,-1.37264 0.549056,-3.43159 0.549056,-4.80423 0,-1.37263 0.137263,-2.74527 0.137263,-4.39243 0,-1.64717 0,-3.70612 -0.274529,-4.39244 -0.274526,-0.68631 -0.549053,-2.05895 -0.549053,-2.05895 l 0.274527,-1.64716 z"
         id="path847" />
      <path
         style="fill:#ff7f2a;stroke:#000000;stroke-width:0.865;stroke-linecap:butt;stroke-linejoin:miter;stroke-miterlimit:4;stroke-dasharray:none;stroke-opacity:1"
         d="m 59.572389,149.34276 -3.980643,0.96085 -5.605846,0.13939 h -3.10592 c 0,0 0,2.03826 -0.09706,2.23238 -0.09706,0.19412 -0.387835,3.25604 -0.387835,3.25604 l 1.406965,0.57783 6.11478,1.74708 5.775071,1.35884 c 0,0 1.941197,0.33971 2.572088,0.43677 0.630891,0.0971 3.591222,0.67942 4.07652,0.72795 0.485302,0.0485 4.950061,0.92207 5.3383,1.01913 0.388241,0.0971 3.639751,1.4559 3.83387,1.4559 0.19412,0 5.28977,1.55296 5.28977,1.55296 l 9.900121,4.02799 4.90153,1.35884 13.24869,3.59122 c 0,0 10.53101,0.4853 11.06484,0.58236 0.53383,0.0971 13.24869,1.89267 13.49134,1.84414 0.24265,-0.0485 4.90153,-0.0485 4.90153,-0.0485 l 14.60753,0.14559 c 0,0 6.55155,-0.33971 7.23097,-0.4853 0.67942,-0.14559 3.93093,-0.67942 4.853,-0.92207 0.92207,-0.24265 1.40737,-0.0485 2.66915,-0.92207 1.26178,-0.87354 1.55296,-1.65002 2.57209,-2.13532 1.01913,-0.4853 4.31917,-1.98973 4.65888,-2.18385 0.33971,-0.19412 3.20298,-1.11619 3.83387,-1.31031 0.63089,-0.19412 1.65002,-0.14559 1.98973,-0.53383 0.33971,-0.38824 1.16472,-1.69855 1.16472,-1.69855 0,0 -1.11619,-1.01913 -1.40737,-1.21325 -0.29118,-0.19412 -3.44563,-1.01913 -4.22211,-1.21325 -0.77648,-0.19412 -2.37797,-0.67942 -2.37797,-0.67942 0,0 0.92207,-0.4853 2.13532,-0.92207 1.21325,-0.43677 3.00886,-1.65002 3.73681,-1.89267 0.72795,-0.24265 1.98973,-0.4853 1.98973,-0.4853 0,0 1.79561,-0.43677 1.65002,-0.67942 -0.14559,-0.24265 -2.76621,-4.12505 -2.76621,-4.12505 0,0 -5.19271,-3.63975 -5.58095,-3.8824 -0.38824,-0.24265 -5.92066,-3.3971 -6.26037,-3.68828 -0.33971,-0.29118 -6.93979,-4.46476 -6.93979,-4.46476 0,0 -6.16331,-3.15445 -6.40596,-3.20298 -0.24265,-0.0485 -4.51329,-1.50443 -4.51329,-1.50443 l -9.31776,-2.23238 -17.90757,-1.69855 -12.03544,0.24265 -11.59867,1.60149 -16.69432,6.50302 L 67.942,147.968 Z"
         id="path849" />
      <path
         style="fill:#ccff00;stroke:#000000;stroke-width:0.865;stroke-linecap:butt;stroke-linejoin:miter;stroke-miterlimit:4;stroke-dasharray:none;stroke-opacity:1"
         d="m 78.6186,129.91481 c -0.339709,0 -1.310309,0.63089 -1.698551,1.21325 -0.388239,0.58236 -0.485298,1.9412 -0.825008,2.52356 -0.339711,0.58236 -2.232382,2.37797 -2.377971,3.00886 -0.14559,0.63089 -2.523559,3.54269 -2.717679,3.83387 -0.194122,0.29118 -3.688281,4.27064 -3.688281,4.27064 0,0 0,0.43677 0.33971,0.43677 0.339711,0 6.454491,0.43677 6.454491,0.43677 l 25.963549,-9.56038 -5.14418,-1.31034 -7.667738,-2.57209 -6.939791,-2.13532 z"
         id="path851" />
      <path
         style="fill:#ccff00;stroke:#000000;stroke-width:0.865;stroke-linecap:butt;stroke-linejoin:miter;stroke-miterlimit:4;stroke-dasharray:none;stroke-opacity:1"
         d="m 73.333061,162.62301 c 0,0 -2.951165,0.8579 -3.122744,0.89222 -0.17158,0.0343 -2.127586,0.17158 -2.127586,0.17158 0,0 0.171579,4.73559 0.137263,4.90717 -0.03432,0.17158 0.240212,0.61769 0.240212,0.61769 0,0 0.06863,0.75494 0,1.06379 -0.06863,0.30884 -0.137265,1.33832 0.06863,1.54421 0.205896,0.2059 1.75011,1.5099 1.990322,1.57853 0.24021,0.0686 0.480423,0.24021 1.304005,0.30885 0.823579,0.0686 1.372634,0.13726 2.299163,0.17158 0.926531,0.0343 1.57853,0.0686 2.367798,0.30884 0.789266,0.24021 2.299163,0.54905 2.470743,0.58337 0.17158,0.0343 0.480422,0.30884 1.406951,0.20589 0.926531,-0.10294 2.367798,-0.652 2.951168,-0.96084 0.583369,-0.30884 3.26001,-3.19138 3.32864,-3.36296 0.06863,-0.17158 1.750111,-2.77959 1.750111,-2.77959 z"
         id="path853" />
      <path
         style="fill:#d4ff2a;stroke:#000000;stroke-width:0.865;stroke-linecap:butt;stroke-linejoin:miter;stroke-miterlimit:4;stroke-dasharray:none;stroke-opacity:1"
         d="m 137.74399,176.17779 c 0,0 -3.32864,3.39727 -3.50022,3.46591 -0.17158,0.0686 -4.04927,2.23053 -4.94149,2.88253 -0.89221,0.652 -3.4659,2.19622 -4.15222,2.47075 -0.68632,0.27452 -2.88254,1.44126 -3.50022,1.54421 -0.61769,0.10295 -2.57369,0.58337 -2.74527,0.61769 -0.17158,0.0343 -1.16674,-0.61769 -1.16674,-0.61769 0,0 -1.09811,-0.2059 -1.47559,-0.27453 -0.37747,-0.0686 -0.58337,-0.24021 -0.41179,-0.54905 0.17158,-0.30884 0.27453,-0.48042 0.2059,-0.652 -0.0686,-0.17158 -0.96085,-0.34316 -1.20106,-0.61769 -0.24021,-0.27453 -0.34316,-0.34316 -0.24021,-0.61768 0.10295,-0.27453 -0.13726,-0.34316 -0.51474,-0.54906 -0.37747,-0.20589 -0.75495,-0.68632 -0.75495,-0.68632 0,0 0.13727,-0.58337 -0.0686,-0.652 -0.20589,-0.0686 -0.48042,-0.0343 -0.68632,-0.27453 -0.20589,-0.24021 -0.58337,-0.75495 -0.58337,-0.75495 0,0 -0.41179,0.27453 -0.17158,-0.13726 0.24021,-0.41179 8.27013,-4.39243 8.27013,-4.39243 l 1.26969,-1.78443 11.53014,1.57853 z"
         id="path855" />
      <path
         style="fill:#d4ff2a;stroke:#000000;stroke-width:0.865;stroke-linecap:butt;stroke-linejoin:miter;stroke-miterlimit:4;stroke-dasharray:none;stroke-opacity:1"
         d="m 141.24421,160.59838 c 0,0 -0.75495,1.20105 -0.85789,1.44126 -0.10295,0.24021 -0.24022,0.75495 -0.27453,1.13243 -0.0343,0.37747 0.10295,1.13242 0.24021,1.68148 0.13726,0.54905 0.99516,1.92169 1.02948,2.05895 0.0343,0.13726 0.89221,1.02948 0.96084,1.16674 0.0686,0.13726 0.41179,0.75495 0.24021,0.75495 -0.17158,0 -3.87769,0.41179 -4.5297,0.34316 -0.652,-0.0686 -5.31896,-0.17158 -5.97096,-0.27453 -0.652,-0.10294 -5.1817,-1.33832 -6.10823,-1.78442 -0.92653,-0.44611 -5.52486,-1.40696 -6.24549,-1.64717 -0.72063,-0.24021 -1.75011,-0.58337 -2.88254,-0.72063 -1.13242,-0.13726 -2.91685,-0.2059 -2.91685,-0.2059 0,0 0.82358,-0.652 1.95601,-1.16674 1.13242,-0.51473 0.4461,-0.58337 3.39727,-1.20105 2.95117,-0.61769 5.11307,-1.0638 7.03476,-1.68148 1.92169,-0.61769 6.62297,-1.95601 7.96129,-1.99032 1.33832,-0.0343 4.1179,0.10294 4.9758,0.37747 0.8579,0.27453 1.88738,0.89222 1.92169,1.0638 0.0343,0.17157 0.0686,0.652 0.0686,0.652 z"
         id="path857" />
      <path
         style="fill:#d4ff2a;stroke:#000000;stroke-width:0.865;stroke-linecap:butt;stroke-linejoin:miter;stroke-miterlimit:4;stroke-dasharray:none;stroke-opacity:1"
         d="m 109.24103,134.5009 -1.9412,-2.71768 c 0,0 0.75222,0.14558 0.84928,-0.0485 0.0971,-0.19412 0.67942,-0.80075 0.63089,-0.94634 -0.0485,-0.14559 -0.89781,-1.18898 -0.89781,-1.18898 l 2.014,-0.50957 c 0,0 0.26691,-0.50956 0.26691,-0.65515 0,-0.14559 -0.65516,-0.75222 -0.65516,-0.75222 0,0 1.14046,0.24265 1.33458,0.24265 0.19412,0 1.55296,-0.19412 1.86841,-0.43677 0.31544,-0.24265 0.825,-0.84927 0.75221,-1.04339 -0.0728,-0.19412 -0.63089,-0.75222 -0.63089,-0.75222 0,0 1.16472,0.29118 1.33458,0.29118 0.16985,0 1.57722,-0.26691 1.81987,-0.4853 0.24265,-0.21838 0.77648,-0.60662 0.80075,-0.72795 0.0243,-0.12132 0.0243,-0.50956 0.0243,-0.50956 l 0.87354,0.0728 1.65002,-0.0485 0.67942,-0.67942 -0.0485,-0.55809 0.65515,0.43677 c 0,0 0.21839,0.14559 0.75222,0.14559 0.53383,0 1.09192,-0.0485 1.33457,-0.16986 0.24265,-0.12132 0.63089,-0.46103 0.63089,-0.46103 l -0.29118,-0.65516 c 0,0 0.82501,0.38824 1.01913,0.53383 0.19412,0.14559 0.58236,0.24265 0.87354,0.36398 0.29118,0.12132 0.67942,0.19412 1.0434,0.21838 0.36397,0.0243 1.06766,0.14559 1.18898,0 0.12133,-0.14559 0.26692,-0.36397 0.26692,-0.36397 l 0.65515,0.58236 c 0,0 1.18899,0.46103 1.28605,0.46103 0.0971,0 1.14045,0.0728 1.35884,0 0.21838,-0.0728 0.43677,-0.29118 0.43677,-0.29118 0,0 2.15958,1.65002 2.25664,1.69855 0.0971,0.0485 2.37797,2.014 2.37797,2.014 l 1.35884,-0.12133 0.19412,-0.26691 1.5287,2.13532 c 0,0 1.28604,1.16472 1.48016,1.18898 0.19412,0.0243 1.62576,-0.19412 1.62576,-0.19412 l 3.8824,6.55155 -4.27064,-0.92204 -29.94301,-1.4559 -2.13532,0.31542 z"
         id="path859" />
      <path
         style="fill:none;stroke:#000000;stroke-width:0.865;stroke-linecap:butt;stroke-linejoin:miter;stroke-miterlimit:4;stroke-dasharray:none;stroke-opacity:1"
         d="m 173.99873,163.37796 c 0,0 -2.79674,1.56138 -3.03695,1.66432 -0.24021,0.10295 -0.60053,0.37748 -1.47559,0.46327 -0.87505,0.0858 -0.72063,0.17158 -1.78443,0.18874 -1.06379,0.0171 -2.19621,0.0515 -2.59084,-0.2059 -0.39464,-0.25737 -1.01232,-1.11527 -1.01232,-1.11527 l -0.13727,-0.27452 0.75495,1.16674 0.90937,0.39463 c 0,0 4.82139,-0.1201 4.94149,-0.1201 0.12011,0 1.30401,-0.0172 2.33348,-0.0172 1.02948,0 1.20106,0.10295 2.65948,0 1.45843,-0.10294 1.99033,-0.10294 2.09327,-0.10294 0.10295,0 3.36296,0.15442 3.36296,0.15442"
         id="path861" />
      <path
         style="fill:#ffe6d5;stroke:#000000;stroke-width:0.865;stroke-linecap:butt;stroke-linejoin:miter;stroke-miterlimit:4;stroke-dasharray:none;stroke-opacity:1"
         d="m 165.36598,149.39961 c -0.26692,0 -0.65516,-0.0728 -1.01913,0.31544 -0.36398,0.38824 -0.43677,0.58236 -0.60663,0.99487 -0.16986,0.4125 -0.29118,0.84927 -0.24265,1.09192 0.0485,0.24265 0.43677,0.94634 0.5581,1.14046 0.12132,0.19412 0.43677,0.63089 0.55809,0.67942 0.12133,0.0485 1.0434,0.65515 1.33458,0.70368 0.29118,0.0485 0.65515,0.19412 1.28604,0.16986 0.63089,-0.0243 1.50443,-0.14559 1.62576,-0.26692 0.12132,-0.12132 0.50956,-0.58236 0.75221,-0.8978 0.24265,-0.31545 0.36398,-0.5581 0.36398,-0.97061 0,-0.4125 0.0243,-0.70368 -0.12133,-1.11618 -0.14559,-0.41251 -0.43677,-0.77648 -0.63089,-1.11619 -0.19412,-0.33971 -0.99486,-1.14046 -0.99486,-1.14046 0,0 -1.14046,-0.0243 -1.4559,-0.0243 -0.31545,0 -1.38311,0.16985 -1.38311,0.16985 l -0.26691,0.26692"
         id="path863" />
      <path
         style="fill:#000000;stroke:#000000;stroke-width:0.865;stroke-linecap:butt;stroke-linejoin:miter;stroke-miterlimit:4;stroke-dasharray:none;stroke-opacity:1"
         d="m 167.93807,150.5158 c -0.29119,0 -0.75222,0.0728 -0.87354,0.38824 -0.12133,0.31544 -0.0728,1.16472 0.12132,1.18898 0.19412,0.0243 0.0485,0.0728 0.4853,0.0485 0.43677,-0.0243 0.75222,0.0243 0.92207,-0.12132 0.16986,-0.14559 0.29118,-0.16986 0.24265,-0.46104 -0.0485,-0.29118 -0.0485,-0.43677 -0.12132,-0.55809 -0.0728,-0.12133 -0.16986,-0.31545 -0.26692,-0.33971 -0.0971,-0.0243 -0.65515,-0.14559 -0.65515,-0.14559"
         id="path865" />
      <path
         style="fill:none;stroke:#000000;stroke-width:0.865;stroke-linecap:butt;stroke-linejoin:miter;stroke-miterlimit:4;stroke-dasharray:none;stroke-opacity:1"
         d="m 162.76962,150.61286 c 0,0 -0.26691,0.80074 -0.26691,1.26178 0,0.46103 -0.0485,1.16472 0.21838,1.48016 0.26692,0.31545 0.9706,0.89781 1.28605,1.11619 0.31544,0.21839 1.52869,0.92207 1.62575,0.92207 0.0971,0 1.91694,0.5581 2.01399,0.4853 0.0971,-0.0728 0.46104,-0.19412 0.46104,-0.19412"
         id="path867" />
      <path
         style="fill:none;stroke:#000000;stroke-width:0.865;stroke-linecap:butt;stroke-linejoin:miter;stroke-miterlimit:4;stroke-dasharray:none;stroke-opacity:1"
         d="m 162.69165,147.0436 c 0,0 -4.90718,-0.10295 -5.07876,-0.0686 -0.17158,0.0343 -2.47074,0.72063 -3.29432,1.304 -0.82358,0.58337 -2.91685,1.64716 -3.36296,2.3678 -0.44611,0.72063 -0.72063,1.68148 -0.652,2.47074 0.0686,0.78927 -0.2059,0.61769 0.48042,1.68148 0.68632,1.06379 1.26969,1.75011 1.30401,1.95601 0.0343,0.20589 1.37263,4.35811 1.37263,4.49538 0,0.13726 -0.24021,2.50506 -0.58337,2.98548 -0.34316,0.48042 -0.652,3.98064 -0.68632,4.18654 -0.0343,0.2059 1.33832,2.91685 1.33832,2.91685 0,0 2.64233,2.19622 2.91685,2.26485 0.27453,0.0686 1.99032,0.37747 1.99032,0.37747 l 4.04928,0.51474 4.15222,-0.78926 1.78443,-0.48043"
         id="path869" />
    </g>
  </g>
</svg>
