<?xml version="1.0" encoding="UTF-8" standalone="no"?>
<svg
   xmlns:dc="http://purl.org/dc/elements/1.1/"
   xmlns:cc="http://creativecommons.org/ns#"
   xmlns:rdf="http://www.w3.org/1999/02/22-rdf-syntax-ns#"
   xmlns:svg="http://www.w3.org/2000/svg"
   xmlns="http://www.w3.org/2000/svg"
   xmlns:sodipodi="http://sodipodi.sourceforge.net/DTD/sodipodi-0.dtd"
   xmlns:inkscape="http://www.inkscape.org/namespaces/inkscape"
   width="210mm"
   height="297mm"
   viewBox="0 0 210 297"
   version="1.1"
   id="svg8"
   inkscape:version="1.0.2 (e86c870879, 2021-01-15, custom)"
   sodipodi:docname="frog.svg">
  <defs
     id="defs2" />
  <sodipodi:namedview
     id="base"
     pagecolor="#ffffff"
     bordercolor="#666666"
     borderopacity="1.0"
     inkscape:pageopacity="0.0"
     inkscape:pageshadow="2"
     inkscape:zoom="0.48188921"
     inkscape:cx="122.31324"
     inkscape:cy="572.90969"
     inkscape:document-units="mm"
     inkscape:current-layer="layer1"
     inkscape:document-rotation="0"
     showgrid="false"
     inkscape:window-width="1920"
     inkscape:window-height="1017"
     inkscape:window-x="-8"
     inkscape:window-y="-8"
     inkscape:window-maximized="1" />
  <metadata
     id="metadata5">
    <rdf:RDF>
      <cc:Work
         rdf:about="">
        <dc:format>image/svg+xml</dc:format>
        <dc:type
           rdf:resource="http://purl.org/dc/dcmitype/StillImage" />
        <dc:title></dc:title>
      </cc:Work>
    </rdf:RDF>
  </metadata>
  <g
     inkscape:label="Layer 1"
     inkscape:groupmode="layer"
     id="layer1">
    <g
       id="g898"
       transform="matrix(0.85189075,0,0,0.89030932,-24.664217,-19.693772)">
      <path
         style="fill:#abc837;fill-opacity:0.960784;stroke:#000000;stroke-width:1.465;stroke-linecap:butt;stroke-linejoin:miter;stroke-miterlimit:4;stroke-dasharray:none;stroke-opacity:1"
         d="m 65.224321,181.59926 1.9412,-8.44422 3.785341,-5.92066 2.620618,-3.30004 c 0,0 0.679421,-0.87354 0.09706,-0.4853 -0.582359,0.38824 -0.679418,0.67942 -1.16472,0.4853 -0.485299,-0.19412 -1.552958,0 -0.485299,-1.35884 1.06766,-1.35884 3.20298,-3.49416 3.20298,-3.49416 l 3.397099,-9.80306 5.823601,-2.32944 c 0,0 4.755938,-0.58236 6.503019,0 1.747081,0.58236 3.785341,1.4559 5.24124,2.03826 1.455901,0.58236 3.10592,0.77648 4.17358,1.55296 1.06766,0.77648 3.20298,1.74708 3.68828,1.84414 0.4853,0.0971 2.13532,0.38824 2.13532,0.38824 l -8.735398,3.00886 10.288358,-3.49416 4.27064,-1.65002 c 0,0 5.24124,-1.16472 6.50302,-0.87354 1.26178,0.29118 4.27064,0.67942 5.24124,1.26178 0.9706,0.58236 5.53242,2.23238 5.53242,2.23238 0,0 2.03826,1.9412 3.30004,2.03826 1.26178,0.0971 3.00886,0.38824 4.56182,0.58236 1.55296,0.19412 24.55618,3.30004 24.94442,3.3971 0.38824,0.0971 7.47362,0.87354 7.47362,0.87354 l 13.1031,4.65888 14.559,6.7942 7.37656,6.7942 2.4265,2.23238 7.57068,0.77648 14.36488,2.71768 5.04712,2.81474 c 0,0 2.03826,3.3971 2.13532,3.78534 0.0971,0.38824 0.77648,4.75594 0.77648,4.75594 l -1.26178,9.90012 1.55296,-10.38542 6.89126,3.20298 c 0,0 3.8824,3.00886 4.17358,3.49416 0.29118,0.4853 3.3971,4.65888 3.3971,4.65888 l 2.4265,13.5884 0.9706,3.49416 2.9118,5.72654 c 0,0 1.16472,8.83246 1.16472,9.41482 0,0.58236 -0.77648,4.853 -0.9706,6.01772 -0.19412,1.16472 -0.0971,3.78534 -0.0971,4.46476 0,0.67942 0.29118,3.59122 0.29118,3.59122 0,0 -1.06766,1.35884 -1.65002,1.26178 -0.58236,-0.0971 -0.87354,-0.4853 -2.03826,-1.06766 -1.16472,-0.58236 -3.10592,-4.46476 -3.68828,-4.17358 -0.58236,0.29118 -3.8824,1.9412 -4.56182,2.23238 -0.67942,0.29118 -3.97946,5.14418 -3.97946,5.14418 l -2.13532,1.35884 c 0,0 -0.58236,0.38824 -0.77648,-0.38824 -0.19412,-0.77648 -0.19412,-2.52356 -0.19412,-3.00886 0,-0.4853 2.03826,-3.30004 2.03826,-3.30004 l 4.46476,-2.81474 c 0,0 -7.2795,1.74708 -7.95892,1.9412 -0.67942,0.19412 -2.71768,4.27064 -4.3677,3.97946 -1.65002,-0.29118 -2.81474,-0.9706 -2.81474,-0.9706 0,0 0.87354,-2.9118 1.26178,-3.10592 0.38824,-0.19412 4.65888,-1.4559 4.65888,-1.4559 l 4.46476,-1.65002 -6.40596,0.9706 c 0,0 2.03826,-1.65002 3.00886,-1.74708 0.9706,-0.0971 3.30004,-0.4853 3.30004,-0.4853 l -1.06766,-0.87354 c 0,0 -2.81474,0.87354 -0.87354,0 1.9412,-0.87354 6.11478,-2.71768 6.21184,-3.20298 0.0971,-0.4853 0,-3.8824 0,-3.8824 0,0 -11.25896,0.9706 -12.22956,0.77648 -0.9706,-0.19412 -10.48248,-5.53242 -11.1619,-6.3089 -0.67942,-0.77648 -4.3677,-8.54128 -4.3677,-8.54128 0,0 -2.52356,-4.46476 -2.71768,-4.853 -0.19412,-0.38824 -0.19412,-2.13532 -1.26178,-3.00886 -1.06766,-0.87354 -2.4265,-2.32944 -3.20298,-2.81474 -0.77648,-0.4853 -2.71768,-1.26178 -3.20298,-1.84414 -0.4853,-0.58236 -3.10592,-1.55296 -3.59122,-1.84414 -0.4853,-0.29118 -0.29118,-0.58236 -1.16472,-1.16472 -0.87354,-0.58236 -1.84414,-1.26178 -2.13532,-1.65002 -0.29118,-0.38824 -1.74708,-0.87354 -2.4265,-1.26178 -0.67942,-0.38824 -11.25896,-2.23238 -11.25896,-2.23238 l 10.38542,1.65002 c 0,0 5.14418,2.13532 5.43536,2.71768 0.29118,0.58236 4.17358,3.59122 4.17358,3.59122 0,0 4.07652,1.74708 4.75594,2.62062 0.67942,0.87354 2.62062,4.27064 3.10592,5.14418 0.4853,0.87354 2.62062,7.08538 2.62062,7.08538 l -4.27064,7.66774 c 0,0 -2.52356,6.01772 -3.00886,6.69714 -0.4853,0.67942 -10.28836,12.32662 -10.28836,12.32662 l -10.09424,9.2207 c 0,0 -7.2795,4.36769 -8.2501,4.65887 -0.9706,0.2912 -6.40596,1.55297 -7.47362,1.55297 -1.06766,0 -4.17358,1.16472 -4.17358,1.16472 0,0 -0.4853,1.4559 -0.67942,2.32945 -0.19412,0.87352 -0.38824,3.10591 -0.38824,3.10591 l -3.30004,-2.23239 c 0,0 -1.35884,-0.9706 -2.62062,-0.9706 -1.26178,0 -3.49416,0.58238 -3.97946,0.87355 -0.4853,0.29117 -3.3971,2.81474 -5.72654,3.10592 -2.32944,0.29117 -2.62062,0 -2.52356,-0.4853 0.0971,-0.4853 0.4853,-2.52357 1.16472,-3.39709 0.67942,-0.87355 5.14418,-2.91182 5.14418,-2.91182 0,0 -6.60008,3.39712 -7.47362,3.39712 -0.87354,0 -4.56182,0.097 -4.56182,-0.38825 0,-0.4853 -0.19412,-1.84415 1.65002,-2.52355 1.84414,-0.67942 5.3383,-1.16472 6.50302,-1.65002 1.16472,-0.4853 4.17358,-0.87355 2.4265,-0.97062 -1.74708,-0.0971 -4.65888,0 -5.43536,-0.6794 -0.77648,-0.67942 -3.00886,-1.35885 -0.77648,-2.03827 2.23238,-0.67942 5.92066,-0.58236 6.69714,-0.4853 0.77648,0.0971 9.12364,-2.03826 9.12364,-2.03826 0,0 6.60008,-3.8824 7.2795,-4.46476 0.67942,-0.58236 5.8236,-7.08538 5.8236,-7.08538 l 3.68828,-5.8236 6.3089,-7.66774 c 0,0 3.78534,-8.15304 3.00886,-8.15304 -0.77648,0 -13.39428,-3.20298 -13.39428,-3.20298 l -11.55014,-3.78534 25.13854,7.2795 -4.65888,10.48248 -6.3089,7.57068 c 0,0 -5.72654,-0.38824 -7.66774,-0.4853 -1.9412,-0.0971 -5.62948,-0.29118 -7.57068,-0.4853 -1.9412,-0.19412 -3.78534,-0.29118 -8.34716,-0.58236 -4.56182,-0.29118 -5.3383,-0.38824 -8.63834,-0.77648 -3.30004,-0.38824 -12.81192,-4.46476 -13.87958,-4.65888 -1.06766,-0.19412 -7.86186,-1.74708 -7.86186,-1.74708 l -5.62948,-2.9118 c 0,0 -17.08256,-12.42368 -17.66492,-13.1031 -0.58236,-0.67942 -8.250099,-12.42368 -8.250099,-12.42368 L 79.88038,196.0612 l 15.626662,15.0443 -14.170761,24.84736 -2.329442,3.00886 c 0,0 -3.10592,2.03826 -3.494159,2.81474 -0.388239,0.77648 -0.679421,2.13532 -0.679421,3.00886 0,0.87354 -0.09706,4.46476 -0.09706,4.46476 0,0 -1.455899,1.16472 -2.32944,0.58236 -0.87354,-0.58236 0.09706,-0.58236 -2.135319,-1.26178 -2.23238,-0.67942 -3.591222,-1.35884 -5.532422,-1.06766 -1.941197,0.29118 -3.591219,1.65002 -4.658878,1.9412 -1.06766,0.29118 -3.494162,0.0971 -3.494162,0.0971 l 4.173582,-2.4265 c 0,0 -3.397101,0.0971 -4.75594,0.0971 -1.35884,0 -2.13532,0.0971 -3.688281,0.87354 -1.552959,0.77648 -3.979461,2.4265 -4.658879,2.13532 -0.679421,-0.29118 -1.358842,-0.0971 -0.776481,-1.26178 0.582362,-1.16472 0.679421,-1.16472 2.717681,-2.03826 2.03826,-0.87354 6.3089,-1.74708 6.3089,-1.74708 0,0 -8.541282,1.4559 -9.12364,1.4559 -0.582362,0 -1.455902,-0.0971 -1.35884,-0.77648 0.09706,-0.67942 -0.67942,-1.4559 2.911798,-2.03826 3.591222,-0.58236 5.04712,-0.58236 8.444222,-1.4559 3.397099,-0.87354 9.12364,-3.59122 9.12364,-3.59122 l 13.200161,-41.44462 -3.591222,-5.8236 z"
         id="path863" />
      <path
         style="fill:#000000;stroke:#000000;stroke-width:1.465;stroke-linecap:butt;stroke-linejoin:miter;stroke-miterlimit:4;stroke-dasharray:none;stroke-opacity:1"
         d="m 121.90736,161.89608 c -0.4853,0.0971 -6.7942,2.13532 -6.7942,2.13532 0,0 -1.35884,1.35884 -1.4559,2.4265 -0.0971,1.06766 -1.06766,3.00886 -0.87354,4.07652 0.19412,1.06766 0.77648,2.4265 2.03826,3.78534 1.26178,1.35884 2.9118,2.62062 5.04712,3.00886 2.13532,0.38824 4.46476,1.16472 5.53242,0.77648 1.06766,-0.38824 2.4265,-0.38824 3.30004,-2.13532 0.87354,-1.74708 2.52356,-2.52356 2.52356,-4.17358 0,-1.65002 -0.38824,-4.75594 -1.06766,-6.01772 -0.67942,-1.26178 -1.55296,-2.71768 -2.13532,-3.20298 -0.58236,-0.4853 -2.03826,-1.26178 -2.62062,-1.26178 -0.58236,0 -3.49416,0.58236 -3.49416,0.58236 z"
         id="path865" />
      <path
         style="fill:none;stroke:#000000;stroke-width:1.465;stroke-linecap:butt;stroke-linejoin:miter;stroke-miterlimit:4;stroke-dasharray:none;stroke-opacity:1"
         d="m 144.71646,159.95488 c 0.4853,0.4853 2.03826,2.32944 2.71768,3.20298 0.67942,0.87354 1.84414,1.35884 2.9118,2.71768 1.06766,1.35884 2.52356,2.4265 3.30004,2.81474 0.77648,0.38824 1.55296,0.87354 2.4265,1.06766 0.87354,0.19412 1.74708,0.29118 1.74708,0.29118"
         id="path867" />
      <path
         style="fill:none;stroke:#000000;stroke-width:1.465;stroke-linecap:butt;stroke-linejoin:miter;stroke-miterlimit:4;stroke-dasharray:none;stroke-opacity:1"
         d="m 162.96374,167.62262 c 0,0 1.55296,0.38824 3.30004,0.9706 1.74708,0.58236 2.9118,1.26178 3.8824,1.55296 0.9706,0.29118 2.81474,1.74708 2.81474,1.74708 l 0.0971,0.4853"
         id="path869" />
      <path
         style="fill:none;stroke:#000000;stroke-width:1.465;stroke-linecap:butt;stroke-linejoin:miter;stroke-miterlimit:4;stroke-dasharray:none;stroke-opacity:1"
         d="m 65.224321,181.59926 c 3.688281,0.58236 8.444219,1.84414 9.90012,2.03826 1.455899,0.19412 7.764799,1.74708 9.705999,2.32944 1.9412,0.58236 6.01772,1.74708 9.31776,2.13532 3.300042,0.38824 10.09424,1.84414 10.87072,1.84414 0.77648,0 4.46476,1.35884 6.3089,1.26178 1.84414,-0.0971 3.30004,-0.0971 5.43536,-0.29118 2.13532,-0.19412 4.3677,-0.19412 5.62948,-0.38824 1.26178,-0.19412 3.30004,-0.19412 3.30004,-0.19412"
         id="path871" />
      <path
         style="fill:none;stroke:#000000;stroke-width:1.465;stroke-linecap:butt;stroke-linejoin:miter;stroke-miterlimit:4;stroke-dasharray:none;stroke-opacity:1"
         d="m 108.31896,179.85218 c 0,0 1.55296,0.38824 3.68828,0.29118 2.13532,-0.0971 4.65888,-0.38824 5.43536,-0.58236 0.77648,-0.19412 4.07652,-1.4559 4.07652,-1.4559 l 1.4559,-0.29118"
         id="path873" />
      <path
         style="fill:none;stroke:#000000;stroke-width:1.465;stroke-linecap:butt;stroke-linejoin:miter;stroke-miterlimit:4;stroke-dasharray:none;stroke-opacity:1"
         d="m 103.07772,210.52314 c 0,0 4.56182,5.92066 6.98832,8.05598 2.4265,2.13532 12.32662,9.90012 12.32662,9.90012 0,0 6.11478,2.13532 7.86186,2.52356 1.74708,0.38824 4.75594,1.35884 6.50302,1.4559 1.74708,0.0971 2.62062,0.29118 3.49416,0.0971 0.87354,-0.19412 2.13532,-0.67942 2.13532,-0.67942"
         id="path875" />
    </g>
  </g>
</svg>
