<?xml version="1.0" encoding="UTF-8" standalone="no"?>
<svg
   xmlns:dc="http://purl.org/dc/elements/1.1/"
   xmlns:cc="http://creativecommons.org/ns#"
   xmlns:rdf="http://www.w3.org/1999/02/22-rdf-syntax-ns#"
   xmlns:svg="http://www.w3.org/2000/svg"
   xmlns="http://www.w3.org/2000/svg"
   xmlns:sodipodi="http://sodipodi.sourceforge.net/DTD/sodipodi-0.dtd"
   xmlns:inkscape="http://www.inkscape.org/namespaces/inkscape"
   width="210mm"
   height="297mm"
   viewBox="0 0 210 297"
   version="1.1"
   id="svg2974"
   sodipodi:docname="golgi.svg"
   inkscape:version="1.0.2 (e86c870879, 2021-01-15, custom)">
  <sodipodi:namedview
     pagecolor="#ffffff"
     bordercolor="#666666"
     borderopacity="1"
     objecttolerance="10"
     gridtolerance="10"
     guidetolerance="10"
     inkscape:pageopacity="0"
     inkscape:pageshadow="2"
     inkscape:window-width="1920"
     inkscape:window-height="1001"
     id="namedview41"
     showgrid="false"
     inkscape:zoom="0.35709055"
     inkscape:cx="815.84676"
     inkscape:cy="805.09411"
     inkscape:window-x="-9"
     inkscape:window-y="-9"
     inkscape:window-maximized="1"
     inkscape:current-layer="svg2974" />
  <defs
     id="defs2968" />
  <metadata
     id="metadata2971">
    <rdf:RDF>
      <cc:Work
         rdf:about="">
        <dc:format>image/svg+xml</dc:format>
        <dc:type
           rdf:resource="http://purl.org/dc/dcmitype/StillImage" />
        <dc:title />
      </cc:Work>
    </rdf:RDF>
  </metadata>
  <g
     id="g946">
    <g
       id="layer1-9"
       style="opacity:0.967213"
       transform="translate(-1.5179966,-0.07502781)">
      <path
         id="path847"
         style="fill:none;stroke:#000000;stroke-width:0.433277px;stroke-linecap:butt;stroke-linejoin:miter;stroke-opacity:1"
         d="M 110.65913,61.42988 C 96.02656,66.341735 81.447302,73.054758 71.907979,85.48041 54.995325,104.5481 41.095445,126.63429 33.320774,150.80943 c -3.699379,18.10989 -9.024502,38.18621 0.735225,55.44478 5.60734,12.96853 21.324654,14.83899 33.458028,18.63892 18.93114,4.7596 41.049363,6.59189 57.523253,-5.75119 6.99091,-6.34353 29.32268,-11.17555 16.97375,-21.95592 1.86267,-8.01432 17.51529,-4.91144 12.56808,3.67204 13.66262,-3.85257 21.20757,-16.42157 26.52949,-28.33296 8.37531,-13.18258 12.85592,-28.72674 10.50672,-44.26077 0.11443,-14.53049 -6.79619,-28.17416 -15.99948,-39.112832 C 157.37924,74.464416 135.83211,58.181602 110.65913,61.42988 Z" />
      <path
         id="path847-8"
         style="fill:#ffe6d5;stroke:#000000;stroke-width:0.424217px;stroke-linecap:butt;stroke-linejoin:miter;stroke-opacity:1"
         d="M 110.81999,63.536733 C 96.464176,68.360793 82.204333,75.016735 72.883148,87.229924 56.414035,105.90137 42.996558,127.49455 35.211157,151.04511 c -3.493233,18.26369 -9.069899,38.58931 1.402998,55.74774 5.951095,12.11431 20.903878,13.50264 32.541008,17.26781 18.529469,4.72466 40.235377,6.1701 56.214477,-6.07535 6.12172,-5.90968 28.76295,-11.17361 15.99112,-20.11529 2.97562,-12.04345 15.93911,-1.35262 14.45085,1.86835 16.51875,-6.27113 21.67726,-23.99362 29.35342,-37.85978 7.48945,-15.06875 5.73558,-32.67337 2.26906,-48.5089 C 182.87788,101.0975 175.47304,89.510014 163.8832,82.582527 148.78721,71.250359 130.62828,60.868565 110.81999,63.536733 Z" />
    </g>
    <path
       id="path1614"
       style="fill:#e5ff80;stroke:#000000;stroke-width:0.765;stroke-linecap:butt;stroke-linejoin:miter;stroke-miterlimit:4;stroke-dasharray:none;stroke-opacity:1"
       d="m 67.182626,135.41416 c 5.581947,-1.66836 11.721744,-1.93168 17.193832,0.28645 6.417008,2.51925 11.205282,8.37933 12.899732,15.00478 0.45812,2.7809 2.43731,5.60365 1.6689,8.3962 -1.56517,5.45242 -3.68667,11.39013 -8.697565,14.5958 -3.784959,2.65092 -7.928008,5.13988 -12.637882,5.53971 -3.76301,0.60253 -7.541926,-0.26883 -11.200905,-1.08989 -3.827235,-2.59916 -8.452645,-4.6442 -10.644293,-8.98242 -3.342712,-4.6543 -5.757973,-10.71136 -3.997195,-16.44306 -0.07461,-5.53872 4.360173,-9.6729 8.499687,-12.69127 2.209081,-1.67612 4.499583,-3.25196 6.915689,-4.6163 z" />
    <path
       id="path1622"
       style="fill:#ccff00;stroke:#000000;stroke-width:0.264583px;stroke-linecap:butt;stroke-linejoin:miter;stroke-opacity:1"
       d="m 63.928976,144.8371 c -1.413034,1.03266 -3.001718,1.9854 -3.538288,3.78096 -1.069337,1.94915 -0.825783,4.19888 -0.06566,6.19054 0.141763,1.97212 2.252171,2.42316 3.710537,3.14803 1.646596,1.01817 3.635467,1.03805 5.439777,0.43696 2.13656,-0.96424 4.545855,-2.33139 4.983729,-4.87091 0.855411,-1.83119 0.843042,-3.94933 -0.03158,-5.76284 -0.985464,-1.75162 -2.781503,-3.01065 -4.775412,-3.30608 -1.879993,-0.4448 -3.809066,-0.23798 -5.656288,0.24971" />
    <path
       style="fill:none;stroke:#958181;stroke-width:0.264583px;stroke-linecap:butt;stroke-linejoin:miter;stroke-opacity:1"
       d="m 72.757776,136.2646 c -0.333849,0.57033 -0.746139,1.02289 -0.850448,1.7009 -0.06783,0.44089 0.01225,1.19516 0.09449,1.60639 0.379624,1.89812 1.529583,1.75314 3.307292,1.88989 0.283213,0.0218 1.537838,0.12877 1.795388,0 0.28488,-0.14244 0.274206,-0.96625 0.566965,-1.03944 0.736341,-0.18408 1.935525,0.56483 2.362351,1.13393 0.336018,0.44803 0.534604,1.59906 0.377976,2.17336 -0.137626,0.50463 -1.370526,1.55928 -1.795389,1.7009 -0.149407,0.0498 -0.31656,-0.0223 -0.472469,0 -0.263792,0.0377 -0.717174,0.28687 -0.94494,0.37797 -0.654344,0.26174 -0.944941,0.28813 -0.944941,1.03944 0,0.25198 -0.102341,0.52568 0,0.75595 0.740796,1.66679 1.372859,1.6064 3.023809,1.6064 1.826646,0 3.58086,0.13051 4.819197,-1.41741 0.441577,-0.55197 0.383199,-0.6757 0.472469,-1.32292 0.125479,-0.9097 0.506209,-1.84943 0.283483,-2.74033 -0.189947,-0.75979 -1.182677,-0.79275 -1.795386,-0.66145 -1.047038,0.22436 -3.879781,2.94044 -5.008184,2.45684 -0.12283,-0.0526 -0.177998,-0.20144 -0.283482,-0.28348 -0.17929,-0.13945 -0.386932,-0.23949 -0.566965,-0.37798 -0.806231,-0.62018 -1.612427,-1.04345 -2.456845,-1.6064 -0.148253,-0.0988 -0.23115,-0.27703 -0.377975,-0.37797 -0.691155,-0.47517 -1.594345,-1.03341 -2.362354,-1.41741 -0.307416,-0.15371 -0.296156,-0.0127 -0.566962,-0.28349 -0.190296,-0.19029 -0.218213,-0.49486 -0.283483,-0.75595 -0.299844,-1.19938 1.039434,-1.74329 1.039434,-2.07887 0,-0.0315 -0.06299,0 -0.09449,0 -0.251984,0 -0.503968,0 -0.755954,0 -1.663369,0 -0.430279,-0.084 -1.795386,0.18899 -1.137851,0.22757 -0.99477,0.42781 -1.795386,1.22842 -0.08031,0.0803 -0.220487,0.0945 -0.283482,0.18899 -0.101947,0.15292 -0.191238,0.94044 -0.0945,1.13393 0.110019,0.22004 0.280371,0.41329 0.472472,0.56697 0.04816,0.0385 1.066776,0.66145 0.377976,0.66145 -0.568807,0 -0.979483,-0.35399 -1.511906,-0.56696 -1.302568,-0.52103 -2.900175,-1.03802 -4.157737,-0.28348 -0.362646,0.21758 -1.109522,0.46934 -1.228423,0.94494 -0.0059,0.0237 -0.02553,0.55768 0,0.56696 0.572241,0.20809 1.625071,0.44418 2.267857,0.28348 0.342109,-0.0855 1.193618,-0.78218 1.41741,-0.94494 1.830327,-1.33114 3.273666,-1.54755 5.480656,-2.07887 1.879013,-0.45235 3.698923,-0.88658 5.575149,-1.32291 0.590241,-0.13727 3.901477,-1.11544 4.630208,-0.85045 0.189543,0.0689 0.307243,0.26232 0.47247,0.37798 0.150463,0.10532 0.348924,0.14758 0.472471,0.28348 0.66806,0.73487 1.216271,2.754 0.472469,3.59077 -0.403722,0.45419 -1.131228,0.65696 -1.41741,1.13393 -0.614383,1.02398 -0.08634,3.33761 0.566963,4.25223 0.468029,0.65524 1.105278,1.50661 1.795388,1.98438 0.637776,0.44154 1.803998,0.57353 2.55134,0.66146 0.411512,0.0484 0.902243,0.17098 1.322917,0.0945 0.89866,-0.16339 1.761802,-1.56187 1.889879,-2.36235 0.01397,-0.0872 0.171953,-2.46536 -0.188987,-2.64583 -1.069583,-0.5348 -3.069717,3.93775 -3.212798,4.7247 -0.174937,0.96216 0.621628,1.25881 1.228423,1.88988 0.417092,0.43377 0.785561,0.91548 1.228421,1.32292 1.121804,1.03206 1.309336,0.74237 2.456847,1.88988 0.608605,0.6086 0.926592,2.69655 1.133927,3.49628 0.213694,0.82424 0.679276,1.99433 0.188989,2.83482 -0.0052,0.009 -1.675209,2.27363 -1.984375,2.45684 -0.583697,0.3459 -1.252243,0.52409 -1.889881,0.75596 -0.09368,0.0341 -0.437412,-0.0339 -0.472469,-0.0945 -0.813464,-1.40507 -1.670497,-3.64667 -2.173365,-5.19717 -0.351864,-1.08492 -1.207751,-3.43919 -0.850444,-4.63021 0.274544,-0.91515 1.735883,-1.74027 2.645833,-1.22842 1.804487,1.01502 2.981492,3.1769 1.511903,4.91369 -0.260554,0.30793 -0.423047,0.71716 -0.755952,0.94494 -0.296394,0.2028 -0.697208,0.17459 -1.039434,0.28348 -1.008679,0.32095 -1.018799,0.40021 -1.984375,0.75595 -0.860721,0.31711 -1.232908,0.33204 -1.606399,1.22843 -0.09506,0.22814 0.157115,3.18707 0.377976,3.49628 0.09027,0.12637 0.527251,0.5495 0.755952,0.37797 0.431773,-0.32383 0.715743,-1.41576 0.850447,-1.79538 1.042773,-2.93873 2.219211,-7.26458 -1.984375,-8.31548 -0.07781,-0.0195 -1.092724,-0.18085 -1.228423,-0.0945 -0.228595,0.14548 -0.342723,0.42359 -0.472469,0.66146 -0.0909,0.16665 -0.896006,1.79482 -0.944941,2.26786 -0.169236,1.63595 0.16365,1.74998 -0.09449,3.2128 -0.08827,0.50016 -0.579557,0.84664 -0.755955,1.32292 -0.180422,0.48714 -0.213701,1.01908 -0.377975,1.5119 -0.0688,0.2064 -0.435468,0.8158 -0.661459,0.94494 -0.02336,0.0134 -0.783373,0.19989 -0.850445,0.0945 -0.472635,-0.74272 -0.569383,-1.314 -0.661458,-2.17337 -0.353372,-3.29813 0.114133,-2.94106 1.795386,-5.10268 0.331578,-0.42631 1.277329,-2.40348 0.09449,-2.55134 -2.300645,-0.28758 -2.078085,0.43811 -2.551337,2.17337 -0.482315,1.76848 -0.293987,0.32025 -0.566965,1.88988 -0.163912,0.9425 -0.153096,2.10561 -0.472472,3.02381 -0.148156,0.42595 -0.402625,0.80845 -0.566963,1.22842 -0.254875,0.65135 -0.30708,1.40725 -0.755954,1.98437 -0.783852,1.00782 -1.776867,1.77229 -2.83482,2.45685 -0.129989,0.0841 -0.678995,0.1736 -0.755951,0.18899 -0.900242,0.18005 -0.90459,0.21304 -2.267858,0.0945 -0.978768,-0.0851 -1.745895,-1.69337 -1.511906,-2.55134 0.174901,-0.64129 0.824704,-1.40454 1.41741,-1.70089 0.139253,-0.0696 0.785636,-0.27359 1.039437,-0.18899 0.644835,0.21495 1.824059,2.10331 2.078868,2.74033 0.341022,0.85255 0.02827,1.78416 0.850445,2.45685 0.154184,0.12614 0.382003,0.115 0.566965,0.18898 0.288034,0.11521 0.547614,0.31068 0.850448,0.37798 1.269629,0.28214 1.953948,0.15586 3.212796,0.18899 0.693433,0.0182 1.385583,0.0714 2.07887,0.0945 0.251844,0.008 0.503968,0 0.755952,0 0.09449,0 0.207886,0.0567 0.283483,0 0.159369,-0.11953 0.110513,-0.38386 0.188986,-0.56696 0.294963,-0.68824 0.586843,-1.73793 -0.09449,-2.26786 -1.656826,-1.28864 -2.725632,2.71337 -2.267858,3.59077 0.557324,1.06821 1.688434,1.28991 2.74033,1.41741 0.873696,0.10591 3.571057,0.13388 4.441219,0 0.08805,-0.0135 0.121941,-0.13032 0.188989,-0.18898 0.185139,-0.162 0.384932,-0.30699 0.566962,-0.47247 0.511157,-0.46469 1.023432,-0.92894 1.511906,-1.41741 0.0498,-0.0498 0.02405,-0.18899 0.09449,-0.18899 0.300197,0 0.183912,1.62694 -0.09449,1.88988 -1.9778,1.86792 -5.519885,2.76431 -8.126489,2.64583 -0.762111,-0.0346 -1.659702,-0.54637 -2.267857,-0.85045 -0.227135,-0.11356 -0.481891,-0.1984 -0.661459,-0.37797 -0.435623,-0.43563 -0.08212,-1.77713 0.188989,-2.17337 0.432499,-0.63211 1.483895,-1.59039 2.173365,-1.98437 1.600517,-0.91458 3.462459,-0.50729 3.307291,-2.83482 -0.04342,-0.65131 -0.08889,-1.41836 -0.661458,-1.88988 -1.123011,-0.92483 -4.178022,0.0498 -5.197173,0.37797 -1.081006,0.34812 -2.137148,0.7696 -3.212799,1.13393 -1.915033,0.64864 -3.453831,1.01473 -5.291666,1.88988 -0.473308,0.22539 -0.831006,0.66922 -1.322917,0.85045 -0.975087,0.35924 -3.053466,0.66966 -4.157736,0.47247 -0.292526,-0.0522 -0.612752,-0.2121 -0.755955,-0.47247 -1.192522,-2.16822 1.43011,-4.18687 0.944941,-5.48066 -0.263353,-0.70227 -0.635431,-0.95625 -1.322917,-1.32291 -0.561152,-0.29928 -1.823606,-0.54345 -2.36235,-0.0945 -0.232119,0.19344 -0.163703,0.32741 -0.283483,0.56697 -0.388316,0.77663 -0.456168,1.7557 0.377976,2.36235 0.08472,0.0616 1.3702,0.66139 1.511906,0.37798 0.254434,-0.50887 0.371136,-1.62287 0.472469,-2.07887 0.102724,-0.46225 0.357058,-1.3332 0.188989,-1.79539 -0.420894,-1.15746 -2.085787,-0.63417 -2.929316,-0.94494 -0.810212,-0.2985 -1.396362,-1.19797 -1.889881,-1.79539 -0.404969,-0.49022 -0.894901,-0.95599 -1.039434,-1.6064 -0.01799,-0.081 -0.205471,-2.52533 0,-2.45684 0.566388,0.1888 0.625726,0.21202 0.94494,0.85044 0.230381,0.46077 0.272831,2.56466 1.039434,1.6064 0.286886,-0.3586 0.546434,-0.76832 0.661459,-1.22842 0.06861,-0.27443 0.02535,-0.57391 0.09449,-0.85044 0.242141,-0.96857 -0.469313,-1.93815 -0.661458,-2.83483 -0.201928,-0.94233 0.141716,-2.59856 0.755954,-3.21279 0.321082,-0.32109 1.52985,2.35877 1.606399,2.64583 0.290362,1.08886 0.07288,2.40305 0,3.49628 -0.119806,1.79708 0.116412,2.59566 0.377976,4.25223 0.132247,0.83757 0.458518,2.67268 1.511903,3.02381 0.815716,0.2719 0.307025,-2.46633 -0.377976,-2.74033 -0.256926,-0.10277 -1.315987,0.45074 -1.41741,0.47247 -0.739407,0.15845 -1.708904,-0.0356 -2.456846,0 -0.410218,0.0195 -0.861095,0.27816 -1.228421,0.0945 -0.07969,-0.0398 -0.137208,-0.11649 -0.188989,-0.18899 -1.15696,-1.61975 -0.944941,-3.69588 -0.944941,-5.57515 0,-0.1439 0.024,-2.00299 0.283483,-1.79539 0.80269,0.64216 1.252005,2.06361 1.700892,2.92932 1.394219,2.68885 2.678194,5.11886 5.480656,6.52009 1.252424,0.62621 2.218811,0.61415 3.590774,0.66146 0.473236,0.0163 0.944621,0.0682 1.41741,0.0945 0.188698,0.0105 0.433329,0.13364 0.566965,0 0.189333,-0.18933 0.220538,-1.49092 -0.283483,-1.32291 -1.732417,0.57747 -1.744173,0.68655 -2.267857,2.36235 -0.07155,0.22896 -0.207624,0.43388 -0.283483,0.66145 -0.1241,0.37231 -0.01397,1.73312 0,1.98438 0.03046,0.54834 0.318162,0.97356 0.377976,1.5119 0.07495,0.67456 -0.518938,1.22085 -1.228421,0.94494 -2.063585,-0.8025 -2.759172,-2.41888 -3.401787,-4.34672 -0.135477,-0.40644 -0.218863,-0.83065 -0.377976,-1.22843 -0.625401,-1.5635 -0.542602,-0.63414 -0.850445,-2.17336 -0.223917,-1.11957 -0.03325,-2.39396 -0.0945,-3.49628 -0.05611,-1.01008 -0.219051,-2.48976 -0.377976,-3.49628 -0.293624,-1.85961 -1.279093,-1.70842 -2.36235,-3.02381 -0.244417,-0.29679 -0.515067,-0.58942 -0.661459,-0.94494 -0.214704,-0.52142 0.08102,-2.89564 0.283483,-3.40178 0.76645,-1.91613 0.971973,-0.70197 2.55134,-1.22842 0.359304,-0.11977 1.805128,-1.05893 1.889879,-1.22843 0.06598,-0.13196 0.252254,-0.85045 -0.09449,-0.85045 -0.923878,0 -0.705139,2.31154 -0.755952,2.36236 -0.393586,0.39358 -1.25608,0.85044 -1.795388,0.85044"
       id="path1628" />
    <path
       id="path2952"
       style="fill:#37c871;stroke:#000000;stroke-width:0.865;stroke-linecap:butt;stroke-linejoin:miter;stroke-miterlimit:4;stroke-dasharray:none;stroke-opacity:1"
       d="m 66.566881,116.35293 c -2.171482,0.64298 -11.687403,2.96057 -7.302062,5.08828 1.811442,-0.20867 7.057443,-3.22706 5.859168,0.66525 -4.319257,-0.16707 -3.988036,4.4711 0.211296,2.36034 1.766217,-2.24568 10.919343,-2.13969 6.162605,1.09374 -5.219378,1.88379 -11.236145,2.15511 -15.586129,5.87562 1.448341,2.32277 8.55662,-2.99999 7.316541,1.16423 -5.098698,1.77685 -8.387729,7.97361 -12.650716,9.3185 1.658982,-1.54387 3.763544,-7.80714 0.07307,-3.59707 -3.400493,3.13167 -4.254493,7.98873 -6.98132,11.65795 -1.876839,3.76891 -3.055336,7.94887 -2.342142,12.15653 -0.816323,2.65528 2.470295,5.85242 2.403503,1.23676 -0.137573,-2.23863 -0.0028,-5.86703 1.939543,-1.89713 0.807451,1.9262 1.558046,10.74606 3.152603,5.71375 -0.587667,-4.31756 -1.730648,-10.48565 -4.440331,-12.02757 1.357687,-2.64427 2.106759,-9.67331 5.73918,-8.85272 -1.82161,4.54403 -2.169562,9.28842 -1.333153,14.11177 0.954086,4.01574 1.195311,9.45629 5.165323,11.60154 4.497683,-3.13839 -4.054027,-8.68758 -2.442722,-13.2052 0.284579,-4.8297 -0.533659,-10.6528 3.546375,-14.1397 5.081687,-3.76817 9.550577,-9.73255 16.383283,-9.94449 5.338554,-1.66984 11.393254,-0.62228 15.734801,2.94636 5.054542,2.07983 6.85786,7.23062 9.330553,11.65364 2.73797,4.66599 2.85685,10.04444 0.98705,15.05628 -1.98884,5.0836 -5.880386,8.50216 -10.444398,11.25695 -5.21052,3.92728 -12.338535,4.2425 -18.526924,2.81779 -4.598557,0.0491 -8.26222,-6.43874 -12.33035,-5.19224 2.898524,4.7051 10.870656,7.07924 16.765092,7.64221 4.230185,1.21966 8.194448,-1.23776 12.157285,-2.38833 5.341756,-1.98819 9.706698,-5.83625 11.878055,-11.20285 1.28251,-5.88599 7.00604,-1.14253 3.88866,2.61143 -4.39608,4.95489 -10.217477,8.40476 -15.978621,11.59456 3.270427,2.2855 10.251941,-6.90066 10.473951,-1.0841 -3.799258,4.31162 -12.305537,2.09054 -15.592792,5.74688 4.452891,0.88074 9.260369,-1.37228 13.670509,-2.4467 6.355683,-1.46532 8.918803,-8.17051 11.649603,-13.26086 3.51358,3.97978 -3.2076,9.55082 -5.95753,12.71859 -4.301163,4.73065 3.46352,2.04872 4.05694,-1.18354 0.7972,-2.33401 7.06967,-7.32224 4.29248,-1.98171 -2.02849,2.09107 -2.03537,5.91846 0.98472,2.32131 4.84208,-3.41451 7.07408,-9.35854 7.78036,-15.04677 1.55459,-2.34085 -0.79189,-8.87216 -1.34241,-3.089 -0.18039,2.47828 -2.47263,11.19209 -3.56452,5.07668 1.68476,-5.61177 2.82595,-11.61365 0.56252,-17.22904 -1.29724,-4.01442 -1.72892,-9.95713 -5.25227,-12.19514 -2.88091,0.81466 1.59974,8.99192 -2.15347,5.57336 -4.56158,-6.22351 -7.84124,-14.52177 -15.6908,-17.22725 -2.247223,-2.40199 -6.780079,-1.28373 -2.298214,1.16771 3.569202,1.42754 13.051644,6.50926 7.923804,9.97132 -4.319841,-1.35399 -7.046095,-6.09358 -12.008933,-6.52927 -4.617709,-2.59487 -11.761007,0.16304 -15.34195,-2.10604 2.771241,-3.74726 8.982223,-2.54368 13.310715,-2.95634 5.2776,-3.77551 -9.799818,-1.44026 -3.969502,-5.65237 4.789657,-0.91996 8.731952,2.39654 13.102466,3.5767 1.056455,-5.46243 -8.668498,-3.60906 -12.187005,-5.26455 -2.040822,-0.79558 -10.938483,1.61586 -8.318691,-2.08677 2.092943,-0.25558 7.429255,-2.05208 2.45246,-2.83287 -1.680688,-0.0359 -3.287993,0.52358 -4.917556,0.84359 z" />
    <path
       style="fill:#ffe6d5;stroke:#000000;stroke-width:0.865;stroke-linecap:butt;stroke-linejoin:miter;stroke-miterlimit:4;stroke-dasharray:none;stroke-opacity:1"
       d="m 103.34328,155.88194 -0.24462,-6.60475 -1.51665,-2.73975 -0.24462,-1.85912 -1.85912,-2.54405 -2.73975,-0.97848 -0.68493,1.61449 1.95696,3.08222 1.56557,5.87089 0.73386,5.72412 -0.48924,3.27791 0.92956,1.46773 1.76127,-1.02741 0.44031,-2.10374 1.66342,-0.14677 0.88064,1.02741 -0.0489,2.49513 -1.51664,3.32684 0.0489,1.41879 0.92956,0.24462 0.44031,-1.66341 1.66342,-2.29944 1.02741,1.51665 -0.44032,3.71823 1.32095,-0.53817 1.71234,-6.26228 -0.24462,-6.11551 c 0,0 -1.32095,-3.37576 -1.51664,-3.71823 -0.1957,-0.34247 -2.20158,-3.27792 -2.20158,-3.27792 l -1.12526,0.97849 0.29355,3.27791 c 0,0 0.73386,1.76127 0.78278,1.95697 0.0489,0.19569 -0.44032,2.78867 -0.44032,2.78867 l -2.15266,-0.34247 z"
       id="path2954" />
    <path
       id="path2956"
       style="fill:#37c871;fill-opacity:1;stroke:#000000;stroke-width:0.765;stroke-linecap:butt;stroke-linejoin:miter;stroke-miterlimit:4;stroke-dasharray:none;stroke-opacity:1"
       d="m 93.069217,112.73089 c -1.125254,-0.29355 -2.250509,-0.58709 -3.375763,-0.88064 -0.419397,0.37752 -1.58449,0.48834 -1.525788,1.03685 0.373847,0.51445 0.334899,1.54687 1.023719,1.6661 2.604757,0.34164 5.043274,1.34709 7.547135,2.09162 1.77207,1.00472 3.53068,2.03369 5.33273,2.98436 0.15432,0.67789 0.45885,1.36919 -0.0146,1.99102 -0.24386,0.69309 -1.00516,-0.56967 -1.46797,-0.7042 -0.94204,-0.73832 -1.86811,-1.50441 -3.03811,-1.84648 -1.23286,-0.51469 -2.46572,-1.02938 -3.698577,-1.54407 -1.417964,-0.005 -1.477246,2.4484 -2.923635,1.64849 -1.491358,-0.30694 -2.945076,-0.72696 -4.311715,-1.40854 -1.736517,-0.69933 -3.395189,-1.6398 -5.27298,-1.90149 -1.244823,-0.27786 -2.489645,-0.55573 -3.734467,-0.83359 -0.479217,0.5365 -1.733405,0.77561 -1.247565,1.68788 0.582172,1.45455 3.024366,0.76513 4.341152,1.3628 3.426754,0.39812 6.586773,1.88411 9.852299,2.91393 1.348699,0.63955 3.072077,0.70257 4.170618,1.73052 1.38069,1.51711 2.81878,2.97326 4.44552,4.22905 1.45714,1.22872 2.98738,2.38237 4.1616,3.90163 0.45675,0.70125 1.27966,0.93821 1.96741,1.34655 0.63321,-1.5093 -0.2925,-3.41137 -1.17677,-4.5603 -3.03014,-1.63585 -6.20634,-3.10757 -8.83404,-5.36461 -1.074665,-0.35736 -0.577695,-1.63633 -0.11355,-2.06211 1.67123,0.85033 3.48323,1.46896 4.89959,2.73877 2.12977,1.63386 4.37425,3.13066 6.25944,5.05671 1.46158,1.40467 3.02577,2.72139 4.4234,4.18088 0.64316,0.94942 1.28631,1.89884 1.92947,2.84826 -0.30582,0.49528 -0.49408,1.48768 -0.86911,1.69029 -1.48247,-1.1624 -2.88025,-2.42043 -4.219,-3.74511 -2.71881,0.50395 0.95923,3.19211 1.40303,4.53619 1.17567,1.77364 2.32422,3.5657 3.48938,5.34648 0.22374,1.25433 1.07021,3.48919 2.46477,2.6638 0.0128,-0.73401 0.22028,-1.51399 0.11903,-2.22109 -0.66557,-1.09343 -1.33114,-2.18687 -1.99671,-3.28031 0.18151,-0.92874 0.34849,-1.88921 1.54723,-1.23304 1.61465,0.54883 2.45389,3.34998 4.09356,3.28402 1.21968,-1.78216 -0.65059,-3.43601 -1.32481,-5.02601 -0.64018,-1.19481 -1.27532,-2.39681 -2.3435,-3.26476 -3.12744,-3.08255 -6.18962,-6.23241 -9.40894,-9.22022 -0.12185,-0.5371 -1.27088,-1.36078 -0.43867,-1.6317 1.25664,-0.94522 2.88839,0.47526 3.75278,1.44143 1.36113,1.63369 2.9934,2.98414 4.61159,4.34882 0.94752,0.63525 2.2802,0.68443 1.52658,-0.7953 -0.10033,-1.16401 -0.46416,-2.18484 -1.49296,-2.80511 -1.49125,-1.27815 -2.87199,-2.70523 -4.62845,-3.62595 -3.39191,-2.04461 -6.64866,-4.32578 -10.21423,-6.06641 -1.86624,-0.97551 -3.69364,-2.01189 -5.690133,-2.70541 z" />
    <path
       style="fill:#37c871;fill-opacity:1;stroke:#000000;stroke-width:0.765;stroke-linecap:butt;stroke-linejoin:miter;stroke-miterlimit:4;stroke-dasharray:none;stroke-opacity:1"
       d="m 97.66808,128.82692 -2.984368,-2.54406 -2.054812,-0.0978 c 0,0 -0.293544,0.83171 0.04892,1.2231 0.342469,0.39139 2.78868,2.54405 2.78868,2.54405 l 3.47361,3.22899 3.42468,4.01178 c 0,0 0.97849,1.41879 1.17418,1.41879 0.1957,0 2.00589,0.0489 2.00589,-0.19569 0,-0.24462 -0.48924,-3.18007 -0.48924,-3.18007 0,0 -3.08222,-2.05481 -3.37576,-2.34835 -0.29355,-0.29355 -4.01178,-4.0607 -4.01178,-4.0607 z"
       id="path2958" />
    <path
       id="path2960"
       style="fill:#37c871;fill-opacity:1;stroke:#000000;stroke-width:0.765;stroke-linecap:butt;stroke-linejoin:miter;stroke-miterlimit:4;stroke-dasharray:none;stroke-opacity:1"
       d="m 50.847726,132.98546 c 1.586818,-1.35899 3.151561,-2.75064 4.75214,-4.08928 1.025238,-0.52864 2.050476,-1.05727 3.075714,-1.58591 0.326161,-0.55447 0.652321,-1.10895 0.978482,-1.66342 -0.29581,-0.17785 -0.493316,-0.75291 -0.863653,-0.62962 -0.867325,0.30866 -1.821178,0.42917 -2.562121,1.01264 -1.544473,0.98322 -3.111752,1.93775 -4.642055,2.9388 -1.947738,1.94767 -3.932366,3.8673 -5.85708,5.83247 -1.827773,3.28909 -3.698948,6.55487 -5.500248,9.85791 -0.185497,0.81317 -0.295292,2.20448 0.08974,2.78476 0.525322,0.073 1.050644,0.14592 1.575966,0.21888 1.123435,-2.61959 2.399515,-5.1702 3.675519,-7.71661 1.721184,-2.34864 3.486556,-4.66481 5.277593,-6.96062 z" />
    <path
       style="fill:#37c871;fill-opacity:1;stroke:#000000;stroke-width:0.765;stroke-linecap:butt;stroke-linejoin:miter;stroke-miterlimit:4;stroke-dasharray:none;stroke-opacity:1"
       d="m 40.182274,151.23415 -1.761265,2.4462 -1.272026,5.4795 -0.244621,3.32684 0.83171,1.81019 c 0,0 1.076327,0.44032 1.272024,0.24462 0.195696,-0.19569 0.342469,-3.57146 0.342469,-3.57146 0,0 0.342468,-3.32684 0.391392,-3.52253 0.04893,-0.1957 0.782786,-2.49513 0.782786,-2.49513 l 0.587089,-2.05481 -0.146772,-1.32095 z"
       id="path2962" />
    <path
       id="path3669"
       style="fill:#ff8080;stroke:#000000;stroke-width:0.565;stroke-linecap:butt;stroke-linejoin:miter;stroke-miterlimit:4;stroke-dasharray:none;stroke-opacity:1"
       d="m 49.231399,179.16071 c -1.732391,-0.44097 -3.464783,-0.88194 -5.197174,-1.32291 -0.755952,0.34648 -1.511905,0.69295 -2.267857,1.03943 0,0.75595 0,1.51191 0,2.26786 0.598463,0.53547 1.196925,1.07093 1.795388,1.6064 2.108896,0.17822 4.224859,0.61477 6.33959,0.51953 1.554891,-0.12933 3.130202,-0.46695 4.682254,-0.35195 1.82169,0.57119 3.700517,1.04913 5.445583,1.81124 2.920828,1.73424 5.841655,3.46848 8.762483,5.20272 1.822554,3.09778 3.442263,6.33222 5.601171,9.2165 0.937882,0.49984 2.37597,0.70131 3.394415,0.30568 0.875727,-0.46523 1.751454,-0.93046 2.627181,-1.39569 0.456943,-1.48761 0.230838,-3.25512 -1.437204,-3.82295 -1.271596,-1.00368 -2.762876,-1.56426 -4.319551,-1.9028 -1.769939,-0.77787 -3.606972,-1.52174 -5.046686,-2.84755 -2.196939,-1.73969 -4.351396,-3.55946 -6.574843,-5.24918 -2.820757,-0.88988 -5.67483,-1.69216 -8.474636,-2.63712 -1.776705,-0.81307 -3.553409,-1.62614 -5.330114,-2.43921 z" />
    <path
       id="path3671"
       style="fill:#ff8080;stroke:#000000;stroke-width:0.565;stroke-linecap:butt;stroke-linejoin:miter;stroke-miterlimit:4;stroke-dasharray:none;stroke-opacity:1"
       d="m 45.924107,185.39732 c -2.551339,-0.31498 -5.102678,-0.62996 -7.654017,-0.94494 -0.477944,0.91488 -2.169763,1.63206 -1.528377,2.72917 0.39269,1.97016 2.387616,1.90899 3.963812,1.87726 1.686344,0.16955 3.383383,0.13103 4.999887,-0.42121 2.069532,-0.57828 4.191673,-0.93973 6.335434,-1.05169 1.429665,-0.44469 2.824496,0.034 4.068582,0.74394 1.707573,0.78638 3.415143,1.57276 5.122714,2.35914 0.687793,1.56955 1.486666,3.10542 2.104619,4.69615 0.26282,1.65989 0.420656,3.35692 1.013686,4.94224 0.937184,1.30075 2.810001,2.25479 4.190227,1.01724 1.371218,-0.21063 2.391944,-1.214 1.795695,-2.63728 0.04521,-1.69991 -0.566003,-3.24469 -2.062246,-4.14942 -1.90788,-1.70276 -3.755395,-3.50051 -5.740317,-5.10058 -2.166279,-1.00686 -4.332559,-2.01373 -6.498838,-3.02059 -2.922476,-0.16971 -5.900364,0.0638 -8.750604,-0.73875 -0.45364,-0.0992 -0.906895,-0.20019 -1.360257,-0.30068 z" />
    <path
       style="fill:#ff8080;stroke:#000000;stroke-width:0.565;stroke-linecap:butt;stroke-linejoin:miter;stroke-miterlimit:4;stroke-dasharray:none;stroke-opacity:1"
       d="m 53.105655,190.4055 -6.709079,0.37798 -4.630208,1.6064 c 0,0 -0.850445,2.64583 -0.283483,2.92932 0.566965,0.28348 2.929316,0.94494 3.68527,0.66145 0.755952,-0.28348 3.496279,-2.55134 3.496279,-2.55134 0,0 1.606399,-1.13392 1.984375,-1.13392 0.377975,0 4.063243,0.66145 4.063243,0.66145 l -2.173362,1.51191 c 0,0 -0.755951,0.94494 -0.661458,1.41741 0.09449,0.47247 0.188986,1.13393 0.472469,1.6064 0.283482,0.47247 0.755954,1.13393 1.606399,0.85044 0.850448,-0.28348 2.55134,-2.74032 2.55134,-2.74032 l 1.322917,0.85044 0.472469,2.64584 -0.944941,2.45684 -0.09449,2.83482 1.13393,1.79539 c 0,0 3.496278,0.75595 3.779761,0.37798 0.283482,-0.37798 1.606399,-2.26786 1.606399,-2.64584 0,-0.37797 -1.700893,-3.87425 -1.795389,-4.25223 -0.09449,-0.37797 -2.456844,-5.76414 -2.456844,-5.76414 l -3.77976,-2.92931 -3.212799,-0.56697"
       id="path3673" />
    <path
       id="path3675"
       style="fill:#ff8080;stroke:#000000;stroke-width:0.565;stroke-linecap:butt;stroke-linejoin:miter;stroke-miterlimit:4;stroke-dasharray:none;stroke-opacity:1"
       d="m 47.239888,197.71263 c -0.965676,0.18137 -2.178955,0.70421 -1.90157,1.90609 0.06692,0.93873 0.56355,2.16996 1.647592,2.20946 1.118064,0.49283 1.924551,-0.32532 2.525772,-1.17559 0,-0.6459 0,-1.2918 0,-1.9377 -0.673853,-0.49061 -1.447753,-0.85638 -2.271794,-1.00226 z" />
    <path
       id="path3677"
       style="fill:#ff8080;stroke:#000000;stroke-width:0.565;stroke-linecap:butt;stroke-linejoin:miter;stroke-miterlimit:4;stroke-dasharray:none;stroke-opacity:1"
       d="m 52.05074,203.92665 c -1.732717,0.54493 -3.409288,2.11513 -2.886892,4.0891 0.594054,1.85824 3.121861,2.26878 4.70089,1.49756 1.366737,-0.7093 1.647336,-2.61295 1.26564,-3.96635 -0.602809,-1.15683 -1.929021,-1.37271 -3.079638,-1.62031 z" />
    <path
       style="fill:#ff8080;stroke:#000000;stroke-width:0.565;stroke-linecap:butt;stroke-linejoin:miter;stroke-miterlimit:4;stroke-dasharray:none;stroke-opacity:1"
       d="m 44.968099,203.25847 -0.868627,0.46773 -0.133636,1.06907 c 0,0 0.267271,1.33635 0.801809,1.46999 0.53454,0.13363 1.269532,0.60135 1.5368,0.13363 0.267269,-0.46772 0.601356,-0.80181 0.668174,-1.20271 0.06682,-0.40091 0.400905,-0.80181 0.06682,-1.1359 -0.334087,-0.33408 -1.00226,-0.66817 -1.00226,-0.66817 z"
       id="path3679" />
    <text
       xml:space="preserve"
       style="font-size:10.5833px;line-height:1.25;font-family:sans-serif;letter-spacing:0px;word-spacing:0px;stroke-width:0.264583"
       x="21.116842"
       y="57.052521"
       id="text921"><tspan
         sodipodi:role="line"
         id="tspan919"
         x="21.116842"
         y="57.052521"
         style="stroke-width:0.264583">golgi apparatus</tspan></text>
    <path
       style="fill:none;stroke:#000000;stroke-width:1.24354167;stroke-linecap:butt;stroke-linejoin:miter;stroke-opacity:1;stroke-miterlimit:4;stroke-dasharray:none"
       d="M 28.526261,61.498172 C 38.27009,184.45238 38.27009,184.45238 38.27009,184.45238"
       id="path923" />
  </g>
</svg>
