<?xml version="1.0" encoding="UTF-8" standalone="no"?>
<svg
   xmlns:dc="http://purl.org/dc/elements/1.1/"
   xmlns:cc="http://creativecommons.org/ns#"
   xmlns:rdf="http://www.w3.org/1999/02/22-rdf-syntax-ns#"
   xmlns:svg="http://www.w3.org/2000/svg"
   xmlns="http://www.w3.org/2000/svg"
   width="210mm"
   height="297mm"
   viewBox="0 0 210 297"
   version="1.1"
   id="svg8">
  <defs
     id="defs2" />
  <metadata
     id="metadata5">
    <rdf:RDF>
      <cc:Work
         rdf:about="">
        <dc:format>image/svg+xml</dc:format>
        <dc:type
           rdf:resource="http://purl.org/dc/dcmitype/StillImage" />
        <dc:title></dc:title>
      </cc:Work>
    </rdf:RDF>
  </metadata>
  <g
     id="layer1">
    <path
       style="fill:#ffcc00;stroke:#000000;stroke-width:1.21845;stroke-linecap:butt;stroke-linejoin:miter;stroke-miterlimit:4;stroke-dasharray:none;stroke-opacity:1"
       d="m 75.858816,115.83273 0.559424,7.0696 0.745894,2.79063 c 0,0 1.491796,-2.79063 2.61064,-3.53479 1.118846,-0.74418 3.356536,0.18604 3.356536,0.18604 0,0 1.118845,1.67437 1.305318,0.37208 0.186472,-1.3023 0.559422,-5.02314 1.118845,-5.7673 0.559423,-0.74418 4.84833,-4.65106 4.84833,-4.65106 l 7.458966,-1.67437 5.594231,-2.60459 3.91595,-4.8371 0.93238,3.34876 -8.391342,5.20918 -8.204867,5.58126 c 0,0 -6.526597,6.51147 -6.713071,7.44169 -0.186472,0.9302 0.745896,2.79063 1.491795,3.16271 0.745896,0.37208 3.729481,-0.74418 4.475382,-2.04646 0.745894,-1.30231 8.950761,-9.6742 8.950761,-9.6742 l 10.629032,-7.9998 4.10243,-3.53481 5.0348,-2.41854 0.18647,2.97668 c 0,0 -2.79711,1.11625 -3.54301,1.30229 -0.74589,0.18604 -4.47538,1.3023 -4.47538,1.3023 0,0 -5.78069,5.95333 -6.34012,6.88355 -0.55942,0.93021 -4.10243,5.20918 -5.22128,5.95334 -1.118843,0.74417 -5.034801,3.72084 -5.967169,4.27898 -0.932372,0.55812 -2.051216,2.23249 -0.932372,2.97667 1.118846,0.74417 12.120821,-3.72085 12.120821,-3.72085 l 10.25608,-6.51147 c 0,0 3.54301,-2.60459 3.72949,-3.34875 0.18647,-0.74418 4.2889,-8.3719 4.2889,-8.3719 l 0.18648,-5.39522 c 0,0 1.11884,3.72084 0.74589,5.02314 -0.37295,1.30229 0.93238,2.97666 0.93238,2.97666 0,0 1.30531,0.74418 0.93236,2.23252 -0.37294,1.48833 -1.11884,2.60458 -5.0348,5.39521 -3.91596,2.79063 -10.62903,7.99981 -10.62903,7.99981 0,0 3.54301,0 5.40775,0.18604 1.86474,0.18604 5.96718,-0.37208 9.88314,-0.37208 3.91596,0 6.52659,0.93022 6.52659,0.93022 0,0 -6.89954,1.30229 -10.62903,1.48833 -3.72948,0.18604 -10.44255,1.11626 -13.42614,1.48834 -2.98358,0.37208 -7.27249,0.37208 -8.57781,0.93021 -1.305318,0.55812 -3.356535,2.41854 -5.967175,2.60459 -2.610636,0.18604 -6.433358,0.18604 -6.433358,0.18604 0,0 -4.382145,7.34866 -4.475381,8.09283 -0.09324,0.74418 -1.678268,6.88356 -2.330926,8.93003 -0.652663,2.04645 -0.7459,7.16261 -0.7459,7.62773 0,0.4651 3.2633,22.32505 3.2633,22.32505 0,0 0.745894,9.3021 0.839135,9.7672 0.09324,0.46512 2.797114,11.72066 2.89035,12.18577 0.09324,0.4651 1.86474,7.81377 1.957977,8.46491 0.09324,0.65116 -0.559424,2.04647 -0.745896,2.41855 -0.186473,0.37208 -4.195672,0.4651 -5.594226,0.37208 -1.398558,-0.0931 -2.144454,0 -2.517403,-1.20927 -0.372947,-1.20928 -8.204861,-22.60412 -8.204861,-23.06922 0,-0.46511 -4.941567,-20.74369 -5.128041,-21.20881 -0.186476,-0.4651 -0.09324,-7.44167 0,-8.55793 0.09324,-1.11625 1.957978,-7.16263 1.957978,-7.16263 l 5.128038,-9.95324 -0.09324,-7.90679 c 0,0 0.09324,-3.53481 -0.652658,-3.72085 -0.745895,-0.18604 -3.170064,0.55812 -4.102431,-0.4651 -0.932373,-1.02323 -1.025609,-1.76741 -1.212085,-2.79063 -0.186474,-1.02323 -0.892631,-2.50202 -1.434332,-2.88805 -0.541698,-0.38603 -3.018044,-1.62134 -3.637127,-1.93016 -0.619084,-0.30883 -3.869283,-1.54413 -5.416997,-1.93016 -1.547714,-0.38603 -3.327585,-1.2353 -3.869288,-1.31251 -0.541698,-0.0772 -3.327583,-0.69486 -4.56575,-0.15448 -1.238173,0.54045 -3.172815,3.47429 -3.869288,3.93753 -0.69647,0.46324 -0.851241,2.08457 -2.940658,1.08089 -2.089412,-1.00368 -2.398953,-1.54413 -2.321567,-2.85664 0.07738,-1.31251 2.012026,-3.24267 2.553724,-3.6287 0.541703,-0.38603 5.417002,-0.77206 5.881314,-0.77206 0.464313,0 5.107456,0.0772 5.649159,0.30882 0.541698,0.23162 3.018037,0.77207 4.178824,1.54413 1.160786,0.77207 7.274256,2.16178 7.274256,2.16178 0,0 1.625099,0.30883 1.625099,-0.54044 0,-0.84927 0.386929,-1.77575 -0.309546,-2.3162 -0.696469,-0.54044 -1.392937,-1.00368 -4.178824,-1.93015 -2.785886,-0.92648 -4.256214,-1.1581 -6.190856,-2.16178 -1.934641,-1.00369 -2.708501,-0.23162 -2.863271,-2.00737 -0.154771,-1.77575 -1.160782,-2.54781 0.309541,-2.54781 1.470329,0 3.095428,-0.0772 4.178829,0.38603 1.083401,0.46324 3.172813,1.85296 4.3336,2.93384 1.160782,1.08089 6.345627,3.47429 6.345627,3.47429 0,0 1.160784,1.69854 0.928626,2.31619 -0.232157,0.61765 -0.386926,1.93016 -0.232157,2.62502 0.154772,0.69486 1.702486,2.31619 1.702486,2.31619 0,0 -0.464313,0.92648 0,1.31251 0.464312,0.38603 1.470328,0.61765 1.470328,0.61765 0,0 1.083401,-5.71327 0.928631,-6.48534 -0.154771,-0.77206 -0.851246,-3.01104 -1.779876,-3.78311 -0.928625,-0.77206 -1.160782,-1.54413 -2.863267,-2.93384 -1.702485,-1.38972 -2.321572,-2.3934 -2.321572,-2.3934 l -1.392944,-9.959618 c 0,0 -0.541698,-3.474292 0.851246,-3.860322 1.392942,-0.386031 3.404968,-0.463237 3.404968,-0.463237 l 0.77386,3.242668 c 0,0 -1.470329,3.242669 -1.857261,3.937519 -0.386927,0.69486 -0.154771,4.32356 -0.154771,4.32356 0,0 3.172813,2.23899 3.404968,2.54781 0.232162,0.30883 2.940658,4.94121 2.940658,4.94121 z"
       id="path847" />
  </g>
</svg>
