<?xml version="1.0" encoding="UTF-8" standalone="no"?>
<svg
   xmlns:dc="http://purl.org/dc/elements/1.1/"
   xmlns:cc="http://creativecommons.org/ns#"
   xmlns:rdf="http://www.w3.org/1999/02/22-rdf-syntax-ns#"
   xmlns:svg="http://www.w3.org/2000/svg"
   xmlns="http://www.w3.org/2000/svg"
   width="210mm"
   height="297mm"
   viewBox="0 0 210 297"
   version="1.1"
   id="svg8">
  <defs
     id="defs2" />
  <metadata
     id="metadata5">
    <rdf:RDF>
      <cc:Work
         rdf:about="">
        <dc:format>image/svg+xml</dc:format>
        <dc:type
           rdf:resource="http://purl.org/dc/dcmitype/StillImage" />
        <dc:title></dc:title>
      </cc:Work>
    </rdf:RDF>
  </metadata>
  <g
     id="layer1">
    <g
       id="g906"
       transform="translate(-132.0016,-31.059201)">
      <path
         style="fill:#b3b3b3;stroke:#000000;stroke-width:0.90009;stroke-linecap:butt;stroke-linejoin:miter;stroke-miterlimit:4;stroke-dasharray:none;stroke-opacity:1"
         d="m 309.87251,160.52974 c 2.27245,0.29868 5.66954,-0.67192 6.73722,-1.35134 1.06764,-0.67942 6.7942,-1.55296 7.7648,-1.06766 0.9706,0.4853 3.97944,2.71768 4.65887,3.78534 0.67942,1.06766 5.04713,6.21184 5.04713,6.21184 l 1.1647,1.4559 c 0,0 -1.1647,1.35884 -1.74707,1.84414 -0.58235,0.4853 -3.10592,4.07652 -4.56181,5.3383 -1.4559,1.26178 -3.203,3.8824 -5.72654,4.07652 -2.52357,0.19412 -4.17359,0.4853 -6.79421,-0.4853 -2.62062,-0.9706 -2.81474,-1.65002 -6.21183,-2.81474 -3.39712,-1.16472 -5.14419,-2.81474 -6.79421,-3.59122 -1.65002,-0.77648 -3.59122,-2.13532 -5.53241,-2.9118 -1.9412,-0.77648 -0.38825,-1.26178 -3.00887,-1.4559 -2.62062,-0.19412 -5.14419,-0.58236 -6.21184,-0.58236 -1.06767,0 -5.53241,-0.0971 -5.53241,-0.0971"
         id="path853" />
      <path
         style="fill:#808080;stroke:#000000;stroke-width:0.90009;stroke-linecap:butt;stroke-linejoin:miter;stroke-miterlimit:4;stroke-dasharray:none;stroke-opacity:1"
         d="m 331.75109,168.8844 c -2.13532,0.38824 -8.15306,-0.9706 -8.92953,-1.16472 -0.77647,-0.19412 -9.31775,-5.24124 -11.84132,-6.60008 -2.52357,-1.35884 -6.60008,-4.07652 -9.90013,-5.24124 -3.30004,-1.16472 -7.57068,-2.9118 -10.09422,-3.49416 -2.52357,-0.58236 -3.10592,-1.74708 -8.73541,-1.74708 -5.62948,0 -9.90012,0 -12.81191,0.58236 -2.9118,0.58236 -4.85302,0.9706 -12.22957,0.19412 -7.37656,-0.77648 -9.90012,-0.58236 -12.6178,-2.13532 -2.71768,-1.55296 -19.02376,-7.95892 -19.80024,-8.54128 -0.77648,-0.58236 -14.75312,-7.57068 -14.75312,-7.57068 0,0 -11.84132,-2.13532 -13.78252,-2.13532 -1.9412,0 -8.7354,0.58236 -10.48248,1.16472 -1.74708,0.58236 -9.90012,4.46476 -11.06484,4.853 -1.16472,0.38824 -6.98832,0.9706 -8.15304,0.9706 -1.16472,0 -6.98832,0.58236 -8.54128,1.16472 -1.55296,0.58236 -4.65888,1.35884 -6.40596,2.52356 -1.74708,1.16472 -2.71768,2.52356 -4.07652,3.68828 -1.35884,1.16472 -0.19412,4.65888 0.19412,5.43536 0.38824,0.77648 1.74708,5.62948 3.10592,6.60008 1.35884,0.9706 10.28836,2.71768 11.25896,3.10592 0.9706,0.38824 4.65888,2.9118 8.34716,3.68828 3.68828,0.77648 8.7354,1.16472 13.5884,1.35884 4.853,0.19412 10.09424,0.19412 14.17076,0.19412 4.07652,0 3.30004,-0.9706 6.7942,0.58236 3.49416,1.55296 3.49416,1.74708 11.06484,4.46476 7.57068,2.71768 7.95892,3.10592 13.78252,4.65888 5.8236,1.55296 17.27668,2.32944 21.54732,1.9412 4.27064,-0.38824 15.33547,-2.52356 15.33547,-2.52356 0,0 3.30004,0.9706 3.30004,0.19412 0,-0.77648 0.58238,-1.9412 1.7471,-2.71768 1.16472,-0.77648 3.10592,-0.19412 4.85299,-0.9706 1.74707,-0.77648 3.68829,-1.55296 6.40596,-2.52356 2.71769,-0.9706 7.57068,-2.52356 11.64719,-2.13532 4.07652,0.38824 23.29442,5.43536 24.0709,5.43536 0.77647,0 6.9883,-0.19412 8.15303,-0.58236 1.16472,-0.38824 4.85301,-2.71768 4.85301,-2.71768 z"
         id="path847" />
      <path
         style="fill:#b3b3b3;stroke:#000000;stroke-width:0.90009;stroke-linecap:butt;stroke-linejoin:miter;stroke-miterlimit:4;stroke-dasharray:none;stroke-opacity:1"
         d="m 269.53562,150.73418 c 0,0 -1.74707,-5.14418 -2.13532,-5.92066 -0.38823,-0.77648 -1.74707,-1.55296 -3.10592,-1.9412 -1.35884,-0.38828 -1.65002,-0.29118 -4.27064,-0.29118 -2.62062,0 -3.68828,0 -6.01772,-0.4853 -2.32944,-0.4853 -2.9118,-2.32944 -3.8824,-3.10592 -0.9706,-0.77648 -3.49416,-3.10592 -4.46476,-3.97946 -0.9706,-0.87354 -3.8824,-2.23238 -5.8236,-2.52356 -1.9412,-0.29118 -7.2795,0.87354 -8.34716,1.35884 -1.06766,0.4853 -8.78393,5.72654 -8.78393,5.72654 l 2.86327,1.21325 14.70459,6.40596 3.93093,1.74708 4.56182,1.65002 c 0,0 6.01772,0.72795 6.84273,0.72795 0.82501,0 5.28978,0.4853 5.67802,0.53383 0.38824,0.0485 4.02799,0.0485 4.02799,0.0485 l 3.63975,-0.4853 z"
         id="path849" />
      <path
         style="fill:#b3b3b3;stroke:#000000;stroke-width:0.90009;stroke-linecap:butt;stroke-linejoin:miter;stroke-miterlimit:4;stroke-dasharray:none;stroke-opacity:1"
         d="m 309.87251,160.52974 0.96083,-1.5099 c 0,0 0.48043,-1.71579 0.34317,-2.8139 -0.13727,-1.09811 -0.61767,-1.99032 -1.37263,-2.53937 -0.75497,-0.54906 -1.9217,-0.89222 -3.91203,-1.44127 -1.9903,-0.54906 -3.56883,-0.61769 -4.80422,-0.75495 -1.23537,-0.13727 -1.92167,-0.68632 -2.67663,-0.96085 -0.75494,-0.27452 -3.15706,-1.92169 -3.98063,-2.95116 -0.8236,-1.02948 -2.60803,-2.26485 -5.07876,-3.2257 -2.47076,-0.96084 -2.95116,-0.96084 -4.32382,-1.23537 -1.37263,-0.27453 -5.07873,0.82358 -5.49053,1.16674 -0.4118,0.34316 -3.50022,2.74527 -4.39242,3.70612 -0.89223,0.96084 -1.16676,1.37263 -2.19623,2.33348 l 7.65186,0.28498 6.98832,0.58236 5.62948,1.79561 7.95892,2.86327 5.19271,2.4265 z"
         id="path851" />
      <path
         style="fill:#e6e6e6;stroke:#000000;stroke-width:0.90009;stroke-linecap:butt;stroke-linejoin:miter;stroke-miterlimit:4;stroke-dasharray:none;stroke-opacity:1"
         d="m 171.92262,146.46023 c 0,0 -2.05895,0.41179 -2.12759,0.68632 -0.0686,0.27452 -0.61768,1.304 -0.61768,2.05895 0,0.75495 0,2.12758 0.75495,2.47074 0.75495,0.34316 2.33348,0.48043 2.8139,0.48043 0.48042,0 0.96085,-0.41179 1.30401,-0.75495 0.34316,-0.34316 0.68631,-1.16674 0.61768,-1.57853 -0.0686,-0.4118 -0.27452,-1.57853 -0.41179,-1.85306 -0.13726,-0.27453 -1.23537,-1.09811 -1.23537,-1.09811 z"
         id="path855" />
      <path
         style="fill:#1a1a1a;stroke:#000000;stroke-width:0.90009;stroke-linecap:butt;stroke-linejoin:miter;stroke-miterlimit:4;stroke-dasharray:none;stroke-opacity:1"
         d="m 167.03851,137.94924 c 0,0 -0.17492,-0.1432 -0.17492,-0.42962 0,-0.28642 -0.40811,-0.38189 0.29152,-0.57284 0.69963,-0.19093 0.58302,-0.28641 1.16604,-0.23867 0.58303,0.0477 1.22436,0 1.39926,0.19094 0.17491,0.19095 0.40811,0.23868 0.40811,0.47736 0,0.23868 -0.0583,0.57283 -0.0583,0.57283"
         id="path857" />
      <path
         style="fill:none;stroke:#000000;stroke-width:0.90009;stroke-linecap:butt;stroke-linejoin:miter;stroke-miterlimit:4;stroke-dasharray:none;stroke-opacity:1"
         d="m 181.46244,147.21518 c 1.15017,1.46317 0.75048,3.31218 0.34316,4.94149 -0.0474,0.18981 -0.34316,0.74245 -0.34316,0.82358"
         id="path861" />
      <path
         style="fill:none;stroke:#000000;stroke-width:0.90009;stroke-linecap:butt;stroke-linejoin:miter;stroke-miterlimit:4;stroke-dasharray:none;stroke-opacity:1"
         d="m 187.22751,148.17602 c 0.0759,0.35326 0.35245,0.67344 0.41179,1.02948 0.0658,0.39506 0.0153,0.83581 0.0686,1.23537 0.0941,0.70601 0.34116,1.99432 0,2.67664 -0.15011,0.30023 -0.41265,0.61941 -0.54905,0.89222"
         id="path863" />
      <path
         style="fill:none;stroke:#000000;stroke-width:0.90009;stroke-linecap:butt;stroke-linejoin:miter;stroke-miterlimit:4;stroke-dasharray:none;stroke-opacity:1"
         d="m 191.61994,149.54866 c 0,0.35938 -0.0129,0.31989 0.0686,0.75495 0.18292,0.97556 0.23129,2.1125 0.0686,3.08843 -0.0463,0.27785 -0.18587,0.55763 -0.27452,0.82358 -0.0551,0.16533 -0.0135,0.38373 -0.0686,0.54905 -0.0413,0.12401 -0.13727,0.20824 -0.13727,0.34316"
         id="path865" />
      <path
         style="fill:none;stroke:#000000;stroke-width:0.90009;stroke-linecap:butt;stroke-linejoin:miter;stroke-miterlimit:4;stroke-dasharray:none;stroke-opacity:1"
         d="m 196.21827,150.78403 c 0.10794,1.1816 0.44417,4.06395 -0.20589,5.14739 -0.12806,0.21342 -0.404,0.37357 -0.61769,0.48042"
         id="path867" />
      <path
         style="fill:none;stroke:#000000;stroke-width:0.90009;stroke-linecap:butt;stroke-linejoin:miter;stroke-miterlimit:4;stroke-dasharray:none;stroke-opacity:1"
         d="m 199.78712,153.11751 c 0.36103,1.1874 0.52105,2.61572 -0.20589,3.70612 -0.32787,0.4918 -0.83091,0.83091 -1.23537,1.23537"
         id="path869" />
      <path
         style="fill:none;stroke:#000000;stroke-width:0.90009;stroke-linecap:butt;stroke-linejoin:miter;stroke-miterlimit:4;stroke-dasharray:none;stroke-opacity:1"
         d="m 203.90503,155.17646 c -0.0533,0.35523 0.0704,0.74629 0,1.09811 -0.10849,0.54248 -0.40468,0.94427 -0.61768,1.44127 -0.1531,0.35722 -0.46062,1.78443 -0.96085,1.78443"
         id="path871" />
      <path
         style="fill:none;stroke:#000000;stroke-width:0.90009;stroke-linecap:butt;stroke-linejoin:miter;stroke-miterlimit:4;stroke-dasharray:none;stroke-opacity:1"
         d="m 207.13073,156.89226 c 0.0416,1.23087 0.0772,2.53084 -0.82358,3.43159"
         id="path873" />
      <path
         style="fill:#000000;stroke:#000000;stroke-width:0.90009;stroke-linecap:butt;stroke-linejoin:miter;stroke-miterlimit:4;stroke-dasharray:none;stroke-opacity:1"
         d="m 172.19715,148.45055 c -0.22199,-0.1515 -0.95786,-0.21188 -1.09811,0.0686 -0.13106,0.26212 -0.25014,1.53429 0,1.78443 0.12533,0.12533 0.51357,0.0686 0.68632,0.0686 0.14264,0 0.42482,0.0621 0.54905,0 0.4914,-0.2457 0.49455,-1.12435 0.34316,-1.57853 -0.0145,-0.0434 0.0324,-0.10491 0,-0.13726 -0.0343,-0.0343 -0.10295,-0.0343 -0.13726,-0.0686 -0.0663,-0.0663 0.10988,-0.10155 -0.0686,-0.13726 -0.0897,-0.0179 -0.18302,0 -0.27453,0 z"
         id="path875" />
      <path
         style="fill:none;stroke:#000000;stroke-width:0.90009;stroke-linecap:butt;stroke-linejoin:miter;stroke-miterlimit:4;stroke-dasharray:none;stroke-opacity:1"
         d="m 165.6085,150.44087 c 0.73902,1.11791 1.93871,1.62136 3.08843,2.19622 0.78942,0.39471 1.48378,0.72911 2.33348,0.96084 0.5656,0.15426 0.15312,0.13727 0.48042,0.13727"
         id="path877" />
      <path
         style="fill:none;stroke:#000000;stroke-width:0.90009;stroke-linecap:butt;stroke-linejoin:miter;stroke-miterlimit:4;stroke-dasharray:none;stroke-opacity:1"
         d="m 163.41228,152.0194 c 1.33229,1.04535 2.49298,2.45108 4.11791,3.0198 0.24924,0.0872 0.68631,0.11353 0.68631,0.2059"
         id="path879" />
      <path
         style="fill:none;stroke:#000000;stroke-width:0.90009;stroke-linecap:butt;stroke-linejoin:miter;stroke-miterlimit:4;stroke-dasharray:none;stroke-opacity:1"
         d="m 153.39204,141.31285 c 0.24086,1.38667 0.43718,2.45633 1.92169,2.95116 0.30384,0.10128 0.64056,0 0.96084,0"
         id="path881" />
      <path
         style="fill:none;stroke:#000000;stroke-width:0.90009;stroke-linecap:butt;stroke-linejoin:miter;stroke-miterlimit:4;stroke-dasharray:none;stroke-opacity:1"
         d="m 157.37268,140.83242 c 0.5361,1.20193 1.42922,2.66374 2.8139,3.0198 0.49196,0.1265 1.0066,0.13726 1.50991,0.2059"
         id="path883" />
      <path
         style="fill:none;stroke:#000000;stroke-width:0.90009;stroke-linecap:butt;stroke-linejoin:miter;stroke-miterlimit:4;stroke-dasharray:none;stroke-opacity:1"
         d="m 148.51918,145.36212 c 0.14379,1.80792 1.24412,3.82641 2.47075,5.14738 0.11264,0.12131 0.65488,0.75495 0.89221,0.75495"
         id="path885" />
    </g>
  </g>
</svg>
