<?xml version="1.0" encoding="UTF-8" standalone="no"?>
<svg
   xmlns:dc="http://purl.org/dc/elements/1.1/"
   xmlns:cc="http://creativecommons.org/ns#"
   xmlns:rdf="http://www.w3.org/1999/02/22-rdf-syntax-ns#"
   xmlns:svg="http://www.w3.org/2000/svg"
   xmlns="http://www.w3.org/2000/svg"
   width="210mm"
   height="297mm"
   viewBox="0 0 210 297"
   version="1.1"
   id="svg8">
  <defs
     id="defs2" />
  <metadata
     id="metadata5">
    <rdf:RDF>
      <cc:Work
         rdf:about="">
        <dc:format>image/svg+xml</dc:format>
        <dc:type
           rdf:resource="http://purl.org/dc/dcmitype/StillImage" />
        <dc:title></dc:title>
      </cc:Work>
    </rdf:RDF>
  </metadata>
  <g
     id="layer1">
    <g
       id="g873">
      <path
         id="path857"
         style="fill:#aad400;stroke:#000000;stroke-width:0.719;stroke-linecap:butt;stroke-linejoin:miter;stroke-opacity:1;stroke-miterlimit:4;stroke-dasharray:none"
         d="m 107.63954,99.777681 c -1.61184,5.766499 -7.31666,8.905859 -11.943032,12.063909 -6.493863,4.14865 -13.522887,7.49711 -19.798857,11.95022 -6.077023,7.3231 -12.386252,14.48044 -18.37761,21.85684 -0.820957,2.0877 -4.827519,7.08643 -3.87092,7.74565 5.310597,-2.00305 10.649809,-3.98069 16.045551,-5.72122 3.592168,-0.75794 7.146695,-1.8173 10.856242,-1.63532 3.352487,-0.10681 6.711247,0.44899 10.032789,0.7934 2.169684,0.89971 4.69716,1.15643 6.379237,2.93242 1.36693,-1.49028 2.97141,-3.56393 5.29129,-2.69683 2.02779,-0.13258 2.97835,2.13433 5.00777,1.20075 3.84723,-0.46519 7.68313,-1.21899 11.56773,-0.73191 4.50068,0.18651 9.00936,0.29767 13.42778,1.26073 3.72517,0.60891 7.4318,1.4435 11.23014,1.16138 3.82832,-0.3626 7.60986,-1.2708 11.42011,-1.84414 2.50624,-2.14839 -0.92375,-3.95938 -2.10626,-5.88688 -2.44155,-3.29944 -5.24818,-6.25036 -8.88,-8.24788 -7.74112,-5.16096 -15.15549,-10.83298 -23.29301,-15.36557 -5.4103,-3.56982 -11.70646,-7.45015 -13.55038,-14.08045 -0.32613,-1.59363 -0.11579,-3.27852 0.56143,-4.755099 z" />
      <path
         style="fill:#88aa00;stroke:#000000;stroke-width:0.719;stroke-linecap:butt;stroke-linejoin:miter;stroke-opacity:1;stroke-miterlimit:4;stroke-dasharray:none"
         d="m 52.99476,153.64598 3.592148,-0.42552 c 0,0 7.721073,-1.5099 8.270129,-1.78443 0.549055,-0.27453 4.495381,-1.33832 5.902332,-1.54421 1.406951,-0.2059 4.872858,-0.34316 5.93665,-0.51474 1.063794,-0.17158 4.049276,-0.27453 4.975804,-0.27453 0.926529,0 4.461066,0.24021 4.838541,0.27453 0.377476,0.0343 3.328641,0.99516 3.328641,0.99516 l 6.485705,2.29917 c 0,0 1.5099,1.78442 1.68148,1.92168 0.171577,0.13727 1.509897,1.26969 1.92169,1.26969 0.41179,0 1.57853,0.24022 2.12758,0.10295 0.54906,-0.13726 2.12759,-1.20106 2.16191,-1.33832 0.0343,-0.13726 0.99516,-1.64716 0.99516,-1.64716 0,0 -0.24022,-0.2059 0.48042,-0.54906 0.72063,-0.34315 3.19138,-1.23537 3.39727,-1.33832 0.2059,-0.10294 10.70656,-0.89221 10.70656,-0.89221 l 15.61373,1.33832 c 0,0 6.38276,0.13726 6.62297,0.13726 0.24021,0 3.60317,-0.0343 4.28949,-0.13726 0.68631,-0.10295 4.22085,-0.99516 4.22085,-0.99516 l 2.33348,-1.16674 2.03046,-1.26352 -10.6766,1.84414 h -4.95006 l -24.65324,-2.62062 -9.2207,1.16472 -1.06766,-0.9706 -3.41646,-0.72781 -1.824782,0.72781 -2.13532,2.23238 -6.600076,-3.00886 -8.055981,-0.77648 -5.726541,0.19412 -7.570679,1.65002 z"
         id="path859" />
      <path
         style="fill:#abc837;stroke:#000000;stroke-width:0.719;stroke-linecap:butt;stroke-linejoin:miter;stroke-opacity:1;stroke-miterlimit:4;stroke-dasharray:none"
         d="m 99.098258,147.5312 1.019132,-6.93979 c 0,0 -3.8824,-0.4853 -4.07652,-0.4853 -0.194119,0 -0.533828,-0.19412 -2.426499,0.0485 -1.89267,0.24265 -3.688281,0.72795 -3.8824,0.92207 -0.19412,0.19412 -1.407369,0.87354 -1.455899,1.26178 -0.04853,0.38824 -0.776481,2.08679 -0.776481,2.08679 0,0 1.747081,-3.49416 2.03826,-3.68828 0.291179,-0.19412 4.95006,-0.92207 5.14418,-1.06766 0.194119,-0.14559 0.582358,0.58236 0.679421,-0.63089 0.09706,-1.21325 0.04853,-0.29118 0,-2.71768 -0.04853,-2.4265 -2.669151,-6.40596 -3.05739,-7.18244 -0.388242,-0.77648 -1.504432,-2.03826 -1.650021,-3.44563 -0.14559,-1.40737 -0.19412,-4.22211 -0.19412,-4.22211 l 0.485299,4.70741 c 0,0 2.475032,3.63975 2.814741,3.93093 0.339709,0.29118 2.183849,3.30004 2.426499,3.93093 0.242652,0.63089 1.164719,3.44563 1.504431,3.78534 0.339709,0.33971 0.582359,0.82501 1.552959,0.58236 0.9706,-0.24265 1.65002,1.4559 1.98973,-0.77648 0.33971,-2.23238 0.33971,-7.37656 0.24265,-7.95892 -0.0971,-0.58236 -0.29118,-3.97946 -0.29118,-3.97946 l -1.650018,-9.41482 c 0,0 -0.436772,-2.03826 -0.436772,-2.57209 0,-0.53383 0.09706,-0.87354 0.09706,-0.87354 l 0.87354,-1.21325 -0.72795,2.32944 c 0,0 0.87354,2.71768 0.9706,3.00886 0.0971,0.29118 0.58236,2.32944 0.58236,2.52356 0,0.19412 -0.0485,2.18385 -0.0485,2.4265 0,0.24265 1.06766,3.05739 1.31031,2.71768 0.24265,-0.33971 0.72795,-2.03826 0.77648,-2.9118 0.0485,-0.87354 0.0485,-9.36629 0.0485,-9.706 0,-0.33971 0.14559,-2.9118 0.14559,-2.9118 l 0.72795,3.49416 2.52356,-7.7648 -1.60149,8.00745 c 0,0 -0.0485,2.81474 -0.0485,3.73681 0,0.92207 0.38824,3.49416 0.19412,4.46476 -0.19412,0.9706 -0.72795,3.15445 -0.63089,3.73681 0.0971,0.58236 0.58236,3.8824 0.67942,4.46476 0.0971,0.58236 -0.0485,1.35884 1.06766,1.31031 1.11619,-0.0485 1.26178,0.0485 3.59122,-1.16472 2.32944,-1.21325 5.09565,-2.32944 6.3089,-3.20298 1.21325,-0.87354 7.66774,-2.18385 7.66774,-2.18385 l -6.21184,1.69855 -11.25896,5.92066 c 0,0 -1.11619,0.92207 -1.31031,1.26178 -0.19412,0.33971 0.58236,15.62666 0.58236,15.62666 l -1.06766,-0.9706 -3.41646,-0.72781 z"
         id="path861" />
      <ellipse
         style="opacity:1;fill:#44aa00;stroke:#000000;stroke-width:0.719;stroke-linecap:round;stroke-linejoin:round;stroke-miterlimit:4;stroke-dasharray:none;paint-order:markers fill stroke"
         id="path863"
         cx="101.16079"
         cy="151.40146"
         rx="1.7956101"
         ry="1.8077425" />
      <path
         style="fill:none;stroke:#000000;stroke-width:0.719;stroke-linecap:butt;stroke-linejoin:miter;stroke-opacity:1;stroke-miterlimit:4;stroke-dasharray:none"
         d="m 99.473193,151.18724 c 1.021837,0.70647 2.158387,0.59555 3.362957,0 0.0709,1.32505 -0.72131,1.75026 -1.71579,1.96459 -0.98609,-0.30722 -1.664159,-0.85946 -1.647167,-1.96459 z"
         id="path865" />
    </g>
  </g>
</svg>
