<?xml version="1.0" encoding="UTF-8" standalone="no"?>
<svg
   xmlns:dc="http://purl.org/dc/elements/1.1/"
   xmlns:cc="http://creativecommons.org/ns#"
   xmlns:rdf="http://www.w3.org/1999/02/22-rdf-syntax-ns#"
   xmlns:svg="http://www.w3.org/2000/svg"
   xmlns="http://www.w3.org/2000/svg"
   xmlns:sodipodi="http://sodipodi.sourceforge.net/DTD/sodipodi-0.dtd"
   xmlns:inkscape="http://www.inkscape.org/namespaces/inkscape"
   width="400mm"
   height="400mm"
   viewBox="0 0 400 400"
   version="1.1"
   id="svg8"
   inkscape:version="1.0.2 (e86c870879, 2021-01-15, custom)"
   sodipodi:docname="ligamentandcatrilage.svg">
  <defs
     id="defs2" />
  <sodipodi:namedview
     id="base"
     pagecolor="#ffffff"
     bordercolor="#666666"
     borderopacity="1.0"
     inkscape:pageopacity="0.0"
     inkscape:pageshadow="2"
     inkscape:zoom="0.24748737"
     inkscape:cx="179.90172"
     inkscape:cy="1097.749"
     inkscape:document-units="mm"
     inkscape:current-layer="layer1"
     inkscape:document-rotation="0"
     showgrid="false"
     inkscape:window-width="1696"
     inkscape:window-height="1040"
     inkscape:window-x="104"
     inkscape:window-y="0"
     inkscape:window-maximized="0" />
  <metadata
     id="metadata5">
    <rdf:RDF>
      <cc:Work
         rdf:about="">
        <dc:format>image/svg+xml</dc:format>
        <dc:type
           rdf:resource="http://purl.org/dc/dcmitype/StillImage" />
        <dc:title></dc:title>
      </cc:Work>
    </rdf:RDF>
  </metadata>
  <g
     inkscape:label="Layer 1"
     inkscape:groupmode="layer"
     id="layer1">
    <g
       id="g936">
      <g
         id="g1071"
         transform="matrix(1.9632662,0,0,1.9645088,-7.1742171,-66.820091)">
        <g
           id="g999"
           transform="translate(9.0714285,3.7797619)">
          <path
             id="path847"
             style="fill:#f4e3d7;stroke:none;stroke-width:1.165;stroke-linecap:butt;stroke-linejoin:miter;stroke-miterlimit:4;stroke-dasharray:none;stroke-opacity:1"
             d="m 137.69375,75.512356 c -11.99312,12.776388 -19.84654,28.836084 -23.8696,45.803614 -2.45705,9.03427 -5.24286,18.11923 -11.42474,25.40623 -7.26235,8.72324 -11.130917,19.89899 -18.343279,28.35749 -8.018729,4.46192 -18.490808,14.27219 -27.627337,10.11747 0.501108,-36.32551 0.503325,-72.82413 0.809252,-109.217036 26.818568,-0.155923 53.637134,-0.311845 80.455704,-0.467768 z" />
          <path
             style="fill:#f4e3d7;stroke:#000000;stroke-width:1.465;stroke-linecap:butt;stroke-linejoin:miter;stroke-miterlimit:4;stroke-dasharray:none;stroke-opacity:1"
             d="m 118.90785,129.26603 5.57515,6.52009 10.67782,5.19717 4.91369,0.47247 c 0,0 0.18899,-2.55134 0.66146,-3.49628 0.47247,-0.94494 2.64583,-3.02381 2.64583,-3.02381 l 3.87426,1.03944 3.49628,9.35491 1.70089,10.39434 2.36236,9.73289 1.32291,3.68527 0.66146,4.25223 0.0945,10.96131 -3.59077,22.96205 -0.18899,10.48884 -28.63169,-1.22842 0.18898,-14.74107 -1.60639,-13.22917 -4.25224,-10.58333 -3.68526,-6.3311 c 0,0 -8.88245,-6.70908 -9.35491,-6.70908 -0.47248,0 -6.142123,0.18899 -7.276053,0 -1.13393,-0.18899 -10.58333,-4.25223 -10.58333,-4.25223 l -8.40997,-7.84301 -4.34673,-9.35491 0.75596,-12.09524 4.53571,-9.35491 7.9375,-8.03199 6.61458,-2.36235 6.047623,-0.18899 6.89807,1.79538 5.29166,3.68527 2.64584,4.25223 1.5119,5.57515 z"
             id="path849" />
          <path
             style="fill:none;stroke:#000000;stroke-width:0.264583px;stroke-linecap:butt;stroke-linejoin:miter;stroke-opacity:1"
             d="m 67.786567,116.55658 2.55134,3.82701 3.73251,2.45684 c 0,0 4.06325,1.93713 4.25224,1.93713 0.18898,0 3.40178,0.23624 3.40178,0.23624"
             id="path851" />
          <path
             style="fill:none;stroke:#000000;stroke-width:0.264583px;stroke-linecap:butt;stroke-linejoin:miter;stroke-opacity:1"
             d="m 64.384777,124.39958 3.44904,0.56697 5.76413,2.64583 4.53572,2.31511 1.6064,1.22842"
             id="path853" />
          <path
             style="fill:#de8787;stroke:#000000;stroke-width:0.264583px;stroke-linecap:butt;stroke-linejoin:miter;stroke-opacity:1"
             d="m 124.81487,93.61115 2.33861,12.22758 6.61492,14.09847 7.48355,10.28988 6.00411,5.74803 -3.87426,-1.03944 -2.59757,2.84177 -0.70972,3.67832 -4.91369,-0.47247 -1.79333,-0.86724 c 0,0 -0.33408,-3.54132 -0.4009,-4.34313 -0.0668,-0.80181 -2.20497,-5.61266 -2.27179,-6.01357 -0.0668,-0.4009 -5.27857,-10.82441 -5.27857,-10.82441 l -5.14494,-10.28988 -2.07134,-1.1359 c 0,0 1.25094,-4.39863 1.25094,-4.39863 z"
             id="path855" />
          <path
             id="path859"
             style="fill:#ffeeaa;stroke:#000000;stroke-width:0.264583px;stroke-linecap:butt;stroke-linejoin:miter;stroke-opacity:1"
             d="m 116.82898,112.11536 c 3.35158,3.87664 8.16195,7.02267 9.13656,12.37399 1.64999,5.69899 -5.47035,8.71572 -7.58401,2.90853 -2.12523,-3.3197 -3.34925,-7.10525 -5.29694,-10.52308 -4.09059,-3.46782 -9.35839,-5.5432 -14.748643,-5.2904 -4.82989,0.0466 -10.01021,1.69274 -13.05807,5.61305 -3.28106,2.8685 -5.94167,6.20475 -7.47346,10.31462 -2.64951,3.92078 -2.03469,8.70035 -2.47436,13.1864 -0.65343,4.31339 2.5563,7.88587 4.01631,11.75053 3.10573,3.15046 6.23216,6.83775 10.17033,8.95842 3.90954,2.33264 10.732063,2.35243 11.901423,7.48234 0.65148,4.99338 -5.542313,6.4963 -9.086003,4.34051 -5.18983,-3.21359 -9.7366,-7.59854 -14.42835,-11.58067 -3.70723,-3.4031 -6.59302,-7.47419 -8.40063,-12.16654 -1.42779,-4.09188 -1.42977,-8.55727 -1.87911,-12.84187 0.36176,-6.37118 1.18201,-12.85747 4.13924,-18.62019 3.65937,-3.69471 6.20269,-8.80416 11.22893,-10.81847 4.45098,-2.73722 9.07532,-4.89254 14.3483,-5.3091 5.294163,-1.26685 11.115243,0.70665 14.386703,5.06972 1.68668,1.7311 3.38433,3.45161 5.10178,5.15221 z" />
          <path
             style="fill:#ffcc00;stroke:#000000;stroke-width:0.264583px;stroke-linecap:butt;stroke-linejoin:miter;stroke-opacity:1"
             d="m 116.59274,119.62764 1.72452,3.63802 1.51191,3.14192 c 0,0 1.25204,1.27567 1.46465,1.2993 0.21261,0.0236 1.13393,0.16536 1.46466,0.0236 0.33073,-0.14174 1.29929,-1.15755 1.34654,-1.29929 0.0472,-0.14174 -0.23624,-3.07106 -0.28348,-3.23642 -0.0472,-0.16537 -5.19717,-5.2208 -5.36254,-5.31529 -0.16536,-0.0945 -2.64583,-2.57496 -2.64583,-2.57496 l -4.89007,-6.14212 c 0,0 -5.36254,-3.02381 -5.45703,-3.09468 -0.0945,-0.0709 -4.11049,-1.08668 -4.11049,-1.08668 l -3.661653,0.0709 c 0,0 -8.15011,2.36235 -8.31547,2.4096 -0.16537,0.0473 -5.31529,2.52771 -5.48066,2.57496 -0.16536,0.0473 -3.1183,2.95294 -3.1183,2.95294 l -6.96894,8.59896 -0.51971,0.54334 -2.4096,9.11868 c 0,0 -0.68508,3.21279 -0.66146,3.42541 0.0236,0.21261 0.30711,6.3311 0.30711,6.3311 l 1.06305,4.84282 2.07887,8.07924 2.24424,2.26785 4.58296,5.36254 6.85082,4.29948 2.19698,1.58278 c 0,0 2.8112,2.22061 2.88207,2.36235 0.0709,0.14174 1.72452,1.44103 1.72452,1.44103 0,0 1.5119,0.33073 1.70089,0.37798 0.18899,0.0472 2.33873,-0.0945 2.48047,-0.23624 0.14174,-0.14174 0.66146,-0.85044 0.73233,-1.01581 0.0709,-0.16536 0.28348,-0.66146 0.16536,-1.22842 -0.11811,-0.56696 -0.3071,-1.01581 -0.89769,-1.46466 -0.59059,-0.44885 -1.08668,-0.68508 -1.93713,-0.8032 -0.85045,-0.11812 -3.44903,-0.75595 -4.016,-1.01581 -0.56696,-0.25986 -5.81138,-3.00019 -5.81138,-3.00019 0,0 -6.7327,-5.31528 -7.27604,-5.9295 -0.54334,-0.61421 -2.07887,-2.52771 -2.31511,-2.81119 -0.23623,-0.28349 -3.30729,-8.88245 -3.37816,-9.00056 -0.0709,-0.11812 -0.66146,-7.44141 -0.66146,-7.44141 l 0.59059,-7.60677 3.14193,-8.03199 5.00818,-5.88226 8.52809,-5.76414 c 0,0 4.016,-1.2048 4.20499,-1.29929 0.18898,-0.0945 4.3231,-0.85045 4.81919,-0.85045 0.49609,0 4.795573,0.0236 4.795573,0.0236 l 2.62222,0.75595 6.40197,5.43341 3.5199,4.58296 z"
             id="path861" />
          <path
             style="fill:#de8787;stroke:none;stroke-width:0.264583px;stroke-linecap:butt;stroke-linejoin:miter;stroke-opacity:1"
             d="m 64.172167,123.83262 c 0,0 0.75595,-4.03962 0.8032,-4.15774 0.0473,-0.11811 2.3151,-3.14192 2.3151,-3.14192 l 2.85108,3.94713 2.4973,1.63703 1.22777,0.84357 2.40542,1.11919 1.98782,0.86027 3.46458,0.0736 -1.98437,6.14216 -2.70692,-2.04348 -4.68662,-2.19288 -4.39325,-2.12145 -3.842,-0.6097 z"
             id="path857"
             sodipodi:nodetypes="ccccccccccccccc" />
          <path
             style="fill:none;stroke:#000000;stroke-width:0.264583px;stroke-linecap:butt;stroke-linejoin:miter;stroke-opacity:1"
             d="m 71.995727,125.91735 c 3.80859,1.33635 3.80859,1.33635 3.80859,1.33635"
             id="path881" />
          <path
             style="fill:none;stroke:#000000;stroke-width:0.264583px;stroke-linecap:butt;stroke-linejoin:miter;stroke-opacity:1"
             d="m 67.786567,116.55658 c 2.55134,3.82701 2.55134,3.82701 2.55134,3.82701 l 3.73251,2.45684 4.18944,2.09972 3.46458,0.0736"
             id="path883" />
          <path
             style="fill:none;stroke:#000000;stroke-width:0.264583px;stroke-linecap:butt;stroke-linejoin:miter;stroke-opacity:1"
             d="m 68.944117,125.53351 8.08903,3.57892"
             id="path885" />
          <path
             style="opacity:0.96129;fill:#000000;stroke:none;stroke-width:0.564999;stroke-linecap:round;stroke-linejoin:round;paint-order:markers fill stroke"
             id="path889"
             d="m 66.890037,117.90461 c 0.0166,0.0259 0.0307,0.0536 0.0498,0.0778 0.0684,0.0867 0.17527,0.18902 0.25398,0.25971 0.18614,0.16715 0.38704,0.31656 0.58606,0.46769 0.0621,0.0479 0.12472,0.095 0.18617,0.14368 0.20328,0.16103 0.38936,0.345 0.60076,0.4956 0.034,0.0242 0.0702,0.0453 0.10527,0.0679 0.009,0.009 0.1342,-0.11496 0.12544,-0.12383 v 0 c -0.28296,-0.24882 -0.54691,-0.51934 -0.8457,-0.74997 -0.3092,-0.23972 -0.62116,-0.47591 -0.94521,-0.6954 -0.004,-0.008 -0.12055,0.0486 -0.11653,0.0569 z" />
          <path
             style="opacity:0.96129;fill:#000000;stroke:none;stroke-width:0.564999;stroke-linecap:round;stroke-linejoin:round;paint-order:markers fill stroke"
             id="path891"
             d="m 66.013287,119.38568 c 0.0237,0.0259 0.046,0.053 0.071,0.0776 0.20549,0.20237 0.43436,0.37906 0.6643,0.55225 0.2893,0.21789 0.36598,0.26914 0.6628,0.47985 0.40946,0.28466 0.82801,0.55696 1.26078,0.80499 0.1938,0.11107 0.39144,0.21633 0.5879,0.32253 0.24457,0.12035 0.339,0.17347 0.58857,0.2714 0.078,0.0306 0.15818,0.0553 0.23727,0.083 0.014,0.009 0.14405,-0.18937 0.13001,-0.19856 v 0 c -0.2609,-0.12555 -0.52243,-0.24979 -0.78267,-0.37671 -0.0973,-0.0518 -0.19559,-0.10186 -0.29198,-0.15537 -0.52514,-0.29152 -1.02008,-0.6326 -1.5081,-0.98168 -0.49317,-0.3437 -0.98869,-0.68724 -1.52082,-0.96892 -0.006,-0.007 -0.10536,0.0827 -0.099,0.0897 z" />
          <path
             style="opacity:0.96129;fill:#000000;stroke:none;stroke-width:0.564999;stroke-linecap:round;stroke-linejoin:round;paint-order:markers fill stroke"
             id="path893"
             d="m 65.437287,121.17061 c 0.0452,0.0239 0.0894,0.05 0.13574,0.0717 0.1389,0.0653 0.59205,0.2552 0.68109,0.28872 0.16719,0.0629 0.33759,0.117 0.50669,0.17458 0.61439,0.20919 0.45508,0.15515 1.07039,0.34772 0.66904,0.21722 1.36242,0.3384 2.04852,0.48574 0.38423,0.0825 0.37735,0.0842 0.73171,0.17514 0.13273,0.0463 0.27825,0.0692 0.40294,0.1377 0.006,0.009 0.1352,-0.0701 0.12959,-0.0792 v 0 c -0.0155,-0.0298 -0.0239,-0.0645 -0.0465,-0.0893 -0.088,-0.0966 -0.2397,-0.15973 -0.34694,-0.21654 -0.10698,-0.0413 -0.21221,-0.0874 -0.32093,-0.1238 -0.27555,-0.0923 -0.57566,-0.16336 -0.85698,-0.2318 -0.57439,-0.13974 -0.42582,-0.095 -1.0108,-0.25019 -0.18037,-0.0478 -0.35999,-0.0985 -0.53998,-0.14774 -0.5301,-0.17251 -1.05955,-0.35218 -1.6017,-0.48422 -0.15373,-0.0374 -0.30946,-0.0662 -0.4644,-0.0983 -0.27466,-0.0569 -0.22624,-0.047 -0.44706,-0.0844 -0.009,-0.005 -0.0801,0.11908 -0.0713,0.12413 z" />
          <path
             style="opacity:0.96129;fill:#000000;stroke:none;stroke-width:0.564999;stroke-linecap:round;stroke-linejoin:round;paint-order:markers fill stroke"
             id="path895"
             d="m 65.499217,123.31267 c 0.0644,0.0101 0.12868,0.0213 0.19325,0.0304 0.2194,0.0309 0.40777,0.0488 0.63377,0.0731 0.49983,0.0537 0.99975,0.10645 1.49943,0.16155 0.52401,0.0619 1.05247,0.11304 1.56384,0.24924 0.21288,0.0567 0.35648,0.10902 0.56514,0.17949 0.4162,0.15371 0.83714,0.29407 1.26544,0.41001 0.0115,0.007 0.11606,-0.1557 0.10453,-0.16309 v 0 c -0.0455,-0.0246 -0.0899,-0.0513 -0.13651,-0.0738 -0.35238,-0.16982 -0.72802,-0.28699 -1.1009,-0.40161 -0.2929,-0.0995 -0.58433,-0.205 -0.88154,-0.29122 -0.27968,-0.0811 -0.48094,-0.13129 -0.77216,-0.18443 -0.16018,-0.0292 -0.32171,-0.0505 -0.48256,-0.0758 -0.1741,-0.0188 -0.34793,-0.0403 -0.5223,-0.0564 -0.59048,-0.0547 -1.1962,-0.0872 -1.78804,-0.0291 -0.0598,0.006 -0.11844,0.0202 -0.17766,0.0304 -0.01,0.003 0.0263,0.14383 0.0363,0.14127 z" />
          <path
             style="opacity:0.96129;fill:#000000;stroke:none;stroke-width:0.564999;stroke-linecap:round;stroke-linejoin:round;paint-order:markers fill stroke"
             id="path897"
             d="m 74.293557,124.74986 c 0.0226,0.008 0.0447,0.0174 0.0679,0.0235 0.0918,0.0241 0.37392,0.0841 0.44456,0.0995 0.34261,0.0747 0.68553,0.14309 1.03035,0.20693 0.33753,0.0645 0.67703,0.12021 1.01352,0.19015 0.3135,0.0652 0.62432,0.14488 0.93581,0.21878 0.35557,0.0763 0.70668,0.17193 1.06079,0.25429 0.3313,0.077 0.6649,0.14377 0.99953,0.20436 0.0693,0.009 0.13868,0.0175 0.20802,0.0262 0.0139,0.007 0.10592,-0.19041 0.092,-0.19692 v 0 c -0.063,-0.021 -0.12603,-0.042 -0.18905,-0.063 -0.32397,-0.0927 -0.64953,-0.17671 -0.97844,-0.25043 -0.41171,-0.0923 -0.34374,-0.0699 -0.74399,-0.15411 -0.11011,-0.0231 -0.21979,-0.0483 -0.32968,-0.0725 -0.14422,-0.0322 -0.48984,-0.10912 -0.63557,-0.14282 -0.43785,-0.10123 -0.87287,-0.21604 -1.31669,-0.2896 -0.29357,-0.05 -0.43105,-0.0751 -0.72432,-0.11839 -0.32017,-0.0472 -0.64462,-0.0934 -0.96902,-0.0694 -0.009,0.002 0.0248,0.13602 0.0343,0.13359 z" />
          <path
             style="opacity:0.96129;fill:#000000;stroke:none;stroke-width:0.564999;stroke-linecap:round;stroke-linejoin:round;paint-order:markers fill stroke"
             id="path899"
             d="m 76.558707,126.28856 c 0.0407,0.0155 0.0809,0.0324 0.12205,0.0466 0.31012,0.10706 0.62782,0.194 0.94369,0.2818 0.15076,0.0419 0.30183,0.0826 0.45275,0.12396 0.16015,0.0448 0.3203,0.0896 0.48045,0.13445 0.41702,0.11407 0.83364,0.22938 1.24803,0.35267 0.0895,0.0266 0.17951,0.0514 0.26804,0.0809 0.16175,0.054 0.19717,0.0742 0.34034,0.13991 0.10889,0.061 0.0639,0.0317 0.13783,0.0834 0.006,0.009 0.12826,-0.0796 0.12202,-0.0882 v 0 c -0.068,-0.0995 -0.0254,-0.0485 -0.13486,-0.14676 -0.0456,-0.0317 -0.0896,-0.066 -0.13691,-0.0952 -0.51421,-0.31794 -1.10543,-0.48174 -1.68002,-0.6506 -0.34054,-0.0862 -0.61524,-0.16018 -0.95849,-0.22987 -0.14143,-0.0287 -0.2839,-0.0521 -0.42625,-0.0758 -0.18038,-0.03 -0.39748,-0.0638 -0.58391,-0.0781 -0.0456,-0.003 -0.0915,-0.002 -0.13728,-0.003 -0.009,-0.004 -0.0662,0.11962 -0.0575,0.12368 z" />
          <path
             style="opacity:0.96129;fill:#000000;stroke:none;stroke-width:0.564999;stroke-linecap:round;stroke-linejoin:round;paint-order:markers fill stroke"
             id="path901"
             d="m 76.859897,127.39045 c 0.44182,0.31297 0.94223,0.53154 1.43113,0.7587 0.31202,0.14615 0.63927,0.25648 0.94401,0.41824 0.0794,0.0421 0.17388,0.0946 0.23922,0.16123 0.0164,0.0167 0.0266,0.0384 0.0399,0.0576 0.011,0.0186 0.0118,0.0634 -0.0195,0.0493 -0.008,0.005 0.064,0.11566 0.0719,0.11058 v 0 c 0.0146,-0.008 0.0311,-0.0141 0.0438,-0.0251 0.0604,-0.0527 0.0635,-0.12479 0.0517,-0.1988 -0.0142,-0.0328 -0.0244,-0.0677 -0.0427,-0.0984 -0.10318,-0.17308 -0.28095,-0.29605 -0.44724,-0.40042 -0.26352,-0.16539 -0.39317,-0.21789 -0.68396,-0.35987 -0.14487,-0.062 -0.2883,-0.12754 -0.43462,-0.18608 -0.36422,-0.14571 -0.74071,-0.25339 -1.10952,-0.38565 -0.007,-0.006 -0.091,0.0928 -0.0841,0.0987 z" />
          <path
             style="opacity:0.96129;fill:#000000;stroke:none;stroke-width:0.564999;stroke-linecap:round;stroke-linejoin:round;paint-order:markers fill stroke"
             id="path905"
             d="m 123.89349,98.82428 c 0.0118,0.17334 0.0173,0.34723 0.0353,0.52003 0.0928,0.88869 0.26387,1.76635 0.42985,2.64342 0.18208,0.96212 0.1627,0.85461 0.34935,1.80276 0.0718,0.30674 0.13489,0.61563 0.21529,0.92023 0.21861,0.82818 0.30728,1.00899 0.56977,1.81491 0.31542,0.96846 0.61822,1.9413 0.92985,2.91101 0.32478,0.9408 0.17009,0.51195 0.45858,1.28854 0.005,0.0209 0.30106,-0.0526 0.29586,-0.0736 v 0 c -0.18428,-0.80693 -0.075,-0.36511 -0.33854,-1.32278 -0.24745,-0.82028 -0.32979,-1.11592 -0.60659,-1.9386 -0.10969,-0.32598 -0.23046,-0.64816 -0.34058,-0.974 -0.29897,-0.88457 -0.58306,-1.77693 -0.78337,-2.68979 -0.274,-1.47795 -0.52544,-2.96382 -0.88891,-4.42329 -0.042,-0.16853 -0.0917,-0.33504 -0.13756,-0.50256 -0.002,-0.0133 -0.19001,0.0104 -0.18833,0.0237 z" />
          <path
             style="opacity:0.96129;fill:#000000;stroke:none;stroke-width:0.564999;stroke-linecap:round;stroke-linejoin:round;paint-order:markers fill stroke"
             id="path907"
             d="m 122.05644,103.46272 c 0.15497,0.66189 0.37838,1.30781 0.6167,1.94394 0.005,0.0166 0.24021,-0.0504 0.23547,-0.0671 v 0 c -0.20142,-0.64608 -0.42426,-1.28445 -0.69127,-1.90674 -0.002,-0.0114 -0.16301,0.0185 -0.1609,0.0299 z" />
          <path
             style="opacity:0.96129;fill:#000000;stroke:none;stroke-width:0.564999;stroke-linecap:round;stroke-linejoin:round;paint-order:markers fill stroke"
             id="path909"
             d="m 121.48422,104.61617 c 0.32491,0.50155 0.69506,0.97277 1.07185,1.43607 0.0413,0.0503 0.0826,0.10065 0.12385,0.15098 0.007,0.0122 0.17986,-0.0868 0.17286,-0.099 v 0 c -0.0347,-0.0563 -0.0694,-0.1126 -0.10412,-0.16891 -0.34671,-0.4894 -0.71943,-0.95988 -1.12252,-1.4043 -0.006,-0.01 -0.14794,0.0751 -0.14192,0.0852 z" />
          <path
             style="opacity:0.96129;fill:#000000;stroke:none;stroke-width:0.564999;stroke-linecap:round;stroke-linejoin:round;paint-order:markers fill stroke"
             id="path911"
             d="m 121.06132,105.29899 c 0.52721,0.97843 1.18364,1.88033 1.85828,2.76086 0.0123,0.0205 0.30225,-0.15405 0.28991,-0.17455 v 0 c -0.65958,-0.89243 -1.30782,-1.79365 -1.99467,-2.66547 -0.006,-0.0109 -0.15912,0.0683 -0.15352,0.0792 z" />
          <path
             style="opacity:0.96129;fill:#000000;stroke:none;stroke-width:0.564999;stroke-linecap:round;stroke-linejoin:round;paint-order:markers fill stroke"
             id="path913"
             d="m 129.02793,116.91455 c 0.47645,0.71386 0.90771,1.4551 1.33517,2.19887 0.72672,1.26449 0.46633,0.80695 1.20337,2.13959 0.70263,1.32273 1.5049,2.58771 2.37812,3.80374 0.56831,0.79143 1.08531,1.46588 1.71593,2.20517 0.26606,0.31191 0.54726,0.61059 0.82089,0.91588 0.58209,0.59769 0.81443,0.85574 1.40626,1.39663 0.15646,0.14299 0.32113,0.27672 0.48169,0.41508 0.0143,0.0179 0.26806,-0.18485 0.25372,-0.20279 v 0 c -0.579,-0.6287 -1.15799,-1.25743 -1.7313,-1.89133 -0.26038,-0.30656 -0.52719,-0.60776 -0.78113,-0.91967 -0.50808,-0.62407 -1.20556,-1.54334 -1.66271,-2.19553 -0.28125,-0.40125 -0.54732,-0.81293 -0.81822,-1.22122 -1.01472,-1.52931 -0.68032,-1.01052 -1.59218,-2.52499 -0.36292,-0.61808 -0.87969,-1.51545 -1.27549,-2.125 -0.47516,-0.73177 -0.9966,-1.43424 -1.57382,-2.08868 -0.007,-0.0113 -0.16697,0.0829 -0.1603,0.0943 z" />
          <path
             style="opacity:0.96129;fill:#000000;stroke:none;stroke-width:0.564999;stroke-linecap:round;stroke-linejoin:round;paint-order:markers fill stroke"
             id="path915"
             d="m 129.3418,122.68442 c 0.62975,1.10772 1.28344,2.20147 1.91872,3.30597 0.46132,0.81152 0.24861,0.42572 0.64133,1.15565 0.008,0.0205 0.29917,-0.0961 0.29092,-0.11671 v 0 c -0.33919,-0.76896 -0.14801,-0.36674 -0.58231,-1.20247 -0.13873,-0.24294 -0.27343,-0.48823 -0.4162,-0.72881 -0.29559,-0.49809 -0.55584,-0.90079 -0.87718,-1.37983 -0.21579,-0.32171 -0.41261,-0.60949 -0.64886,-0.91155 -0.0577,-0.0738 -0.12077,-0.14314 -0.18116,-0.2147 -0.007,-0.0103 -0.15179,0.0822 -0.14526,0.0925 z" />
          <path
             style="opacity:0.96129;fill:#000000;stroke:none;stroke-width:0.564999;stroke-linecap:round;stroke-linejoin:round;paint-order:markers fill stroke"
             id="path917"
             d="m 131.67434,125.66717 c 0.38981,0.80077 0.78254,1.60006 1.15959,2.40701 0.27449,0.58528 0.14704,0.3105 0.38316,0.82395 0.006,0.0173 0.25002,-0.0648 0.24422,-0.082 v 0 c -0.19146,-0.53936 -0.0817,-0.25392 -0.33605,-0.85372 -0.38047,-0.81815 -0.77341,-1.64165 -1.31103,-2.37055 -0.005,-0.01 -0.14521,0.0654 -0.13989,0.0753 z" />
          <path
             style="opacity:0.96129;fill:#000000;stroke:none;stroke-width:0.564999;stroke-linecap:round;stroke-linejoin:round;paint-order:markers fill stroke"
             id="path919"
             d="m 133.66645,127.52063 c 0.25517,0.44647 0.5276,0.88336 0.78117,1.33068 0.17461,0.30805 0.51071,0.94181 0.67505,1.24933 0.0102,0.023 0.3351,-0.12096 0.32492,-0.14393 v 0 c -0.11785,-0.2147 -0.23063,-0.43227 -0.35355,-0.6441 -0.3798,-0.65447 -0.79984,-1.29285 -1.28692,-1.87271 -0.006,-0.01 -0.14638,0.0708 -0.14067,0.0807 z" />
          <path
             style="opacity:0.96129;fill:#000000;stroke:none;stroke-width:0.564999;stroke-linecap:round;stroke-linejoin:round;paint-order:markers fill stroke"
             id="path921"
             d="m 134.49968,134.57073 c 0.19961,0.88356 0.41043,1.7658 0.66458,2.63552 0.0645,0.2207 0.13594,0.43932 0.20391,0.65897 0.15697,0.47682 0.32328,0.95451 0.59391,1.38088 0.0966,0.15227 0.23326,0.32985 0.37335,0.44974 0.0576,0.0493 0.12479,0.0859 0.18718,0.12887 0.0581,0.0203 0.1162,0.0406 0.17431,0.061 0.0115,0.007 0.1073,-0.15611 0.0958,-0.16288 v 0 c -0.0436,-0.0149 -0.0871,-0.0298 -0.13069,-0.0447 -0.0512,-0.0357 -0.10771,-0.0646 -0.15347,-0.10695 -0.11559,-0.10697 -0.23842,-0.29439 -0.31022,-0.42611 -0.23267,-0.42679 -0.36408,-0.89768 -0.49733,-1.36199 -0.31174,-1.0982 -0.60264,-2.20931 -1.04245,-3.26484 -0.004,-0.0112 -0.16258,0.0413 -0.15886,0.0526 z" />
          <path
             style="opacity:0.96129;fill:#000000;stroke:none;stroke-width:0.564999;stroke-linecap:round;stroke-linejoin:round;paint-order:markers fill stroke"
             id="path923"
             d="m 139.04425,139.22822 c -0.0958,-0.34969 -0.20602,-0.6937 -0.26361,-1.05246 0.002,-0.0256 -0.009,-0.0564 0.007,-0.0767 0.0124,-0.016 0.0601,0.0255 0.10147,0.0446 0.0555,0.0258 0.1141,0.0447 0.16889,0.0719 0.16746,0.0832 0.22395,0.12834 0.37838,0.23196 0.0108,0.0101 0.15394,-0.14207 0.14318,-0.15219 v 0 c -0.19235,-0.13368 -0.76489,-0.54104 -0.9609,-0.21726 -0.0204,0.0337 -0.0147,0.0775 -0.022,0.11629 0.0314,0.37322 0.13956,0.73027 0.28646,1.07416 0.003,0.0114 0.16444,-0.029 0.16159,-0.0404 z" />
          <path
             style="opacity:0.96129;fill:#000000;stroke:none;stroke-width:0.564999;stroke-linecap:round;stroke-linejoin:round;paint-order:markers fill stroke"
             id="path925"
             d="m 137.66522,132.82259 c 0.0347,0.096 0.0644,0.194 0.10403,0.28812 0.28851,0.68588 0.69431,1.42029 1.22288,1.94854 0.15859,0.15849 0.34068,0.29156 0.51102,0.43734 0.76293,0.46969 0.37667,0.27118 1.15373,0.60526 0.0185,0.0126 0.19732,-0.24816 0.17888,-0.26081 v 0 c -0.72234,-0.32921 -0.35924,-0.1423 -1.08594,-0.5672 -0.16286,-0.13282 -0.33699,-0.25291 -0.48857,-0.39847 -0.62094,-0.59631 -0.97456,-1.39414 -1.43716,-2.10536 -0.004,-0.0112 -0.16258,0.0413 -0.15887,0.0526 z" />
          <path
             style="opacity:0.96129;fill:#000000;stroke:none;stroke-width:0.564999;stroke-linecap:round;stroke-linejoin:round;paint-order:markers fill stroke"
             id="path927"
             d="m 139.83347,132.837 c 0.42735,0.5743 1.01188,1.011 1.62433,1.37181 0.14366,0.0846 0.29353,0.15827 0.44029,0.23741 0.26927,0.10922 0.41477,0.19166 0.69538,0.22871 0.0704,0.009 0.14203,-0.002 0.21305,-0.003 0.0134,0.004 0.0659,-0.18568 0.0525,-0.1894 v 0 c -0.0538,-0.004 -0.10878,8e-5 -0.16147,-0.0116 -0.24676,-0.0545 -0.38409,-0.13749 -0.62082,-0.2476 -0.74721,-0.42466 -1.4869,-0.87875 -2.1037,-1.48406 -0.007,-0.01 -0.1465,0.0878 -0.1396,0.0976 z" />
          <path
             style="opacity:0.96129;fill:#000000;stroke:none;stroke-width:0.564999;stroke-linecap:round;stroke-linejoin:round;paint-order:markers fill stroke"
             id="path929"
             d="m 140.80075,132.33983 c 0.47249,0.66175 1.11606,1.17773 1.74896,1.67804 0.41733,0.32323 0.86158,0.61242 1.36958,0.76948 0.23386,0.0723 0.36884,0.0888 0.60565,0.13036 0.33558,0.0311 0.17817,0.0234 0.47194,0.0281 0.0135,0.004 0.0719,-0.18677 0.0584,-0.19089 v 0 c -0.27454,-0.0261 -0.12734,-0.0114 -0.44152,-0.0449 -0.182,-0.0349 -0.39357,-0.0706 -0.57046,-0.12544 -0.48325,-0.14972 -0.89608,-0.44843 -1.28424,-0.76398 -0.62477,-0.49779 -1.24332,-1.00542 -1.81761,-1.56143 -0.006,-0.01 -0.14638,0.0708 -0.14067,0.0807 z" />
          <path
             style="fill:none;stroke:#000000;stroke-width:0.965;stroke-linecap:butt;stroke-linejoin:miter;stroke-miterlimit:4;stroke-dasharray:none;stroke-opacity:1"
             d="m 137.69375,75.512355 -9.5892,11.694144 -3.28968,6.404649 -5.36398,9.499382 -2.89248,8.15621"
             id="path931" />
          <path
             id="path933"
             style="fill:none;stroke:#000000;stroke-width:0.965;stroke-linecap:butt;stroke-linejoin:miter;stroke-miterlimit:4;stroke-dasharray:none;stroke-opacity:1"
             d="m 56.536396,186.84059 c 12.04436,-1.07584 23.909208,-6.82543 31.261642,-16.5899" />
        </g>
        <text
           xml:space="preserve"
           style="font-size:10.5833px;line-height:1.25;font-family:sans-serif;letter-spacing:0px;word-spacing:0px;stroke-width:0.264583"
           x="39.486431"
           y="49.658405"
           id="text1003"><tspan
             sodipodi:role="line"
             id="tspan1001"
             x="39.486431"
             y="49.658405"
             style="stroke-width:0.264583">Ball and socket joint at the hip</tspan></text>
        <path
           style="fill:none;stroke:#ef0000;stroke-width:0.965;stroke-linecap:butt;stroke-linejoin:miter;stroke-miterlimit:4;stroke-dasharray:none;stroke-opacity:1"
           d="m 124.74541,84.136176 53.45391,-0.534537 -1.60362,99.156991 h -20.04521"
           id="path1005" />
        <text
           xml:space="preserve"
           style="font-size:7.05556px;line-height:1.25;font-family:sans-serif;letter-spacing:0px;word-spacing:0px;stroke-width:0.264583"
           x="185.41559"
           y="81.463486"
           id="text1009"><tspan
             sodipodi:role="line"
             id="tspan1007"
             x="185.41559"
             y="81.463486"
             style="font-size:7.05556px;stroke-width:0.264583">Bone</tspan></text>
        <path
           style="fill:none;stroke:#dd0000;stroke-width:0.965;stroke-linecap:butt;stroke-linejoin:miter;stroke-miterlimit:4;stroke-dasharray:none;stroke-opacity:1"
           d="m 74.570675,127.09244 -25.729811,0.0741"
           id="path1011" />
        <path
           style="fill:none;stroke:#eb0000;stroke-width:0.965;stroke-linecap:butt;stroke-linejoin:miter;stroke-miterlimit:4;stroke-dasharray:none;stroke-opacity:1"
           d="m 143.57113,138.3506 -94.997535,-0.35961 0.267269,-10.82445 -6.949009,-0.1336"
           id="path1013" />
        <text
           xml:space="preserve"
           style="font-size:10.5833px;line-height:1.25;font-family:sans-serif;letter-spacing:0px;word-spacing:0px;stroke-width:0.264583"
           x="6.8035703"
           y="128.5119"
           id="text1017"><tspan
             sodipodi:role="line"
             id="tspan1015"
             x="6.8035703"
             y="128.5119"
             style="font-size:7.05556px;stroke-width:0.264583">ligament</tspan></text>
        <path
           style="fill:none;stroke:#e90000;stroke-width:0.765;stroke-linecap:butt;stroke-linejoin:miter;stroke-miterlimit:4;stroke-dasharray:none;stroke-opacity:1"
           d="m 86.178571,154.40327 0.188987,51.59375"
           id="path1019" />
        <text
           xml:space="preserve"
           style="font-size:7.05556px;line-height:1.25;font-family:sans-serif;letter-spacing:0px;word-spacing:0px;stroke-width:0.264583"
           x="72.382446"
           y="212.7061"
           id="text1023"><tspan
             sodipodi:role="line"
             id="tspan1021"
             x="72.382446"
             y="212.7061"
             style="font-size:7.05556px;stroke-width:0.264583">cartilage</tspan></text>
      </g>
      <text
         xml:space="preserve"
         style="font-size:10.5833px;line-height:1.25;font-family:sans-serif;letter-spacing:0px;word-spacing:0px;stroke-width:0.264583"
         x="71.059525"
         y="387.04758"
         id="text879"><tspan
           sodipodi:role="line"
           id="tspan877"
           x="71.059525"
           y="387.04758"
           style="stroke-width:0.264583"><tspan
             style="font-style:italic;font-variant:normal;font-weight:normal;font-stretch:normal;font-family:sans-serif;-inkscape-font-specification:'sans-serif Italic'"
             id="tspan883">l</tspan><tspan
             style="font-style:italic;font-variant:normal;font-weight:normal;font-stretch:normal;font-family:sans-serif;-inkscape-font-specification:'sans-serif Italic'"
             id="tspan881">igament and cartilage in the human hip joint</tspan></tspan></text>
    </g>
  </g>
</svg>
