<?xml version="1.0" encoding="UTF-8" standalone="no"?>
<svg
   xmlns:dc="http://purl.org/dc/elements/1.1/"
   xmlns:cc="http://creativecommons.org/ns#"
   xmlns:rdf="http://www.w3.org/1999/02/22-rdf-syntax-ns#"
   xmlns:svg="http://www.w3.org/2000/svg"
   xmlns="http://www.w3.org/2000/svg"
   width="210mm"
   height="297mm"
   viewBox="0 0 210 297"
   version="1.1"
   id="svg8">
  <defs
     id="defs2" />
  <metadata
     id="metadata5">
    <rdf:RDF>
      <cc:Work
         rdf:about="">
        <dc:format>image/svg+xml</dc:format>
        <dc:type
           rdf:resource="http://purl.org/dc/dcmitype/StillImage" />
        <dc:title></dc:title>
      </cc:Work>
    </rdf:RDF>
  </metadata>
  <g
     id="layer1">
    <g
       id="g915"
       transform="translate(-16.471628,12.079194)">
      <path
         style="fill:#bcd35f;stroke:#000000;stroke-width:0.565;stroke-linecap:butt;stroke-linejoin:miter;stroke-miterlimit:4;stroke-dasharray:none;stroke-opacity:1"
         d="m 169.95206,96.283519 c -0.29118,0.582362 -3.59122,3.008861 -4.853,3.202983 -1.26178,0.194119 -12.03544,2.232378 -12.90898,2.717678 -0.87354,0.4853 -1.16472,0.9706 -3.00886,1.74708 -1.84414,0.77648 -11.55014,3.00886 -12.81192,3.68828 -1.26178,0.67942 -4.17358,1.84414 -4.65888,2.13532 -0.4853,0.29118 0.77648,1.35884 -3.97946,1.4559 -4.75594,0.0971 -11.25896,0.38824 -11.25896,0.38824 l -14.36488,2.71768 -9.12364,2.4265 c 0,0 -6.21184,2.71768 -7.08538,3.10592 -0.87354,0.38824 -5.435359,2.71768 -5.823598,2.81474 -0.388242,0.0971 -6.697141,4.46476 -6.697141,4.46476 l -2.911801,5.43536 -0.194119,3.78534 2.620618,3.20298 c 0,0 3.00886,1.74708 4.07652,1.9412 1.067663,0.19412 7.08538,1.26178 8.541282,1.35884 1.455899,0.0971 10.38542,1.4559 10.38542,1.4559 l 14.850179,-0.19412 c 0,0 12.22956,-1.55296 12.90898,-1.55296 0.67942,0 11.06484,-1.65002 11.93838,-1.9412 0.87354,-0.29118 8.05598,-2.13532 8.63834,-2.32944 0.58236,-0.19412 5.24124,-2.32944 5.24124,-2.32944 l 1.74708,-0.9706 c 0,0 -1.26178,0.19412 -4.853,0.9706 -3.59122,0.77648 -8.54128,1.74708 -11.45308,2.32944 -2.9118,0.58236 -5.3383,1.06766 -9.51188,1.74708 -4.17358,0.67942 -17.76198,1.4559 -18.73258,1.4559 -0.9706,0 -18.82964,-0.9706 -20.67378,-1.26178 -1.844138,-0.29118 -11.938379,-3.8824 -11.938379,-3.8824 v -2.23238 c 0,0 0.873538,-1.9412 2.32944,-2.52356 1.455899,-0.58236 10.09424,-4.65888 10.09424,-4.65888 0,0 8.735399,-2.62062 12.617799,-3.20298 3.8824,-0.58236 20.47966,-1.74708 20.47966,-1.74708 l 7.47362,-0.38824 10.48248,0.29118 c 0,0 5.72654,0.4853 7.7648,0 2.03826,-0.4853 6.7942,-1.55296 8.92952,-2.03826 2.13532,-0.4853 11.25896,-1.9412 11.25896,-1.9412 l 7.66774,-2.32944 3.97946,-3.10592 2.9118,-6.69714 5.8236,-6.211838 3.00886,-5.435362 0.29118,-0.679419 3.97946,-2.232382 3.8824,-4.561818 -0.23016,-1.125062 -0.10294,-0.171579 c 0,0 0.30884,0.03432 0.30884,-0.274527 0,-0.308843 -0.10295,-1.853059 -0.13726,-1.990323 -0.0343,-0.137263 -1.92169,-1.304004 -2.09327,-1.338318 -0.17158,-0.03432 -1.30401,-0.514738 -1.61285,-0.652002 -0.30884,-0.137263 -2.81391,-1.201057 -3.08843,-1.269687 -0.27453,-0.06863 -1.44127,-0.240213 -1.44127,-0.240213 0,0 -1.304,-0.24021 -1.47558,-0.24021 -0.17158,0 -1.20106,0 -1.33832,0.137263 -0.13727,0.137263 -0.58337,0.583369 -0.58337,0.583369 h -1.54422 c 0,0 -0.99516,0.102947 -1.26969,0.34316 -0.27452,0.24021 -1.13242,0.960845 -1.64716,1.5099 -0.51474,0.549053 -4.70128,6.073913 -4.70128,6.073913 l -4.04927,5.696436 z"
         id="path861" />
      <path
         style="fill:none;stroke:#000000;stroke-width:0.565;stroke-linecap:butt;stroke-linejoin:miter;stroke-miterlimit:4;stroke-dasharray:none;stroke-opacity:1"
         d="m 180.81044,83.868042 1.21821,-1.372637 c 0,0 1.21822,-0.343159 1.42411,-0.343159 0.2059,0 0.77211,-0.05147 1.08095,-0.01717 0.30885,0.03432 0.68632,0.08579 0.92653,0.240213 0.24021,0.154421 0.63484,0.446106 0.73779,0.566211 0.10295,0.120107 0.46327,0.566213 0.46327,0.566213"
         id="path863" />
      <path
         style="fill:none;stroke:#000000;stroke-width:0.565;stroke-linecap:butt;stroke-linejoin:miter;stroke-miterlimit:4;stroke-dasharray:none;stroke-opacity:1"
         d="m 180.70749,85.309309 c 0.22305,-0.188737 0.37747,-0.01717 0.60053,-0.377475 0.22305,-0.360318 0.652,-0.669161 0.77211,-0.789266 0.1201,-0.120105 0.54905,-0.446106 0.87505,-0.514739 0.326,-0.06863 1.23537,-0.223054 1.49274,-0.223054 0.25737,0 0.80642,0.102949 0.978,0.291687 0.17158,0.188736 0.48043,0.34316 0.61769,0.566211 0.13726,0.223055 0.25737,0.531897 0.25737,0.531897 0,0 -0.87506,0.789266 -1.04664,1.01232 -0.17157,0.223052 -0.18873,0.583369 -0.70347,0.720632 -0.51474,0.137264 -0.70348,0.137264 -1.01232,0.137264 -0.30884,0 -0.72063,-0.154422 -1.08095,-0.34316 -0.36032,-0.188737 -0.61769,-0.49758 -0.70348,-0.634843 -0.0858,-0.137264 -0.63484,-0.549053 -0.63484,-0.549053"
         id="path865" />
      <path
         style="fill:none;stroke:#000000;stroke-width:0.565;stroke-linecap:butt;stroke-linejoin:miter;stroke-miterlimit:4;stroke-dasharray:none;stroke-opacity:1"
         d="m 179.91822,86.544681 c 0,0 0.78927,0.411789 0.89222,0.514739 0.10294,0.102946 0.30884,0.205893 0.75495,0.49758 0.4461,0.291685 0.90937,0.566211 0.978,0.566211 0.0686,0 0.89221,-0.137263 0.89221,-0.137263"
         id="path867" />
      <path
         style="fill:none;stroke:#000000;stroke-width:0.565;stroke-linecap:butt;stroke-linejoin:miter;stroke-miterlimit:4;stroke-dasharray:none;stroke-opacity:1"
         d="m 187.53635,85.909837 c 0,0 -0.0515,0.549053 -0.84074,0.943687 -0.78926,0.394634 -0.87505,0.463264 -1.23537,0.617685 -0.36032,0.154422 -0.66916,0.257371 -0.66916,0.257371"
         id="path869" />
      <path
         style="fill:#ffffff;stroke:#000000;stroke-width:0.565;stroke-linecap:butt;stroke-linejoin:miter;stroke-miterlimit:4;stroke-dasharray:none;stroke-opacity:1"
         d="m 183.21255,83.885198 c -0.0686,0.01714 -0.60053,0.274529 -0.652,0.566213 -0.0515,0.291685 -0.0172,0.806424 0.10294,1.063792 0.12011,0.257371 0.46327,0.634844 0.58338,0.652002 0.1201,0.01714 0.326,0.08579 0.58337,0.06863 0.25736,-0.01714 0.89221,-0.240213 1.02947,-0.394634 0.13727,-0.154421 0.34316,-0.806424 0.36032,-0.892212 0.0171,-0.08579 -0.37747,-0.789265 -0.37747,-0.789265 0,0 -0.27453,-0.34316 -0.54906,-0.34316 -0.27453,0 -1.1839,0.08579 -1.1839,0.08579"
         id="path871" />
      <path
         style="fill:#000000;stroke:#000000;stroke-width:0.565;stroke-linecap:butt;stroke-linejoin:miter;stroke-miterlimit:4;stroke-dasharray:none;stroke-opacity:1"
         d="m 184.13908,84.399936 c 0,0 -0.48042,-0.05147 -0.49758,0.137264 -0.0172,0.188738 -0.0343,0.360317 0.0343,0.566213 0.0686,0.205896 0.27453,0.428948 0.48043,0.360318 0.20589,-0.06863 0.36031,-0.08579 0.41179,-0.240213 0.0515,-0.154421 0.0858,-0.463264 0.0686,-0.549052 -0.0172,-0.08579 -0.0858,-0.223055 -0.0858,-0.223055 z"
         id="path873" />
      <path
         style="fill:none;stroke:#000000;stroke-width:0.565;stroke-linecap:butt;stroke-linejoin:miter;stroke-miterlimit:4;stroke-dasharray:none;stroke-opacity:1"
         d="m 193.12514,82.84071 c 0,0 -0.0728,-0.169855 0.13345,-0.254781 0.20626,-0.08493 0.16986,-0.157723 0.36398,-0.09706 0.19412,0.06066 0.33971,0.0728 0.43677,0.157723 0.0971,0.08493 0.14559,0.02426 0.16985,0.279048 0.0243,0.254784 0.0485,0.473168 0.0364,0.582359 -0.0121,0.109194 0.0607,0.109194 -0.0485,0.206253 -0.10919,0.09706 -0.31544,0.29118 -0.65515,0.24265 -0.33971,-0.04853 -0.4853,-0.206251 -0.49744,-0.266915 -0.0121,-0.06066 -0.0121,-0.279048 -0.0121,-0.279048"
         id="path875" />
      <path
         style="fill:none;stroke:#000000;stroke-width:0.565;stroke-linecap:butt;stroke-linejoin:miter;stroke-miterlimit:4;stroke-dasharray:none;stroke-opacity:1"
         d="m 196.41304,85.485596 c 0,0 -2.24451,1.504429 -2.66914,1.734947 -0.42464,0.230518 -1.74709,0.909936 -2.02613,1.104059 -0.27905,0.194119 -3.14232,1.455898 -3.38497,1.540827 -0.24265,0.08493 -1.71068,0.545962 -2.06253,0.715817 -0.35184,0.169855 -0.9342,0.582359 -0.9342,0.582359"
         id="path877" />
      <path
         style="fill:none;stroke:#000000;stroke-width:0.565;stroke-linecap:butt;stroke-linejoin:miter;stroke-miterlimit:4;stroke-dasharray:none;stroke-opacity:1"
         d="m 176.75839,86.892965 -1.33457,0.0364 0.46103,1.06766 -1.32244,-0.07279 c 0,0 0.54596,0.885671 0.57023,0.934201 0.0243,0.04853 -0.88567,0.01215 -0.88567,0.01215 l 0.35184,0.727948 -1.32244,0.194122 0.4853,0.909936 -0.95847,0.08493 0.32758,1.043395 -1.20112,0.02426 0.30331,1.322441 -1.20112,0.01214 0.53383,0.982731 -0.90993,-0.291179 0.27904,1.128323 -1.00699,-0.02426 0.26691,0.9706"
         id="path879" />
      <path
         style="fill:#bcd35f;stroke:#000000;stroke-width:0.565;stroke-linecap:butt;stroke-linejoin:miter;stroke-miterlimit:4;stroke-dasharray:none;stroke-opacity:1"
         d="m 134.62222,115.38008 c 0.29118,0 2.014,-0.50957 2.57209,-0.33971 0.5581,0.16985 1.09193,0.38824 1.60149,0.55809 0.50957,0.16986 1.5287,0.4853 2.23238,0.92207 0.70369,0.43677 1.65002,1.04339 1.79561,1.55296 0.14559,0.50956 0.26692,1.28605 0.19412,1.57722 -0.0728,0.29119 -0.72795,2.35371 -1.26178,2.5721 -0.53383,0.21838 -1.9412,1.06766 -3.00886,1.23751 -1.06766,0.16986 -3.44563,0.43677 -4.46476,0.63089 -1.01913,0.19412 -5.04712,1.57723 -5.99345,1.98973 -0.94634,0.41251 -2.35371,1.26178 -2.35371,1.26178 l -0.0243,0.63089 0.0485,0.67942 -1.62576,-0.12132 1.4559,0.16985 c 0,0 0.4853,0.58236 0.53383,0.72795 0.0485,0.14559 -0.33971,2.45076 -0.33971,2.45076 l -0.4125,0.43678 c 0,0 -0.0243,-1.72282 -0.21839,-1.9412 -0.19412,-0.21839 -0.92207,-0.38824 -1.01913,-0.36398 -0.0971,0.0243 -1.16472,0.19412 -1.16472,0.19412 l -1.14045,-0.36398 c 0,0 1.9412,0.99487 1.98973,1.11619 0.0485,0.12133 -0.24265,3.25152 -0.24265,3.25152 l -0.53383,0.38824 c 0,0 -0.43677,-2.32944 -0.63089,-2.45077 -0.19412,-0.12132 -0.99487,-0.38824 -1.77135,-0.70368 -0.77648,-0.31545 -1.09192,-0.41251 -1.33457,-0.65516 -0.24265,-0.24265 -0.38824,-0.55809 -0.38824,-0.55809 0,0 0.31544,0.46103 -0.0485,0.67941 -0.36398,0.21839 -1.11619,0.60663 -1.43164,0.72796 -0.31544,0.12132 -3.22724,0.65515 -3.22724,0.65515 l -0.67942,0.80075 -1.89267,1.60149 c 0,0 0.38824,-1.35884 0.60662,-1.69856 0.21839,-0.3397 0.70369,-0.87353 1.14046,-1.11619 0.43677,-0.24264 1.69855,-0.55809 2.18385,-0.77647 0.4853,-0.21839 1.50443,-0.53383 1.8684,-1.01913 0.36398,-0.4853 0.82501,-0.70369 0.70369,-1.09193 -0.12133,-0.38824 0,-1.21325 -0.99487,-1.16472 -0.99486,0.0485 -2.01399,0.33971 -2.01399,0.33971 0,0 0.0728,0.53383 -0.43677,0.50957 -0.50957,-0.0243 -1.72282,-0.12133 -2.11106,-0.16986 -0.38824,-0.0485 -0.77648,-0.16985 -1.62575,-0.0243 -0.84928,0.14559 -2.03826,1.98973 -2.03826,1.98973 0,0 -0.58236,-0.84928 -0.36398,-1.33458 0.21839,-0.4853 1.01913,-1.4559 1.72282,-1.77134 0.70368,-0.31545 1.33457,-0.46104 2.03826,-0.46104 0.70368,0 3.3971,-0.0243 3.49416,-0.0728 0.0971,-0.0485 0.72795,0.12132 1.67428,-0.46104 0.94634,-0.58236 1.62576,-1.01913 2.35371,-1.48016 0.72795,-0.46104 4.7802,-2.25665 4.7802,-2.25665 0,0 2.32944,-0.58236 2.81474,-0.72795 0.4853,-0.14559 5.65375,-1.98973 6.18758,-2.08679 0.53383,-0.0971 1.96546,-0.4853 1.96546,-0.4853"
         id="path881" />
      <path
         style="fill:#cdde87;stroke:#000000;stroke-width:0.565;stroke-linecap:butt;stroke-linejoin:miter;stroke-miterlimit:4;stroke-dasharray:none;stroke-opacity:1"
         d="m 169.27264,111.08517 c -0.24265,-0.0971 -2.57209,-0.33971 -2.57209,-0.33971 0,0 -1.16472,0 -1.55296,0.0971 -0.38824,0.0971 -0.77648,0.14559 -1.4559,0.43677 -0.67942,0.29118 -0.72795,0.33971 -1.84414,0.77648 -1.11619,0.43677 -2.37797,0.82501 -2.66915,0.9706 -0.29118,0.14559 -1.84414,0.43677 -1.84414,0.43677 0,0 -0.63089,1.26178 -0.63089,1.55296 0,0.29118 -0.0971,1.69855 0.0485,2.76621 0.14559,1.06766 1.21325,6.11478 1.21325,6.50302 0,0.38824 0.0971,2.28091 0.19412,2.52356 0.0971,0.24265 0.43677,1.55296 0.77648,1.79561 0.33971,0.24265 1.40737,0.43677 1.40737,0.43677 l 1.06766,0.4853 0.9706,0.0971 1.26178,0.0971 1.16472,0.0971 1.21325,-0.4853 c 0,0 0.38824,-0.24265 0.87354,-0.63089 0.4853,-0.38824 0.63089,-0.63089 0.82501,-0.82501 0.19412,-0.19412 0.92207,-0.63089 0.92207,-0.63089 l 0.38824,0.33971 0.24265,1.16472 0.43677,0.67942 0.19412,-0.92207 c 0,0 -0.19412,-1.35884 -0.19412,-1.65002 0,-0.29118 0,-0.77648 -0.19412,-0.77648 -0.19412,0 -0.43677,-0.33971 -1.31031,0.0971 -0.87354,0.43677 -1.21325,0.92207 -1.60149,1.01913 -0.38824,0.0971 -0.67942,0.33971 -1.16472,0.43677 -0.4853,0.0971 -0.53383,0.19412 -0.72795,0.0971 -0.19412,-0.0971 -0.58236,-0.19412 -0.19412,-0.53383 0.38824,-0.33971 1.01913,-0.77648 1.01913,-0.77648 l 0.53383,0.29118 c 0,0 0,-0.33971 0,-0.53383 0,-0.19412 -0.4853,-0.9706 -0.4853,-0.9706 0,0 -1.65002,0.53383 -1.84414,0.87354 -0.19412,0.33971 -0.53383,0.92207 -0.53383,0.92207 0,0 -0.19412,0.19412 -0.87354,-0.53383 -0.67942,-0.72795 -0.77648,-4.70741 -0.77648,-4.70741 l -0.92207,-4.41623 -0.14559,-1.06766 c 0,0 0.58236,-0.0971 1.50443,0.0485 0.92207,0.14559 2.18385,0.19412 2.96033,0.19412 0.77648,0 2.08679,0.0485 2.66915,-0.24265 0.58236,-0.29118 1.74708,-1.55296 1.74708,-1.55296"
         id="path883" />
      <path
         style="fill:#cdde87;stroke:#000000;stroke-width:0.565;stroke-linecap:butt;stroke-linejoin:miter;stroke-miterlimit:4;stroke-dasharray:none;stroke-opacity:1"
         d="m 166.43364,117.95217 c 0.12132,0.21838 0.4853,1.26178 0.4853,1.26178 0,0 0.87354,0.65515 1.11619,0.58236 0.24265,-0.0728 0.87354,-0.53383 0.9706,-0.80075 0.0971,-0.26692 0.36397,-0.53383 0.58236,-0.77648 0.21838,-0.24265 0.92207,-0.82501 0.92207,-0.82501 l 0.19412,-0.0243 0.26691,0.99486 -0.19412,0.9706 -0.24265,0.41251 -0.12132,-0.65516 c 0,0 -0.0728,-0.4853 -0.29118,-0.26691 -0.21839,0.21838 -0.46104,0.55809 -0.4853,0.67942 -0.0243,0.12132 -0.19412,0.55809 -0.0971,0.58236 0.0971,0.0243 0.82501,0.14559 1.31031,0 0.4853,-0.14559 1.21325,-0.21839 1.48016,-0.53383 0.26692,-0.31545 1.35884,-0.84928 1.5287,-0.9706 0.16985,-0.12133 1.57722,-0.65516 1.67428,-0.70369 0.0971,-0.0485 1.14046,0.0243 1.18899,0.12133 0.0485,0.0971 0.24265,0.87354 0.24265,0.9706 0,0.0971 -0.53383,1.18898 -0.53383,1.18898 0,0 -0.0971,-0.58236 -0.14559,-0.70368 -0.0485,-0.12133 -0.24265,-0.65516 -0.33971,-0.72795 -0.0971,-0.0728 -0.58236,-0.21839 -0.94634,-0.0728 -0.36397,0.14559 -1.9412,1.5287 -1.9412,1.5287 0,0 1.18899,-0.53383 1.60149,-0.60663 0.41251,-0.0728 0.60663,-0.14559 1.06766,0 0.46104,0.14559 0.63089,0.41251 0.65516,0.53383 0.0243,0.12133 0.0971,0.92207 0.0971,0.92207 l -0.19412,0.99487 c 0,0 -0.33971,-1.23752 -0.60663,-1.28605 -0.26691,-0.0485 -0.63089,-0.0971 -1.06766,0.14559 -0.43677,0.24265 -0.80074,0.38824 -1.26178,0.65516 -0.46103,0.26691 -0.99486,0.65515 -1.50443,0.80074 -0.50956,0.14559 -1.18898,0.38824 -1.52869,0.43677 -0.33971,0.0485 -0.53383,0.14559 -1.48017,0.0243 -0.94633,-0.12132 -1.16472,-0.0728 -1.4559,-0.29117 -0.29118,-0.21839 -0.70368,-0.43677 -0.82501,-0.53383 -0.12132,-0.0971 -0.46103,-0.36398 -0.46103,-0.36398 0,0 -1.09193,-0.0728 -1.21325,-0.29118 -0.12133,-0.21838 -0.50957,-0.58236 -0.84928,-0.8978 -0.33971,-0.31545 -0.58236,-0.36398 -0.43677,-0.82502 0.14559,-0.46103 0.12133,-1.23751 0.12133,-1.23751 z"
         id="path885" />
      <path
         style="fill:none;stroke:#000000;stroke-width:0.565;stroke-linecap:butt;stroke-linejoin:miter;stroke-miterlimit:4;stroke-dasharray:none;stroke-opacity:1"
         d="m 165.43877,120.62132 c 0,0 -0.0485,0.64302 -0.25478,0.78861 -0.20625,0.14559 -0.57023,0.46103 -0.5581,0.74008 0.0121,0.27905 -0.0485,0.82501 -0.0485,0.88567 0,0.0607 -0.14559,0.20626 0.0849,-0.19412 0.23052,-0.40037 0.53383,-0.52169 0.78861,-0.80074 0.25479,-0.27905 0.61876,-0.42464 0.66729,-0.67942 0.0485,-0.25478 0.13346,-0.42464 0.13346,-0.59449 0,-0.16986 -0.0243,-0.40038 -0.0243,-0.40038"
         id="path887" />
      <path
         style="fill:none;stroke:#000000;stroke-width:0.565;stroke-linecap:butt;stroke-linejoin:miter;stroke-miterlimit:4;stroke-dasharray:none;stroke-opacity:1"
         d="m 169.16345,121.42206 c 0.36397,-0.14559 0.4489,-0.27905 0.69155,-0.43677 0.24265,-0.15772 0.31545,-0.31545 0.61876,-0.24265 0.30331,0.0728 0.69155,0.31545 0.75222,0.42464 0.0607,0.10919 0.16985,0.31544 0.16985,0.54596 0,0.23052 -0.15772,0.82501 -0.23052,1.06766 -0.0728,0.24265 -0.4853,1.06766 -0.4853,1.06766 l -0.13346,0.0849 c 0,0 -0.0849,-0.21839 -0.0485,-0.81288 0.0364,-0.59449 0.0485,-0.88567 0.0243,-1.11619 -0.0243,-0.23052 -0.0849,-0.4125 -0.14559,-0.4489 -0.0607,-0.0364 -0.19413,-0.0607 -0.19413,-0.0607"
         id="path889" />
      <path
         style="fill:none;stroke:#000000;stroke-width:0.565;stroke-linecap:butt;stroke-linejoin:miter;stroke-miterlimit:4;stroke-dasharray:none;stroke-opacity:1"
         d="m 165.57418,128.51302 c 0,0 0.96085,-0.58337 1.23537,-0.60053 0.27453,-0.0172 0.54906,-0.15442 0.92653,0.0686 0.37748,0.22305 0.5319,0.73779 0.54906,0.84074 0.0171,0.10295 -0.4118,1.76727 -0.46327,1.956 -0.0515,0.18874 -0.22305,0.66917 -0.22305,0.66917 0,0 -0.30884,-1.54422 -0.30884,-1.81875 0,-0.27452 -0.15443,-1.16674 -0.15443,-1.16674 l -0.56621,0.0343"
         id="path891" />
      <path
         style="fill:none;stroke:#000000;stroke-width:0.565;stroke-linecap:butt;stroke-linejoin:miter;stroke-miterlimit:4;stroke-dasharray:none;stroke-opacity:1"
         d="m 161.26753,128.44439 c 0,0 -0.1201,-0.78927 -0.27452,-0.78927 -0.15442,0 -0.27453,0.0686 -0.51474,0.326 -0.24021,0.25737 -0.13518,1.06019 -0.13518,1.06019 0,0 -0.0707,0.82718 -0.0707,1.05024 0,0.22305 -0.10295,0.63484 -0.10295,0.63484 l 0.37747,-0.978 c 0,0 -0.006,0.15315 0.42895,-0.0343 0.4349,-0.18746 0.90937,-0.70347 0.90937,-0.70347"
         id="path893" />
      <path
         style="fill:none;stroke:#000000;stroke-width:0.565;stroke-linecap:butt;stroke-linejoin:miter;stroke-miterlimit:4;stroke-dasharray:none;stroke-opacity:1"
         d="m 166.08892,128.66744 c 0,0 0.78927,0.18873 1.66432,0.0858 0.87506,-0.10295 1.70967,-0.26821 2.15026,-0.24563 0.44059,0.0226 0.85238,0.0226 1.19554,0.177 0.34316,0.15442 1.33832,0.4461 1.56137,0.63484 0.22306,0.18874 0.56621,0.80642 0.56621,0.80642 0,0 -1.49274,-0.60052 -1.87021,-0.60052 -0.37748,0 -0.73779,0 -1.32116,0.0686 -0.58337,0.0686 -1.04664,0.10294 -1.61285,0.13726 -0.56621,0.0343 -0.80642,0.10295 -1.54421,0.0686 -0.7378,-0.0343 -0.94369,-0.0858 -1.44127,-0.20589 -0.49758,-0.12011 -1.16674,-0.56622 -1.16674,-0.56622"
         id="path895" />
    </g>
  </g>
</svg>
