<?xml version="1.0" encoding="UTF-8" standalone="no"?>
<svg
   xmlns:dc="http://purl.org/dc/elements/1.1/"
   xmlns:cc="http://creativecommons.org/ns#"
   xmlns:rdf="http://www.w3.org/1999/02/22-rdf-syntax-ns#"
   xmlns:svg="http://www.w3.org/2000/svg"
   xmlns="http://www.w3.org/2000/svg"
   width="210mm"
   height="297mm"
   viewBox="0 0 210 297"
   version="1.1"
   id="svg1915">
  <defs
     id="defs1909" />
  <metadata
     id="metadata1912">
    <rdf:RDF>
      <cc:Work
         rdf:about="">
        <dc:format>image/svg+xml</dc:format>
        <dc:type
           rdf:resource="http://purl.org/dc/dcmitype/StillImage" />
        <dc:title></dc:title>
      </cc:Work>
    </rdf:RDF>
  </metadata>
  <g
     id="layer1">
    <path
       style="fill:#ffe6d5;stroke:#000000;stroke-width:1.465;stroke-linecap:butt;stroke-linejoin:miter;stroke-miterlimit:4;stroke-dasharray:none;stroke-opacity:1"
       d="m 92.134311,263.67464 -10.29476,-20.45227 -3.157071,-11.53015 -0.27452,-14.6872 0.27452,-8.51034 -8.51034,-15.64805 -4.80422,-10.29476 -0.68632,-8.37308 5.49054,-6.31412 2.74527,-6.72592 2.33348,-7.41223 c 0,0 0.27453,-3.43159 -0.27452,-4.25517 -0.54906,-0.82358 -2.47075,-3.70612 -4.39244,-3.70612 -1.92169,0 -14.54993,1.92169 -14.54993,1.92169 l -18.39332,4.94149 c 0,0 -6.45139,3.56886 -6.58865,4.11791 -0.13727,0.54905 1.78442,4.25517 1.78442,4.25517 0,0 2.33348,1.5099 2.47075,2.47074 0.13726,0.96085 1.09811,5.90234 0.54905,7.13771 -0.54905,1.23537 -2.33348,5.35328 -2.74527,6.58865 -0.41179,1.23537 -1.92169,10.15751 -1.92169,10.15751 0,0 -0.13726,2.88253 0.96085,3.84337 1.0981,0.96085 2.33348,2.33348 3.15706,1.92169 0.82358,-0.41179 6.03959,-3.0198 6.58865,-3.29432 0.54905,-0.27453 4.66696,-1.78443 6.17686,-1.78443 1.5099,0 8.23581,0.13726 8.23581,0.13726 l 7.00045,4.80423 5.76506,8.51034 2.88254,8.78487 1.92169,19.35416 3.98064,13.72636 6.039601,11.39288 z"
       id="path853" />
  </g>
</svg>
