<?xml version="1.0" encoding="UTF-8" standalone="no"?>
<svg
   xmlns:dc="http://purl.org/dc/elements/1.1/"
   xmlns:cc="http://creativecommons.org/ns#"
   xmlns:rdf="http://www.w3.org/1999/02/22-rdf-syntax-ns#"
   xmlns:svg="http://www.w3.org/2000/svg"
   xmlns="http://www.w3.org/2000/svg"
   xmlns:sodipodi="http://sodipodi.sourceforge.net/DTD/sodipodi-0.dtd"
   xmlns:inkscape="http://www.inkscape.org/namespaces/inkscape"
   width="400mm"
   height="320mm"
   viewBox="0 0 400 320"
   version="1.1"
   id="svg8"
   inkscape:version="1.0.2 (e86c870879, 2021-01-15, custom)"
   sodipodi:docname="mitosis.svg">
  <defs
     id="defs2" />
  <sodipodi:namedview
     id="base"
     pagecolor="#ffffff"
     bordercolor="#666666"
     borderopacity="1.0"
     inkscape:pageopacity="0.0"
     inkscape:pageshadow="2"
     inkscape:zoom="0.175"
     inkscape:cx="396.62624"
     inkscape:cy="-598.21467"
     inkscape:document-units="mm"
     inkscape:current-layer="layer1"
     inkscape:document-rotation="0"
     showgrid="false"
     inkscape:window-width="1493"
     inkscape:window-height="1040"
     inkscape:window-x="38"
     inkscape:window-y="0"
     inkscape:window-maximized="0" />
  <metadata
     id="metadata5">
    <rdf:RDF>
      <cc:Work
         rdf:about="">
        <dc:format>image/svg+xml</dc:format>
        <dc:type
           rdf:resource="http://purl.org/dc/dcmitype/StillImage" />
        <dc:title></dc:title>
      </cc:Work>
    </rdf:RDF>
  </metadata>
  <g
     inkscape:label="Layer 1"
     inkscape:groupmode="layer"
     id="layer1">
    <ellipse
       style="opacity:0.996774;fill:#ffaaaa;stroke:#020108;stroke-width:2.66265;stroke-linecap:round;stroke-linejoin:round;stroke-miterlimit:4;stroke-dasharray:none;paint-order:markers fill stroke"
       id="path833"
       cx="101.27351"
       cy="40.319618"
       rx="29.714302"
       ry="29.179935" />
    <path
       id="path847"
       style="fill:#ff2a2a;stroke:#000000;stroke-width:0.498496;stroke-linecap:butt;stroke-linejoin:miter;stroke-miterlimit:4;stroke-dasharray:none;stroke-opacity:1"
       d="m 95.094098,19.993267 c -1.133856,1.418882 -2.545601,2.673012 -3.496259,4.200873 -0.547223,4.025908 -1.094447,8.051816 -1.64167,12.077723 1.666606,1.610031 2.660289,3.904931 4.866925,4.969762 1.618108,0.403696 2.703466,-1.520963 2.1716,-2.79121 -0.694235,-1.429582 -2.274684,-2.390054 -2.53256,-4.049417 -0.266604,-1.616139 -0.41897,-3.263584 -0.372991,-4.906039 0.09822,-1.584142 0.199304,-3.190699 0.402375,-4.754516 0.693578,-1.600166 2.138034,-3.245624 4.147093,-3.209065 1.895869,-0.200383 2.249969,-3.092506 0.411187,-3.629437 -1.503272,-0.420249 -2.422625,1.082747 -3.469575,1.792816 -0.154191,0.110103 -0.315827,0.211451 -0.486125,0.29851 z" />
    <path
       id="path849"
       style="fill:#ff2a2a;stroke:#000000;stroke-width:0.498496;stroke-linecap:butt;stroke-linejoin:miter;stroke-miterlimit:4;stroke-dasharray:none;stroke-opacity:1"
       d="m 102.50228,26.090749 c -1.24873,2.4244 -2.48369,5.172502 -1.70565,7.901867 -0.921454,1.75089 2.15898,6.048056 3.09468,2.98756 -1.20528,-2.28304 -2.48514,-4.876857 -0.52111,-7.20088 0.99371,-1.999952 2.0032,-4.706048 0.1892,-6.557633 -1.88395,-0.931596 -0.99834,2.110715 -1.05712,2.869086 z" />
    <path
       id="path847-4"
       style="fill:#00ffcc;stroke:#000000;stroke-width:0.498496;stroke-linecap:butt;stroke-linejoin:miter;stroke-miterlimit:4;stroke-dasharray:none;stroke-opacity:1"
       d="m 99.668477,44.159361 c -1.133856,1.418883 -2.545601,2.673012 -3.496259,4.200874 -0.547223,4.025907 -1.094447,8.051815 -1.64167,12.077723 1.666606,1.610031 2.660289,3.904931 4.866925,4.969762 1.618107,0.403695 2.703467,-1.520963 2.171597,-2.791211 -0.69423,-1.429581 -2.274681,-2.390054 -2.532557,-4.049417 -0.266604,-1.616138 -0.41897,-3.263583 -0.37299,-4.906038 0.09821,-1.584143 0.199303,-3.190699 0.402374,-4.754517 0.693578,-1.600166 2.138033,-3.245623 4.147093,-3.209065 1.89587,-0.200382 2.24997,-3.092506 0.41119,-3.629437 -1.50328,-0.420248 -2.42263,1.082748 -3.46958,1.792816 -0.15419,0.110104 -0.315825,0.211452 -0.486123,0.29851 z" />
    <path
       id="path849-6"
       style="fill:#00ffcc;stroke:#000000;stroke-width:0.498496;stroke-linecap:butt;stroke-linejoin:miter;stroke-miterlimit:4;stroke-dasharray:none;stroke-opacity:1"
       d="m 107.07666,50.256843 c -1.24874,2.4244 -2.48369,5.172502 -1.70564,7.901868 -0.92146,1.75089 2.15897,6.048056 3.09467,2.98756 -1.20528,-2.283041 -2.48514,-4.876857 -0.52111,-7.200881 0.99371,-1.999951 2.0032,-4.706047 0.1892,-6.557633 -1.88395,-0.931595 -0.99834,2.110716 -1.05712,2.869086 z" />
    <ellipse
       style="opacity:0.996774;fill:#ffaaaa;stroke:#020108;stroke-width:2.66265;stroke-linecap:round;stroke-linejoin:round;stroke-miterlimit:4;stroke-dasharray:none;paint-order:markers fill stroke"
       id="path833-9"
       cx="102.6315"
       cy="123.47853"
       rx="29.714302"
       ry="29.179935" />
    <path
       id="path923"
       style="fill:#ff0000;stroke:#000000;stroke-width:0.264583px;stroke-linecap:butt;stroke-linejoin:miter;stroke-opacity:1"
       d="m 91.942707,109.70759 c -0.247029,-2.09246 -0.547563,-4.26228 -2.047509,-5.86778 -2.329801,-1.11831 -0.101257,3.08159 -0.05685,4.26302 0.785602,2.86707 1.537616,6.10001 0.125381,8.89936 -0.268806,1.63905 -3.321006,4.85078 -0.855355,5.57826 1.478282,-1.11047 2.06084,-3.1303 3.109807,-4.65338 0.868954,-0.86553 0.216531,-4.31015 1.570074,-3.58194 1.655964,1.35851 1.464287,3.14877 1.15611,5.08394 -0.190019,1.4891 1.216861,5.37385 1.898931,2.23698 -0.21169,-2.80689 0.655859,-5.78331 -0.731324,-8.41649 -1.9115,-1.61303 -2.091144,-3.90517 -0.924943,-6.06021 0.10365,-2.02718 0.305739,-4.22533 -0.237652,-6.20287 -1.612947,1.85985 -0.266519,5.12111 -1.658827,7.14075 0.01968,1.63586 -0.421911,1.58036 -1.347846,1.58036 z"
       sodipodi:nodetypes="sccccccccccccss" />
    <path
       id="path923-5"
       style="fill:#ff0000;stroke:#000000;stroke-width:0.216383px;stroke-linecap:butt;stroke-linejoin:miter;stroke-opacity:1"
       d="m 105.57987,111.27174 c -0.20315,-1.70176 -0.45032,-3.46644 -1.68386,-4.77217 -1.91603,-0.90951 -0.0833,2.50621 -0.0467,3.46705 0.64608,2.33174 1.26453,4.96104 0.10312,7.23771 -0.22107,1.33301 -2.73119,3.94506 -0.70345,4.53671 1.21574,-0.90313 1.69483,-2.54583 2.5575,-3.78452 0.71463,-0.70392 0.17807,-3.50538 1.29123,-2.91314 1.36186,1.10486 1.20422,2.56085 0.95078,4.13469 -0.15627,1.21106 1.00074,4.37047 1.56168,1.8193 -0.1741,-2.2828 0.53937,-4.70347 -0.60145,-6.845 -1.57201,-1.31185 -1.71975,-3.17601 -0.76067,-4.92867 0.0853,-1.64868 0.25144,-3.4364 -0.19544,-5.0447 -1.32648,1.51259 -0.21918,4.16492 -1.36422,5.80746 0.0162,1.33042 -0.34697,1.28528 -1.10846,1.28528 z"
       sodipodi:nodetypes="sccccccccccccss" />
    <path
       id="path923-0"
       style="fill:#00ffcc;stroke:#000000;stroke-width:0.401;stroke-linecap:butt;stroke-linejoin:miter;stroke-miterlimit:4;stroke-dasharray:none;stroke-opacity:1"
       d="m 94.526932,133.26664 c -0.247029,-2.09246 -0.547563,-4.26228 -2.047509,-5.86778 -2.329801,-1.11831 -0.101257,3.08159 -0.05685,4.26302 0.785602,2.86707 1.537616,6.10001 0.125381,8.89936 -0.268806,1.63905 -3.321006,4.85078 -0.855355,5.57826 1.478282,-1.11047 2.06084,-3.1303 3.109807,-4.65338 0.868954,-0.86553 0.216531,-4.31015 1.570074,-3.58194 1.655964,1.35851 1.464287,3.14877 1.15611,5.08394 -0.190019,1.4891 1.216861,5.37385 1.898931,2.23698 -0.21169,-2.80689 0.655859,-5.78331 -0.731324,-8.41649 -1.9115,-1.61303 -2.091144,-3.90517 -0.924943,-6.06021 0.10365,-2.02718 0.305739,-4.22533 -0.237652,-6.20287 -1.612947,1.85985 -0.266519,5.12111 -1.658827,7.14075 0.01968,1.63586 -0.421911,1.58036 -1.347846,1.58036 z"
       sodipodi:nodetypes="sccccccccccccss" />
    <path
       id="path923-5-5"
       style="fill:#00ffcc;stroke:#000000;stroke-width:0.401;stroke-linecap:butt;stroke-linejoin:miter;stroke-miterlimit:4;stroke-dasharray:none;stroke-opacity:1"
       d="m 108.1641,134.83079 c -0.20315,-1.70176 -0.45032,-3.46644 -1.68386,-4.77217 -1.91603,-0.90951 -0.0833,2.50621 -0.0467,3.46705 0.64608,2.33174 1.26453,4.96104 0.10312,7.23771 -0.22107,1.33301 -2.73119,3.94506 -0.70345,4.53671 1.21574,-0.90313 1.69483,-2.54583 2.5575,-3.78452 0.71463,-0.70392 0.17807,-3.50538 1.29123,-2.91314 1.36186,1.10486 1.20422,2.56085 0.95078,4.13469 -0.15627,1.21106 1.00074,4.37047 1.56168,1.8193 -0.1741,-2.2828 0.53937,-4.70347 -0.60145,-6.845 -1.57201,-1.31185 -1.71975,-3.17601 -0.76067,-4.92867 0.0853,-1.64868 0.25144,-3.4364 -0.19544,-5.0447 -1.32648,1.51259 -0.21918,4.16492 -1.36422,5.80746 0.0162,1.33042 -0.34697,1.28528 -1.10846,1.28528 z"
       sodipodi:nodetypes="sccccccccccccss" />
    <path
       id="path1042"
       style="fill:#ffaaaa;stroke:#000000;stroke-width:2.865;stroke-linecap:butt;stroke-linejoin:miter;stroke-miterlimit:4;stroke-dasharray:none;stroke-opacity:1"
       d="m 106.23964,179.73876 c -7.409391,-7.85075 -19.244323,-13.24797 -29.852543,-9.07685 -7.924477,0.70514 -13.553552,5.91066 -18.210416,11.84062 -4.806262,4.86799 -4.487517,12.02247 -6.192759,18.21688 2.479477,8.24957 5.896042,17.19039 14.182027,21.18985 6.015817,5.60676 15.201933,4.98946 22.829465,3.73245 8.460572,0.65587 14.349816,-10.88832 20.310626,-10.0582 5.91987,5.68507 13.14073,10.21581 21.58948,10.35211 9.73256,0.69202 18.98383,-4.31616 24.78478,-11.97446 5.37652,-8.04554 7.86069,-18.41626 5.01333,-27.86946 -5.03673,-11.5675 -18.11559,-19.29702 -30.77868,-17.5776 -8.80812,-0.0252 -16.78743,5.74583 -21.54332,12.75304 -0.96154,0.12661 -1.34491,-1.3168 -2.13199,-1.52838 z" />
    <path
       id="path847-5"
       style="fill:#ff2a2a;stroke:#000000;stroke-width:0.408483;stroke-linecap:butt;stroke-linejoin:miter;stroke-miterlimit:4;stroke-dasharray:none;stroke-opacity:1"
       d="m 78.520632,178.26114 c -0.911409,1.18526 -2.046189,2.2329 -2.810341,3.5092 -0.439865,3.36305 -0.879731,6.7261 -1.319596,10.08915 1.33964,1.34494 2.138376,3.26199 3.9121,4.15149 1.300658,0.33723 2.173083,-1.27053 1.745562,-2.33164 -0.558035,-1.1942 -1.828422,-1.99653 -2.035706,-3.38268 -0.2143,-1.35004 -0.336774,-2.72624 -0.299815,-4.09827 0.07895,-1.32331 0.160203,-2.66535 0.323434,-3.97169 0.557508,-1.3367 1.718581,-2.71124 3.33349,-2.6807 1.523926,-0.16739 1.808556,-2.58333 0.330518,-3.03186 -1.208351,-0.35105 -1.947339,0.90448 -2.788892,1.49764 -0.123941,0.092 -0.253866,0.17663 -0.390754,0.24936 z" />
    <path
       id="path849-7"
       style="fill:#ff2a2a;stroke:#000000;stroke-width:0.408483;stroke-linecap:butt;stroke-linejoin:miter;stroke-miterlimit:4;stroke-dasharray:none;stroke-opacity:1"
       d="m 84.47543,183.35468 c -1.003746,2.02523 -1.996424,4.32086 -1.371025,6.60084 -0.740677,1.46261 1.735418,5.05225 2.487546,2.49566 -0.96882,-1.90714 -1.997589,-4.07389 -0.418875,-6.01526 0.798758,-1.67067 1.610199,-3.93121 0.152081,-5.47794 -1.514344,-0.7782 -0.802479,1.76319 -0.849727,2.3967 z" />
    <path
       id="path847-55"
       style="fill:#ff2a2a;stroke:#000000;stroke-width:0.365514;stroke-linecap:butt;stroke-linejoin:miter;stroke-miterlimit:4;stroke-dasharray:none;stroke-opacity:1"
       d="m 129.53077,180.72923 c -0.93169,0.92837 -2.0917,1.74894 -2.87285,2.74862 -0.44965,2.63415 -0.8993,5.26829 -1.34895,7.90243 1.36943,1.05344 2.18594,2.55499 3.99911,3.2517 1.32959,0.26414 2.22142,-0.99516 1.78439,-1.82628 -0.57045,-0.93537 -1.86909,-1.56381 -2.08099,-2.64952 -0.21906,-1.05744 -0.34426,-2.13536 -0.30648,-3.21001 0.0807,-1.0365 0.16377,-2.08767 0.33063,-3.11088 0.56991,-1.04698 1.7568,-2.1236 3.40763,-2.09968 1.55782,-0.13111 1.84878,-2.02342 0.33787,-2.37473 -1.23523,-0.27497 -1.99065,0.70844 -2.85092,1.17303 -0.1267,0.072 -0.25952,0.13836 -0.39944,0.19532 z" />
    <path
       id="path849-3"
       style="fill:#ff2a2a;stroke:#000000;stroke-width:0.365514;stroke-linecap:butt;stroke-linejoin:miter;stroke-miterlimit:4;stroke-dasharray:none;stroke-opacity:1"
       d="m 135.61801,184.7188 c -1.02607,1.58628 -2.04083,3.38435 -1.40152,5.17018 -0.75716,1.1456 1.77401,3.95722 2.54287,1.95475 -0.99037,-1.49379 -2.04202,-3.19092 -0.42819,-4.71152 0.81652,-1.30857 1.64601,-3.07916 0.15546,-4.29065 -1.54802,-0.60954 -0.82032,1.38104 -0.86862,1.87724 z" />
    <path
       id="path847-4-2"
       style="fill:#00ffcc;stroke:#000000;stroke-width:0.419735;stroke-linecap:butt;stroke-linejoin:miter;stroke-miterlimit:4;stroke-dasharray:none;stroke-opacity:1"
       d="m 78.294516,205.32939 c -0.978912,1.16516 -2.19774,2.19503 -3.018489,3.44969 -0.472444,3.30602 -0.944889,6.61203 -1.417333,9.91805 1.438862,1.32213 2.296756,3.20667 4.201851,4.08109 1.39699,0.33151 2.334033,-1.24899 1.874844,-2.2921 -0.599362,-1.17395 -1.963841,-1.96268 -2.186478,-3.32532 -0.230172,-1.32715 -0.361717,-2.68 -0.32202,-4.02877 0.08479,-1.30087 0.172068,-2.62015 0.347389,-3.90433 0.598799,-1.31403 1.845867,-2.66526 3.580385,-2.63524 1.636796,-0.16455 1.942507,-2.53951 0.355,-2.98043 -1.297854,-0.3451 -2.091573,0.88913 -2.995456,1.47223 -0.133119,0.0904 -0.272667,0.17364 -0.419693,0.24513 z" />
    <path
       id="path849-6-8"
       style="fill:#00ffcc;stroke:#000000;stroke-width:0.419735;stroke-linecap:butt;stroke-linejoin:miter;stroke-miterlimit:4;stroke-dasharray:none;stroke-opacity:1"
       d="m 84.690357,210.33655 c -1.078097,1.99088 -2.144289,4.24758 -1.472561,6.48889 -0.795541,1.43781 1.863943,4.96658 2.671778,2.45334 -1.040577,-1.8748 -2.145541,-4.0048 -0.4499,-5.91325 0.857918,-1.64233 1.729459,-3.86454 0.163346,-5.38503 -1.626505,-0.76501 -0.861915,1.73329 -0.912663,2.35605 z" />
    <path
       id="path847-4-22"
       style="fill:#00ffcc;stroke:#000000;stroke-width:0.432686;stroke-linecap:butt;stroke-linejoin:miter;stroke-miterlimit:4;stroke-dasharray:none;stroke-opacity:1"
       d="m 127.80935,204.19546 c -1.10903,1.09291 -2.48985,2.05893 -3.41968,3.23578 -0.53525,3.10102 -1.07048,6.20204 -1.60571,9.30306 1.63009,1.24015 2.60202,3.00783 4.76032,3.82803 1.58266,0.31095 2.64425,-1.17154 2.12403,-2.14997 -0.67902,-1.10116 -2.22486,-1.84098 -2.47709,-3.11913 -0.26076,-1.24486 -0.40979,-2.51382 -0.36482,-3.77895 0.096,-1.22021 0.19494,-2.45769 0.39357,-3.66223 0.67838,-1.23256 2.0912,-2.5 4.05625,-2.47184 1.85435,-0.15434 2.20069,-2.38204 0.40219,-2.79563 -1.47036,-0.32369 -2.36957,0.83401 -3.39359,1.38095 -0.15081,0.0848 -0.30891,0.16287 -0.47547,0.22993 z" />
    <path
       id="path849-6-6"
       style="fill:#00ffcc;stroke:#000000;stroke-width:0.432686;stroke-linecap:butt;stroke-linejoin:miter;stroke-miterlimit:4;stroke-dasharray:none;stroke-opacity:1"
       d="m 135.05527,208.89214 c -1.22139,1.86743 -2.42929,3.98419 -1.66828,6.08653 -0.90128,1.34865 2.11168,4.65861 3.02688,2.30121 -1.17888,-1.75854 -2.4307,-3.75647 -0.50969,-5.54658 0.97194,-1.5405 1.95932,-3.62491 0.18505,-5.05112 -1.84268,-0.71758 -0.97647,1.62581 -1.03396,2.20996 z" />
    <ellipse
       style="opacity:1;fill:#ffaaaa;stroke:#020108;stroke-width:2.66265;stroke-linecap:round;stroke-linejoin:round;stroke-miterlimit:4;stroke-dasharray:none;paint-order:markers fill stroke"
       id="path833-8"
       cx="53.453907"
       cy="280.633"
       rx="29.714302"
       ry="29.179935" />
    <path
       id="path847-6"
       style="opacity:1;fill:#ff2a2a;stroke:#000000;stroke-width:0.498496;stroke-linecap:butt;stroke-linejoin:miter;stroke-miterlimit:4;stroke-dasharray:none;stroke-opacity:1"
       d="m 47.27449,260.30666 c -1.133856,1.41888 -2.545601,2.67301 -3.496259,4.20087 -0.547223,4.02591 -1.094447,8.05182 -1.64167,12.07772 1.666606,1.61003 2.660289,3.90493 4.866925,4.96976 1.618108,0.4037 2.703466,-1.52096 2.1716,-2.79121 -0.694235,-1.42958 -2.274684,-2.39005 -2.53256,-4.04941 -0.266604,-1.61614 -0.41897,-3.26359 -0.372991,-4.90604 0.09822,-1.58414 0.199304,-3.1907 0.402375,-4.75452 0.693578,-1.60016 2.138034,-3.24562 4.147093,-3.20906 1.895869,-0.20039 2.249969,-3.09251 0.411187,-3.62944 -1.503272,-0.42025 -2.422625,1.08275 -3.469575,1.79282 -0.154191,0.1101 -0.315827,0.21145 -0.486125,0.29851 z" />
    <path
       id="path849-8"
       style="opacity:1;fill:#ff2a2a;stroke:#000000;stroke-width:0.498496;stroke-linecap:butt;stroke-linejoin:miter;stroke-miterlimit:4;stroke-dasharray:none;stroke-opacity:1"
       d="m 54.682672,266.40414 c -1.24873,2.4244 -2.48369,5.1725 -1.70565,7.90187 -0.921454,1.75089 2.15898,6.04805 3.09468,2.98756 -1.20528,-2.28304 -2.48514,-4.87686 -0.52111,-7.20088 0.99371,-1.99996 2.0032,-4.70605 0.1892,-6.55764 -1.88395,-0.93159 -0.99834,2.11072 -1.05712,2.86909 z" />
    <path
       id="path847-4-9"
       style="opacity:1;fill:#00ffcc;stroke:#000000;stroke-width:0.498496;stroke-linecap:butt;stroke-linejoin:miter;stroke-miterlimit:4;stroke-dasharray:none;stroke-opacity:1"
       d="m 51.848869,284.47275 c -1.133856,1.41888 -2.545601,2.67301 -3.496259,4.20088 -0.547223,4.0259 -1.094447,8.05181 -1.64167,12.07772 1.666606,1.61003 2.660289,3.90493 4.866925,4.96976 1.618107,0.40369 2.703467,-1.52096 2.171597,-2.79121 -0.69423,-1.42958 -2.274681,-2.39005 -2.532557,-4.04942 -0.266604,-1.61614 -0.41897,-3.26358 -0.37299,-4.90604 0.09821,-1.58414 0.199303,-3.1907 0.402374,-4.75451 0.693578,-1.60017 2.138033,-3.24563 4.147093,-3.20907 1.89587,-0.20038 2.24997,-3.0925 0.41119,-3.62944 -1.50328,-0.42024 -2.42263,1.08275 -3.46958,1.79282 -0.15419,0.1101 -0.315825,0.21145 -0.486123,0.29851 z" />
    <path
       id="path849-6-0"
       style="opacity:1;fill:#00ffcc;stroke:#000000;stroke-width:0.498496;stroke-linecap:butt;stroke-linejoin:miter;stroke-miterlimit:4;stroke-dasharray:none;stroke-opacity:1"
       d="m 59.257052,290.57023 c -1.24874,2.4244 -2.48369,5.1725 -1.70564,7.90187 -0.92146,1.75089 2.15897,6.04806 3.09467,2.98756 -1.20528,-2.28304 -2.48514,-4.87686 -0.52111,-7.20088 0.99371,-1.99995 2.0032,-4.70605 0.1892,-6.55763 -1.88395,-0.9316 -0.99834,2.11071 -1.05712,2.86908 z" />
    <ellipse
       style="opacity:1;fill:#ffaaaa;stroke:#020108;stroke-width:2.66265;stroke-linecap:round;stroke-linejoin:round;stroke-miterlimit:4;stroke-dasharray:none;paint-order:markers fill stroke"
       id="path833-2"
       cx="155.55087"
       cy="283.84024"
       rx="29.714302"
       ry="29.179935" />
    <path
       id="path847-8"
       style="opacity:1;fill:#ff2a2a;stroke:#000000;stroke-width:0.498496;stroke-linecap:butt;stroke-linejoin:miter;stroke-miterlimit:4;stroke-dasharray:none;stroke-opacity:1"
       d="m 149.37144,263.51389 c -1.13385,1.41888 -2.5456,2.67301 -3.49626,4.20087 -0.54722,4.02591 -1.09444,8.05182 -1.64167,12.07772 1.66661,1.61003 2.66029,3.90493 4.86693,4.96977 1.61811,0.40369 2.70346,-1.52097 2.1716,-2.79122 -0.69424,-1.42958 -2.27468,-2.39005 -2.53256,-4.04941 -0.26661,-1.61614 -0.41897,-3.26359 -0.37299,-4.90604 0.0982,-1.58414 0.1993,-3.1907 0.40237,-4.75452 0.69358,-1.60016 2.13804,-3.24562 4.1471,-3.20906 1.89586,-0.20039 2.24996,-3.09251 0.41118,-3.62944 -1.50327,-0.42025 -2.42262,1.08275 -3.46957,1.79282 -0.15419,0.1101 -0.31583,0.21145 -0.48613,0.29851 z" />
    <path
       id="path849-0"
       style="opacity:1;fill:#ff2a2a;stroke:#000000;stroke-width:0.498496;stroke-linecap:butt;stroke-linejoin:miter;stroke-miterlimit:4;stroke-dasharray:none;stroke-opacity:1"
       d="m 156.77962,269.61137 c -1.24873,2.4244 -2.48369,5.1725 -1.70565,7.90187 -0.92145,1.75089 2.15898,6.04805 3.09468,2.98756 -1.20528,-2.28304 -2.48514,-4.87686 -0.52111,-7.20088 0.99371,-1.99996 2.00321,-4.70605 0.1892,-6.55764 -1.88395,-0.93159 -0.99833,2.11072 -1.05712,2.86909 z" />
    <path
       id="path847-4-4"
       style="opacity:1;fill:#00ffcc;stroke:#000000;stroke-width:0.498496;stroke-linecap:butt;stroke-linejoin:miter;stroke-miterlimit:4;stroke-dasharray:none;stroke-opacity:1"
       d="m 153.94582,287.67998 c -1.13385,1.41888 -2.5456,2.67301 -3.49626,4.20087 -0.54722,4.02591 -1.09444,8.05182 -1.64167,12.07773 1.66661,1.61003 2.66029,3.90493 4.86693,4.96976 1.6181,0.40369 2.70346,-1.52096 2.17159,-2.79121 -0.69423,-1.42958 -2.27468,-2.39006 -2.53255,-4.04942 -0.26661,-1.61614 -0.41897,-3.26358 -0.37299,-4.90604 0.0982,-1.58414 0.1993,-3.1907 0.40237,-4.75451 0.69358,-1.60017 2.13803,-3.24563 4.14709,-3.20907 1.89587,-0.20038 2.24997,-3.0925 0.41119,-3.62944 -1.50328,-0.42024 -2.42262,1.08275 -3.46958,1.79282 -0.15419,0.1101 -0.31582,0.21145 -0.48612,0.29851 z" />
    <path
       id="path849-6-7"
       style="opacity:1;fill:#00ffcc;stroke:#000000;stroke-width:0.498496;stroke-linecap:butt;stroke-linejoin:miter;stroke-miterlimit:4;stroke-dasharray:none;stroke-opacity:1"
       d="m 161.35401,293.77746 c -1.24874,2.4244 -2.4837,5.1725 -1.70565,7.90187 -0.92146,1.75089 2.15898,6.04806 3.09467,2.98756 -1.20528,-2.28304 -2.48514,-4.87686 -0.52111,-7.20088 0.99371,-1.99995 2.0032,-4.70605 0.18921,-6.55763 -1.88396,-0.9316 -0.99835,2.11071 -1.05712,2.86908 z" />
    <path
       style="fill:none;stroke:#000000;stroke-width:1.34121;stroke-linecap:butt;stroke-linejoin:miter;stroke-miterlimit:4;stroke-dasharray:none;stroke-opacity:1"
       d="m 125.08445,120.53813 119.0155,0.26812"
       id="path1198" />
    <text
       xml:space="preserve"
       style="font-size:10.5833px;line-height:1.25;font-family:sans-serif;letter-spacing:0px;word-spacing:0px;stroke-width:0.264583"
       x="250.9762"
       y="123.97619"
       id="text1202"><tspan
         sodipodi:role="line"
         id="tspan1200"
         x="250.9762"
         y="123.97619"
         style="stroke-width:0.264583">Chromosomes duplicate </tspan></text>
    <text
       xml:space="preserve"
       style="font-size:10.5833px;line-height:1.25;font-family:sans-serif;letter-spacing:0px;word-spacing:0px;stroke-width:0.264583"
       x="260.23016"
       y="194.21185"
       id="text1202-1"><tspan
         sodipodi:role="line"
         id="tspan1200-5"
         x="260.23016"
         y="194.21185"
         style="stroke-width:0.264583">Chromosomes split </tspan></text>
    <path
       style="fill:none;stroke:#000000;stroke-width:1.34121;stroke-linecap:butt;stroke-linejoin:miter;stroke-miterlimit:4;stroke-dasharray:none;stroke-opacity:1"
       d="m 136.75936,191.84373 119.0155,0.26812"
       id="path1198-5" />
    <text
       xml:space="preserve"
       style="font-size:10.5833px;line-height:1.25;font-family:sans-serif;letter-spacing:0px;word-spacing:0px;stroke-width:0.264583"
       x="241.1488"
       y="271.3869"
       id="text1250"><tspan
         sodipodi:role="line"
         id="tspan1248"
         x="241.1488"
         y="271.3869"
         style="stroke-width:0.264583">Two new cells with identical</tspan><tspan
         sodipodi:role="line"
         x="241.1488"
         y="284.61603"
         style="stroke-width:0.264583"
         id="tspan1252">chromosomes</tspan></text>
    <path
       style="fill:none;stroke:#000000;stroke-width:1.01584;stroke-linecap:butt;stroke-linejoin:miter;stroke-miterlimit:4;stroke-dasharray:none;stroke-opacity:1"
       d="m 166.18674,278.36264 67.59998,0.2708"
       id="path1198-5-0" />
  </g>
</svg>
