<?xml version="1.0" encoding="UTF-8" standalone="no"?>
<svg
   xmlns:dc="http://purl.org/dc/elements/1.1/"
   xmlns:cc="http://creativecommons.org/ns#"
   xmlns:rdf="http://www.w3.org/1999/02/22-rdf-syntax-ns#"
   xmlns:svg="http://www.w3.org/2000/svg"
   xmlns="http://www.w3.org/2000/svg"
   width="210mm"
   height="297mm"
   viewBox="0 0 210 297"
   version="1.1"
   id="svg8">
  <defs
     id="defs2" />
  <metadata
     id="metadata5">
    <rdf:RDF>
      <cc:Work
         rdf:about="">
        <dc:format>image/svg+xml</dc:format>
        <dc:type
           rdf:resource="http://purl.org/dc/dcmitype/StillImage" />
        <dc:title></dc:title>
      </cc:Work>
    </rdf:RDF>
  </metadata>
  <g
     id="layer1">
    <g
       id="g886">
      <path
         style="fill:#aad400;stroke:#000000;stroke-width:0.765;stroke-linecap:butt;stroke-linejoin:miter;stroke-opacity:1;stroke-miterlimit:4;stroke-dasharray:none"
         d="m 84.279832,215.77833 c 0,0 0.549055,1.64716 1.098108,2.60801 0.549055,0.96084 1.235371,3.70611 1.647163,5.07875 0.41179,1.37264 1.372635,3.70612 0.686319,4.66696 -0.686319,0.96085 -9.882979,7.41224 -9.882979,7.41224 l -7.137704,15.92257 -2.196219,7.00044 c 0,0 -0.274526,4.11791 -0.274526,4.66696 0,0.54906 0,5.76506 0,5.76506 l 2.333479,-12.62824 3.294327,-11.53014 5.078751,-7.82402 6.451389,-4.5297 2.745271,-0.96084 c 0,0 0.274527,1.23537 -1.5099,3.15706 -1.784424,1.92169 -3.980643,5.49054 -4.255169,7.5495 -0.274527,2.05895 -0.823582,7.27496 -0.823582,8.78486 0,1.50991 -0.137263,4.5297 -0.137263,6.45139 0,1.92169 0,6.0396 0,7.27497 0,1.23536 0,6.86318 0,6.86318 0,0 -1.098108,4.5297 -1.509901,5.76506 -0.411789,1.2354 -1.92169,6.17686 -1.372634,5.35329 0.549053,-0.82359 4.941488,-7.27498 4.941488,-8.09855 0,-0.8236 0.686318,-20.31501 0.686318,-20.86406 0,-0.54906 1.92169,-16.6089 2.33348,-17.15795 0.411792,-0.54905 3.157064,-3.15706 3.157064,-3.15706 l 1.372634,-1.37264 c 0,0 -0.823582,2.74527 -1.098108,4.5297 -0.274526,1.78443 -0.823582,1.09811 -0.274526,6.58865 0.549052,5.49054 0.686316,8.92213 0.960845,9.88298 0.274526,0.96084 1.509897,4.1179 1.098108,5.49054 -0.411792,1.37264 -0.960845,4.11791 -1.098108,4.94149 -0.137264,0.82358 -0.274529,1.5099 -0.274529,1.5099 0,0 2.470745,-4.66696 2.470745,-5.35328 0,-0.68632 0.686318,-11.80467 0.686318,-12.35372 0,-0.54906 -0.823581,-11.80467 -0.823581,-11.80467 l 1.509897,-3.0198 c 0,0 0.686319,3.15707 1.509901,6.0396 0.823581,2.88254 1.92169,8.23581 2.333479,10.43203 0.411792,2.19622 0.686319,10.84382 0.411792,12.49099 -0.274526,1.64716 -1.372637,11.80467 -1.372637,11.80467 l -1.647161,7.68675 c 0,0 3.019798,-6.17686 3.157062,-6.72592 0.137263,-0.54904 2.882537,-14.13814 2.882537,-14.13814 0,0 -2.333482,-18.80511 -2.333482,-19.35416 0,-0.54906 -3.568853,-13.86362 -3.568853,-13.86362 0,0 1.784426,-9.47119 1.784426,-10.02024 0,-0.54906 10.020239,-14.27541 10.020239,-14.27541 l 8.6476,-13.72636 7.82403,-17.02069 2.74527,-10.84382 -1.37264,-0.68632 c 0,0 -0.27452,0.82359 -0.82358,1.92169 -0.54905,1.09811 -3.98064,12.21646 -3.98064,12.21646 l -11.11835,21.41312 -10.157502,14.54994 -6.176862,10.84382 -0.823582,2.19622 c 0,0 -1.647161,-0.13727 -2.470742,-0.68632 C 88.80953,222.09245 85.240676,209.876 85.240676,209.876 l -0.549055,-18.94237 2.058956,-23.88387 6.451385,-17.98152 7.824028,-16.74616 3.0198,-8.09855 1.64716,-30.472512 2.88253,-11.804666 3.84338,-11.11835 5.35328,-16.47163 -1.92169,-9.882975 -4.39243,-6.314126 -6.17686,-4.804224 -6.588654,-1.372635 -7.000441,2.745272 -3.019798,4.255169 c 0,0 -0.274529,3.019798 -0.411792,3.568854 -0.137264,0.549055 -1.509898,3.568853 -0.686319,3.843379 0.823582,0.274527 1.647163,-0.274526 1.647163,-0.274526 l 0.960845,-3.568853 c 0,0 2.333483,-3.980643 3.019798,-4.392436 0.686319,-0.411789 5.216017,-2.882534 5.902336,-3.019798 0.686316,-0.137263 6.588652,0.274527 7.137702,0.411793 0.54906,0.137263 4.11791,4.666959 4.11791,4.666959 0,0 1.78442,4.529698 1.92169,5.078753 0.13726,0.549053 0.96085,4.25517 0.96085,4.941488 0,0.686319 0.13726,4.392435 0.13726,5.35328 0,0.960845 -1.23538,6.17686 -1.5099,7.412234 -0.27453,1.235371 -2.33348,6.314122 -2.88254,7.549493 -0.54905,1.235374 -2.19621,6.863181 -2.19621,6.863181 l -3.70612,18.393317 -0.82358,16.197099 c 0,0 0,5.35328 -0.27453,6.72592 -0.27453,1.37263 -2.196216,13.04004 -2.196216,13.04004 l -7.961286,13.86362 -7.412233,20.315 -2.33348,25.94282 0.137263,16.1971 1.098109,4.5297 z"
         id="path849" />
      <path
         style="fill:#88aa00;stroke:#000000;stroke-width:0.765;stroke-linecap:butt;stroke-linejoin:miter;stroke-opacity:1;stroke-miterlimit:4;stroke-dasharray:none"
         d="m 127.31196,154.8333 c 0,0 -1.64716,-2.05895 -1.92169,-3.08842 -0.27453,-1.02948 -0.27453,-1.44127 -0.27453,-3.56886 0,-2.12758 0,-2.53937 0.34316,-4.25517 0.34316,-1.71579 0.41179,-2.12758 1.44127,-3.91201 1.02948,-1.78443 1.64716,-3.15706 1.99032,-3.91201 0.34316,-0.75495 0.54906,-2.05895 0.54906,-2.05895 0,0 0.89221,1.64716 1.71579,3.84338 0.82358,2.19621 1.57853,3.08843 1.92169,4.39243 0.34316,1.304 0.68632,2.12758 0.75495,3.22569 0.0686,1.09811 0.13726,2.47075 0.13726,3.50022 0,1.02948 0.34316,1.57854 -0.13726,2.74528 -0.48042,1.16673 -1.78443,2.608 -1.92169,2.88253 -0.13726,0.27453 2.12759,-2.60801 2.12759,-2.95117 0,-0.34316 0.54905,-3.43158 1.0981,-4.1179 0.54906,-0.68632 2.26485,-1.99033 2.95117,-2.05896 0.68632,-0.0686 1.37264,0.13727 2.12759,0.27453 0.75495,0.13726 -0.34316,0.2059 3.08843,0.27453 3.43159,0.0686 4.1179,-0.34316 4.1179,-0.34316 0,0 -1.0981,1.57853 -1.44126,1.99032 -0.34316,0.41179 -0.48043,1.09811 -1.37264,2.88254 -0.89221,1.78442 -1.44127,2.95116 -1.99032,3.36295 -0.54906,0.41179 -1.5099,0.68632 -2.05896,0.75495 -0.54905,0.0686 -1.0981,-0.27452 -1.0981,-0.27452 l -4.59833,-1.23538 c 0,0 0.68632,-0.20589 1.23537,-0.0686 0.54905,0.13726 1.85306,0.61769 3.36296,1.09811 1.5099,0.48042 2.608,1.09811 3.01979,1.7158 0.4118,0.61768 2.26485,2.74527 3.29433,3.01979 1.02948,0.27453 3.0198,1.7158 3.50022,1.85306 0.48042,0.13726 1.23537,1.64716 1.23537,1.64716 0,0 -4.3238,2.74528 -5.69643,2.60801 -1.37264,-0.13726 -2.05896,-0.13726 -3.43159,-0.75495 -1.37264,-0.61768 -1.09811,-0.27453 -2.95117,-1.37263 -1.85306,-1.09811 -2.33348,-1.7158 -3.22569,-1.85306 -0.89222,-0.13727 -1.5099,-0.0686 -1.5099,-0.0686 l -1.64717,-4.46107 c 0,0 1.09811,2.47074 1.23538,3.29433 0.13726,0.82358 0.54905,2.88253 0.61768,3.56885 0.0686,0.68632 0.2059,2.95117 -0.41179,4.87286 -0.61769,1.92169 -0.96085,3.56885 -0.96085,3.98064 0,0.41179 -1.0981,0.41179 -1.78442,-0.41179 -0.68632,-0.82358 -3.50022,-4.59833 -3.63749,-5.49054 -0.13726,-0.89222 -0.41178,-1.64717 -0.41178,-2.53938 0,-0.89221 -0.4118,-0.68633 -0.13727,-2.95117 0.27453,-2.26485 0.2059,-3.77475 0.13727,-4.3238 -0.0686,-0.54905 -0.48043,-1.09811 -0.48043,-1.09811 0,0 0.34316,2.95117 0.2059,3.29433 -0.13727,0.34316 0.20588,0.13725 -1.23538,1.44126 -1.44126,1.30401 -2.19621,1.57854 -3.15706,1.57854 -0.96084,0 -2.05895,0 -3.77475,-0.27453 -1.71579,-0.27453 -1.99032,-0.61769 -3.29432,0.0686 -1.304,0.68632 -1.57853,1.5099 -1.57853,1.5099 0,0 1.23537,-3.29432 1.44127,-4.11791 0.20589,-0.82358 0.82358,-2.95116 1.57853,-4.25517 0.75495,-1.304 0.96084,-1.92169 1.64716,-2.40211 0.68632,-0.48042 1.71579,-0.75495 1.71579,-0.75495 l 5.01013,2.47075 c 0,0 -4.66697,-2.26485 -5.14739,-2.67665 -0.48042,-0.41179 -1.99032,0.13727 -2.47074,-2.26484 -0.48043,-2.40212 -0.48043,-2.95117 -0.41179,-3.98065 0.0686,-1.02947 -1.57853,-4.80422 -1.57853,-4.80422 0,0 3.84338,1.09811 4.87285,1.64716 1.02948,0.54905 3.29433,1.64716 3.77475,2.12759 0.48042,0.48042 1.23537,1.78442 1.23537,1.78442"
         id="path851" />
      <path
         style="fill:#88aa00;stroke:#000000;stroke-width:0.765;stroke-linecap:butt;stroke-linejoin:miter;stroke-opacity:1;stroke-miterlimit:4;stroke-dasharray:none"
         d="m 103.99979,207.90252 c 0,0 1.06766,0 2.37797,0 1.31031,0 2.28091,-0.14559 3.34857,0.29118 1.06766,0.43677 2.47503,1.40737 2.71768,1.60149 0.24265,0.19412 1.60149,0.77648 2.03826,0.92207 0.43677,0.14559 -0.0485,0.29118 -1.4559,0.53383 -1.40737,0.24265 -2.71768,1.16472 -3.54269,1.60149 -0.82501,0.43677 -1.89267,1.60149 -3.30004,1.89267 -1.40737,0.29118 -1.98973,0.4853 -3.34857,0.43677 -1.35884,-0.0485 -2.66915,-0.67942 -2.863269,-0.72795 -0.19412,-0.0485 -0.533829,-1.21325 -0.533829,-1.21325 z"
         id="path853" />
      <path
         style="fill:#88aa00;stroke:#000000;stroke-width:0.765;stroke-linecap:butt;stroke-linejoin:miter;stroke-opacity:1;stroke-miterlimit:4;stroke-dasharray:none"
         d="m 112.92931,193.68323 c 0,0 3.10592,-0.92207 3.54269,-0.87354 0.43677,0.0485 1.31031,0.14559 3.00886,-0.14559 1.69855,-0.29118 2.08679,0.14559 3.83387,-0.58236 1.74708,-0.72795 3.54269,-1.4559 3.54269,-1.4559 0,0 -1.84414,1.21325 -2.62062,1.89267 -0.77648,0.67942 -3.05739,3.34857 -4.12505,4.12505 -1.06766,0.77648 -2.03826,1.89267 -3.05739,2.62062 -1.01913,0.72795 -1.60149,1.60149 -3.00886,1.9412 -1.40737,0.33971 -4.95006,1.4559 -4.95006,1.4559 l -1.16472,-1.26178 z"
         id="path855" />
      <path
         style="fill:#88aa00;stroke:#000000;stroke-width:0.765;stroke-linecap:butt;stroke-linejoin:miter;stroke-opacity:1;stroke-miterlimit:4;stroke-dasharray:none"
         d="m 106.66894,199.02153 c 0,0 -0.58236,-3.34857 -0.38824,-3.78534 0.19412,-0.43677 0.72795,-2.81474 0.53383,-2.96033 -0.19412,-0.14559 -0.38824,-2.13532 -0.9706,-3.59122 -0.58236,-1.4559 -1.06766,-3.00886 -1.16472,-3.3971 -0.0971,-0.38824 0.4853,1.4559 0.0485,2.4265 -0.43677,0.9706 -1.06766,3.25151 -2.28091,4.75594 -1.21325,1.50443 -2.18385,2.13532 -2.717679,4.95006 -0.533831,2.81474 -0.77648,4.27064 -0.77648,4.75594 0,0.4853 0.388239,1.40737 0.67942,1.84414 0.29118,0.43677 2.572089,0.92207 2.572089,0.92207 l 1.21325,-0.58236 z"
         id="path857" />
      <path
         style="fill:#88aa00;stroke:#000000;stroke-width:0.765;stroke-linecap:butt;stroke-linejoin:miter;stroke-opacity:1;stroke-miterlimit:4;stroke-dasharray:none"
         d="m 115.59846,178.73599 c 0,0 -2.81474,2.28091 -3.20298,2.96033 -0.38824,0.67942 -0.77648,0.9706 -0.67942,2.62062 0.0971,1.65002 0.4853,3.20298 0.4853,3.20298 0,0 0.38824,0.4853 0.9706,0.63089 0.58236,0.14559 2.81575,0.5866 2.81575,0.5866 0,0 1.50342,-1.0719 1.89166,-1.46014 0.38824,-0.38824 1.16472,-1.40737 1.65002,-2.13532 0.4853,-0.72795 1.06766,-1.55296 1.65002,-2.86327 0.58236,-1.31031 1.40737,-3.00886 1.65002,-3.59122 0.24265,-0.58236 1.65002,-2.28091 1.79561,-2.71768 0.14559,-0.43677 0.63089,-1.35884 0.63089,-1.35884 0,0 -1.74708,0.87354 -2.66915,1.16472 -0.92207,0.29118 -1.11619,0.24265 -2.62062,0.77648 -1.50443,0.53383 -4.70741,2.23238 -4.70741,2.23238"
         id="path859" />
      <path
         style="fill:#44aa00;stroke:#000000;stroke-width:0.765;stroke-linecap:butt;stroke-linejoin:miter;stroke-opacity:1;stroke-miterlimit:4;stroke-dasharray:none"
         d="m 91.623432,143.64632 c 0,0 -2.264849,0.48043 -3.019798,-0.27452 -0.754949,-0.75495 -0.754949,-0.41179 -1.784427,-1.7158 -1.029475,-1.304 -1.235371,-1.71579 -1.304004,-3.15706 -0.06863,-1.44127 0.205896,-2.05895 0,-4.04928 -0.205894,-1.99032 -0.06863,-2.88253 -0.274527,-3.36295 -0.205896,-0.48042 -1.304004,-2.19622 -1.304004,-2.19622 0,0 0.617686,0.48042 2.539376,1.92169 1.92169,1.44127 3.088431,2.19622 3.706116,3.36296 0.617686,1.16674 1.304005,2.19622 1.441268,2.74527 0.137263,0.54906 0.480422,2.88253 0.480422,2.88253 l -0.06863,3.91202"
         id="path863" />
      <path
         style="fill:#44aa00;stroke:#000000;stroke-width:0.765;stroke-linecap:butt;stroke-linejoin:miter;stroke-opacity:1;stroke-miterlimit:4;stroke-dasharray:none"
         d="m 96.359026,142.06779 c 0,-0.27452 -1.372637,-0.75494 1.304005,-3.01979 2.676639,-2.26485 3.774749,-3.36296 4.872859,-4.18654 1.0981,-0.82358 3.08843,-2.53938 3.15706,-2.88254 0.0686,-0.34316 0.13726,-1.37263 0.0686,-0.48042 -0.0686,0.89221 -0.96085,5.8337 -1.23537,7.06907 -0.27453,1.23537 -1.02948,4.18654 -2.47075,5.69644 -1.44126,1.5099 -2.47074,2.53938 -3.637481,2.74527 -1.166741,0.2059 -3.225694,0.13727 -3.225694,0.13727 L 94.5746,145.70528 Z"
         id="path865" />
      <path
         style="fill:#aad400;stroke:#000000;stroke-width:0.765;stroke-linecap:butt;stroke-linejoin:miter;stroke-opacity:1;stroke-miterlimit:4;stroke-dasharray:none"
         d="m 87.111349,46.491741 c 0,0 -2.232379,0.679419 -2.377969,1.31031 -0.145589,0.630891 -0.339709,1.164719 -0.291179,2.377969 0.04853,1.213249 0.533829,3.445631 0.436769,4.416232 -0.09706,0.9706 -0.09706,1.941197 -0.630888,2.669148 -0.533832,0.727951 -0.970601,1.06766 -1.01913,1.98973 -0.04853,0.92207 0.242649,2.03826 0.436768,2.572091 0.19412,0.533829 1.407369,1.650019 1.407369,1.650019 0,0 0.727951,0.727951 1.261782,0.679421 0.533829,-0.04853 1.31031,0.339709 2.13532,-0.29118 0.825011,-0.630891 1.21325,-0.630891 1.892671,-1.358841 0.679418,-0.727949 1.504428,-1.844138 1.698548,-2.37797 0.194119,-0.533831 0.339712,-1.407369 0.339712,-2.426499 0,-1.01913 0,-1.261782 0,-2.377971 0,-1.11619 -0.388242,-3.542689 -0.485302,-3.785338 -0.09706,-0.242652 -0.291179,-0.970601 -0.291179,-1.552962 0,-0.582361 -0.582361,-3.05739 -0.582361,-3.05739 0,0 -1.820963,-0.80795 -1.820963,-0.80795 v 0 z"
         id="path867" />
      <path
         style="fill:#44aa00;stroke:#000000;stroke-width:0.765;stroke-linecap:butt;stroke-linejoin:miter;stroke-opacity:1;stroke-miterlimit:4;stroke-dasharray:none"
         d="m 83.471601,59.740431 1.9412,1.11619 c 0,0 1.455899,0.533829 2.18385,0.485299 0.727951,-0.04853 2.523559,-0.14559 2.766211,-0.19412 0.242649,-0.04853 1.455898,-1.067659 1.310309,-0.533831 -0.14559,0.533831 -2.03826,2.572091 -2.03826,2.572091 l -2.18385,0.970601 -1.650021,-0.04853 c 0,0 -0.77648,-0.679421 -1.06766,-0.9706 -0.291179,-0.29118 -0.77648,-0.970601 -1.01913,-1.455899 -0.242649,-0.485302 -0.436769,-0.9706 -0.436769,-1.213252 0,-0.24265 0.19412,-0.727949 0.19412,-0.727949 z"
         id="path869" />
      <path
         style="fill:none;stroke:#000000;stroke-width:0.765;stroke-linecap:butt;stroke-linejoin:miter;stroke-opacity:1;stroke-miterlimit:4;stroke-dasharray:none"
         d="m 85.772574,63.244189 c -0.154422,0.03432 -0.857899,0.308843 -0.857899,0.446106 0,0.137264 0.06863,0.549056 0.17158,0.652003 0.102947,0.102949 0.617686,0.308842 0.754949,0.326001 0.137263,0.01717 0.326001,-0.01714 0.531897,-0.06863 0.205896,-0.05147 0.397624,0.06553 0.737791,-0.188737 0.340169,-0.25427 0.25737,-0.463265 0.223054,-0.634844 -0.03432,-0.17158 -0.03432,-0.257371 -0.24021,-0.394634 -0.205896,-0.137264 -0.308845,-0.17158 -0.566214,-0.223052 -0.257368,-0.05147 -0.754948,0.08579 -0.754948,0.08579 z"
         id="path873" />
    </g>
  </g>
</svg>
