<?xml version="1.0" encoding="UTF-8" standalone="no"?>
<svg
   xmlns:dc="http://purl.org/dc/elements/1.1/"
   xmlns:cc="http://creativecommons.org/ns#"
   xmlns:rdf="http://www.w3.org/1999/02/22-rdf-syntax-ns#"
   xmlns:svg="http://www.w3.org/2000/svg"
   xmlns="http://www.w3.org/2000/svg"
   width="210mm"
   height="297mm"
   viewBox="0 0 210 297"
   version="1.1"
   id="svg8">
  <defs
     id="defs2" />
  <metadata
     id="metadata5">
    <rdf:RDF>
      <cc:Work
         rdf:about="">
        <dc:format>image/svg+xml</dc:format>
        <dc:type
           rdf:resource="http://purl.org/dc/dcmitype/StillImage" />
        <dc:title></dc:title>
      </cc:Work>
    </rdf:RDF>
  </metadata>
  <g
     id="layer1">
    <path
       style="fill:#deaa87;stroke:#000000;stroke-width:1.165;stroke-linecap:butt;stroke-linejoin:miter;stroke-miterlimit:4;stroke-dasharray:none;stroke-opacity:1"
       d="m 82.359314,62.182935 c 0,0 -7.607488,-10.25357 -8.930529,-11.907372 -1.323041,-1.653799 -2.854627,-5.983298 -4.630643,-6.119064 -4.328825,-0.330914 -5.247951,-5.751063 -7.077156,-7.980023 -0.921332,-1.12268 -0.211555,-6.77739 -0.530331,-7.069571 -2.010699,-1.842945 -10.915092,-5.953685 -12.568891,-5.622924 -1.653802,0.33076 -5.953687,11.245851 -4.961405,14.222692 0.99228,2.976843 6.284446,3.969125 6.615204,5.953685 0.330761,1.984563 4.465265,5.788305 5.788306,8.765148 1.323041,2.976843 4.961406,5.788306 7.607488,11.08047 2.646082,5.292164 22.326319,30.760707 22.326319,30.760707 l 14.884214,12.238137 c 0,0 5.95368,16.86877 3.96912,22.82245 -1.98456,5.95369 -13.891928,36.38364 -25.137778,41.6758 -11.24585,5.29217 -5.928927,6.78462 -15.545734,14.88421 -9.770749,8.22925 -13.782398,44.61203 -6.945966,50.60633 1.793389,1.57247 8.269007,24.1455 10.584328,25.46854 2.315321,1.32304 25.468543,6.6152 29.437666,6.6152 3.969124,0 17.530294,0 21.499424,-1.65378 3.96912,-1.65381 26.79158,-10.58434 27.12234,-11.90738 0.33076,-1.32305 16.20725,-26.13007 16.86877,-27.78387 0.66152,-1.6538 9.26129,-26.13006 10.58433,-31.42223 1.32304,-5.29216 5.62293,-14.88421 7.60749,-18.19181 1.98456,-3.3076 5.29216,-6.94597 6.28445,-11.57661 0.99228,-4.63065 1.6538,-7.60749 1.6538,-7.60749 0,0 -8.93053,6.28444 -9.59205,8.26901 -0.66152,1.98456 -10.58433,13.23041 -11.57661,16.53801 -0.99228,3.30761 -8.93053,25.46854 -11.90737,30.76071 -2.97684,5.29216 -6.94597,17.53029 -14.22269,23.48398 -7.27673,5.95369 -9.26129,14.22269 -24.80703,15.21497 -15.54573,0.99228 -23.483977,2.64609 -30.760704,-5.29216 -7.276727,-7.93825 -11.24585,-22.4917 -11.576611,-28.77615 -0.330758,-6.28444 0.661522,-17.53029 4.299884,-23.15322 3.638365,-5.62292 20.176379,-20.17637 26.130061,-27.12234 5.95369,-6.94597 6.24717,-8.80326 9.55477,-17.73379 3.3076,-8.93053 12.94667,-12.9799 10.63135,-22.24119 -2.31533,-9.26129 0.24076,-9.43154 -5.38216,-16.04675 -5.62293,-6.6152 -20.426881,-25.014543 -20.426881,-25.014543 z"
       id="path833" />
  </g>
</svg>
