<?xml version="1.0" encoding="UTF-8" standalone="no"?>
<svg
   xmlns:dc="http://purl.org/dc/elements/1.1/"
   xmlns:cc="http://creativecommons.org/ns#"
   xmlns:rdf="http://www.w3.org/1999/02/22-rdf-syntax-ns#"
   xmlns:svg="http://www.w3.org/2000/svg"
   xmlns="http://www.w3.org/2000/svg"
   xmlns:sodipodi="http://sodipodi.sourceforge.net/DTD/sodipodi-0.dtd"
   xmlns:inkscape="http://www.inkscape.org/namespaces/inkscape"
   width="210mm"
   height="297mm"
   viewBox="0 0 210 297"
   version="1.1"
   id="svg955"
   sodipodi:docname="nucleus.svg"
   inkscape:version="1.0.2 (e86c870879, 2021-01-15, custom)">
  <sodipodi:namedview
     pagecolor="#ffffff"
     bordercolor="#666666"
     borderopacity="1"
     objecttolerance="10"
     gridtolerance="10"
     guidetolerance="10"
     inkscape:pageopacity="0"
     inkscape:pageshadow="2"
     inkscape:window-width="1920"
     inkscape:window-height="1001"
     id="namedview29"
     showgrid="false"
     inkscape:zoom="0.35709055"
     inkscape:cx="386.87111"
     inkscape:cy="949.90279"
     inkscape:window-x="-9"
     inkscape:window-y="-9"
     inkscape:window-maximized="1"
     inkscape:current-layer="svg955" />
  <defs
     id="defs949" />
  <metadata
     id="metadata952">
    <rdf:RDF>
      <cc:Work
         rdf:about="">
        <dc:format>image/svg+xml</dc:format>
        <dc:type
           rdf:resource="http://purl.org/dc/dcmitype/StillImage" />
        <dc:title />
      </cc:Work>
    </rdf:RDF>
  </metadata>
  <g
     id="g919">
    <g
       id="layer1-9"
       style="opacity:0.967213"
       transform="translate(-5.5786046,9.9371628)">
      <path
         id="path847"
         style="fill:none;stroke:#000000;stroke-width:0.433277px;stroke-linecap:butt;stroke-linejoin:miter;stroke-opacity:1"
         d="M 110.65913,61.42988 C 96.02656,66.341735 81.447302,73.054758 71.907979,85.48041 54.995325,104.5481 41.095445,126.63429 33.320774,150.80943 c -3.699379,18.10989 -9.024502,38.18621 0.735225,55.44478 5.60734,12.96853 21.324654,14.83899 33.458028,18.63892 18.93114,4.7596 41.049363,6.59189 57.523253,-5.75119 6.99091,-6.34353 29.32268,-11.17555 16.97375,-21.95592 1.86267,-8.01432 17.51529,-4.91144 12.56808,3.67204 13.66262,-3.85257 21.20757,-16.42157 26.52949,-28.33296 8.37531,-13.18258 12.85592,-28.72674 10.50672,-44.26077 0.11443,-14.53049 -6.79619,-28.17416 -15.99948,-39.112832 C 157.37924,74.464416 135.83211,58.181602 110.65913,61.42988 Z" />
      <path
         id="path847-8"
         style="fill:#ffe6d5;stroke:#000000;stroke-width:0.424217px;stroke-linecap:butt;stroke-linejoin:miter;stroke-opacity:1"
         d="M 110.81999,63.536733 C 96.464176,68.360793 82.204333,75.016735 72.883148,87.229924 56.414035,105.90137 42.996558,127.49455 35.211157,151.04511 c -3.493233,18.26369 -9.069899,38.58931 1.402998,55.74774 5.951095,12.11431 20.903878,13.50264 32.541008,17.26781 18.529469,4.72466 40.235377,6.1701 56.214477,-6.07535 6.12172,-5.90968 28.76295,-11.17361 15.99112,-20.11529 2.97562,-12.04345 15.93911,-1.35262 14.45085,1.86835 16.51875,-6.27113 21.67726,-23.99362 29.35342,-37.85978 7.48945,-15.06875 5.73558,-32.67337 2.26906,-48.5089 C 182.87788,101.0975 175.47304,89.510014 163.8832,82.582527 148.78721,71.250359 130.62828,60.868565 110.81999,63.536733 Z" />
    </g>
    <path
       id="path1614"
       style="fill:#e5ff80;stroke:#000000;stroke-width:0.765;stroke-linecap:butt;stroke-linejoin:miter;stroke-miterlimit:4;stroke-dasharray:none;stroke-opacity:1"
       d="m 63.122023,145.42634 c 5.581947,-1.66836 11.721744,-1.93168 17.193832,0.28645 6.417008,2.51925 11.205279,8.37933 12.899735,15.00478 0.45812,2.7809 2.437309,5.60365 1.668896,8.3962 -1.565169,5.45242 -3.686673,11.39013 -8.697564,14.5958 -3.784959,2.65092 -7.928008,5.13988 -12.637882,5.53971 -3.76301,0.60253 -7.541926,-0.26883 -11.200905,-1.08989 -3.827235,-2.59916 -8.452645,-4.6442 -10.644293,-8.98242 -3.342712,-4.6543 -5.757973,-10.71136 -3.997195,-16.44306 -0.07461,-5.53872 4.360173,-9.6729 8.499687,-12.69127 2.209081,-1.67612 4.499583,-3.25196 6.915689,-4.6163 z" />
    <path
       id="path1622"
       style="fill:#ccff00;stroke:#000000;stroke-width:0.264583px;stroke-linecap:butt;stroke-linejoin:miter;stroke-opacity:1"
       d="m 59.868373,154.84928 c -1.413034,1.03266 -3.001718,1.9854 -3.538288,3.78096 -1.069337,1.94915 -0.825783,4.19888 -0.06566,6.19054 0.141763,1.97212 2.252171,2.42316 3.710537,3.14803 1.646596,1.01817 3.635467,1.03805 5.439777,0.43696 2.13656,-0.96424 4.545855,-2.33139 4.983729,-4.87091 0.855411,-1.83119 0.843042,-3.94933 -0.03158,-5.76284 -0.985464,-1.75162 -2.781503,-3.01065 -4.775412,-3.30608 -1.879993,-0.4448 -3.809066,-0.23798 -5.656288,0.24971" />
    <path
       style="fill:none;stroke:#958181;stroke-width:0.264583px;stroke-linecap:butt;stroke-linejoin:miter;stroke-opacity:1"
       d="m 68.697173,146.27678 c -0.333849,0.57033 -0.746139,1.02289 -0.850448,1.7009 -0.06783,0.44089 0.01225,1.19516 0.09449,1.60639 0.379624,1.89812 1.529583,1.75314 3.307292,1.88989 0.283213,0.0218 1.537838,0.12877 1.795388,0 0.28488,-0.14244 0.274206,-0.96625 0.566965,-1.03944 0.736341,-0.18408 1.935525,0.56483 2.362351,1.13393 0.336018,0.44803 0.534604,1.59906 0.377976,2.17336 -0.137626,0.50463 -1.370526,1.55928 -1.795389,1.7009 -0.149407,0.0498 -0.31656,-0.0223 -0.472469,0 -0.263792,0.0377 -0.717174,0.28687 -0.94494,0.37797 -0.654344,0.26174 -0.944941,0.28813 -0.944941,1.03944 0,0.25198 -0.102341,0.52568 0,0.75595 0.740796,1.66679 1.372859,1.6064 3.023809,1.6064 1.826646,0 3.58086,0.13051 4.819197,-1.41741 0.441577,-0.55197 0.383199,-0.6757 0.472469,-1.32292 0.125479,-0.9097 0.506209,-1.84943 0.283483,-2.74033 -0.189947,-0.75979 -1.182677,-0.79275 -1.795386,-0.66145 -1.047038,0.22436 -3.879781,2.94044 -5.008184,2.45684 -0.12283,-0.0526 -0.177998,-0.20144 -0.283482,-0.28348 -0.17929,-0.13945 -0.386932,-0.23949 -0.566965,-0.37798 -0.806231,-0.62018 -1.612427,-1.04345 -2.456845,-1.6064 -0.148253,-0.0988 -0.23115,-0.27703 -0.377975,-0.37797 -0.691155,-0.47517 -1.594345,-1.03341 -2.362354,-1.41741 -0.307416,-0.15371 -0.296156,-0.0127 -0.566962,-0.28349 -0.190296,-0.19029 -0.218213,-0.49486 -0.283483,-0.75595 -0.299844,-1.19938 1.039434,-1.74329 1.039434,-2.07887 0,-0.0315 -0.06299,0 -0.09449,0 -0.251984,0 -0.503968,0 -0.755954,0 -1.663369,0 -0.430279,-0.084 -1.795386,0.18899 -1.137851,0.22757 -0.99477,0.42781 -1.795386,1.22842 -0.08031,0.0803 -0.220487,0.0945 -0.283482,0.18899 -0.101947,0.15292 -0.191238,0.94044 -0.0945,1.13393 0.110019,0.22004 0.280371,0.41329 0.472472,0.56697 0.04816,0.0385 1.066776,0.66145 0.377976,0.66145 -0.568807,0 -0.979483,-0.35399 -1.511906,-0.56696 -1.302568,-0.52103 -2.900175,-1.03802 -4.157737,-0.28348 -0.362646,0.21758 -1.109522,0.46934 -1.228423,0.94494 -0.0059,0.0237 -0.02553,0.55768 0,0.56696 0.572241,0.20809 1.625071,0.44418 2.267857,0.28348 0.342109,-0.0855 1.193618,-0.78218 1.41741,-0.94494 1.830327,-1.33114 3.273666,-1.54755 5.480656,-2.07887 1.879013,-0.45235 3.698923,-0.88658 5.575149,-1.32291 0.590241,-0.13727 3.901477,-1.11544 4.630208,-0.85045 0.189543,0.0689 0.307243,0.26232 0.47247,0.37798 0.150463,0.10532 0.348924,0.14758 0.472471,0.28348 0.66806,0.73487 1.216271,2.754 0.472469,3.59077 -0.403722,0.45419 -1.131228,0.65696 -1.41741,1.13393 -0.614383,1.02398 -0.08634,3.33761 0.566963,4.25223 0.468029,0.65524 1.105278,1.50661 1.795388,1.98438 0.637776,0.44154 1.803998,0.57353 2.55134,0.66146 0.411512,0.0484 0.902243,0.17098 1.322917,0.0945 0.89866,-0.16339 1.761802,-1.56187 1.889879,-2.36235 0.01397,-0.0872 0.171953,-2.46536 -0.188987,-2.64583 -1.069583,-0.5348 -3.069717,3.93775 -3.212798,4.7247 -0.174937,0.96216 0.621628,1.25881 1.228423,1.88988 0.417092,0.43377 0.785561,0.91548 1.228421,1.32292 1.121804,1.03206 1.309336,0.74237 2.456847,1.88988 0.608605,0.6086 0.926592,2.69655 1.133927,3.49628 0.213694,0.82424 0.679276,1.99433 0.188989,2.83482 -0.0052,0.009 -1.675209,2.27363 -1.984375,2.45684 -0.583697,0.3459 -1.252243,0.52409 -1.889881,0.75596 -0.09368,0.0341 -0.437412,-0.0339 -0.472469,-0.0945 -0.813464,-1.40507 -1.670497,-3.64667 -2.173365,-5.19717 -0.351864,-1.08492 -1.207751,-3.43919 -0.850444,-4.63021 0.274544,-0.91515 1.735883,-1.74027 2.645833,-1.22842 1.804487,1.01502 2.981492,3.1769 1.511903,4.91369 -0.260554,0.30793 -0.423047,0.71716 -0.755952,0.94494 -0.296394,0.2028 -0.697208,0.17459 -1.039434,0.28348 -1.008679,0.32095 -1.018799,0.40021 -1.984375,0.75595 -0.860721,0.31711 -1.232908,0.33204 -1.606399,1.22843 -0.09506,0.22814 0.157115,3.18707 0.377976,3.49628 0.09027,0.12637 0.527251,0.5495 0.755952,0.37797 0.431773,-0.32383 0.715743,-1.41576 0.850447,-1.79538 1.042773,-2.93873 2.219211,-7.26458 -1.984375,-8.31548 -0.07781,-0.0195 -1.092724,-0.18085 -1.228423,-0.0945 -0.228595,0.14548 -0.342723,0.42359 -0.472469,0.66146 -0.0909,0.16665 -0.896006,1.79482 -0.944941,2.26786 -0.169236,1.63595 0.16365,1.74998 -0.09449,3.2128 -0.08827,0.50016 -0.579557,0.84664 -0.755955,1.32292 -0.180422,0.48714 -0.213701,1.01908 -0.377975,1.5119 -0.0688,0.2064 -0.435468,0.8158 -0.661459,0.94494 -0.02336,0.0134 -0.783373,0.19989 -0.850445,0.0945 -0.472635,-0.74272 -0.569383,-1.314 -0.661458,-2.17337 -0.353372,-3.29813 0.114133,-2.94106 1.795386,-5.10268 0.331578,-0.42631 1.277329,-2.40348 0.09449,-2.55134 -2.300645,-0.28758 -2.078085,0.43811 -2.551337,2.17337 -0.482315,1.76848 -0.293987,0.32025 -0.566965,1.88988 -0.163912,0.9425 -0.153096,2.10561 -0.472472,3.02381 -0.148156,0.42595 -0.402625,0.80845 -0.566963,1.22842 -0.254875,0.65135 -0.30708,1.40725 -0.755954,1.98437 -0.783852,1.00782 -1.776867,1.77229 -2.83482,2.45685 -0.129989,0.0841 -0.678995,0.1736 -0.755951,0.18899 -0.900242,0.18005 -0.90459,0.21304 -2.267858,0.0945 -0.978768,-0.0851 -1.745895,-1.69337 -1.511906,-2.55134 0.174901,-0.64129 0.824704,-1.40454 1.41741,-1.70089 0.139253,-0.0696 0.785636,-0.27359 1.039437,-0.18899 0.644835,0.21495 1.824059,2.10331 2.078868,2.74033 0.341022,0.85255 0.02827,1.78416 0.850445,2.45685 0.154184,0.12614 0.382003,0.115 0.566965,0.18898 0.288034,0.11521 0.547614,0.31068 0.850448,0.37798 1.269629,0.28214 1.953948,0.15586 3.212796,0.18899 0.693433,0.0182 1.385583,0.0714 2.07887,0.0945 0.251844,0.008 0.503968,0 0.755952,0 0.09449,0 0.207886,0.0567 0.283483,0 0.159369,-0.11953 0.110513,-0.38386 0.188986,-0.56696 0.294963,-0.68824 0.586843,-1.73793 -0.09449,-2.26786 -1.656826,-1.28864 -2.725632,2.71337 -2.267858,3.59077 0.557324,1.06821 1.688434,1.28991 2.74033,1.41741 0.873696,0.10591 3.571057,0.13388 4.441219,0 0.08805,-0.0135 0.121941,-0.13032 0.188989,-0.18898 0.185139,-0.162 0.384932,-0.30699 0.566962,-0.47247 0.511157,-0.46469 1.023432,-0.92894 1.511906,-1.41741 0.0498,-0.0498 0.02405,-0.18899 0.09449,-0.18899 0.300197,0 0.183912,1.62694 -0.09449,1.88988 -1.9778,1.86792 -5.519885,2.76431 -8.126489,2.64583 -0.762111,-0.0346 -1.659702,-0.54637 -2.267857,-0.85045 -0.227135,-0.11356 -0.481891,-0.1984 -0.661459,-0.37797 -0.435623,-0.43563 -0.08212,-1.77713 0.188989,-2.17337 0.432499,-0.63211 1.483895,-1.59039 2.173365,-1.98437 1.600517,-0.91458 3.462459,-0.50729 3.307291,-2.83482 -0.04342,-0.65131 -0.08889,-1.41836 -0.661458,-1.88988 -1.123011,-0.92483 -4.178022,0.0498 -5.197173,0.37797 -1.081006,0.34812 -2.137148,0.7696 -3.212799,1.13393 -1.915033,0.64864 -3.453831,1.01473 -5.291666,1.88988 -0.473308,0.22539 -0.831006,0.66922 -1.322917,0.85045 -0.975087,0.35924 -3.053466,0.66966 -4.157736,0.47247 -0.292526,-0.0522 -0.612752,-0.2121 -0.755955,-0.47247 -1.192522,-2.16822 1.43011,-4.18687 0.944941,-5.48066 -0.263353,-0.70227 -0.635431,-0.95625 -1.322917,-1.32291 -0.561152,-0.29928 -1.823606,-0.54345 -2.36235,-0.0945 -0.232119,0.19344 -0.163703,0.32741 -0.283483,0.56697 -0.388316,0.77663 -0.456168,1.7557 0.377976,2.36235 0.08472,0.0616 1.3702,0.66139 1.511906,0.37798 0.254434,-0.50887 0.371136,-1.62287 0.472469,-2.07887 0.102724,-0.46225 0.357058,-1.3332 0.188989,-1.79539 -0.420894,-1.15746 -2.085787,-0.63417 -2.929316,-0.94494 -0.810212,-0.2985 -1.396362,-1.19797 -1.889881,-1.79539 -0.404969,-0.49022 -0.894901,-0.95599 -1.039434,-1.6064 -0.01799,-0.081 -0.205471,-2.52533 0,-2.45684 0.566388,0.1888 0.625726,0.21202 0.94494,0.85044 0.230381,0.46077 0.272831,2.56466 1.039434,1.6064 0.286886,-0.3586 0.546434,-0.76832 0.661459,-1.22842 0.06861,-0.27443 0.02535,-0.57391 0.09449,-0.85044 0.242141,-0.96857 -0.469313,-1.93815 -0.661458,-2.83483 -0.201928,-0.94233 0.141716,-2.59856 0.755954,-3.21279 0.321082,-0.32109 1.52985,2.35877 1.606399,2.64583 0.290362,1.08886 0.07288,2.40305 0,3.49628 -0.119806,1.79708 0.116412,2.59566 0.377976,4.25223 0.132247,0.83757 0.458518,2.67268 1.511903,3.02381 0.815716,0.2719 0.307025,-2.46633 -0.377976,-2.74033 -0.256926,-0.10277 -1.315987,0.45074 -1.41741,0.47247 -0.739407,0.15845 -1.708904,-0.0356 -2.456846,0 -0.410218,0.0195 -0.861095,0.27816 -1.228421,0.0945 -0.07969,-0.0398 -0.137208,-0.11649 -0.188989,-0.18899 -1.15696,-1.61975 -0.944941,-3.69588 -0.944941,-5.57515 0,-0.1439 0.024,-2.00299 0.283483,-1.79539 0.80269,0.64216 1.252005,2.06361 1.700892,2.92932 1.394219,2.68885 2.678194,5.11886 5.480656,6.52009 1.252424,0.62621 2.218811,0.61415 3.590774,0.66146 0.473236,0.0163 0.944621,0.0682 1.41741,0.0945 0.188698,0.0105 0.433329,0.13364 0.566965,0 0.189333,-0.18933 0.220538,-1.49092 -0.283483,-1.32291 -1.732417,0.57747 -1.744173,0.68655 -2.267857,2.36235 -0.07155,0.22896 -0.207624,0.43388 -0.283483,0.66145 -0.1241,0.37231 -0.01397,1.73312 0,1.98438 0.03046,0.54834 0.318162,0.97356 0.377976,1.5119 0.07495,0.67456 -0.518938,1.22085 -1.228421,0.94494 -2.063585,-0.8025 -2.759172,-2.41888 -3.401787,-4.34672 -0.135477,-0.40644 -0.218863,-0.83065 -0.377976,-1.22843 -0.625401,-1.5635 -0.542602,-0.63414 -0.850445,-2.17336 -0.223917,-1.11957 -0.03325,-2.39396 -0.0945,-3.49628 -0.05611,-1.01008 -0.219051,-2.48976 -0.377976,-3.49628 -0.293624,-1.85961 -1.279093,-1.70842 -2.36235,-3.02381 -0.244417,-0.29679 -0.515067,-0.58942 -0.661459,-0.94494 -0.214704,-0.52142 0.08102,-2.89564 0.283483,-3.40178 0.76645,-1.91613 0.971973,-0.70197 2.55134,-1.22842 0.359304,-0.11977 1.805128,-1.05893 1.889879,-1.22843 0.06598,-0.13196 0.252254,-0.85045 -0.09449,-0.85045 -0.923878,0 -0.705139,2.31154 -0.755952,2.36236 -0.393586,0.39358 -1.25608,0.85044 -1.795388,0.85044"
       id="path1628" />
    <text
       xml:space="preserve"
       style="font-size:10.5833px;line-height:1.25;font-family:sans-serif;letter-spacing:0px;word-spacing:0px;stroke-width:0.264583"
       x="18.153074"
       y="75.946541"
       id="text856"><tspan
         sodipodi:role="line"
         id="tspan854"
         x="18.153074"
         y="75.946541"
         style="stroke-width:0.264583">Nucleus</tspan></text>
    <path
       style="fill:none;stroke:#000000;stroke-width:0.58208333;stroke-linecap:butt;stroke-linejoin:miter;stroke-opacity:1;stroke-miterlimit:4;stroke-dasharray:none"
       d="M 32.971912,79.280776 C 63.122021,145.42634 63.122021,145.42634 63.122021,145.42634"
       id="path858" />
    <text
       xml:space="preserve"
       style="font-size:10.5833px;line-height:1.25;font-family:sans-serif;letter-spacing:0px;word-spacing:0px;stroke-width:0.264583"
       x="155.22731"
       y="237.10138"
       id="text862"><tspan
         sodipodi:role="line"
         id="tspan860"
         x="155.22731"
         y="237.10138"
         style="stroke-width:0.264583">Nucleolus</tspan></text>
    <path
       style="fill:none;stroke:#000000;stroke-width:0.68791667;stroke-linecap:butt;stroke-linejoin:miter;stroke-opacity:1;stroke-miterlimit:4;stroke-dasharray:none"
       d="m 64.091467,160.41391 c 88.542553,69.64853 88.172083,70.019 88.172083,70.019"
       id="path864" />
  </g>
</svg>
