<?xml version="1.0" encoding="UTF-8" standalone="no"?>
<svg
   xmlns:dc="http://purl.org/dc/elements/1.1/"
   xmlns:cc="http://creativecommons.org/ns#"
   xmlns:rdf="http://www.w3.org/1999/02/22-rdf-syntax-ns#"
   xmlns:svg="http://www.w3.org/2000/svg"
   xmlns="http://www.w3.org/2000/svg"
   xmlns:sodipodi="http://sodipodi.sourceforge.net/DTD/sodipodi-0.dtd"
   xmlns:inkscape="http://www.inkscape.org/namespaces/inkscape"
   width="210mm"
   height="297mm"
   viewBox="0 0 210 297"
   version="1.1"
   id="svg8"
   inkscape:version="1.0.2 (e86c870879, 2021-01-15, custom)"
   sodipodi:docname="pigeon.svg">
  <defs
     id="defs2" />
  <sodipodi:namedview
     id="base"
     pagecolor="#ffffff"
     bordercolor="#666666"
     borderopacity="1.0"
     inkscape:pageopacity="0.0"
     inkscape:pageshadow="2"
     inkscape:zoom="0.68149425"
     inkscape:cx="866.3747"
     inkscape:cy="216.76664"
     inkscape:document-units="mm"
     inkscape:current-layer="layer1"
     inkscape:document-rotation="0"
     showgrid="false"
     inkscape:window-width="1920"
     inkscape:window-height="1017"
     inkscape:window-x="-8"
     inkscape:window-y="-8"
     inkscape:window-maximized="1" />
  <metadata
     id="metadata5">
    <rdf:RDF>
      <cc:Work
         rdf:about="">
        <dc:format>image/svg+xml</dc:format>
        <dc:type
           rdf:resource="http://purl.org/dc/dcmitype/StillImage" />
        <dc:title></dc:title>
      </cc:Work>
    </rdf:RDF>
  </metadata>
  <g
     inkscape:label="Layer 1"
     inkscape:groupmode="layer"
     id="layer1">
    <g
       id="g1074">
      <path
         style="fill:#b3b3b3;stroke:#000000;stroke-width:0.802024;stroke-linecap:butt;stroke-linejoin:miter;stroke-miterlimit:4;stroke-dasharray:none;stroke-opacity:1"
         d="m 58.339468,39.787951 -2.874295,-2.849344 h -2.438794 c 0,0 -2.612995,0.445208 -3.222695,0.445208 -0.609698,0 -1.916196,-0.445208 -3.832391,0.623296 -1.916197,1.068505 -5.66149,2.493177 -5.66149,2.493177 l -4.529191,7.835702 -1.219397,4.36306 -1.916198,1.246589 0.261301,1.513714 -0.783899,0.712337 -2.003295,2.315094 -1.393599,2.849344 0.174201,2.047968 c 0,0 -0.958098,0.623294 0.783898,-0.08904 1.741997,-0.712338 4.354992,-1.424674 4.79049,-1.869883 0.4355,-0.445211 2.090396,-1.424675 2.874294,-1.424675 0.783899,0 2.090396,-0.356167 2.961395,0.35617 0.870999,0.712335 2.525896,2.22605 2.525896,2.22605 0,0 0.435498,0.623294 0.348399,1.513716 -0.0871,0.89042 -1.045198,13.712475 -1.045198,13.712475 0,0 -1.829097,9.527503 -1.829097,9.883667 0,0.356171 -0.261299,6.589115 -0.261299,6.589115 l -1.045198,8.637079 2.612995,9.61654 5.22599,10.596 c 0,0 6.532487,5.25348 6.532487,5.87678 0,0.62329 10.451978,8.54804 10.451978,8.54804 l 7.838984,5.52061 9.755181,5.96581 4.79049,2.04797 6.706687,2.31509 3.135592,2.76031 2.090393,4.18497 1.916207,2.84935 3.13559,3.47263 2.00329,-2.93838 c 0,0 0.2613,-2.13701 0.4355,-3.02743 0.1742,-0.89042 1.1323,-1.78084 1.1323,-2.13701 0,-0.35617 -1.5678,-2.31509 0,-2.58222 1.5678,-0.26712 5.22599,-0.71234 5.83569,-0.80138 0.6097,-0.089 4.18079,-0.44521 5.48729,-0.80137 1.30649,-0.35618 3.57109,-1.51372 3.57109,-1.51372 0,0 12.28108,3.20551 12.80368,3.20551 0.5226,0 12.54237,1.6918 12.54237,1.6918 l 5.83569,0.44521 15.24247,10.06175 9.05838,5.16444 c 0,0 0.52259,0.26713 0.52259,-0.089 0,-0.35616 -1.91619,-3.20551 -1.91619,-3.20551 l -2.00329,-2.04797 5.40019,2.84934 3.65819,1.06851 c 0,0 0.5226,-0.35616 0.5226,-0.71233 0,-0.35618 -0.9581,-1.60277 -0.9581,-1.60277 l 2.87429,0.35618 c 0,0 1.0452,0 0.95811,-0.35618 -0.0871,-0.35616 -4.1808,-6.5891 -4.355,-6.94527 -0.1742,-0.35617 -2.0904,-2.58222 -2.0904,-2.58222 0,0 2.0033,-0.35617 2.2646,-0.71234 0.2613,-0.35617 -0.0871,-4.00689 -0.0871,-4.00689 0,0 -3.04849,-2.58222 -3.6582,-3.02743 -0.6097,-0.44521 -3.91949,-1.51372 -3.91949,-1.51372 0,0 4.44209,0.17809 5.05179,0.089 0.6097,-0.089 1.5678,-0.4452 1.6549,-0.80137 0.0871,-0.35617 0,-0.80138 -0.6097,-1.33563 -0.6097,-0.53426 -1.56779,-1.86989 -2.61299,-2.67126 -1.0452,-0.80139 -29.52684,-17.27416 -29.52684,-17.27416 l -7.40349,-8.99325 -12.62947,-13.26726 -4.18079,-3.65073 -13.06498,-12.287803 -11.845577,-7.479533 c 0,0 -7.142181,-4.630186 -7.490583,-4.80827 -0.348403,-0.178084 -7.838986,-7.034322 -7.838986,-7.034322 L 80.898321,67.747157 75.759433,59.19912 c 0,0 -1.045198,-4.36306 -1.393599,-5.25348 -0.348398,-0.890422 -4.180791,-6.143901 -4.180791,-6.143901 L 64.262256,43.17155 60.168564,40.500289 Z"
         id="path847" />
      <path
         style="fill:#ffdd55;stroke:#000000;stroke-width:0.802024;stroke-linecap:butt;stroke-linejoin:miter;stroke-miterlimit:4;stroke-dasharray:none;stroke-opacity:1"
         d="m 34.561215,52.69905 c 0,0 0.958097,0 1.088748,0.04452 0.130649,0.04452 0.936323,0.333908 1.110523,0.422949 0.174199,0.08904 1.415372,1.023984 1.698446,1.157546 0.283075,0.133564 0.762124,0.267126 0.762124,0.378429 0,0.111303 -0.21775,0.801379 -0.283075,0.890422 -0.06533,0.08904 -0.609698,0.845899 -0.870998,0.912681 -0.261299,0.06678 -1.807322,-0.04452 -1.937971,-0.04452 -0.13065,0 -2.221047,-0.311647 -2.329922,-0.356168 -0.108875,-0.04452 -0.892772,-0.645554 -0.892772,-0.645554 l -0.261301,-1.513714 z"
         id="path849" />
      <path
         style="fill:#ff5555;stroke:#000000;stroke-width:0.802024;stroke-linecap:butt;stroke-linejoin:miter;stroke-miterlimit:4;stroke-dasharray:none;stroke-opacity:1"
         d="m 32.906318,55.459355 0.675025,0.645553 3.984815,0.578773 c 0,0 -0.892773,0.623296 -1.001648,0.712337 -0.108873,0.08904 -0.892772,0.712337 -1.023422,0.734596 -0.130649,0.02226 -2.54767,1.847624 -2.54767,1.847624 0,0 -2.308145,1.157546 -2.50412,1.424672 -0.195975,0.267126 -1.284723,1.023984 -1.328273,1.157546 -0.04355,0.133564 -0.261299,0.82364 -0.261299,0.82364 l -0.174201,-2.04797 1.393599,-2.849342 2.787194,-3.027429"
         id="path851" />
      <path
         style="fill:#ff5555;stroke:#000000;stroke-width:0.802024;stroke-linecap:butt;stroke-linejoin:miter;stroke-miterlimit:4;stroke-dasharray:none;stroke-opacity:1"
         d="m 39.177507,55.303529 0.870997,-0.957202 c 0,0 0.326625,-0.08904 0.479049,0.04452 0.152425,0.133563 0.239524,0.200343 0.283074,0.467469 0.04355,0.267127 0,2.114751 0,2.203792 0,0.08904 -0.152425,2.070229 -0.152425,2.070229 l -0.479049,1.179806 c 0,0 -1.371821,-0.42295 -1.546021,-0.400688 -0.1742,0.02226 -1.306498,0.08904 -1.502471,0.155823 -0.195976,0.06678 -0.65325,0.356168 -0.914549,0.445211 -0.2613,0.08904 -1.589572,0.756857 -1.698446,0.845899 -0.108875,0.08904 -1.589573,0.645555 -1.589573,0.645555 l -3.462218,1.380151 h -0.566149 l 0.283075,-0.86816 1.154073,-0.712335 c 0,0 0.979872,-0.690078 1.088747,-0.779119 0.108875,-0.08904 2.133946,-1.224328 2.133946,-1.224328 l 4.006591,-3.116473 1.066974,-0.534253 c 0,0 0.479049,-0.378428 0.500823,-0.467469 0.02178,-0.08904 0.04355,-0.37843 0.04355,-0.37843 z"
         id="path853" />
      <path
         style="fill:#b3b3b3;stroke:#000000;stroke-width:0.802024;stroke-linecap:butt;stroke-linejoin:miter;stroke-miterlimit:4;stroke-dasharray:none;stroke-opacity:1"
         d="m 43.684921,51.185334 c -0.02177,-0.111303 0.108875,-1.35789 0.108875,-1.491454 0,-0.133562 0.6968,-1.090764 0.805675,-1.246589 0.108874,-0.155824 0.587924,-0.48973 1.110522,-0.623294 0.522599,-0.133562 1.393597,-0.289385 1.89442,-0.133562 0.500825,0.155823 1.045198,0.311647 1.241174,0.48973 0.195974,0.178084 0.522599,0.489731 0.631472,0.645554 0.108875,0.155824 0.2613,0.534253 0.304851,0.82364 0.04355,0.289388 0.174199,0.400689 0,0.89042 -0.1742,0.489732 -0.718575,1.602757 -0.849224,1.803104 -0.13065,0.200343 -1.001648,0.511991 -1.001648,0.511991"
         id="path855" />
      <path
         style="fill:#ffffff;stroke:#000000;stroke-width:0.802024;stroke-linecap:butt;stroke-linejoin:miter;stroke-miterlimit:4;stroke-dasharray:none;stroke-opacity:1"
         d="m 45.753543,52.23158 c -0.892773,-0.467473 -1.175849,-1.135287 -1.175849,-1.446934 0,-0.311647 -0.0871,-0.979463 0.152425,-1.335631 0.239526,-0.35617 0.762124,-0.845899 1.066974,-0.957202 0.304848,-0.111302 0.762122,-0.200346 1.328271,-0.133564 0.56615,0.06678 0.870999,0.244867 1.110523,0.46747 0.239526,0.222606 0.3484,0.378429 0.457274,0.645556 0.108875,0.267126 0.283075,0.333908 0.1742,0.823639 -0.108875,0.489732 -0.2613,1.090764 -0.413724,1.268849 -0.152424,0.178085 -0.4355,0.511993 -0.609698,0.623294 -0.174201,0.111303 -0.805675,0.222606 -1.045198,0.244867 -0.239526,0.02226 -1.045198,-0.200344 -1.045198,-0.200344 z"
         id="path857" />
      <path
         style="fill:#000000;stroke:#000000;stroke-width:0.802024;stroke-linecap:butt;stroke-linejoin:miter;stroke-miterlimit:4;stroke-dasharray:none;stroke-opacity:1"
         d="m 45.274493,49.604839 c 0,0 -0.195973,0.51199 -0.02178,0.712335 0.1742,0.200346 0.261299,0.378429 0.457275,0.40069 0.195975,0.02226 0.326624,0.02226 0.435499,-0.200344 0.108874,-0.222606 0.174199,-0.534253 0.174199,-0.712337 0,-0.178085 -0.152424,-0.734596 -0.152424,-0.734596 0,0 -0.3484,-0.111303 -0.4355,0.02226 -0.0871,0.133565 -0.479049,0.623296 -0.479049,0.623296"
         id="path859" />
      <path
         style="fill:#b3b3b3;stroke:#000000;stroke-width:0.802024;stroke-linecap:butt;stroke-linejoin:miter;stroke-miterlimit:4;stroke-dasharray:none;stroke-opacity:1"
         d="m 58.862066,112.26818 c 0.0871,0.53425 2.351696,5.34253 2.961394,5.78774 0.609699,0.44521 6.532486,8.28091 6.532486,8.28091 0,0 2.525896,3.56168 3.135595,4.4521 0.609699,0.89042 3.571093,4.0069 4.180791,4.71923 0.6097,0.71234 7.403486,7.2124 7.403486,7.2124 l 3.396896,1.60276 4.96469,1.95893 c 0,0 4.180793,0.62329 4.529188,0.71233 0.348395,0.089 10.364878,2.22606 10.364878,2.22606 l 6.09699,-0.6233 3.65819,-1.33563 c 0,0 4.0066,-1.86989 4.35499,-2.13701 0.34841,-0.26712 2.0033,-1.24659 2.0033,-1.24659 0,0 -0.2613,-1.51371 0.0871,-1.51371 0.3484,0 2.70009,-1.24659 2.96139,-1.60276 0.2613,-0.35616 0.9581,-1.6918 1.1323,-2.22605 0.1742,-0.53425 0.1742,-1.0685 0.1742,-1.42468 0,-0.35616 0,-0.80137 0,-0.80137 l 0.51025,-0.44502 c 0,0 1.20098,-0.53518 1.26257,-0.69259 0.0616,-0.1574 0.15398,-0.72406 0.15398,-0.72406 0,0 -0.40033,0.0315 -0.0924,-0.28333 0.30795,-0.31481 2.12482,-2.6759 2.12482,-2.6759 l 0.21556,-2.45553 -0.24636,-0.69258 c 0,0 -0.21556,-0.59814 -0.18477,-0.72407 0.0308,-0.12592 1.1394,-3.02218 1.1394,-3.02218 l -0.0616,-0.85 -0.0924,-0.62962 0.15397,-0.5037 c 0,0 1.75529,-0.56666 1.81688,-0.72406 0.0616,-0.15741 0.5543,-0.69258 0.61589,-1.29073 0.0616,-0.59814 0.21555,-0.8185 0.30794,-1.57405 0.0924,-0.75555 0.27715,-1.29073 -0.0308,-1.8259 -0.30794,-0.53519 -0.5543,-1.07037 -0.73907,-1.35369 -0.18476,-0.28333 -0.86224,-1.16481 -0.86224,-1.16481"
         id="path861" />
      <path
         style="fill:#b3b3b3;stroke:#000000;stroke-width:0.802024;stroke-linecap:butt;stroke-linejoin:miter;stroke-miterlimit:4;stroke-dasharray:none;stroke-opacity:1"
         d="m 127.37177,141.43668 c 1.6629,0.063 3.38739,0.25184 4.18804,0.37777 0.80066,0.12592 2.2172,0.31481 3.07945,0.12592 0.86224,-0.18889 2.95626,-0.44073 2.95626,-0.44073 0,0 2.95627,-0.31482 3.81851,-0.5037 0.86225,-0.18889 2.2172,-0.75555 2.64832,-0.88147 0.43112,-0.12593 0.98542,-0.18889 1.47814,-0.81851 0.4927,-0.62962 0.80066,-0.94443 0.80066,-1.51109 0,-0.56666 0,-1.32221 0,-1.32221 l -0.98542,-0.56666 0.55429,-1.44813 c 0,0 -0.0616,-1.63702 -0.43112,-1.88887 -0.36954,-0.25185 -0.98543,-1.19628 -0.98543,-1.5111 0,-0.31481 -0.55429,-1.19628 -0.55429,-1.19628 0,0 -0.43113,-1.19628 -0.49272,-1.63701 -0.0616,-0.44074 -1.78607,-2.58145 -1.78607,-2.58145"
         id="path863" />
      <path
         style="fill:#b3b3b3;stroke:#000000;stroke-width:0.802024;stroke-linecap:butt;stroke-linejoin:miter;stroke-miterlimit:4;stroke-dasharray:none;stroke-opacity:1"
         d="m 122.40139,105.99072 5.96634,3.25004 c 0,0 3.30979,3.78428 3.52754,4.09593 0.21775,0.31165 2.4388,2.04797 2.4388,2.04797 l 3.13559,2.84934 c 0,0 1.17585,1.06851 1.43714,1.38015 0.26131,0.31165 0.34841,0.31165 0.39196,0.62329 0.0436,0.31166 0.65324,0.84591 0.69679,1.02399 0.0436,0.17808 1.35005,2.35962 1.35005,2.35962 l 0.31479,2.01211 v 0"
         id="path865" />
      <path
         style="fill:#ffaaaa;stroke:#000000;stroke-width:0.802024;stroke-linecap:butt;stroke-linejoin:miter;stroke-miterlimit:4;stroke-dasharray:none;stroke-opacity:1"
         d="m 131.67752,132.56977 c 0.6097,0.17808 4.65984,1.6918 4.83404,1.78084 0.1742,0.089 2.8743,1.55824 2.8743,1.55824 l 3.26624,0.97946 2.70363,-0.99231"
         id="path867" />
      <path
         style="fill:#b3b3b3;stroke:#000000;stroke-width:0.802024;stroke-linecap:butt;stroke-linejoin:miter;stroke-miterlimit:4;stroke-dasharray:none;stroke-opacity:1"
         d="m 128.84678,136.84379 c 0,0 4.13724,2.22605 4.39854,2.40414 0.26129,0.17808 0.91454,0.89042 1.30649,1.15755 0.39196,0.26712 2.0033,0.84589 2.0033,0.84589"
         id="path869" />
      <path
         style="fill:#b3b3b3;stroke:#000000;stroke-width:0.802024;stroke-linecap:butt;stroke-linejoin:miter;stroke-miterlimit:4;stroke-dasharray:none;stroke-opacity:1"
         d="m 146.83386,138.47745 c 0,0 1.01621,2.01479 1.13939,2.36109 0.12317,0.34628 0.61588,1.3222 0.73906,2.01479 0.12318,0.69258 0.15398,1.92035 0,2.29812 -0.15397,0.37777 -0.15397,0.75555 -0.5543,1.10184 -0.40032,0.34629 -1.38574,0.56666 -1.84766,0.5037 -0.46192,-0.063 -2.46355,-0.5037 -3.29501,-0.81852 -0.83145,-0.31481 -1.50892,-0.78702 -2.86388,-0.94443 -1.35496,-0.1574 -3.91089,-0.37777 -4.71155,-0.37777 -0.80065,0 -2.37117,0 -2.37117,0"
         id="path871" />
      <path
         style="fill:#b3b3b3;stroke:#000000;stroke-width:0.802024;stroke-linecap:butt;stroke-linejoin:miter;stroke-miterlimit:4;stroke-dasharray:none;stroke-opacity:1"
         d="m 146.98532,131.0338 c 0.30484,0.35617 0.93632,0.69007 1.15407,0.71233 0.21775,0.0222 0.45727,0.0668 0.91455,0 0.45727,-0.0668 1.1323,-0.31164 1.1323,-0.31164 0,0 -0.23953,-0.55652 -0.43551,-0.71234 -0.19597,-0.15582 -0.30485,-0.31165 -0.45727,-0.46747 -0.15242,-0.15582 -0.5226,-0.66782 -0.5226,-0.66782"
         id="path873" />
      <path
         style="fill:#b3b3b3;stroke:#000000;stroke-width:0.802024;stroke-linecap:butt;stroke-linejoin:miter;stroke-miterlimit:4;stroke-dasharray:none;stroke-opacity:1"
         d="m 149.99026,132.41395 c 1.06697,0.40069 1.58957,0.97946 1.58957,0.97946 l 0.0436,0.31165 -1.19762,0.0668 -0.67502,-0.0222 v 0"
         id="path875" />
      <path
         style="fill:#b3b3b3;stroke:#000000;stroke-width:0.802024;stroke-linecap:butt;stroke-linejoin:miter;stroke-miterlimit:4;stroke-dasharray:none;stroke-opacity:1"
         d="m 146.85467,135.66398 c 0,0 5.66148,2.69352 5.77036,2.76031 0.10887,0.0668 3.72351,2.137 3.72351,2.137 l 9.25436,6.34425 3.44044,1.78084"
         id="path877" />
      <path
         style="fill:#b3b3b3;stroke:#000000;stroke-width:0.802024;stroke-linecap:butt;stroke-linejoin:miter;stroke-miterlimit:4;stroke-dasharray:none;stroke-opacity:1"
         d="m 152.46924,139.39041 c 0,0 3.14103,4.56476 3.17183,4.84808 0.0308,0.28334 1.38574,3.90367 1.44733,4.24995 0.0616,0.3463 0.92383,3.0222 0.92383,3.24256 0,0.22037 -0.36952,1.03888 -0.73906,1.22777 -0.36954,0.18888 -1.13939,0.53517 -2.00164,0.22036 -0.86225,-0.31481 -3.20262,-1.07036 -3.78771,-1.22776 -0.5851,-0.15741 -6.12809,-1.22776 -6.37446,-1.25924 -0.24635,-0.0314 -2.55593,-0.47222 -2.55593,-0.47222 l -11.27077,-2.95922"
         id="path879" />
      <path
         style="fill:#b3b3b3;stroke:#000000;stroke-width:0.802024;stroke-linecap:butt;stroke-linejoin:miter;stroke-miterlimit:4;stroke-dasharray:none;stroke-opacity:1"
         d="m 155.88742,142.63296 3.51056,3.27404 2.52515,3.71476 c 0,0 0.49271,1.44814 0.49271,1.95184 0,0.5037 0.18476,1.51109 -0.12317,1.88887 -0.30796,0.37777 -2.15562,1.57405 -2.46356,1.63701 -0.30795,0.063 -3.14103,0.063 -3.69533,-0.18888 -0.5543,-0.25185 -5.97413,-1.69998 -6.71319,-1.88887 -0.73907,-0.18889 -12.25619,-2.70738 -12.25619,-2.70738 l -5.97412,-1.32221"
         id="path881" />
      <path
         style="fill:#b3b3b3;stroke:#000000;stroke-width:0.802024;stroke-linecap:butt;stroke-linejoin:miter;stroke-miterlimit:4;stroke-dasharray:none;stroke-opacity:1"
         d="m 169.04334,148.68638 1.74859,4.27239 c 0,0 0.36953,1.25924 -0.12318,1.69998 -0.49271,0.44073 -2.52515,1.00739 -3.3258,1.07035 -0.80065,0.063 -4.18804,0.063 -4.18804,0.063 l -1.72449,-0.12592"
         id="path883" />
      <path
         style="fill:#b3b3b3;stroke:#000000;stroke-width:0.802024;stroke-linecap:butt;stroke-linejoin:miter;stroke-miterlimit:4;stroke-dasharray:none;stroke-opacity:1"
         d="m 174.35643,150.91243 c 0,0 2.84074,2.29819 2.90233,2.55004 0.0616,0.25184 0.80065,1.19628 0.86224,1.63701 0.0616,0.44074 0.36953,1.07036 0.36953,1.69998 0,0.62962 -0.36953,1.51109 -1.04701,1.69998 -0.67747,0.18889 -3.51056,0.44073 -4.55757,0.37778 -1.04701,-0.063 -7.7602,0.063 -8.56085,-0.18889 -0.80066,-0.25185 -16.0747,-2.20368 -16.38264,-2.20368 -0.30795,0 -7.63703,-1.0074 -7.63703,-1.0074 l -9.97739,-2.01478 -6.59001,-1.38517"
         id="path885" />
      <path
         style="fill:#b3b3b3;stroke:#000000;stroke-width:0.802024;stroke-linecap:butt;stroke-linejoin:miter;stroke-miterlimit:4;stroke-dasharray:none;stroke-opacity:1"
         d="m 172.57089,161.77557 2.96139,0.57877 c 0,0 1.0452,0.53425 1.17585,0.75686 0.13065,0.2226 0.871,0.97946 0.95809,1.15754 0.0871,0.17809 0.39196,0.66782 0.39196,0.66782"
         id="path887" />
      <path
         style="fill:#b3b3b3;stroke:#000000;stroke-width:0.802024;stroke-linecap:butt;stroke-linejoin:miter;stroke-miterlimit:4;stroke-dasharray:none;stroke-opacity:1"
         d="m 177.88398,163.02216 2.13394,2.137"
         id="path889" />
      <path
         style="fill:#b3b3b3;stroke:#000000;stroke-width:0.802024;stroke-linecap:butt;stroke-linejoin:miter;stroke-miterlimit:4;stroke-dasharray:none;stroke-opacity:1"
         d="m 180.49697,166.40575 0.74035,1.60276"
         id="path891" />
      <path
         style="fill:#b3b3b3;stroke:#000000;stroke-width:0.802024;stroke-linecap:butt;stroke-linejoin:miter;stroke-miterlimit:4;stroke-dasharray:none;stroke-opacity:1"
         d="m 84.197965,150.75509 0.985421,2.58145 c 0,0 0.615888,0.88147 0.615888,1.69998 0,0.81851 0.184767,1.63702 -0.123177,2.45552 -0.307944,0.81851 -0.615889,1.57406 -1.231777,2.89627 -0.615888,1.32221 -1.231776,2.39257 -1.416543,3.02219 -0.184766,0.62962 -2.278788,4.02959 -2.278788,4.02959 0,0 -2.401967,0.12591 -2.771499,0.12591 -0.369534,0 -5.974122,0.12593 -6.220476,0.12593 -0.246356,0 -6.6516,0.69259 -6.6516,0.69259 l -1.662899,0.69258 c 0,0 -0.800657,0.88147 -0.862245,1.44813 -0.06159,0.56666 0,0.94443 0.369533,1.32221 0.369535,0.37777 0.123179,0.37777 0.862245,0.37777 0.739068,0 1.04701,0.12593 2.525144,-0.063 1.478132,-0.18889 2.771499,-0.31481 3.448978,-0.31481 0.677477,0 4.188044,-0.12592 4.188044,-0.12592 l 0.130321,0.42744 -0.870997,2.40414 1.132296,-0.71233 c 0,0 0.91455,0.40068 1.262949,0.44521 0.3484,0.0445 0.870999,0.13356 1.437147,-0.0445 0.566149,-0.17808 1.654896,-0.62328 1.829097,-0.6678 0.174198,-0.0446 0.479049,-0.0891 1.132297,-0.0891 0.65325,0 1.959744,-0.66782 1.959744,-0.66782 0,0 0,-0.53425 0.348403,-0.66781 0.348395,-0.13356 -0.174205,-0.35616 0.914544,-0.31164 1.08875,0.0445 1.437152,0.31164 1.959745,-0.089 0.5226,-0.40069 0.914552,-1.20206 1.001651,-1.38015 0.0871,-0.17809 0.130648,-0.35617 0.130648,-0.35617 l 2.264598,0.66782 1.916195,0.75685 2.395246,1.86989 c 0,0 0.783896,0.13356 1.0452,0.13356 0.261296,0 0.435494,0.0445 0.522592,-0.26712 0.08711,-0.31166 0.566157,-1.29111 0.566157,-1.29111 l -0.217754,-1.60276 c 0,0 -1.132299,-0.93494 -1.916195,-1.11303 -0.783897,-0.17808 -1.08875,-0.17808 -2.83074,-0.75686 -1.741998,-0.57877 -1.829096,-0.66781 -2.482352,-1.11302 -0.653248,-0.44521 -0.827446,-0.40069 -0.827446,-0.80138 0,-0.40069 0.56615,-3.11647 0.56615,-3.11647 l 2.221048,-4.14045 2.917838,-3.02743 1.306504,-2.18154 -0.871002,-0.62329 -6.706687,-2.31509 -2.308147,-0.44521"
         id="path893" />
      <path
         style="fill:#b3b3b3;stroke:#000000;stroke-width:0.802024;stroke-linecap:butt;stroke-linejoin:miter;stroke-miterlimit:4;stroke-dasharray:none;stroke-opacity:1"
         d="m 79.609595,167.37712 c -0.277149,0 -3.233417,-0.40926 -3.664538,-0.47222 -0.431123,-0.063 -2.925472,-0.81851 -3.171828,-0.81851 -0.246356,0 -0.523505,0.22037 -0.739066,0.37778 -0.21556,0.1574 -0.338739,0.59813 -0.307945,0.75554 0.0308,0.15741 0.369534,0.34629 0.369534,0.34629"
         id="path895" />
      <path
         style="fill:#666666;stroke:#000000;stroke-width:0.802024;stroke-linecap:butt;stroke-linejoin:miter;stroke-miterlimit:4;stroke-dasharray:none;stroke-opacity:1"
         d="m 63.442515,169.0771 c 0,0 -2.054553,1.1352 -2.076329,1.2465 -0.02178,0.1113 -0.609698,1.93667 -0.609698,1.93667 l -0.06533,0.51199 c 0,0 0.30485,-0.91269 0.566149,-1.11302 0.261299,-0.20035 0.718573,-0.37844 1.284723,-0.48974 0.566149,-0.1113 1.088748,-0.13357 1.306498,-0.35617 0.217748,-0.2226 0.304849,-0.24486 0.413724,-0.48973 0.108875,-0.24487 0.174198,-0.69007 0.130649,-0.8459 -0.04355,-0.15582 0.03584,-0.57886 -0.457274,-0.48973 -0.493116,0.0891 -0.493116,0.0891 -0.493116,0.0891 z"
         id="path897" />
      <path
         style="fill:#666666;stroke:#000000;stroke-width:0.802024;stroke-linecap:butt;stroke-linejoin:miter;stroke-miterlimit:4;stroke-dasharray:none;stroke-opacity:1"
         d="m 96.377164,170.93448 c 0,0 -0.427964,-0.289 -0.985421,-0.47221 -0.55745,-0.18321 -0.754461,0.0944 -0.923833,0.34629 -0.169371,0.25185 -0.200161,0.6611 -0.107782,0.80277 0.09239,0.14166 0.108743,0.61099 0.400331,0.44073 0.291588,-0.17024 0.523501,0.0944 0.939228,0.17315 0.415726,0.0787 1.108606,0.47222 1.247179,0.59815 0.138573,0.12592 0.277146,0.50369 0.277146,0.50369 0,0 0.123178,-0.26758 0.107782,-0.48796 -0.01542,-0.22037 0,-1.07035 0,-1.07035 l -0.692872,-0.72407 z"
         id="path899" />
      <path
         style="fill:#b3b3b3;stroke:#000000;stroke-width:0.802024;stroke-linecap:butt;stroke-linejoin:miter;stroke-miterlimit:4;stroke-dasharray:none;stroke-opacity:1"
         d="m 100.06029,163.20024 c 0,0 -0.783908,4.76375 -0.783908,4.98635 0,0.22261 -0.783896,4.98636 -0.827446,5.25348 -0.04357,0.26713 -0.653248,1.64728 -0.653248,1.64728 0,0 -2.046843,0.40069 -2.656542,0.44521 -0.609699,0.0446 -3.135593,-0.44521 -3.309798,-0.48973 -0.174197,-0.0445 -1.350046,-0.35617 -1.524243,-0.40069 -0.174198,-0.0445 -0.871003,-0.089 -1.219398,0.0445 -0.348402,0.13357 -0.609699,0.57878 -0.609699,0.75687 0,0.17808 -0.130648,0.48972 0.0871,0.75685 0.217747,0.26713 0.914545,0.6233 0.914545,0.6233 l 1.698448,0.4452 -2.177492,0.31165 -4.137243,-0.71233 c 0,0 -1.61135,-0.22261 -2.13395,-0.22261 -0.5226,0 -0.870995,0.089 -1.306494,0.48973 -0.435499,0.40069 -0.740347,0.31165 -0.609699,0.80138 0.130651,0.48973 0.21775,0.8459 0.47905,1.0685 0.261299,0.22261 0.04355,0.31165 0.827445,0.48974 0.783903,0.17808 1.872645,0.40069 2.743648,0.44521 0.870995,0.0445 2.264598,0 2.525894,0.0445 0.261296,0.0445 3.092043,0.48973 3.396889,0.48973 0.304853,0 1.350053,0 1.654899,-0.0445 0.304853,-0.0445 1.132299,-0.26713 1.132299,-0.26713 l -1.08875,1.38015 c 0,0 0.217755,1.06851 0.479051,1.15755 0.261304,0.089 0.653248,0.13356 1.393595,0.13356 0.740355,0 1.698448,-0.13356 1.959745,-0.35616 0.261303,-0.22261 1.0452,-0.89043 1.437152,-0.97947 0.391944,-0.089 1.872645,-0.89042 1.872645,-0.89042 l 1.001655,-1.60276 0.17419,-0.97946 0.91455,-0.48973 2.13395,-2.18153 1.08875,-0.089 2.00329,1.02398 c 0,0 1.26295,0.48974 1.69845,0.44522 0.43549,-0.0445 0.47905,0.17808 0.6968,-0.35618 0.21774,-0.53425 0.30485,-1.20206 0.30485,-1.42467 0,-0.22261 -0.47905,-1.33563 -0.82745,-1.51372 -0.34841,-0.17808 -4.05015,-1.02397 -4.05015,-1.02397 l -1.52424,0.0445 0.82744,-4.89732 1.0452,-2.84934 0.0871,-0.97946 -2.00329,2.93838 z"
         id="path901" />
      <path
         style="fill:#666666;stroke:#000000;stroke-width:0.802024;stroke-linecap:butt;stroke-linejoin:miter;stroke-miterlimit:4;stroke-dasharray:none;stroke-opacity:1"
         d="m 110.31629,174.08563 c 0,0 -0.9581,-0.15583 -1.15407,0.1113 -0.19598,0.26713 -0.3484,0.37843 -0.15243,0.66782 0.19598,0.28938 0.4355,0.53425 0.74035,0.53425 0.30485,0 0.45727,-0.0222 1.02342,-0.0891 0.56615,-0.0668 0.76213,-0.089 0.9581,-0.0222 0.19598,0.0668 0.32663,-0.13357 0.32663,-0.13357 0,0 -0.76213,-0.86815 -0.84923,-0.93494 -0.0871,-0.0668 -0.89277,-0.13356 -0.89277,-0.13356 z"
         id="path903" />
      <path
         style="fill:#666666;stroke:#000000;stroke-width:0.802024;stroke-linecap:butt;stroke-linejoin:miter;stroke-miterlimit:4;stroke-dasharray:none;stroke-opacity:1"
         d="m 82.627454,177.23071 c -0.03084,-0.0787 -0.677477,-0.53518 -0.78526,-0.53518 -0.107782,0 -1.185588,-0.11018 -1.524326,-0.0472 -0.33874,0.063 -0.569698,0.20462 -0.846847,0.42499 -0.277152,0.22037 -0.615891,0.75555 -0.708273,0.89721 -0.09238,0.14166 -0.246356,0.39351 0.03079,0.425 0.277151,0.0314 0.846847,0.14166 1.139395,0.0158 0.292547,-0.12593 0.631284,-0.25185 1.047011,-0.25185 0.415724,0 0.230958,0.17315 0.846847,0.0158 0.615888,-0.1574 0.677477,-0.20462 0.692879,-0.29906 0.01542,-0.0944 0.107783,-0.64537 0.107783,-0.64537 z"
         id="path905" />
      <path
         style="fill:#666666;stroke:#000000;stroke-width:0.802024;stroke-linecap:butt;stroke-linejoin:miter;stroke-miterlimit:4;stroke-dasharray:none;stroke-opacity:1"
         d="m 89.815165,174.73118 c 0,0 -0.55526,-0.3673 -0.773007,-0.41182 -0.217755,-0.0445 -0.903663,-0.14469 -1.154077,-0.0557 -0.250408,0.089 -0.59881,0.26713 -0.827446,0.41182 -0.228636,0.1447 -0.870995,0.3673 -0.870995,0.3673 0,0 0.217747,0.37843 0.435494,0.42295 0.217754,0.0446 0.55526,0.0668 0.783903,0.0668 0.228636,0 0.925434,-0.089 1.012533,-0.089 0.0871,0 0.130648,0.0445 0.435501,0.0668 0.304846,0.0222 0.479043,0.089 0.685908,-0.0334 0.206866,-0.12243 0.315735,-0.75685 0.315735,-0.75685"
         id="path907" />
      <path
         style="fill:#666666;stroke:#000000;stroke-width:0.802024;stroke-linecap:butt;stroke-linejoin:miter;stroke-miterlimit:4;stroke-dasharray:none;stroke-opacity:1"
         d="m 92.82011,181.46499 c 0,0 -0.555261,0.26712 -0.642359,0.37843 -0.0871,0.1113 -0.315735,0.45634 -0.359285,0.7012 -0.04357,0.24487 0.03262,0.64556 0.03262,0.76799 0,0.12244 0,0.43408 0,0.43408 0,0 0.544371,-0.16695 0.59881,-0.26712 0.05445,-0.10018 0.577039,-0.6233 0.577039,-0.6233 0,0 0.391944,-0.2226 0.402833,-0.38956 0.01087,-0.16695 -0.06532,-0.53425 -0.141537,-0.65668 -0.07621,-0.12244 -0.130648,-0.21148 -0.250415,-0.26713 -0.119759,-0.0557 -0.304845,-0.0779 -0.304845,-0.0779"
         id="path909" />
      <path
         id="path911"
         style="fill:#ffaaaa;stroke:#000000;stroke-width:0.802024;stroke-linecap:butt;stroke-linejoin:miter;stroke-miterlimit:4;stroke-dasharray:none;stroke-opacity:1"
         d="m 77.240128,135.15199 c 2.417121,3.03716 6.208284,3.61323 9.522335,4.56075 3.586363,-0.0758 1.386296,-6.21103 5.3553,-3.30447 3.879522,1.6134 8.236467,-0.27336 12.045917,-1.37019 3.85032,0.20131 6.09211,-2.03716 8.85747,-4.32112 2.38304,-1.00157 3.91213,-6.00349 2.64536,-6.90443 0.32472,4.84124 8.06598,-0.4189 5.78638,-3.48315 0.95259,-2.33761 3.79764,-3.93752 3.56396,-6.61162 1.18532,-1.55036 1.06962,-3.60733 0.99915,-5.45647 l -2.03268,1.54957 c 0,0 -1.68148,4.01496 -1.75011,4.22085 -0.0686,0.2059 -0.54905,1.64716 -0.82358,2.05896 -0.27453,0.41179 -0.75495,0.96084 -1.09811,1.71579 -0.34316,0.75495 -0.78927,1.44127 -1.20106,1.92169 -0.41179,0.48042 1.99033,-0.92653 -1.0981,0.75495 -3.08844,1.68148 -3.46591,1.75011 -3.60317,1.99032 -0.13727,0.24021 -0.72064,0.34316 -1.02948,1.26969 -0.30884,0.92653 -0.652,1.75011 -0.78927,2.02464 -0.13726,0.27452 -2.23053,1.88737 -2.33348,2.05895 -0.10294,0.17158 -5.07875,3.84338 -5.07875,3.84338 0,0 -2.05895,0.61769 -2.60801,0.72063 -0.54905,0.10295 -2.05895,0.44611 -3.019795,0.37748 -0.960845,-0.0686 -2.333481,-0.34316 -3.774748,-0.51474 -1.441268,-0.17158 -1.33832,-0.27453 -2.573692,-0.30884 -1.235372,-0.0343 -1.956006,-0.17158 -2.50506,0.10295 -0.549055,0.27452 0.137263,-0.10295 -1.715795,0.92652 -1.853058,1.02948 -2.299165,1.30401 -2.985483,1.54422 -0.686318,0.24021 -1.475583,0.13726 -1.647163,0.0343 -0.171579,-0.10295 -1.16674,-0.61769 -1.16674,-0.61769 z" />
      <path
         style="fill:#ff8080;stroke:#000000;stroke-width:0.802024;stroke-linecap:butt;stroke-linejoin:miter;stroke-miterlimit:4;stroke-dasharray:none;stroke-opacity:1"
         d="m 89.477652,139.69313 3.875947,1.38016 0.609699,-0.31165"
         id="path916" />
      <path
         style="fill:#ff5555;stroke:#000000;stroke-width:0.802024;stroke-linecap:butt;stroke-linejoin:miter;stroke-miterlimit:4;stroke-dasharray:none;stroke-opacity:1"
         d="m 93.222951,138.9808 c 0,0 0.740347,1.78084 0.740347,1.78084 0,0 0.130648,0.48973 1.001643,0.62329 0.871002,0.13357 1.611349,0.22261 2.438795,0.31165 0.827453,0.089 1.916203,0 1.916203,0"
         id="path918" />
      <path
         style="fill:#ff8080;stroke:#000000;stroke-width:0.802024;stroke-linecap:butt;stroke-linejoin:miter;stroke-miterlimit:4;stroke-dasharray:none;stroke-opacity:1"
         d="m 99.319939,141.69658 -0.696805,-3.11647 c 0,0 0.827453,1.38015 1.0452,1.64728 0.217747,0.26713 0.914556,0.89042 1.132296,0.93494 0.21775,0.0445 0.7839,-0.0445 1.2194,0 0.4355,0.0445 0.82745,0.089 1.3065,0.0445 0.47905,-0.0445 1.74199,0.089 1.74199,0.089"
         id="path920" />
      <path
         style="fill:#ffaaaa;stroke:#000000;stroke-width:0.802024;stroke-linecap:butt;stroke-linejoin:miter;stroke-miterlimit:4;stroke-dasharray:none;stroke-opacity:1"
         d="m 102.93457,137.60065 2.22105,2.40413 c 0,0 0.30485,0.17809 1.26295,0.31165 0.9581,0.13357 1.0452,0.13357 1.61135,0.0445 0.56615,-0.089 1.61135,-0.62329 1.61135,-0.62329"
         id="path922" />
      <path
         style="fill:#ff8080;stroke:#000000;stroke-width:0.802024;stroke-linecap:butt;stroke-linejoin:miter;stroke-miterlimit:4;stroke-dasharray:none;stroke-opacity:1"
         d="m 107.68152,136.17598 1.21939,1.69179 c 0,0 -0.0436,2.40417 0.74036,1.86991 0.7839,-0.53427 1.74199,-0.22263 2.17749,-0.62332 0.4355,-0.40069 1.08875,-1.11302 1.08875,-1.11302"
         id="path924" />
      <path
         style="fill:#b3b3b3;stroke:#000000;stroke-width:0.802024;stroke-linecap:butt;stroke-linejoin:miter;stroke-miterlimit:4;stroke-dasharray:none;stroke-opacity:1"
         d="m 111.25261,133.6828 c 0.30485,0.62329 1.0452,1.73632 1.3065,2.04796 0.2613,0.31165 0.9581,1.15755 1.43714,1.02399 0.47905,-0.13357 1.1323,-0.35617 1.35006,-0.57877 0.21774,-0.22261 0.95809,-0.93495 0.95809,-0.93495"
         id="path926" />
      <path
         style="fill:#ff8080;stroke:#000000;stroke-width:0.802024;stroke-linecap:butt;stroke-linejoin:miter;stroke-miterlimit:4;stroke-dasharray:none;stroke-opacity:1"
         d="m 114.4753,131.59031 c 0,0 1.3936,1.20206 1.61135,1.51371 0.21775,0.31165 -0.13065,0.4007 0.6968,0.66782 0.82745,0.26712 1.4807,0.35616 1.8291,0.26712 0.3484,-0.089 2.30814,-1.29111 2.30814,-1.29111 l 0.82745,-0.89041"
         id="path928" />
      <path
         style="fill:#999999;stroke:#000000;stroke-width:0.802024;stroke-linecap:butt;stroke-linejoin:miter;stroke-miterlimit:4;stroke-dasharray:none;stroke-opacity:1"
         d="m 118.61255,128.34027 c 0.5226,-0.0445 1.4807,0.40069 1.69844,0.75686 0.21775,0.35617 0.13065,0.75686 0.56615,1.11303 0.4355,0.35617 0.30485,0.40069 0.91455,0.57877 0.6097,0.17808 1.26295,0.31165 1.6549,0.089 0.39195,-0.2226 2.78719,-2.09249 2.78719,-2.09249"
         id="path930" />
      <path
         style="fill:#ff8080;stroke:#000000;stroke-width:0.802024;stroke-linecap:butt;stroke-linejoin:miter;stroke-miterlimit:4;stroke-dasharray:none;stroke-opacity:1"
         d="m 122.92399,126.29231 c 0.21774,0.17808 0.871,1.24659 1.78554,1.15754 0.91456,-0.089 1.6549,0.17809 2.13395,-0.26713 0.47905,-0.4452 0.871,-0.57877 1.21939,-1.15754 0.34841,-0.57877 0.95811,-1.86988 0.95811,-1.86988"
         id="path932" />
      <path
         style="fill:#ff8080;stroke:#000000;stroke-width:0.802024;stroke-linecap:butt;stroke-linejoin:miter;stroke-miterlimit:4;stroke-dasharray:none;stroke-opacity:1"
         d="m 125.10149,118.81277 c 0,0 1.65489,1.38015 1.87264,1.42467 0.21775,0.0445 1.00165,0.13357 1.69844,-0.089 0.69681,-0.2226 1.26295,-0.26712 1.6549,-0.48973 0.39195,-0.2226 1.6549,-1.60275 1.6549,-1.60275 l 0.3484,-1.95893"
         id="path934" />
      <path
         style="fill:#b3b3b3;stroke:#000000;stroke-width:0.802024;stroke-linecap:butt;stroke-linejoin:miter;stroke-miterlimit:4;stroke-dasharray:none;stroke-opacity:1"
         d="m 45.458563,66.889385 c 0.246354,1.070358 0.184767,1.511095 0.615888,1.762942 0.431123,0.251849 0.554301,0.314811 0.61589,-0.31481 0.06159,-0.629624 0.554299,-2.51849 0.554299,-2.51849 0,0 0.800655,1.070358 0.985422,1.69998 0.184766,0.629623 0.369534,2.833302 0.492712,3.148111 0.123175,0.314812 0.615888,1.637019 0.739066,0.503699 0.123178,-1.133321 0.800655,-3.148112 0.800655,-3.148112"
         id="path936" />
    </g>
  </g>
</svg>
