<?xml version="1.0" encoding="UTF-8" standalone="no"?>
<svg
   xmlns:dc="http://purl.org/dc/elements/1.1/"
   xmlns:cc="http://creativecommons.org/ns#"
   xmlns:rdf="http://www.w3.org/1999/02/22-rdf-syntax-ns#"
   xmlns:svg="http://www.w3.org/2000/svg"
   xmlns="http://www.w3.org/2000/svg"
   width="210mm"
   height="297mm"
   viewBox="0 0 210 297"
   version="1.1"
   id="svg8">
  <defs
     id="defs2" />
  <metadata
     id="metadata5">
    <rdf:RDF>
      <cc:Work
         rdf:about="">
        <dc:format>image/svg+xml</dc:format>
        <dc:type
           rdf:resource="http://purl.org/dc/dcmitype/StillImage" />
        <dc:title></dc:title>
      </cc:Work>
    </rdf:RDF>
  </metadata>
  <g
     id="layer1">
    <g
       id="g894">
      <path
         style="fill:#c8ab37;stroke:#000000;stroke-width:0.665;stroke-linecap:butt;stroke-linejoin:miter;stroke-opacity:1;stroke-miterlimit:4;stroke-dasharray:none"
         d="m 79.544237,163.20638 5.627807,-1.44126 1.921689,-0.41179 1.578534,0.0686 -0.411792,1.09811 c 0,0 -1.406951,-0.10295 -1.544215,-0.10295 -0.137263,0 -1.269687,0.20589 -1.269687,0.20589 0,0 -0.789266,0.37748 -1.235374,0.54906 -0.446106,0.17158 -1.132425,0.58337 -1.406951,0.61768 -0.274527,0.0343 -1.887374,0.13727 -1.887374,0.13727 l -0.926528,0.13726 z"
         id="path847" />
      <path
         style="fill:#c8ab37;stroke:#000000;stroke-width:0.665;stroke-linecap:butt;stroke-linejoin:miter;stroke-opacity:1;stroke-miterlimit:4;stroke-dasharray:none"
         d="m 89.701742,161.28469 4.872858,-2.29916 3.225694,-1.23537 3.706116,-0.89222 c 0,0 1.95601,-0.41179 2.57369,-0.48042 0.61769,-0.0686 4.22086,-0.13726 4.22086,-0.13726 l 1.71579,-0.0343 3.8777,0.68632 c 0,0 4.1179,-0.13726 4.28948,-0.2059 0.17158,-0.0686 5.66213,0.13727 5.66213,0.13727 0,0 1.61284,-0.41179 2.1619,-0.75495 0.54905,-0.34316 1.33832,-1.23537 1.33832,-1.23537 l 0.20589,0.17157 c 0,0 -0.27453,0.92654 -0.0686,0.82359 0.2059,-0.10295 1.13242,-1.20106 1.13242,-1.20106 0,0 0.44611,-0.96084 0.54906,-0.4461 0.10295,0.51473 0.10295,0.89221 0.10295,1.13242 0,0.24021 -0.65201,1.68148 -1.20106,1.85306 -0.54905,0.17158 -3.29432,0.89221 -3.80906,1.02947 -0.51474,0.13727 -7.00044,0.0686 -7.00044,0.0686 0,0 -6.14255,-0.34316 -6.69161,-0.44611 -0.54905,-0.10295 -6.41707,-0.0343 -6.93181,-0.0343 -0.51473,0 -6.279802,1.54422 -6.622962,1.61285 -0.343159,0.0686 -5.01012,1.92169 -5.01012,1.92169 0,0 -1.235372,0.82358 -1.578531,0.78926 -0.343159,-0.0343 -0.754952,-0.10294 -0.926529,-0.27452 -0.171579,-0.17158 0.205894,-0.54906 0.205894,-0.54906 z"
         id="path849" />
      <path
         style="fill:none;stroke:#000000;stroke-width:0.665;stroke-linecap:butt;stroke-linejoin:miter;stroke-opacity:1;stroke-miterlimit:4;stroke-dasharray:none"
         d="m 87.093731,161.35333 c 0,0 -0.540475,0.54275 -0.952979,-1.78669 -0.412507,-2.32944 -0.436772,-2.71768 -0.436772,-2.81474 0,-0.0971 0.07279,-0.53383 0.07279,-0.53383 l 0.266915,-0.24265 c 0,0 0.77648,0.99487 0.82501,1.16472 0.04853,0.16986 0.291182,0.0971 0.291182,0.84928 0,0.75221 0.02426,1.98973 0.04853,2.13532 0.02426,0.14559 0.412504,0.8978 0.412504,0.8978 z"
         id="path851" />
      <path
         style="fill:none;stroke:#000000;stroke-width:0.665;stroke-linecap:butt;stroke-linejoin:miter;stroke-opacity:1;stroke-miterlimit:4;stroke-dasharray:none"
         d="m 86.674581,156.58205 c 0,0 0.485301,-1.26178 0.436768,-1.57723 -0.04853,-0.31544 -0.121324,-0.92207 -0.291179,-1.16472 -0.169854,-0.24265 -0.703686,-0.72795 -0.800745,-0.94633 -0.09706,-0.21839 -0.29118,-0.67942 -0.29118,-0.67942 0,0 -0.169854,0.82501 -0.121324,1.01913 0.04853,0.19412 0.218384,0.92207 0.242649,1.04339 0.02426,0.12132 0.07279,0.72795 0.121325,0.92207 0.04853,0.19412 0.703686,1.38311 0.703686,1.38311 z"
         id="path853" />
      <path
         style="fill:#c8ab37;stroke:#000000;stroke-width:0.665;stroke-linecap:butt;stroke-linejoin:miter;stroke-opacity:1;stroke-miterlimit:4;stroke-dasharray:none"
         d="m 88.95549,160.80416 -0.533829,-4.34344 c 0,0 -0.04853,-0.67942 -0.02426,-0.8978 0.02426,-0.21839 2.280909,-4.00373 2.329439,-4.10079 0.04853,-0.0971 2.03826,-2.52356 2.13532,-2.62062 0.09706,-0.0971 3.275775,-2.06252 3.275775,-2.06252 l 7.109645,-3.85814 3.00886,-1.11619 0.80074,0.0243 c 0,0 0.36398,-0.26691 0.36398,-0.53383 0,-0.26691 0.0728,-0.75221 -0.38824,-0.70368 -0.46104,0.0485 -0.65516,0.16985 -0.87354,0.29118 -0.21839,0.12132 -0.36398,0.26691 -0.77648,0.38824 -0.41251,0.12132 -2.03826,0.87354 -2.28091,0.99486 -0.24265,0.12133 -6.503019,2.96033 -6.503019,2.96033 l -3.712546,2.25665 -4.804471,5.45962 -0.461034,1.43164 -0.630891,1.21325 -0.315444,0.99486 0.655156,1.01913 -0.07279,2.71768 0.363969,0.70369 z"
         id="path855" />
      <path
         style="fill:#37c871;stroke:#000000;stroke-width:0.665;stroke-linecap:butt;stroke-linejoin:miter;stroke-opacity:1;stroke-miterlimit:4;stroke-dasharray:none"
         d="m 106.23217,140.39729 c 0,0 -1.16472,-0.19412 -1.55296,-0.29118 -0.38824,-0.0971 0.24265,0.12133 -1.14045,-0.19412 -1.38311,-0.31544 -1.86841,-0.58236 -2.06253,-0.60662 -0.19412,-0.0243 -0.55809,0.0485 -0.72795,-0.12133 -0.16985,-0.16985 -1.74708,-1.21325 -1.74708,-1.21325 l -0.703685,-0.4125 c 0,0 0.121327,-0.43677 -0.24265,-0.41251 -0.363974,0.0243 -0.752215,0.0728 -0.388239,-0.0485 0.363974,-0.12132 0.9706,-0.77648 1.21325,-0.82501 0.242649,-0.0485 1.043395,-0.38824 1.431634,-0.43677 0.38824,-0.0485 0.72795,-0.0728 0.87354,-0.16985 0.14559,-0.0971 0.84928,-0.31545 1.40737,-0.31545 0.5581,0 1.62576,0.0243 2.35371,0.21839 0.72795,0.19412 1.04339,0.43676 1.09192,0.53383 0.0485,0.0971 0.58236,0.63089 0.72795,0.77648 0.14559,0.14558 0.43677,0.84927 0.43677,1.06766 0,0.21838 0.0243,1.21325 0.0243,1.21325 l -0.38824,1.09192 z"
         id="path857" />
      <path
         style="fill:#37c871;stroke:#000000;stroke-width:0.665;stroke-linecap:butt;stroke-linejoin:miter;stroke-opacity:1;stroke-miterlimit:4;stroke-dasharray:none"
         d="m 107.44542,140.39729 c 0.0485,-0.21838 3.08165,-3.59122 3.20298,-3.76107 0.12133,-0.16986 2.9118,-2.35371 3.05739,-2.45077 0.14559,-0.0971 1.31031,-0.12132 1.62576,-0.0485 0.31544,0.0728 2.15958,0.24265 2.08679,0.33971 -0.0728,0.0971 1.40737,0.67942 1.40737,0.67942 0,0 1.04339,0.65516 1.26178,0.72795 0.21838,0.0728 0.55809,0.38824 0.8978,0.5581 0.33971,0.16985 0.63089,0.26691 0.84928,0.4125 0.21838,0.14559 0.46103,0.26692 0.67942,0.29118 0.21838,0.0243 0.80074,0.0243 0.80074,0.0243 0,0 -0.82501,0.43677 -1.01913,0.58236 -0.19412,0.14559 -0.65515,0.58236 -0.87354,0.77648 -0.21838,0.19412 -1.31031,1.31031 -1.55296,1.4559 -0.24265,0.14559 -1.74708,0.89781 -2.18385,0.92207 -0.43677,0.0243 -0.67942,-0.0728 -1.55296,-0.0485 -0.87354,0.0243 -3.59122,0.14559 -4.51329,0.0243 -0.92207,-0.12133 -1.35884,-0.19412 -1.89267,-0.14559 -0.53383,0.0485 -2.11105,-0.14559 -2.11105,-0.14559 z"
         id="path859" />
      <path
         style="fill:#37c871;stroke:#000000;stroke-width:0.665;stroke-linecap:butt;stroke-linejoin:miter;stroke-opacity:1;stroke-miterlimit:4;stroke-dasharray:none"
         d="m 107.66381,141.48922 c 0,0 2.08679,-0.0485 2.45076,-0.0485 0.36397,0 2.30518,0.21838 2.59636,0.26691 0.29118,0.0485 2.62062,1.43163 2.62062,1.43163 0,0 0.21838,1.06766 0.29117,1.33458 0.0728,0.26692 0.75222,1.11619 0.82502,1.55296 0.0728,0.43677 0.82501,3.4699 0.82501,3.4699 0,0 -0.77648,0.31544 -1.18899,0.0243 -0.41251,-0.29118 -2.74194,-0.87354 -3.17871,-1.16472 -0.43678,-0.29118 -1.14046,-1.06766 -1.72282,-1.21325 -0.58236,-0.14559 -1.77135,-0.50957 -2.18385,-0.89781 -0.4125,-0.38824 -0.65515,-0.4853 -0.8978,-1.16472 -0.24265,-0.67942 -0.4853,-1.21325 -0.53383,-1.65002 -0.0485,-0.43677 0.0971,-1.9412 0.0971,-1.9412 z"
         id="path861" />
      <path
         style="fill:#c8ab37;stroke:#000000;stroke-width:0.665;stroke-linecap:butt;stroke-linejoin:miter;stroke-opacity:1;stroke-miterlimit:4;stroke-dasharray:none"
         d="m 86.527522,153.2033 c 0,0 -0.154421,-3.0198 -0.154421,-3.10559 0,-0.0858 -0.291685,-3.62032 -0.291685,-3.62032 0,0 -0.926528,-3.36296 -0.995161,-3.39728 -0.06863,-0.0343 -0.308843,-0.13726 -0.326001,-0.34316 -0.01717,-0.20589 0,-0.34315 0.05147,-0.56621 0.05147,-0.22305 0.03432,-0.61768 0.05147,-0.70347 0.01714,-0.0858 0.754951,-0.58338 0.875056,-0.48043 0.120105,0.10295 0.17158,0.46327 0.17158,0.60053 0,0.13726 -0.01714,0.46327 0.171579,0.652 0.188738,0.18874 0.463265,0.2059 0.497581,0.51474 0.03431,0.30885 0,0.73779 -0.01714,0.89221 -0.01717,0.15443 0.05147,0.89222 0.102947,1.32117 0.05147,0.42895 0.360317,2.77959 0.360317,2.77959 l 0.34316,3.74043 -0.06863,1.69863 -0.01717,0.87506 -0.120105,0.60053 -0.411789,-0.90938 z"
         id="path863" />
      <path
         style="fill:#37c837;stroke:#000000;stroke-width:0.665;stroke-linecap:butt;stroke-linejoin:miter;stroke-opacity:1;stroke-miterlimit:4;stroke-dasharray:none"
         d="m 86.321626,142.03348 c 0,0 1.389796,-1.73295 1.406954,-1.93885 0.01714,-0.20589 0.960845,-1.45843 1.063792,-1.68148 0.102946,-0.22305 2.539375,-2.14474 2.608008,-2.17906 0.06863,-0.0343 2.728114,-0.39463 2.813902,-0.39463 0.08579,0 1.424109,-0.13726 1.424109,-0.13726 l 2.539376,0.82358 1.029478,0.61768 c 0,0 0.08579,0.12011 0.01714,0.15443 -0.06863,0.0343 -0.978004,0.60052 -1.25253,0.7721 -0.274529,0.17158 -1.424109,1.35548 -1.664322,1.54422 -0.24021,0.18873 -1.527056,0.94368 -1.698635,1.02947 -0.17158,0.0858 -1.389796,0.42895 -1.561375,0.49759 -0.17158,0.0686 -1.578531,0.49758 -1.870215,0.51473 -0.291685,0.0171 -1.630006,-0.0171 -2.127586,-0.0171 -0.497581,0 -2.127584,0.18874 -2.196217,0.22305 -0.06863,0.0343 -0.566211,0.27453 -0.566211,0.27453 l -0.137265,-0.0686 z"
         id="path865" />
      <path
         style="fill:#37c837;stroke:#000000;stroke-width:0.665;stroke-linecap:butt;stroke-linejoin:miter;stroke-opacity:1;stroke-miterlimit:4;stroke-dasharray:none"
         d="m 84.622991,141.19274 c -0.03432,-0.0686 -1.029478,-1.76727 -1.149583,-1.99032 -0.120105,-0.22306 -1.698636,-1.59569 -1.818743,-1.80159 -0.120105,-0.20589 -0.428948,-0.99516 -0.549053,-1.25253 -0.120105,-0.25737 -0.652002,-1.26968 -0.617686,-1.52706 0.03431,-0.25736 0.41179,-1.71579 0.463265,-2.05895 0.05147,-0.34316 0.84074,-1.44127 0.926528,-1.73295 0.08579,-0.29169 0.394634,-0.82358 0.480423,-0.99516 0.08579,-0.17158 0.377475,-0.68632 0.411789,-0.90937 0.03432,-0.22306 0,-0.70348 0.03432,-0.49758 0.03432,0.20589 0.978003,1.49274 1.304004,1.68148 0.326001,0.18873 1.5099,0.90937 1.68148,1.09811 0.17158,0.18873 1.183897,0.85789 1.218213,1.06379 0.03432,0.20589 0.137263,1.08095 0.154421,1.26968 0.01714,0.18874 0.34316,1.7158 0.360318,1.81875 0.01714,0.10294 0.137263,1.21821 0,1.52705 -0.137263,0.30885 -1.612847,3.44875 -1.612847,3.44875 l -0.583369,0.48042 z"
         id="path867" />
      <path
         style="fill:#37c837;stroke:#000000;stroke-width:0.665;stroke-linecap:butt;stroke-linejoin:miter;stroke-opacity:1;stroke-miterlimit:4;stroke-dasharray:none"
         d="m 84.345141,142.07158 c 0,0 -2.08679,-1.16472 -2.183849,-1.57723 -0.09706,-0.41251 -0.849276,-1.8684 -1.358842,-2.28091 -0.509564,-0.4125 -1.237515,-0.8978 -2.305174,-1.01913 -1.06766,-0.12133 -1.819876,-0.14559 -2.32944,-0.0971 -0.509566,0.0485 -2.353707,0.14559 -2.936065,0.50957 -0.582361,0.36397 -2.620621,2.32944 -3.178715,2.52355 -0.558096,0.19413 -1.164719,0.29119 -1.164719,0.29119 0,0 0.121324,0.87354 0.873537,1.04339 0.752216,0.16986 2.329442,0.14559 3.10592,0.14559 0.776481,0 2.426502,0.0971 3.882401,0.26692 1.455901,0.16985 3.348572,1.3103 4.17358,1.26177 0.82501,-0.0485 1.625756,0.0243 2.135319,-0.14558 0.509567,-0.16986 1.237517,-0.26692 1.237517,-0.26692 z"
         id="path869" />
      <path
         style="fill:#abc837;stroke:#000000;stroke-width:0.665;stroke-linecap:butt;stroke-linejoin:miter;stroke-opacity:1;stroke-miterlimit:4;stroke-dasharray:none"
         d="m 69.179516,141.53775 c 0,0 1.601488,-0.65516 1.9412,-0.82501 0.339709,-0.16986 1.140455,-0.43677 1.650018,-0.6309 0.509567,-0.19411 1.941201,-0.53382 2.402237,-0.53382 0.461034,0 1.844141,-0.16986 2.596354,0.31544 0.752215,0.4853 1.383107,0.89781 1.528696,1.11619 0.14559,0.21839 0.436769,1.01913 0.679418,1.38311 0.242652,0.36397 0.800746,0.8978 1.261782,1.52869 0.461034,0.63089 0.776478,0.82501 1.188985,1.40737 0.412504,0.58236 1.213249,2.06253 1.286044,2.18385 0.07279,0.12133 1.528697,5.19271 1.528697,5.19271 l 0.218384,0.65516 0.582353,2.64488 -0.266914,0.24265 -0.315439,1.33458 c 0,0 -0.461036,-1.01913 -0.582361,-2.74195 -0.121325,-1.72281 -2.013995,-6.64861 -2.111055,-6.76993 -0.09706,-0.12133 -2.280909,-2.54783 -2.669148,-2.96033 -0.388242,-0.41251 -0.461037,-1.06766 -0.922071,-1.26178 -0.461036,-0.19412 -0.800745,-0.21839 -1.9412,-0.21839 -1.140455,0 -1.213249,0.14559 -2.062525,-0.0971 -0.849275,-0.24265 -1.504431,-0.72795 -2.280909,-0.92207 -0.776481,-0.19412 -1.091928,-0.36397 -1.819876,-0.43677 -0.727951,-0.0728 -1.286047,0.12133 -1.431636,-0.16985 -0.14559,-0.29118 -0.461034,-0.43677 -0.461034,-0.43677 z"
         id="path873" />
      <path
         style="fill:#aad400;stroke:#000000;stroke-width:0.665;stroke-linecap:butt;stroke-linejoin:miter;stroke-opacity:1;stroke-miterlimit:4;stroke-dasharray:none"
         d="m 90.679745,160.47827 c 0,0 -0.102947,-0.978 -0.154421,-1.13243 -0.05147,-0.15442 -0.24021,-0.51473 -0.291685,-0.66915 -0.05147,-0.15442 -0.06863,-0.18874 -0.06863,-0.18874 0,0 -0.480422,-0.24021 -0.617685,-0.96085 -0.137264,-0.72063 0.06863,-1.37263 0.120104,-1.5099 0.05148,-0.13726 0.291688,-0.49758 0.291688,-0.49758 0,0 0.411789,0.60053 0.531894,0.80643 0.120108,0.20589 0.463264,0.61768 0.446109,0.92653 -0.01714,0.30884 -0.120108,0.73779 -0.120108,0.73779 0,0 0.377476,-1.30401 0.360318,-1.59569 -0.01714,-0.29168 -0.08579,-1.06379 0.08579,-1.37264 0.171577,-0.30884 0.772107,-0.61768 1.115266,-1.09811 0.343157,-0.48042 0.686316,-0.7721 0.686316,-0.7721 0,0 0.34316,0.7721 0.377476,0.99516 0.03432,0.22305 -0.03432,0.75495 -0.17158,1.14958 -0.137263,0.39463 -0.49758,1.04664 -0.720632,1.20106 -0.223054,0.15442 -0.652002,0.46326 -0.806424,0.56621 -0.154421,0.10295 -0.394634,0.326 -0.480422,0.46326 -0.08579,0.13727 0.257368,0.18874 0.257368,0.18874 0,0 0.84074,-0.48042 0.926529,-0.46326 0.08579,0.0171 0.428947,0.17158 0.600527,0.39463 0.17158,0.22305 0.60053,0.326 0.686319,0.51474 0.08579,0.18874 0.411792,0.87505 0.411792,0.87505 l -0.05147,0.7378 c 0,0 -0.497581,0.72063 -0.720635,0.53189 -0.223052,-0.18874 -0.823579,-0.73779 -1.132425,-0.90937 -0.308842,-0.17158 -0.617685,-0.27453 -0.686315,-0.46326 -0.06863,-0.18874 -0.531898,-0.48043 -0.583372,-0.41179 -0.05147,0.0686 0.240212,0.84073 0.223054,0.99515 -0.01717,0.15443 -0.03432,0.87506 -0.102947,0.94369 -0.06863,0.0686 -0.360317,1.73296 -0.360317,1.73296 l -0.617686,-0.15443 z"
         id="path875" />
      <path
         style="fill:#d3bc5f;stroke:#000000;stroke-width:0.665;stroke-linecap:butt;stroke-linejoin:miter;stroke-opacity:1;stroke-miterlimit:4;stroke-dasharray:none"
         d="m 88.260475,162.52004 c 0,0 0,0.87508 -0.188738,1.06382 -0.188736,0.18874 -0.754949,1.06379 -0.909371,1.33832 -0.154421,0.27453 -0.428947,0.48042 -0.66916,0.99516 -0.24021,0.51474 -0.514739,1.99032 -0.514739,2.21338 0,0.22305 0.06863,0.60052 0.06863,0.60052 0,0 0.66916,-2.38495 0.720635,-2.45358 0.05147,-0.0686 0.737791,-0.72064 0.737791,-0.72064 0,0 0.583369,-0.4461 0.789265,-0.61768 0.205896,-0.17158 0.394634,-0.0686 0.480422,-0.42895 0.08579,-0.36032 0.137264,-0.46327 0.137264,-0.46327 0,0 0,0.97801 -0.01717,1.0638 -0.01714,0.0858 0.03432,0.53189 -0.137263,0.87505 -0.17158,0.34316 -1.115266,1.71579 -1.201055,1.8359 -0.08579,0.12011 -1.406953,1.52706 -1.578533,1.75011 -0.171577,0.22305 -0.978001,0.73779 -1.029475,0.84074 -0.05147,0.10295 -1.269688,0.77211 -1.269688,0.77211 0,0 -1.338321,1.08095 -1.338321,1.304 0,0.22306 -0.24021,1.80159 -0.257368,2.0418 -0.01714,0.24021 0.05147,1.32116 0.05147,1.32116 0,0 0.326001,-1.90453 0.377476,-2.09327 0.05147,-0.18874 0.549055,-1.37264 0.549055,-1.37264 0,0 0.01717,0.39464 0.03431,0.75496 0.01714,0.36031 0.205896,0.7721 0.274529,1.01231 0.06863,0.24022 0.377473,0.78927 0.377473,0.90938 0,0.1201 -0.154421,0.70347 -0.154421,0.70347 l 0.394634,-1.16674 c 0,0 -0.308843,-1.02948 -0.394634,-1.26969 -0.08579,-0.24021 -0.223052,-0.77211 -0.102947,-0.99516 0.120105,-0.22305 0.617686,-0.61769 0.823582,-0.77211 0.205896,-0.15442 0.754949,-0.41179 0.720632,-0.29168 -0.03431,0.1201 -0.24021,1.26969 -0.24021,1.69864 0,0.42894 -0.03432,1.28684 0,1.50989 0.03432,0.22306 0.137263,0.0171 0.326001,0.82359 0.188738,0.80642 -0.154421,3.7919 -0.154421,3.7919 0,0 0,0.68632 0,0.58337 0,-0.10295 0.377473,-1.45842 0.377473,-1.80158 0,-0.34316 0.154421,-1.08095 0.154421,-1.08095 0,0 0.720635,0.0686 0.84074,0.42895 0.120105,0.36031 0.274527,1.13242 0.274527,1.40695 0,0.27453 -0.154422,1.73295 -0.188735,1.85306 -0.03432,0.1201 -0.05148,0.34316 -0.05148,0.34316 l 0.600527,-2.47075 c 0,0 -0.549052,-1.64716 -0.549052,-1.95601 0,-0.30884 -0.223055,-1.26968 -0.446109,-1.63 -0.223052,-0.36032 -0.617686,-0.66916 -0.549053,-1.20106 0.06863,-0.53189 0.205896,-1.38979 0.24021,-1.56137 0.03432,-0.17158 2.024639,-2.83106 2.024639,-2.83106 l 2.968324,-3.84338 -0.03432,-2.50506 -0.05147,2.55653 -0.754949,2.07611 c 0,0 0.652,1.7158 0.686316,1.78443 0.03432,0.0686 0.188738,0.63485 0.17158,1.02948 -0.01717,0.39463 0,0.84074 -0.03432,0.94368 -0.03431,0.10295 -0.06863,1.16674 -0.06863,1.16674 0,0 -0.08579,0.89222 -0.08579,1.02948 0,0.13727 -0.137263,3.68896 -0.137263,3.68896 l 0.120105,0.63484 0.01714,-2.04179 c 0,0 0.446108,-2.00748 0.463264,-2.09327 0.01714,-0.0858 0.137266,-0.73779 0.17158,-0.92653 0.03432,-0.18874 0.360317,-0.44611 0.326001,-0.99516 -0.03431,-0.54905 0.120107,-2.95117 0.137266,-3.03696 0.01714,-0.0858 0.325998,-0.4461 0.720632,-0.41179 0.394634,0.0343 1.424109,0.25737 1.75011,0.37748 0.326001,0.1201 0.995162,0.326 1.08095,0.66916 0.08579,0.34315 0.223054,0.77211 0.137266,1.08095 -0.08579,0.30884 -0.205896,0.80642 -0.08579,1.44127 0.120105,0.63484 0.583369,1.35547 0.686318,1.4241 0.102947,0.0686 0.806424,0.0686 0.806424,0.0686 l -1.046636,-0.87506 c 0,0 -0.360315,-1.59569 -0.360315,-1.78443 0,-0.18873 0.171577,-0.68631 0.171577,-1.02947 0,-0.34316 0.03432,-0.84074 -0.377473,-1.20106 -0.411792,-0.36032 -0.909373,-0.80642 -1.321163,-0.82358 -0.411789,-0.0171 -0.772107,-0.0171 -1.218213,0 -0.446108,0.0171 -1.767268,-1.23537 -1.767268,-1.23537 l 0.06863,-0.94369 -0.102941,-3.20853 -1.235377,-0.30885 z"
         id="path877" />
    </g>
  </g>
</svg>
