<?xml version="1.0" encoding="UTF-8" standalone="no"?>
<svg
   xmlns:dc="http://purl.org/dc/elements/1.1/"
   xmlns:cc="http://creativecommons.org/ns#"
   xmlns:rdf="http://www.w3.org/1999/02/22-rdf-syntax-ns#"
   xmlns:svg="http://www.w3.org/2000/svg"
   xmlns="http://www.w3.org/2000/svg"
   xmlns:sodipodi="http://sodipodi.sourceforge.net/DTD/sodipodi-0.dtd"
   xmlns:inkscape="http://www.inkscape.org/namespaces/inkscape"
   width="210mm"
   height="297mm"
   viewBox="0 0 210 297"
   version="1.1"
   id="svg8"
   sodipodi:docname="plant.svg"
   inkscape:version="1.0.2 (e86c870879, 2021-01-15, custom)">
  <sodipodi:namedview
     pagecolor="#ffffff"
     bordercolor="#666666"
     borderopacity="1"
     objecttolerance="10"
     gridtolerance="10"
     guidetolerance="10"
     inkscape:pageopacity="0"
     inkscape:pageshadow="2"
     inkscape:window-width="1920"
     inkscape:window-height="1017"
     id="namedview19"
     showgrid="false"
     inkscape:zoom="0.52128367"
     inkscape:cx="157.87269"
     inkscape:cy="436.67606"
     inkscape:window-x="-8"
     inkscape:window-y="-8"
     inkscape:window-maximized="1"
     inkscape:current-layer="svg8" />
  <defs
     id="defs2" />
  <metadata
     id="metadata5">
    <rdf:RDF>
      <cc:Work
         rdf:about="">
        <dc:format>image/svg+xml</dc:format>
        <dc:type
           rdf:resource="http://purl.org/dc/dcmitype/StillImage" />
        <dc:title />
      </cc:Work>
    </rdf:RDF>
  </metadata>
  <g
     id="g917">
    <path
       style="fill:#deaa87;stroke:#000000;stroke-width:1.27;stroke-linecap:butt;stroke-linejoin:miter;stroke-opacity:1;stroke-miterlimit:4;stroke-dasharray:none"
       d="m 67.759412,61.161117 3.299146,14.211713 8.882321,21.317566 2.791585,8.882314 2.284026,13.45038 7.867197,20.04866 8.374763,18.2722 2.03024,1.52268 11.42013,-11.6739 18.01842,-21.57135 4.31427,-5.58317 17.00329,-15.7344 0.76135,-3.29914 2.66469,0.76134 1.39579,1.71302 c 0,0 -1.71301,2.15713 -1.77646,2.41091 -0.0634,0.25378 -15.29028,16.49574 -15.29028,16.49574 0,0 -0.63445,0.63445 -0.571,1.01512 0.0634,0.38067 -0.19034,1.14201 -0.19034,1.14201 l -3.61637,3.42604 -15.29028,16.74952 -3.99705,5.26595 c 0,0 -3.04536,5.32939 -3.29914,5.64661 -0.25378,0.31723 -3.29915,8.81888 -3.29915,8.81888 l -0.38067,3.42603 -0.25378,2.28403 -1.14201,1.83991 0.50756,21.63479 0.69789,13.83104 c 0,0 1.20546,0.88824 1.2689,1.14202 0.0635,0.25378 -0.19033,1.71301 -0.50756,1.90335 -0.31722,0.19034 -1.96679,1.39579 -1.96679,1.39579 l 2.03024,-1.33235 0.31723,13.89449 0.19033,3.74326 0.88823,-1.2689 c 0,0 2.41092,1.83991 2.47436,2.15714 0.0635,0.31722 0.25378,2.41091 -0.0634,2.79158 -0.31723,0.38068 -1.26891,2.60125 -1.33235,2.91848 -0.0634,0.31723 -0.82479,3.29915 -0.82479,4.18738 0,0.88823 2.03025,24.48982 2.03025,24.48982 0,0 0.69789,1.20546 -0.12689,1.20546 -0.82479,0 -1.90336,0.63445 -2.60125,0.63445 -0.6979,0 -2.22058,0.69789 -3.17226,1.26891 -0.95168,0.571 -2.72814,1.77647 -2.85503,2.03023 -0.12689,0.25379 -1.45924,1.39581 -1.45924,1.39581 l -1.20546,1.39578 -0.44411,1.01513 -0.76135,-13.13315 c 0,0 -0.50756,-12.68902 -0.50756,-13.0697 0,-0.38066 -0.31722,-7.93064 -0.31722,-7.93064 l 0.50756,-24.99738 c 0,0 -0.50756,-0.82479 -0.76134,-1.58613 -0.25378,-0.76134 -0.31723,-1.90336 -0.31723,-1.90336 l 0.12689,-0.50756 -0.25378,-16.11506 c 0,0 -1.14201,-10.97601 -1.07857,-11.42013 0.0635,-0.44411 -2.474356,-7.10585 -2.728136,-7.99409 -0.253783,-0.88823 -1.332349,-3.10881 -1.713021,-3.99704 -0.380669,-0.88823 -0.697897,-1.9668 -0.697897,-2.34747 0,-0.38067 -4.314269,-12.87937 -4.314269,-12.87937 l -3.552928,-6.34451 -4.123934,-10.21467 c 0,0 -0.380671,-3.04536 -0.317224,-4.75838 0.06344,-1.71302 -0.697897,-7.42309 -0.824789,-7.74031 -0.126888,-0.31722 -3.489481,-6.34451 -3.489481,-6.34451 l -5.075613,-13.83105 v -5.519722 c 0,0 -1.522682,-4.060489 -1.649574,-5.012167 -0.126889,-0.951677 -5.773507,-13.957932 -5.773507,-13.957932 l -2.72814,-7.54997 c 0,0 -0.06345,-4.060489 -0.06345,-5.836954 0,-1.776463 -0.697897,-5.646616 -0.697897,-5.646616 z"
       id="path860" />
    <path
       style="fill:#88aa00;stroke:#000000;stroke-width:1.27;stroke-linecap:butt;stroke-linejoin:miter;stroke-opacity:1;stroke-miterlimit:4;stroke-dasharray:none"
       d="m 62.493498,61.795569 c 0,0 -4.377748,-3.426039 -4.377748,-4.250825 0,-0.824788 -0.888233,-4.377716 -0.888233,-4.631496 0,-0.253781 0.888233,0.317227 1.142013,0.444116 0.25378,0.126891 1.776465,0.824788 2.220579,1.395793 0.444116,0.571006 1.58613,1.649574 1.776465,1.966799 0.190336,0.317228 1.078566,1.205458 1.205458,1.649574 0.126892,0.444116 0.571005,1.649574 0.634452,1.903354 0.06345,0.253781 -1.712986,1.522685 -1.712986,1.522685"
       id="path862" />
    <path
       style="fill:#88aa00;stroke:#000000;stroke-width:1.27;stroke-linecap:butt;stroke-linejoin:miter;stroke-opacity:1;stroke-miterlimit:4;stroke-dasharray:none"
       d="m 64.333373,58.940538 1.903354,-5.329394 1.903355,-2.030243 c 0,0 0.507561,1.713018 0.571008,1.966799 0.06344,0.25378 0.444113,3.299148 0.380669,3.616372 -0.06345,0.317225 -1.332349,3.997045 -1.332349,3.997045 l -3.870153,0.380669 z"
       id="path864" />
    <path
       style="fill:none;stroke:#000000;stroke-width:1.27;stroke-linecap:butt;stroke-linejoin:miter;stroke-opacity:1;stroke-miterlimit:4;stroke-dasharray:none"
       d="m 60.698948,54.463063 0.53835,-2.287987 1.480463,2.512298 0.134588,2.602026 z"
       id="path866" />
    <path
       style="fill:#ff8080;stroke:#000000;stroke-width:1.27;stroke-linecap:butt;stroke-linejoin:miter;stroke-opacity:1;stroke-miterlimit:4;stroke-dasharray:none"
       d="m 59.173625,53.520951 c -0.04486,-0.269174 1.031835,-7.088275 1.031835,-7.088275 l 3.947901,3.76845 2.377713,2.736611 -0.294349,0.673407 -1.903352,5.329394 -1.929648,-1.965177 z"
       id="path868" />
    <path
       style="fill:none;stroke:#000000;stroke-width:1.27;stroke-linecap:butt;stroke-linejoin:miter;stroke-opacity:1;stroke-miterlimit:4;stroke-dasharray:none"
       d="m 62.762624,54.059301 0.807524,-2.108539 2.33285,2.287987 -1.569625,4.701789 -1.481026,-1.651138 z"
       id="path870" />
    <path
       style="fill:#668000;stroke:#000000;stroke-width:1.27;stroke-linecap:butt;stroke-linejoin:miter;stroke-opacity:1;stroke-miterlimit:4;stroke-dasharray:none"
       d="m 154.80615,101.00467 -1.10726,-3.653067 c 0,0 0.85239,-0.314037 1.12156,-0.134589 0.26918,0.179451 1.12156,0.358902 1.21129,0.672939 0.0897,0.314037 0.31404,1.570188 0.31404,1.749637 0,0.179451 0.0897,1.74964 0.0897,1.74964 z"
       id="path872" />
    <path
       style="fill:#88aa00;stroke:#000000;stroke-width:1.27;stroke-linecap:butt;stroke-linejoin:miter;stroke-opacity:1;stroke-miterlimit:4;stroke-dasharray:none"
       d="m 158.00569,102.3762 2.24312,-0.58321 c 0,0 1.12157,-0.7178 1.21129,-1.0767 0.0897,-0.3589 0.76266,-1.839362 0.76266,-1.839362 l 1.30102,0.04486 c 0,0 0.7178,1.570192 0.7178,1.839362 0,0.26918 -0.80753,1.48046 -1.25615,1.61505 -0.44863,0.13459 -1.65992,0.31404 -1.65992,0.31404 l -1.88422,0.7178 -0.57466,0.071 z"
       id="path874" />
    <path
       style="fill:#88aa00;stroke:#000000;stroke-width:1.27;stroke-linecap:butt;stroke-linejoin:miter;stroke-opacity:1;stroke-miterlimit:4;stroke-dasharray:none"
       d="m 155.3588,96.992703 0.89725,-0.179451 1.12156,0.762664 c 0,0 0.80753,0.224312 1.39074,0.134586 0.58322,-0.08972 2.06368,-0.08972 2.06368,-0.08972 l 1.39073,1.256147 -1.0767,2.198261 -0.89725,0.7178 -2.24312,0.58321 -0.53485,-0.61019 -1.03536,-0.37678 -0.0448,-2.69175 -0.26917,-0.897249 z"
       id="path876" />
    <path
       style="fill:#55d400;stroke:#000000;stroke-width:1.27;stroke-linecap:butt;stroke-linejoin:miter;stroke-opacity:1;stroke-miterlimit:4;stroke-dasharray:none"
       d="m 156.74954,96.588941 0.62807,-1.659914 c 0,0 0.62808,1.121564 0.58322,0.942113 -0.0449,-0.179448 0.53835,-2.646886 0.53835,-2.646886 l 0.58321,1.301011 2.33285,-0.852387 -0.3589,1.659914 1.52532,0.04486 -0.76266,3.005786 -0.98697,-0.762662 -2.55717,0.269174 z"
       id="path878" />
    <path
       style="fill:none;stroke:#000000;stroke-width:1.27;stroke-linecap:butt;stroke-linejoin:miter;stroke-opacity:1;stroke-miterlimit:4;stroke-dasharray:none"
       d="m 102.46593,159.35157 -4.26194,3.99276 -2.063674,1.92908 -0.448624,1.16643 -1.076701,0.62807 -0.53835,-3.14037 c 0,0 2.916062,-1.48046 3.185236,-1.83936 0.269177,-0.3589 2.018813,-1.92909 2.153402,-2.10854 0.134585,-0.17945 2.063671,-1.97395 2.063671,-1.97395 l 0.44863,-0.3589 1.36111,1.21984 -0.95735,0.66438"
       id="path880" />
    <path
       style="fill:none;stroke:#000000;stroke-width:1.27;stroke-linecap:butt;stroke-linejoin:miter;stroke-opacity:1;stroke-miterlimit:4;stroke-dasharray:none"
       d="m 104.79878,160.51799 c 0,0 1.03183,1.52532 1.16642,1.70477 0.13459,0.17945 0.7178,1.16643 1.30101,1.21129 0.58322,0.0449 1.74964,0.17945 1.97395,0.26918 0.22432,0.0897 1.25615,0.17945 1.34588,0.40376 0.0897,0.22431 0.58321,0.85238 -0.0449,1.12156 -0.62807,0.26917 -1.48046,0.53835 -1.83936,0.44863 -0.3589,-0.0897 -1.0767,-0.85239 -1.0767,-0.85239 l -0.58321,-1.65991"
       id="path882" />
    <path
       style="fill:none;stroke:#000000;stroke-width:1.27;stroke-linecap:butt;stroke-linejoin:miter;stroke-opacity:1;stroke-miterlimit:4;stroke-dasharray:none"
       d="m 104.79878,161.99845 0.3589,2.24313 c 0,0 0.22431,1.03183 0.53835,1.39073 0.31403,0.3589 0.49348,0.40377 0.53835,0.67294 0.0449,0.26918 -0.17945,0.76266 0.49348,1.21129 0.67294,0.44862 2.01881,0.62807 2.28799,0.67293 0.26918,0.0449 1.92909,-0.67293 1.92909,-0.67293"
       id="path884" />
    <path
       style="fill:none;stroke:#000000;stroke-width:1.27;stroke-linecap:butt;stroke-linejoin:miter;stroke-opacity:1;stroke-miterlimit:4;stroke-dasharray:none"
       d="m 101.92758,202.50928 4.03762,0.89725 h 2.69175 l 1.12156,-0.22431 h 0.0449"
       id="path886" />
    <path
       style="fill:none;stroke:#000000;stroke-width:1.27;stroke-linecap:butt;stroke-linejoin:miter;stroke-opacity:1;stroke-miterlimit:4;stroke-dasharray:none"
       d="m 101.88271,205.20103 2.28799,0.62807 1.61505,0.3589 c 0,0 1.48046,0.26918 1.83936,0.26918 0.3589,0 1.7945,-0.49349 1.7945,-0.49349"
       id="path888" />
    <path
       style="fill:none;stroke:#000000;stroke-width:1.27;stroke-linecap:butt;stroke-linejoin:miter;stroke-opacity:1;stroke-miterlimit:4;stroke-dasharray:none"
       d="m 103.4529,211.79582 c 0,0 3.2301,-0.0897 3.63386,-0.31404 0.40377,-0.22432 1.61505,-0.76267 1.88423,-0.89725 0.26917,-0.13459 1.83936,-0.98698 1.83936,-0.98698"
       id="path890" />
    <path
       style="fill:none;stroke:#000000;stroke-width:1.27;stroke-linecap:butt;stroke-linejoin:miter;stroke-opacity:1;stroke-miterlimit:4;stroke-dasharray:none"
       d="m 106.50355,234.76541 -2.1534,2.46744 c 0,0 -1.12156,0.67293 -1.48046,0.62807 -0.3589,-0.0449 -0.89725,-0.17945 -1.12156,-0.31403 -0.22432,-0.13459 -0.31404,-1.07671 -0.31404,-1.07671 l 0.26918,-0.31403 -0.89725,1.83936 0.89725,0.89725 1.70477,0.22431 0.44862,-0.13458"
       id="path892" />
    <path
       style="fill:#668000;stroke:#000000;stroke-width:1.27;stroke-linecap:butt;stroke-linejoin:miter;stroke-opacity:1;stroke-miterlimit:4;stroke-dasharray:none"
       d="m 105.06795,234.49623 c 0,0 1.88423,-1.48046 1.83936,-1.74963 -0.0449,-0.26918 -0.22431,-1.61505 -0.62807,-2.06368 -0.40376,-0.44862 -0.7178,-1.12156 -1.12156,-1.52532 -0.40377,-0.40376 -1.34588,-0.98698 -2.01881,-1.16642 -0.67294,-0.17946 -2.91607,0.17944 -3.09552,0.26917 -0.179447,0.0897 -1.30101,0.80752 -1.345873,1.25615 -0.04486,0.44862 0.224314,1.21129 0.583213,1.34587 0.3589,0.13459 1.52533,0.44863 1.65991,0.94211 0.13459,0.49349 0,1.21129 0,1.39074 0,0.17945 0.3589,0.89725 0.58321,1.16643 0.22432,0.26917 0.3589,0.49349 0.58322,0.53835 0.22431,0.0449 2.96092,-0.40377 2.96092,-0.40377 z"
       id="path894" />
    <path
       style="fill:#a05a2c;stroke:#000000;stroke-width:1.27;stroke-linecap:butt;stroke-linejoin:miter;stroke-opacity:1;stroke-miterlimit:4;stroke-dasharray:none"
       d="m 103.60596,272.43344 1.77603,0.6894 c 0,0 1.97395,-0.0897 2.19826,-0.22432 0.22431,-0.13459 2.55716,-0.85238 2.82634,-1.03182 0.26917,-0.17947 2.64689,-1.70479 2.64689,-1.70479 l 1.97395,-2.5123 c 0,0 0.85238,-1.25613 0.85238,-1.52532 0,-0.26919 -0.13459,-1.57019 -0.13459,-1.57019 l -2.55716,0.53834 -5.0246,2.19827 -3.31982,2.96092 z"
       id="path896" />
  </g>
</svg>
