<?xml version="1.0" encoding="UTF-8" standalone="no"?>
<svg
   xmlns:dc="http://purl.org/dc/elements/1.1/"
   xmlns:cc="http://creativecommons.org/ns#"
   xmlns:rdf="http://www.w3.org/1999/02/22-rdf-syntax-ns#"
   xmlns:svg="http://www.w3.org/2000/svg"
   xmlns="http://www.w3.org/2000/svg"
   xmlns:sodipodi="http://sodipodi.sourceforge.net/DTD/sodipodi-0.dtd"
   xmlns:inkscape="http://www.inkscape.org/namespaces/inkscape"
   width="210mm"
   height="297mm"
   viewBox="0 0 210 297"
   version="1.1"
   id="svg8"
   inkscape:version="1.0.2 (e86c870879, 2021-01-15, custom)"
   sodipodi:docname="rhizopus.svg">
  <defs
     id="defs2" />
  <sodipodi:namedview
     id="base"
     pagecolor="#ffffff"
     bordercolor="#666666"
     borderopacity="1.0"
     inkscape:pageopacity="0.0"
     inkscape:pageshadow="2"
     inkscape:zoom="0.96377841"
     inkscape:cx="543.97046"
     inkscape:cy="545.85819"
     inkscape:document-units="mm"
     inkscape:current-layer="layer1"
     inkscape:document-rotation="0"
     showgrid="false"
     inkscape:window-width="1920"
     inkscape:window-height="1017"
     inkscape:window-x="-8"
     inkscape:window-y="-8"
     inkscape:window-maximized="1" />
  <metadata
     id="metadata5">
    <rdf:RDF>
      <cc:Work
         rdf:about="">
        <dc:format>image/svg+xml</dc:format>
        <dc:type
           rdf:resource="http://purl.org/dc/dcmitype/StillImage" />
        <dc:title></dc:title>
      </cc:Work>
    </rdf:RDF>
  </metadata>
  <g
     inkscape:label="Layer 1"
     inkscape:groupmode="layer"
     id="layer1">
    <g
       id="g890">
      <path
         id="path868"
         style="fill:#5fd3bc;stroke:#000000;stroke-width:0.965;stroke-linecap:butt;stroke-linejoin:miter;stroke-miterlimit:4;stroke-dasharray:none;stroke-opacity:1"
         d="m 75.316794,89.592985 c -3.234088,-2.253216 -9.132592,-4.997195 -6.718568,-9.906012 1.645585,-5.222642 9.113229,-4.760787 13.080536,-2.755904 5.267685,2.113971 1.490086,7.643026 -0.60467,10.718701 -1.991743,3.488958 -1.366263,7.869419 -1.617651,11.756695 0.775997,8.377155 2.376462,16.654105 4.588183,24.767075 1.254932,4.1315 -0.343172,8.68874 1.442204,12.70804 0.634239,1.96037 1.268479,3.92075 1.902718,5.88112 0.06923,-4.3582 -0.138261,-8.76643 0.103362,-13.09345 1.997059,-5.20464 4.954309,-10.40771 4.13081,-16.18921 -0.387418,-5.92855 2.196209,-11.41071 2.786731,-17.224043 2.54784,-5.473078 -6.707804,-8.374764 -4.07507,-14.12579 1.833774,-5.116306 8.485549,-4.332371 12.517211,-2.873479 4.42281,3.090999 2.15635,10.839481 -2.47812,12.731686 -4.151084,2.910937 -3.053045,8.708706 -4.729322,12.948586 -1.910347,6.83105 -1.676135,14.09407 -3.71791,20.91665 -1.058904,3.90411 -2.037803,7.90193 -2.34704,11.92479 0.289175,3.59663 0.305489,7.18672 -0.06138,10.77257 1.409128,-1.49872 1.340854,-8.83879 5.1243,-10.74602 4.12931,-4.81892 9.966642,-8.02492 13.129532,-13.65918 2.52959,-5.46629 6.58588,-10.65924 6.45399,-16.95813 0.58138,-5.27405 0.26404,-10.565702 -0.90274,-15.733216 0.64071,-3.263007 4.82589,-5.237285 7.2347,-2.367955 3.99609,3.52011 0.0979,7.225205 -1.63571,10.386649 -0.72919,6.675522 -1.81739,13.363492 -3.66049,19.830272 -1.51439,4.62015 -5.82124,7.47242 -8.68875,11.22114 -4.06037,3.8776 -8.164965,7.71079 -11.990063,11.82468 1.379207,3.52326 -5.966661,8.82215 -1.129561,10.09077 4.944556,0.56383 9.343694,-3.06758 14.339294,-2.37992 4.75334,0.0861 8.81105,3.12809 13.33378,4.3619 6.29532,1.06526 12.70092,0.31623 18.83993,-1.2481 4.58436,-0.9928 7.83371,-5.5958 13.11284,-3.8832 2.83873,-1.74063 3.27206,3.29851 0.77519,2.50605 -2.15284,-0.0166 -4.43796,-0.68059 -6.26714,0.88876 -4.48752,2.21776 -8.6036,5.41889 -13.74141,6.03848 -6.00447,0.99154 -12.62749,0.96315 -18.01157,-2.23474 -2.28802,-3.00533 -6.36021,-2.61665 -9.58689,-3.81021 -3.88419,0.31683 -9.278488,1.40509 -12.430639,1.79592 2.809048,3.12289 8.633779,-1.38458 9.641319,3.15398 -1.4684,0.59182 -6.120067,3.70665 -3.12689,-0.51307 -1.087081,-0.37185 -5.79251,-0.073 -3.918738,2.74816 -0.61161,5.28326 10.162298,-3.07784 7.090678,4.19652 -1.89538,3.46195 -1.81862,8.17116 -4.785687,9.91764 -1.751477,-0.74288 2.502777,-5.11219 2.699747,-7.46511 0.3695,-1.5756 2.19794,-5.43938 -1.16998,-3.86338 -3.454072,3.31511 2.34995,3.99479 4.75468,3.7624 2.00819,0.48466 6.02885,3.06324 1.44449,2.05369 -1.70019,-1.96162 -7.282466,-1.82191 -3.26367,0.9645 0.68977,1.90059 7.143,-0.21591 3.67971,2.85281 -1.794,-1.05072 -4.49158,-1.11272 -1.52977,0.70287 2.28549,0.1523 3.84834,6.03405 0.84733,2.39284 -3.34064,-2.81795 -4.71903,-6.08121 -7.75195,-8.88402 -0.758944,-3.2071 -4.474783,-4.87335 -4.777935,-0.31654 -2.32248,4.06877 -1.379345,-2.91865 1.031042,-3.60025 0.938294,-2.69234 -2.71488,-3.24647 -0.947059,-5.85937 -1.706129,-0.002 -3.495786,0.11772 -0.970317,-1.13893 -1.882058,-2.25712 -4.234832,-4.30807 -2.687282,-0.30677 0.07445,2.42518 -0.729744,5.09796 2.356521,6.34314 -4.003693,2.99841 0.260333,7.39093 -2.553056,10.86599 0.41436,2.60151 -2.715771,5.19806 -1.792049,1.06334 0.640699,-1.74293 2.291718,-8.52951 -0.28554,-7.25734 -0.145843,2.32277 -1.687582,8.86075 -3.431637,7.76253 0.423791,-2.06265 3.084068,-5.9869 -0.744211,-2.84247 -1.59077,2.5373 -7.814122,2.05793 -2.191287,1.15766 4.252136,-1.84822 4.673882,-6.55387 7.183699,-9.59205 2.375248,-2.28491 -4.29089,-3.45267 -1.400562,-6.34646 1.412606,-4.6462 -2.124723,-2.55109 -1.524603,0.76488 -2.013276,2.19422 -2.838529,4.37738 -0.537485,6.61521 -4.80989,-1.66046 0.715236,3.43302 -2.966506,4.13967 -2.544686,3.5892 0.393134,-3.86841 -0.08786,-5.1888 1.509528,-5.64798 -3.873615,4.32562 -2.857976,-0.8114 3.056035,-3.20425 6.165064,-7.50055 6.069323,-11.73488 -4.231246,-0.70376 -7.534442,4.43968 -11.8783,4.91812 -5.498951,0.14209 4.332054,-1.94607 5.567368,-3.85732 3.392397,-2.19279 7.811033,-4.25692 5.451083,-9.0888 -2.94338,-11.92686 -4.869998,-24.11171 -6.876416,-36.23821 -0.26824,-4.20332 -0.291365,-8.461932 -0.710248,-12.631263 -0.516864,-1.240497 -1.033729,-2.480995 -1.550593,-3.721492 z" />
      <path
         style="fill:none;stroke:#000000;stroke-width:0.264583px;stroke-linecap:butt;stroke-linejoin:miter;stroke-opacity:1"
         d="m 74.420756,88.276072 c 0,0 1.213249,-0.315447 1.334574,-0.436772 0.121324,-0.121325 0.606626,-0.363974 0.946335,-0.436769 0.339712,-0.07279 1.98973,0.14559 1.98973,0.14559"
         id="path873" />
      <path
         style="fill:none;stroke:#000000;stroke-width:0.264583px;stroke-linecap:butt;stroke-linejoin:miter;stroke-opacity:1"
         d="m 93.517311,90.07168 c 0,0.242652 1.358839,0.04853 1.552959,0 0.194119,-0.04853 3.05739,0.194122 3.05739,0.194122 h 0.485301"
         id="path875" />
    </g>
  </g>
</svg>
