<?xml version="1.0" encoding="UTF-8" standalone="no"?>
<svg
   xmlns:dc="http://purl.org/dc/elements/1.1/"
   xmlns:cc="http://creativecommons.org/ns#"
   xmlns:rdf="http://www.w3.org/1999/02/22-rdf-syntax-ns#"
   xmlns:svg="http://www.w3.org/2000/svg"
   xmlns="http://www.w3.org/2000/svg"
   width="210mm"
   height="297mm"
   viewBox="0 0 210 297"
   version="1.1"
   id="svg8">
  <defs
     id="defs2" />
  <metadata
     id="metadata5">
    <rdf:RDF>
      <cc:Work
         rdf:about="">
        <dc:format>image/svg+xml</dc:format>
        <dc:type
           rdf:resource="http://purl.org/dc/dcmitype/StillImage" />
        <dc:title></dc:title>
      </cc:Work>
    </rdf:RDF>
  </metadata>
  <g
     id="layer1">
    <g
       id="g984"
       transform="translate(-47.365281,23.682641)">
      <path
         id="path847"
         style="fill:#bcd35f;stroke:#000000;stroke-width:0.665;stroke-linecap:butt;stroke-linejoin:miter;stroke-miterlimit:4;stroke-dasharray:none;stroke-opacity:1"
         d="m 115.43534,87.651478 c -7.23803,-1.887301 -9.64049,-10.653425 -17.046088,-12.147242 -0.711375,4.275802 7.337748,7.158492 9.427398,11.48736 3.0314,6.014094 6.51803,11.844756 10.76091,17.115204 0.55254,3.72808 2.74903,12.13437 -1.59676,12.72702 -1.72336,-3.0537 -10.33886,-10.57882 -9.889,-3.3458 3.70205,2.30738 11.96291,11.99676 2.65771,11.35689 -2.77912,-1.00959 -11.789421,-1.35472 -9.62909,1.94737 5.21247,2.10354 14.27409,-0.0158 17.25366,2.97576 -1.77334,5.26676 6.75938,1.91304 4.07829,7.40747 -1.57119,6.12577 -8.70858,7.99502 -11.20657,13.36972 -1.60678,7.07849 9.99747,-6.00284 7.32268,3.12653 -0.0778,6.5929 3.81562,-3.85011 4.22472,-6.38329 2.13702,-5.58173 8.60591,-10.40681 14.74251,-8.99226 7.74582,3.15133 2.41311,13.78512 -3.32026,16.23701 -3.52152,2.32034 -12.44979,4.53005 -10.54987,9.56151 6.47498,-1.14421 10.08735,-9.16543 15.9577,-10.49444 1.67657,1.99297 -0.27257,12.21961 3.67773,7.77469 1.11442,-5.92398 -0.39575,-13.75586 6.47459,-16.74754 5.54881,-2.92947 0.59444,2.27595 2.56451,4.10564 3.09838,3.26115 -2.30081,10.54335 -3.80914,14.93246 -1.9963,2.87037 -0.26757,6.00151 2.17033,2.01237 4.80917,-5.16796 4.28765,-13.6136 9.97577,-17.90463 7.62592,-2.24565 -2.53154,11.47835 3.51759,10.54427 1.46144,-3.61741 0.65036,-14.40233 7.19983,-9.18398 2.50712,2.80142 3.35175,13.5455 7.87118,10.23526 0.15958,-6.02217 -8.70503,-12.94595 -1.24012,-17.88148 4.7395,-5.67957 10.17923,-0.8035 12.36359,4.23249 5.25662,1.50675 -0.44172,-5.38639 -1.55316,-7.30782 0.57089,-4.38782 7.62517,-4.68028 8.10092,-9.34261 2.57484,-5.26949 10.75605,-7.21365 11.68431,0.32946 -0.31148,2.96822 3.14754,11.39179 3.59914,4.39029 -1.56351,-3.81905 -1.5281,-8.40621 3.68144,-8.46033 1.63907,-3.20232 -8.23808,2.20998 -9.04252,-2.95603 -2.98184,-7.33302 7.09657,-9.33199 12.16007,-7.1681 2.13642,1.10916 11.40204,4.67275 6.18355,0.46727 -4.38048,-0.70658 -10.45976,-5.67752 -3.80671,-8.64183 5.34586,-3.20884 -1.11418,-4.45101 -3.12803,-1.24554 -3.03753,3.00242 -12.70667,11.96154 -12.69072,2.97098 -1.53287,-6.19233 5.18403,-12.332047 2.48386,-17.707056 -4.69654,2.89572 -3.48,12.424076 -7.57438,17.234486 -1.2897,4.52433 -4.59849,2.82772 -7.30487,2.34715 -7.24486,6.96138 -8.09821,-11.331425 0.23769,-8.13718 6.79608,-1.13212 -6.18719,-1.10094 -1.76074,-4.624036 2.50081,-1.134821 5.74586,-8.446357 0.572,-4.681571 -6.52956,4.458966 -8.73008,14.183467 -17.06689,16.100227 -8.28694,0.99533 -6.61014,-9.461557 -3.96885,-14.090424 0.62846,-4.374997 5.43124,-10.345585 4.3609,-13.345474 -7.32095,0.505524 -6.90689,10.162308 -8.62301,15.467265 -1.22253,7.028893 -11.91766,7.085343 -10.34664,-0.98771 -0.47766,-7.637238 1.78171,-14.94323 3.9823,-22.140277 6.43198,-1.650604 6.92829,-8.277093 4.01756,-12.962402 -3.73834,-1.298548 -3.97429,7.27487 -6.2106,9.951793 -0.70956,5.529917 -5.99549,12.038508 -10.93631,5.861122 -4.59694,-5.882366 -8.32898,-12.33462 -12.52563,-18.471473 -2.59969,-3.305367 -6.5714,-1.700886 -3.71323,2.247066 3.61133,6.134593 9.01957,11.438689 10.305,18.747761 3.31088,6.237157 -7.77628,16.105094 -9.61219,6.331129 0.69205,-3.260703 -5.34316,-11.316202 -6.27283,-5.389875 2.52835,5.989117 6.64062,11.601257 6.7022,18.415426 -2.01794,8.824923 -12.01069,0.515105 -10.07227,-5.714496 1.03894,-7.188299 -3.50328,-12.736589 -5.35457,-19.127074 2.99631,-5.837935 -1.38627,-9.726238 -4.86695,-4.342983 -1.01239,-2.390674 -4.20609,-5.139739 -3.2026,-0.570809 2.00781,5.492437 6.92421,9.906558 7.99452,15.610052 -0.10336,0.962008 -0.39333,1.9012 -0.38556,2.875261 z" />
      <path
         id="path849"
         style="fill:#abc837;stroke:#000000;stroke-width:0.665;stroke-linecap:butt;stroke-linejoin:miter;stroke-miterlimit:4;stroke-dasharray:none;stroke-opacity:1"
         d="m 134.99872,81.740456 c -3.17896,5.984401 3.94364,11.275904 4.57824,17.181925 0.55084,5.147909 -0.66157,14.952399 -7.79391,13.735649 -7.0279,-1.2209 -12.0428,-7.12864 -18.72299,-9.06913 -7.71921,1.88735 2.22263,7.14093 6.1516,6.62117 6.06225,0.017 13.99239,8.73782 5.41817,12.02988 -3.36989,1.07271 -5.9664,3.50154 -0.73966,3.19583 2.80214,-0.41433 11.42269,-4.18818 9.9344,0.93068 -1.97901,1.11396 -10.6588,6.72112 -4.39542,5.93118 3.66635,-1.09103 11.99013,-6.38186 13.24279,-1.84821 -4.03214,4.30108 -9.6535,6.97989 -12.05858,12.80927 -3.04391,2.97148 -0.70323,6.64149 2.71892,3.0288 2.7272,-2.84462 6.17666,-10.92352 10.44134,-8.1998 0.33316,6.50606 6.59631,-4.69943 10.04382,0.71877 4.83803,5.98003 1.72068,-10.05296 6.99388,-6.02845 0.24063,3.11904 1.16501,9.88505 6.26737,6.85441 -0.53221,3.37283 3.01131,8.35358 3.47583,2.62773 2.29341,-7.9485 10.20403,1.51626 9.02146,6.50408 -0.51899,3.33615 5.22962,11.82758 4.8383,4.2276 0.12449,-6.64933 -5.30444,-13.37184 -2.55852,-19.76297 3.5854,-4.35947 13.90212,-2.03535 12.54212,4.55456 -0.44964,2.76327 0.74864,5.02021 3.16358,3.08768 1.99259,1.32798 3.1112,11.02046 4.37772,4.61688 -1.3305,-6.72723 -5.55276,-13.30587 -12.12773,-15.73354 -4.08104,0.64838 -7.10581,-3.6115 -1.69107,-3.89836 3.56318,0.94789 12.40034,-2.89227 11.20983,-5.02179 -2.95813,3.05607 -9.03798,2.06825 -6.98111,-3.19942 -4.85077,4.08783 -11.28164,1.50169 -16.82881,1.33103 -7.43666,-3.52753 2.24151,-12.22582 -0.46606,-17.4994 -3.07088,3.34791 -1.51497,11.57368 -7.92792,13.65584 -4.98651,2.9781 -17.80143,5.61122 -17.14074,-3.44426 2.41113,-7.67576 8.98673,-12.985987 12.72691,-19.963337 3.26865,-2.751037 5.30113,-5.477242 2.37197,-9.522507 -3.36043,6.413499 -7.35263,13.120238 -12.1601,18.840284 -1.83584,5.74638 -9.35696,1.63056 -4.90267,-2.606641 0.64802,-5.377423 4.61568,-13.490677 -0.35623,-17.280674 -2.93349,0.43054 2.57291,6.111757 -1.0911,8.50641 -5.74034,9.110028 -9.72637,-3.352488 -11.57563,-7.911169 z" />
      <path
         id="path851"
         style="fill:#89a02c;stroke:#000000;stroke-width:0.665;stroke-linecap:butt;stroke-linejoin:miter;stroke-miterlimit:4;stroke-dasharray:none;stroke-opacity:1"
         d="m 156.13731,108.30096 c -1.00175,6.89318 -11.52412,10.70724 -14.49821,3.14061 -0.73163,-3.12428 -9.9479,-7.02971 -6.53643,-1.91924 5.52286,4.63171 8.93139,11.77471 14.67425,15.68533 0.47899,2.48892 -0.46113,9.67391 3.55507,5.12839 1.27005,-5.89107 7.60504,-3.18863 10.28058,-0.74188 3.27323,-2.10032 6.71037,-1.36502 4.55194,2.87234 -0.008,5.75085 4.76693,0.5585 3.22255,-2.57097 1.55824,-5.05821 11.68221,2.03396 6.47408,-4.62213 -6.21758,-5.27326 6.42991,-8.2307 4.84206,-12.12359 -5.83403,2.30071 -9.97622,10.71371 -17.67395,8.12307 -4.0902,1.64952 -10.74592,-2.636 -4.42348,-5.61631 3.40717,-3.316 -4.87968,-2.74872 -3.94698,-6.77649 l -0.52148,-0.85369" />
      <path
         id="path853"
         style="fill:none;stroke:#000000;stroke-width:0.665;stroke-linecap:butt;stroke-linejoin:miter;stroke-miterlimit:4;stroke-dasharray:none;stroke-opacity:1"
         d="m 150.46727,118.29188 c -2.60159,6.53781 5.31173,-1.03649 -0.14608,0.0486" />
      <path
         id="path853-4"
         style="fill:none;stroke:#000000;stroke-width:0.665;stroke-linecap:butt;stroke-linejoin:miter;stroke-miterlimit:4;stroke-dasharray:none;stroke-opacity:1"
         d="m 176.8378,134.14864 c -2.60159,6.53781 5.31173,-1.03649 -0.14608,0.0486" />
      <path
         id="path853-8"
         style="fill:none;stroke:#000000;stroke-width:0.665;stroke-linecap:butt;stroke-linejoin:miter;stroke-miterlimit:4;stroke-dasharray:none;stroke-opacity:1"
         d="m 135.52147,118.15743 c -2.60159,6.53781 5.31173,-1.03649 -0.14608,0.0486" />
      <path
         id="path853-2"
         style="fill:none;stroke:#000000;stroke-width:0.665;stroke-linecap:butt;stroke-linejoin:miter;stroke-miterlimit:4;stroke-dasharray:none;stroke-opacity:1"
         d="m 144.4436,107.58814 c -2.60159,6.53781 5.31173,-1.03649 -0.14608,0.0486" />
      <path
         id="path853-84"
         style="fill:none;stroke:#000000;stroke-width:0.665;stroke-linecap:butt;stroke-linejoin:miter;stroke-miterlimit:4;stroke-dasharray:none;stroke-opacity:1"
         d="m 119.87342,117.60838 c -2.60159,6.53781 5.31173,-1.03649 -0.14608,0.0486" />
      <path
         id="path853-5"
         style="fill:none;stroke:#000000;stroke-width:0.665;stroke-linecap:butt;stroke-linejoin:miter;stroke-miterlimit:4;stroke-dasharray:none;stroke-opacity:1"
         d="m 154.18932,145.88467 c -2.60159,6.53782 5.31173,-1.03648 -0.14609,0.0486" />
      <path
         id="path853-29"
         style="fill:none;stroke:#000000;stroke-width:0.665;stroke-linecap:butt;stroke-linejoin:miter;stroke-miterlimit:4;stroke-dasharray:none;stroke-opacity:1"
         d="m 161.46428,106.90182 c -2.60159,6.53781 5.31173,-1.03649 -0.14608,0.0486" />
      <path
         id="path853-42"
         style="fill:none;stroke:#000000;stroke-width:0.665;stroke-linecap:butt;stroke-linejoin:miter;stroke-miterlimit:4;stroke-dasharray:none;stroke-opacity:1"
         d="m 151.37541,85.351439 c -2.60159,6.537821 5.31173,-1.03649 -0.14608,0.04859" />
      <path
         id="path853-9"
         style="fill:none;stroke:#000000;stroke-width:0.665;stroke-linecap:butt;stroke-linejoin:miter;stroke-miterlimit:4;stroke-dasharray:none;stroke-opacity:1"
         d="m 118.43216,93.724517 c -2.60159,6.537823 5.31173,-1.036491 -0.14608,0.04859" />
    </g>
  </g>
</svg>
