<?xml version="1.0" encoding="UTF-8" standalone="no"?>
<svg
   xmlns:dc="http://purl.org/dc/elements/1.1/"
   xmlns:cc="http://creativecommons.org/ns#"
   xmlns:rdf="http://www.w3.org/1999/02/22-rdf-syntax-ns#"
   xmlns:svg="http://www.w3.org/2000/svg"
   xmlns="http://www.w3.org/2000/svg"
   xmlns:sodipodi="http://sodipodi.sourceforge.net/DTD/sodipodi-0.dtd"
   xmlns:inkscape="http://www.inkscape.org/namespaces/inkscape"
   width="210mm"
   height="297mm"
   viewBox="0 0 210 297"
   version="1.1"
   id="svg8"
   inkscape:version="1.0.2 (e86c870879, 2021-01-15, custom)"
   sodipodi:docname="tendon.svg">
  <defs
     id="defs2">
    <filter
       inkscape:collect="always"
       style="color-interpolation-filters:sRGB"
       id="filter897"
       x="-0.1206589"
       width="1.2413178"
       y="-0.0097436525"
       height="1.0194873">
      <feGaussianBlur
         inkscape:collect="always"
         stdDeviation="0.29277881"
         id="feGaussianBlur899" />
    </filter>
    <filter
       inkscape:collect="always"
       style="color-interpolation-filters:sRGB"
       id="filter901"
       x="-0.21987244"
       width="1.4397449"
       y="-0.027352613"
       height="1.0547052">
      <feGaussianBlur
         inkscape:collect="always"
         stdDeviation="0.16347791"
         id="feGaussianBlur903" />
    </filter>
    <filter
       inkscape:collect="always"
       style="color-interpolation-filters:sRGB"
       id="filter905"
       x="-0.19055683"
       width="1.3811137"
       y="-0.023525499"
       height="1.047051">
      <feGaussianBlur
         inkscape:collect="always"
         stdDeviation="0.16347791"
         id="feGaussianBlur907" />
    </filter>
    <filter
       inkscape:collect="always"
       style="color-interpolation-filters:sRGB"
       id="filter909"
       x="-0.35729297"
       width="1.7145859"
       y="-0.013022081"
       height="1.0260442">
      <feGaussianBlur
         inkscape:collect="always"
         stdDeviation="0.16347791"
         id="feGaussianBlur911" />
    </filter>
    <filter
       inkscape:collect="always"
       style="color-interpolation-filters:sRGB"
       id="filter913"
       x="-0.13294625"
       width="1.2658925"
       y="-0.0068545514"
       height="1.0137091">
      <feGaussianBlur
         inkscape:collect="always"
         stdDeviation="0.16347791"
         id="feGaussianBlur915" />
    </filter>
    <filter
       inkscape:collect="always"
       style="color-interpolation-filters:sRGB"
       id="filter917"
       x="-0.053931079"
       width="1.1078622"
       y="-0.0058037511"
       height="1.0116075">
      <feGaussianBlur
         inkscape:collect="always"
         stdDeviation="0.16347791"
         id="feGaussianBlur919" />
    </filter>
    <filter
       inkscape:collect="always"
       style="color-interpolation-filters:sRGB"
       id="filter1021"
       x="-0.12912258"
       width="1.2582452"
       y="-0.0081180176"
       height="1.016236">
      <feGaussianBlur
         inkscape:collect="always"
         stdDeviation="0.19570034"
         id="feGaussianBlur1023" />
    </filter>
    <filter
       inkscape:collect="always"
       style="color-interpolation-filters:sRGB"
       id="filter1025"
       x="-0.050117249"
       width="1.1002345"
       y="-0.0068755424"
       height="1.0137511">
      <feGaussianBlur
         inkscape:collect="always"
         stdDeviation="0.19570034"
         id="feGaussianBlur1027" />
    </filter>
    <filter
       inkscape:collect="always"
       style="color-interpolation-filters:sRGB"
       id="filter1061"
       x="-0.21007043"
       width="1.4201409"
       y="-0.021968129"
       height="1.0439363">
      <feGaussianBlur
         inkscape:collect="always"
         stdDeviation="0.38446652"
         id="feGaussianBlur1063" />
    </filter>
    <filter
       inkscape:collect="always"
       style="color-interpolation-filters:sRGB"
       id="filter1065"
       x="-0.26888983"
       width="1.5377797"
       y="-0.016975373"
       height="1.0339507">
      <feGaussianBlur
         inkscape:collect="always"
         stdDeviation="0.38446652"
         id="feGaussianBlur1067" />
    </filter>
    <filter
       inkscape:collect="always"
       style="color-interpolation-filters:sRGB"
       id="filter1069"
       x="-0.28605342"
       width="1.5721068"
       y="-0.014004682"
       height="1.0280094">
      <feGaussianBlur
         inkscape:collect="always"
         stdDeviation="0.38446652"
         id="feGaussianBlur1071" />
    </filter>
    <filter
       inkscape:collect="always"
       style="color-interpolation-filters:sRGB"
       id="filter1073"
       x="-0.18168243"
       width="1.3633649"
       y="-0.013015"
       height="1.02603">
      <feGaussianBlur
         inkscape:collect="always"
         stdDeviation="0.38446652"
         id="feGaussianBlur1075" />
    </filter>
    <filter
       inkscape:collect="always"
       style="color-interpolation-filters:sRGB"
       id="filter1085"
       x="-0.1878005"
       width="1.375601"
       y="-0.017023633"
       height="1.0340473">
      <feGaussianBlur
         inkscape:collect="always"
         stdDeviation="0.33833825"
         id="feGaussianBlur1087" />
    </filter>
    <filter
       inkscape:collect="always"
       style="color-interpolation-filters:sRGB"
       id="filter1135"
       x="-0.095545028"
       width="1.1910901"
       y="-0.014168274"
       height="1.0283365">
      <feGaussianBlur
         inkscape:collect="always"
         stdDeviation="0.075348004"
         id="feGaussianBlur1137" />
    </filter>
    <filter
       inkscape:collect="always"
       style="color-interpolation-filters:sRGB"
       id="filter1139"
       x="-0.18621653"
       width="1.3724331"
       y="-0.025522302"
       height="1.0510446">
      <feGaussianBlur
         inkscape:collect="always"
         stdDeviation="0.075348004"
         id="feGaussianBlur1141" />
    </filter>
    <filter
       inkscape:collect="always"
       style="color-interpolation-filters:sRGB"
       id="filter1143"
       x="-0.33873152"
       width="1.677463"
       y="-0.032402227"
       height="1.0648045">
      <feGaussianBlur
         inkscape:collect="always"
         stdDeviation="0.075348004"
         id="feGaussianBlur1145" />
    </filter>
    <filter
       inkscape:collect="always"
       style="color-interpolation-filters:sRGB"
       id="filter1147"
       x="-0.086657119"
       width="1.1733142"
       y="-0.018446812"
       height="1.0368936">
      <feGaussianBlur
         inkscape:collect="always"
         stdDeviation="0.075348004"
         id="feGaussianBlur1149" />
    </filter>
    <filter
       inkscape:collect="always"
       style="color-interpolation-filters:sRGB"
       id="filter1151"
       x="-0.065387806"
       width="1.1307756"
       y="-0.014248249"
       height="1.0284965">
      <feGaussianBlur
         inkscape:collect="always"
         stdDeviation="0.075348004"
         id="feGaussianBlur1153" />
    </filter>
    <filter
       inkscape:collect="always"
       style="color-interpolation-filters:sRGB"
       id="filter1179"
       x="-0.099365227"
       width="1.1987305"
       y="-0.028111772"
       height="1.0562235">
      <feGaussianBlur
         inkscape:collect="always"
         stdDeviation="0.10146722"
         id="feGaussianBlur1181" />
    </filter>
    <filter
       inkscape:collect="always"
       style="color-interpolation-filters:sRGB"
       id="filter1183"
       x="-0.29517378"
       width="1.5903476"
       y="-0.072723757"
       height="1.1454475">
      <feGaussianBlur
         inkscape:collect="always"
         stdDeviation="0.10146722"
         id="feGaussianBlur1185" />
    </filter>
    <filter
       inkscape:collect="always"
       style="color-interpolation-filters:sRGB"
       id="filter1187"
       x="-0.17606793"
       width="1.3521359"
       y="-0.039356472"
       height="1.0787129">
      <feGaussianBlur
         inkscape:collect="always"
         stdDeviation="0.10146722"
         id="feGaussianBlur1189" />
    </filter>
    <filter
       inkscape:collect="always"
       style="color-interpolation-filters:sRGB"
       id="filter1191"
       x="-0.2389502"
       width="1.4779004"
       y="-0.030319984"
       height="1.06064">
      <feGaussianBlur
         inkscape:collect="always"
         stdDeviation="0.10146722"
         id="feGaussianBlur1193" />
    </filter>
    <filter
       inkscape:collect="always"
       style="color-interpolation-filters:sRGB"
       id="filter1195"
       x="-0.52821144"
       width="2.0564229"
       y="-0.031759162"
       height="1.0635183">
      <feGaussianBlur
         inkscape:collect="always"
         stdDeviation="0.10146722"
         id="feGaussianBlur1197" />
    </filter>
    <filter
       inkscape:collect="always"
       style="color-interpolation-filters:sRGB"
       id="filter1199"
       x="-0.62724428"
       width="2.2544886"
       y="-0.057348116"
       height="1.1146962">
      <feGaussianBlur
         inkscape:collect="always"
         stdDeviation="0.10146722"
         id="feGaussianBlur1201" />
    </filter>
  </defs>
  <sodipodi:namedview
     id="base"
     pagecolor="#ffffff"
     bordercolor="#666666"
     borderopacity="1.0"
     inkscape:pageopacity="0.0"
     inkscape:pageshadow="2"
     inkscape:zoom="0.48188921"
     inkscape:cx="-608.94151"
     inkscape:cy="1064.5815"
     inkscape:document-units="mm"
     inkscape:current-layer="layer1"
     inkscape:document-rotation="0"
     showgrid="false"
     inkscape:window-width="1920"
     inkscape:window-height="1017"
     inkscape:window-x="-8"
     inkscape:window-y="-8"
     inkscape:window-maximized="1" />
  <metadata
     id="metadata5">
    <rdf:RDF>
      <cc:Work
         rdf:about="">
        <dc:format>image/svg+xml</dc:format>
        <dc:type
           rdf:resource="http://purl.org/dc/dcmitype/StillImage" />
        <dc:title></dc:title>
      </cc:Work>
    </rdf:RDF>
  </metadata>
  <g
     inkscape:label="Layer 1"
     inkscape:groupmode="layer"
     id="layer1">
    <g
       id="g1299">
      <g
         id="g1233">
        <path
           style="fill:#e9ddaf;stroke:#000000;stroke-width:0.665;stroke-linecap:butt;stroke-linejoin:miter;stroke-opacity:1;stroke-miterlimit:4;stroke-dasharray:none"
           d="m 122.41642,123.45036 1.65001,13.1031 c 0,0 1.65002,11.6472 1.74708,12.03544 0.0971,0.38824 1.65002,6.98832 1.65002,7.47362 0,0.4853 1.06766,6.11478 1.06766,6.11478 l 4.17358,22.71204 3.97946,10.87072 1.65002,9.02658 c 0,0 0.77648,4.65888 0.58236,5.3383 -0.19412,0.67942 -0.29118,2.81474 -0.29118,2.81474 l 0.67942,4.65888 -2.52356,3.97946 -1.65002,2.23238 -2.32944,2.13532 c 0,0 -3.30004,1.65002 -4.07652,1.65002 -0.77648,0 -3.97946,0.0971 -4.56182,-0.19412 -0.58235,-0.29118 -1.84413,-0.38824 -2.81473,-1.35884 -0.9706,-0.9706 -2.13532,-1.65002 -2.23238,-2.81474 -0.0971,-1.16472 -0.67942,-1.65002 -0.0971,-3.00886 0.58235,-1.35884 0.38824,-1.9412 1.94119,-2.81474 1.55297,-0.87354 1.55297,-1.16472 2.52357,-1.35884 0.97059,-0.19412 5.82359,0.0971 5.82359,0.0971 l -4.95006,-0.38824 1.84414,-4.65888 1.65002,-6.40596 -0.9706,-6.60008 -0.87354,-0.9706 c 0,0 1.74708,-11.1619 1.55296,-12.52074 -0.19412,-1.35884 -0.4853,-7.2795 -0.67942,-8.54128 -0.19412,-1.26178 -2.23238,-9.51188 -2.23238,-9.51188 l -5.8236,-19.60612 c 0,0 -1.74707,-2.32944 -2.13532,-2.52356 -0.38823,-0.19412 -1.06766,-0.38824 -1.35883,-1.55296 -0.29118,-1.16472 -0.38824,-3.20298 -0.58237,-3.78534 -0.19412,-0.58236 -1.26178,-11.45308 -1.26178,-11.45308 l 0.38825,-4.17358"
           id="path847" />
        <path
           style="fill:#e9ddaf;stroke:#000000;stroke-width:0.965;stroke-linecap:butt;stroke-linejoin:miter;stroke-opacity:1;stroke-miterlimit:4;stroke-dasharray:none"
           d="m 118.53401,224.781 -2.23237,3.10592 c 0,0 0.48529,1.35884 0.19411,1.84414 -0.29117,0.4853 -1.74708,2.62062 -2.23237,3.00886 -0.48531,0.38824 0.87354,-0.0971 0.58235,0.77648 -0.29118,0.87354 -2.23238,3.68828 -2.71767,4.17358 -0.48531,0.4853 -1.65003,1.9412 -2.9118,2.71768 -1.26178,0.77648 -2.91181,1.35884 -3.88241,2.42649 -0.9706,1.06767 -1.65001,3.00887 -1.65001,3.00887 l 7.66773,-0.29117 c 0,0 2.03826,-2.9118 2.91181,-4.36771 0.87354,-1.4559 3.78534,-3.8824 4.17358,-4.75594 0.38823,-0.87354 0.58236,-1.55296 1.9412,-2.4265 1.35883,-0.87354 3.20298,-1.26178 3.97945,-1.84414 0.77648,-0.58236 1.84414,-1.16472 1.9412,-1.74708 0.0971,-0.58236 0.19412,-2.32944 0.19412,-2.32944 l -5.24123,-1.65002 z"
           id="path849" />
        <path
           style="fill:#f4eed7;stroke:#000000;stroke-width:0.665;stroke-linecap:butt;stroke-linejoin:miter;stroke-opacity:1;stroke-miterlimit:4;stroke-dasharray:none"
           d="m 139.30485,217.59856 c 0,0 1.74708,1.55296 1.74708,2.03826 0,0.4853 -0.58236,0.9706 0,2.03826 0.58236,1.06766 0.67942,1.35884 0.87354,1.9412 0.19412,0.58236 0.19412,1.16472 -0.29118,1.9412 -0.4853,0.77648 -8.63834,8.05598 -8.63834,8.05598 l -9.80305,9.31777 -3.49417,2.32944 -8.34716,0.29118 6.21184,-8.54129 c 0,0 1.45591,-1.65002 1.94121,-2.32944 0.4853,-0.67942 0.29117,-0.77648 2.71768,-1.4559 2.42649,-0.67942 3.10591,-0.87354 3.49415,-1.4559 0.38824,-0.58236 0.77648,-3.68828 0.77648,-3.68828 l 6.3089,-2.13532 2.32944,-2.13532 4.17358,-6.21184"
           id="path851" />
        <path
           style="fill:#ffaaaa;stroke:#000000;stroke-width:0.264583px;stroke-linecap:butt;stroke-linejoin:miter;stroke-opacity:1"
           d="m 110.24253,124.08626 -1.5099,7.82403 c 0,0 -3.43159,5.76507 -3.43159,6.58865 0,0.82358 -2.33348,4.5297 -2.60801,5.07875 -0.27452,0.54906 -1.64716,3.0198 -1.92169,3.70612 -0.27452,0.68632 -1.509893,19.07963 -1.509893,19.07963 l 0.686316,14.82447 1.509897,8.09855 2.33348,13.1773 3.84338,13.31457 1.5099,4.80422 -1.09811,17.84427 -0.82358,2.60801 c 0.99664,0.37678 2.59807,-1.2624 3.93939,-2.03454 1.47085,-1.84644 3.6887,-4.06517 3.55202,-5.6643 l 1.88789,-4.01381 c 0,0 -0.92662,-6.09414 -0.87812,-6.57944 0.0485,-0.4853 0.0971,-3.15445 0.19411,-4.02799 0.0971,-0.87354 6.60009,-10.77366 6.60009,-10.77366 0,0 1.55295,-4.46476 1.55295,-4.95006 0,-0.4853 1.93653,-5.87209 1.93653,-5.87209 l 1.53337,-12.05974 -0.99487,-10.38543 -1.81987,-7.30376 -3.90667,-13.24869 c 0.0391,-2.32943 -1.05175,-4.85297 -1.9944,-7.1824 -0.14638,-1.1745 -1.63687,-1.99246 -2.81007,-2.71772 l -0.84926,-1.40737 -1.67897,-15.18985 0.38825,-4.17358 z"
           id="path853"
           sodipodi:nodetypes="ccssscccccccccccsccsccccccccccc" />
        <path
           style="fill:#f9f9f9;stroke:none;stroke-width:0.264583px;stroke-linecap:butt;stroke-linejoin:miter;stroke-opacity:1"
           d="m 109.14442,220.58255 1.98928,-0.83871 c 0,0 0.92207,0.24265 1.31031,0.0485 0.38824,-0.19412 1.26178,-0.43677 1.55296,-0.63089 0.29118,-0.19412 1.40737,-0.58236 1.40737,-0.58236 l 0.41372,-0.0912 -0.31142,5.43944 1.09539,5.39482 c -0.81058,1.39164 -1.63252,2.77696 -2.04231,4.39125 l -0.15661,0.70244 -0.76186,1.26907 -2.47913,3.31535 c -1.31313,0.73677 -2.62626,1.86922 -3.93939,2.03451 l 0.82358,-2.60801 z"
           id="path1089"
           sodipodi:nodetypes="ccssccccccccccc" />
        <path
           style="fill:none;stroke:#e95b61;stroke-width:0.665;stroke-linecap:butt;stroke-linejoin:miter;stroke-opacity:1;stroke-miterlimit:4;stroke-dasharray:none;filter:url(#filter897)"
           d="m 114.99598,146.1624 -2.13532,17.37374 -1.45589,18.82964 -2.23239,14.17076 0.9706,18.4414 0.77648,3.30004"
           id="path855" />
        <path
           style="fill:none;stroke:#c20000;stroke-width:0.264583px;stroke-linecap:butt;stroke-linejoin:miter;stroke-opacity:1;filter:url(#filter913)"
           d="m 109.07579,135.27325 -2.95117,22.99164 0.41179,13.79499 1.44127,8.23582 1.02948,12.21645"
           id="path857" />
        <path
           style="fill:none;stroke:#c20000;stroke-width:0.264583px;stroke-linecap:butt;stroke-linejoin:miter;stroke-opacity:1;filter:url(#filter909)"
           d="m 109.48758,142.13642 -0.0686,12.90278 0.2059,11.6674 0.89221,5.55918"
           id="path859" />
        <path
           style="fill:none;stroke:#c20000;stroke-width:0.264583px;stroke-linecap:butt;stroke-linejoin:miter;stroke-opacity:1;filter:url(#filter905)"
           d="m 110.10527,137.67536 c 0,0 1.09811,8.6476 1.09811,8.92213 0,0.27453 0.96084,7.75539 0.96084,7.75539"
           id="path861" />
        <path
           style="fill:none;stroke:#c20000;stroke-width:0.264583px;stroke-linecap:butt;stroke-linejoin:miter;stroke-opacity:1;filter:url(#filter901)"
           d="m 111.06611,134.17514 1.16674,10.22613 0.61769,4.11791"
           id="path863" />
        <path
           style="fill:none;stroke:#bb0000;stroke-width:0.264583px;stroke-linecap:butt;stroke-linejoin:miter;stroke-opacity:1;filter:url(#filter1021)"
           d="m 106.87957,140.76379 -2.47074,19.14827 0.20589,17.5011 0.89222,10.84382 2.53937,10.3634"
           id="path865" />
        <path
           style="fill:none;stroke:#c20000;stroke-width:0.264583px;stroke-linecap:butt;stroke-linejoin:miter;stroke-opacity:1;filter:url(#filter917)"
           d="m 104.68336,142.27369 -2.33348,24.43291 0.75495,9.47119 3.08842,24.70744 3.4316,8.99077"
           id="path867" />
        <path
           style="fill:none;stroke:#bb0000;stroke-width:0.264583px;stroke-linecap:butt;stroke-linejoin:miter;stroke-opacity:1;filter:url(#filter1025)"
           d="m 102.6244,146.66612 -1.85306,18.25606 0.61769,15.03036 4.80422,20.93269 1.64717,9.81435 2.30256,4.27836"
           id="path869" />
        <path
           style="fill:none;stroke:#cd0067;stroke-width:0.264583px;stroke-linecap:butt;stroke-linejoin:miter;stroke-opacity:1;filter:url(#filter1069)"
           d="m 116.07623,152.29393 -0.34316,18.80511 -1.37263,19.49142 -0.54906,10.5693 -0.96084,17.02068"
           id="path871" />
        <path
           style="fill:none;stroke:#cd0067;stroke-width:0.264583px;stroke-linecap:butt;stroke-linejoin:miter;stroke-opacity:1;filter:url(#filter1073)"
           d="m 118.1153,157.23542 -0.41179,17.02068 -0.61768,13.45183 -1.37264,23.33481 -1.78443,9.53981 -0.89221,7.5495"
           id="path873" />
        <path
           style="fill:none;stroke:#cd0067;stroke-width:0.264583px;stroke-linecap:butt;stroke-linejoin:miter;stroke-opacity:1;filter:url(#filter1065)"
           d="m 119.43919,158.40216 1.85306,19.76595 1.02948,13.65773 -1.02948,12.42235 -2.40211,8.51034"
           id="path875" />
        <path
           style="fill:none;stroke:#b10059;stroke-width:0.264583px;stroke-linecap:butt;stroke-linejoin:miter;stroke-opacity:1;filter:url(#filter1085)"
           d="m 118.75287,169.79503 0.41179,18.87374 0.2059,12.35372 -2.60801,11.80467 -1.71579,4.66696"
           id="path877" />
        <path
           style="fill:none;stroke:#cd0067;stroke-width:0.264583px;stroke-linecap:butt;stroke-linejoin:miter;stroke-opacity:1;filter:url(#filter1061)"
           d="m 122.45899,166.50071 1.37263,10.08887 c 0,0 0.48042,4.80423 0.54905,5.90233 0.0686,1.09811 0.0686,3.36296 0.0686,3.63749 0,0.27452 0.48042,6.45139 0.48042,6.45139 l -2.19621,10.70655 -2.19622,5.21602"
           id="path879" />
        <path
           style="fill:#ffffff;stroke:none;stroke-width:0.264583px;stroke-linecap:butt;stroke-linejoin:miter;stroke-opacity:1"
           d="m 110.41182,124.2368 -0.37611,1.86841 -1.04946,5.43536 -0.57376,1.1504 2.18763,-0.33457 2.64233,1.02947 0.71205,0.12869 -0.72921,-5.88518 0.45468,-3.94633 z"
           id="path1091"
           sodipodi:nodetypes="cccccccccc" />
        <path
           style="fill:none;stroke:#a3586b;stroke-width:0.165;stroke-linecap:butt;stroke-linejoin:miter;stroke-opacity:1;stroke-miterlimit:4;stroke-dasharray:none;filter:url(#filter1179)"
           d="m 110.7212,124.77063 -1.18899,5.72654 -0.65515,2.35371 -0.60663,0.58236"
           id="path1093" />
        <path
           style="fill:none;stroke:#a3586b;stroke-width:0.165;stroke-linecap:butt;stroke-linejoin:miter;stroke-opacity:1;stroke-miterlimit:4;stroke-dasharray:none;filter:url(#filter1187)"
           d="m 111.2065,124.91622 -1.16472,5.55669 -0.21839,0.63089"
           id="path1095" />
        <path
           style="fill:none;stroke:#a3586b;stroke-width:0.165;stroke-linecap:butt;stroke-linejoin:miter;stroke-opacity:1;stroke-miterlimit:4;stroke-dasharray:none;filter:url(#filter1183)"
           d="m 110.93958,129.84201 c -0.0243,0.33972 -0.82501,3.34858 -0.82501,3.34858"
           id="path1097" />
        <path
           style="fill:none;stroke:#a3586b;stroke-width:0.165;stroke-linecap:butt;stroke-linejoin:miter;stroke-opacity:1;stroke-miterlimit:4;stroke-dasharray:none;filter:url(#filter1191)"
           d="m 112.20136,125.13461 -0.72795,6.47875 -0.29118,1.55296"
           id="path1099" />
        <path
           style="fill:none;stroke:#a3586b;stroke-width:0.165;stroke-linecap:butt;stroke-linejoin:miter;stroke-opacity:1;stroke-miterlimit:4;stroke-dasharray:none;filter:url(#filter1195)"
           d="m 112.61386,126.78462 -0.46103,6.74568 v 0.92207"
           id="path1101" />
        <path
           style="fill:none;stroke:#a3586b;stroke-width:0.165;stroke-linecap:butt;stroke-linejoin:miter;stroke-opacity:1;stroke-miterlimit:4;stroke-dasharray:none;filter:url(#filter1199)"
           d="m 112.88078,130.52144 0.38824,4.24637"
           id="path1103" />
        <path
           style="fill:none;stroke:#b9686f;stroke-width:0.165;stroke-linecap:butt;stroke-linejoin:miter;stroke-opacity:1;filter:url(#filter1135);stroke-miterlimit:4;stroke-dasharray:none"
           d="m 110.26016,227.02334 0.24265,-5.14418 c 0,0 -0.38824,-1.50443 -0.63089,-2.47503 -0.24265,-0.9706 -1.26178,-5.14418 -1.26178,-5.14418"
           id="path1105" />
        <path
           style="fill:none;stroke:#b9686f;stroke-width:0.165;stroke-linecap:butt;stroke-linejoin:miter;stroke-opacity:1;filter:url(#filter1139);stroke-miterlimit:4;stroke-dasharray:none"
           d="m 111.32782,223.09241 c 0,-0.58236 0.0201,-1.88271 -0.19412,-3.34857 -0.21424,-1.46586 -0.38824,-2.66915 -0.38824,-2.66915 v -0.29118 l -0.38824,-0.77648"
           id="path1107" />
        <path
           style="fill:none;stroke:#b9686f;stroke-width:0.165;stroke-linecap:butt;stroke-linejoin:miter;stroke-opacity:1;filter:url(#filter1151);stroke-miterlimit:4;stroke-dasharray:none"
           d="m 113.99697,225.51891 c 0,0 1.40737,-6.93982 1.40737,-6.93982 l 1.35821,-5.75193"
           id="path1109" />
        <path
           style="fill:none;stroke:#b9686f;stroke-width:0.165;stroke-linecap:butt;stroke-linejoin:miter;stroke-opacity:1;filter:url(#filter1147);stroke-miterlimit:4;stroke-dasharray:none"
           d="m 112.39548,225.95568 c 0,-1.11619 1.53328,-5.37313 1.53328,-5.37313 l 0.55351,-4.42993"
           id="path1111" />
        <path
           style="fill:none;stroke:#b9686f;stroke-width:0.165;stroke-linecap:butt;stroke-linejoin:miter;stroke-opacity:1;filter:url(#filter1143);stroke-miterlimit:4;stroke-dasharray:none"
           d="m 112.39548,221.39386 0.45506,-3.21342 0.0788,-2.36753"
           id="path1113" />
      </g>
      <text
         xml:space="preserve"
         style="font-size:10.5833px;line-height:1.25;font-family:sans-serif;letter-spacing:0px;word-spacing:0px;stroke-width:0.264583"
         x="60.565445"
         y="166.16672"
         id="text1237"><tspan
           sodipodi:role="line"
           id="tspan1235"
           x="60.565445"
           y="166.16672"
           style="font-size:7.05556px;stroke-width:0.264583">skeletal</tspan><tspan
           sodipodi:role="line"
           x="60.565445"
           y="179.39584"
           style="font-size:7.05556px;stroke-width:0.264583"
           id="tspan1239">muscle</tspan></text>
      <path
         style="fill:none;stroke:#000000;stroke-width:0.565;stroke-linecap:butt;stroke-linejoin:miter;stroke-opacity:1;stroke-miterlimit:4;stroke-dasharray:none"
         d="m 91.236399,166.9432 11.113481,-0.2366"
         id="path1241" />
      <path
         style="fill:none;stroke:#000000;stroke-width:0.665;stroke-linecap:butt;stroke-linejoin:miter;stroke-opacity:1;stroke-miterlimit:4;stroke-dasharray:none"
         d="m 110.93958,129.84201 -66.291979,0.41251 -0.776481,102.30124 h 65.0302"
         id="path1243" />
      <path
         style="fill:none;stroke:#000000;stroke-width:0.665;stroke-linecap:butt;stroke-linejoin:miter;stroke-opacity:1;stroke-miterlimit:4;stroke-dasharray:none"
         d="m 35.135719,176.26096 9.317762,0.19412"
         id="path1245" />
      <text
         xml:space="preserve"
         style="font-size:7.05556px;line-height:1.25;font-family:sans-serif;letter-spacing:0px;word-spacing:0px;stroke-width:0.264583"
         x="6.4059606"
         y="178.20218"
         id="text1249"><tspan
           sodipodi:role="line"
           id="tspan1247"
           x="6.4059606"
           y="178.20218"
           style="font-size:7.05556px;stroke-width:0.264583">tendons</tspan></text>
      <text
         xml:space="preserve"
         style="font-size:10.5833px;line-height:1.25;font-family:sans-serif;letter-spacing:0px;word-spacing:0px;stroke-width:0.264583"
         x="141.90172"
         y="153.54892"
         id="text1253"><tspan
           sodipodi:role="line"
           id="tspan1251"
           x="141.90172"
           y="153.54892"
           style="font-size:7.05556px;stroke-width:0.264583">bone</tspan></text>
      <path
         style="fill:none;stroke:#000000;stroke-width:0.565;stroke-linecap:butt;stroke-linejoin:miter;stroke-opacity:1;stroke-miterlimit:4;stroke-dasharray:none"
         d="m 124.52798,152.57832 16.40314,-0.0971"
         id="path1255" />
    </g>
  </g>
</svg>
