<?xml version="1.0" encoding="UTF-8" standalone="no"?>
<svg
   xmlns:dc="http://purl.org/dc/elements/1.1/"
   xmlns:cc="http://creativecommons.org/ns#"
   xmlns:rdf="http://www.w3.org/1999/02/22-rdf-syntax-ns#"
   xmlns:svg="http://www.w3.org/2000/svg"
   xmlns="http://www.w3.org/2000/svg"
   width="210mm"
   height="297mm"
   viewBox="0 0 210 297"
   version="1.1"
   id="svg909">
  <defs
     id="defs903" />
  <metadata
     id="metadata906">
    <rdf:RDF>
      <cc:Work
         rdf:about="">
        <dc:format>image/svg+xml</dc:format>
        <dc:type
           rdf:resource="http://purl.org/dc/dcmitype/StillImage" />
        <dc:title></dc:title>
      </cc:Work>
    </rdf:RDF>
  </metadata>
  <g
     id="layer1">
    <g
       id="g1783">
      <path
         id="path847"
         style="fill:#ffe6d5;stroke:#000000;stroke-width:1.06048;stroke-linecap:butt;stroke-linejoin:miter;stroke-miterlimit:4;stroke-dasharray:none;stroke-opacity:1"
         d="m 7.6756827,159.38165 c -6.039106,11.94069 -5.194922,31.90261 11.5735033,22.20408 12.73765,-3.1521 25.861363,-0.50999 38.730607,0.25202 5.809529,2.57908 15.703536,0.83686 4.945797,-3.87765 C 52.296463,168.68872 43.723491,158.98678 29.010686,158.69361 17.025967,153.11706 9.3200367,138.85672 11.066936,125.20447 12.970329,112.81614 15.386103,99.245329 24.314959,90.157197 32.853333,78.373273 45.067097,70.198406 57.240398,62.965033 71.756927,55.175816 88.12771,48.932959 104.67614,51.761807 c 14.32143,2.536345 29.37562,4.525581 41.94048,12.657023 11.15892,4.848832 20.12052,13.120565 27.90004,22.574866 12.42935,13.710714 21.8093,31.550684 21.30303,50.814894 1.60824,20.11255 -11.07762,37.43997 -23.81801,51.20452 -9.82275,5.95035 -20.90872,10.46076 -32.1024,12.56326 -12.23304,-0.73668 -5.60881,3.60224 2.13791,2.40664 13.09283,-1.55368 24.68602,-8.78643 36.19106,-14.93974 9.47753,-8.02448 14.27583,-19.43707 17.68873,-31.31923 3.98183,-13.10753 5.53856,-27.20138 1.11195,-40.43598 C 194.28616,104.41483 185.78942,94.199359 177.70825,84.429551 168.73698,73.958039 157.88177,66.051865 145.99371,59.577584 135.78317,52.451695 123.17263,51.291263 111.37949,48.844985 97.836358,47.35568 84.517705,49.094489 71.48751,52.977804 59.272904,55.687641 49.263892,64.231092 38.533309,70.477294 28.971867,80.667048 17.747305,89.608176 12.263778,103.07659 4.2873777,119.74027 7.8621617,141.1193 7.6756827,159.38165 Z" />
      <path
         style="fill:#ff5555;stroke:#000000;stroke-width:1.06048;stroke-linecap:butt;stroke-linejoin:miter;stroke-miterlimit:4;stroke-dasharray:none;stroke-opacity:1"
         d="m 23.299701,167.5481 c 0,0 -0.965574,-2.36193 -1.172482,-2.93452 -0.206909,-0.57259 -0.758665,-1.93247 -1.65527,-3.00609 -0.896604,-1.0736 -3.379507,-1.71775 -3.379507,-1.71775 0,0 -1.44836,-0.64417 -2.138056,1.21674 -0.689695,1.86092 -0.413817,4.867 -0.275879,5.58274 0.13794,0.71574 2.069088,4.22283 2.482904,4.79543 0.413817,0.57257 2.138056,2.21877 2.413934,2.43349 0.275878,0.21472 1.931148,1.71777 2.551874,1.78934 0.620725,0.0716 2.689811,0.42943 3.172599,0.42943 0.482787,0 2.275995,0.0716 2.89672,-0.0716 0.620726,-0.14314 2.344965,-1.43146 2.344965,-1.93248 0,-0.50101 0.13794,-1.57462 -0.620726,-2.29035 -0.758665,-0.71574 -0.965573,-0.93046 -2.482903,-1.57462 -1.517331,-0.64416 -2.413935,-1.28832 -2.965691,-1.57462 -0.551757,-0.28626 -0.758664,-0.35784 -0.896604,-0.64413 -0.137939,-0.28629 -0.275878,-0.50101 -0.275878,-0.50101 z"
         id="path849" />
      <path
         style="fill:#ffccaa;stroke:#000000;stroke-width:1.06048;stroke-linecap:butt;stroke-linejoin:miter;stroke-miterlimit:4;stroke-dasharray:none;stroke-opacity:1"
         d="m 107.6631,201.53935 -5.02319,-5.11162 -8.534552,-6.07322 c 0,0 -4.876878,-2.63171 -5.120721,-2.68232 -0.243842,-0.0505 -3.462586,-1.61953 -3.462586,-1.61953 l -12.094676,-4.80795 -6.681331,-2.58112 -3.608891,-2.37868 -6.14487,-4.45368 -2.926132,-3.28966 -5.413342,-6.0226 -5.169497,-2.47989 c 0,0 -3.218745,-0.35427 -3.413815,-0.35427 -0.195077,0 -6.973946,-1.26525 -6.973946,-1.26525 0,0 -6.63256,-3.74515 -7.022714,-3.9476 -0.390148,-0.20243 -5.071955,-3.23903 -5.071955,-3.23903 0,0 -3.267512,-5.5165 -3.413822,-5.76956 -0.146302,-0.25304 -3.218738,-6.27565 -3.218738,-6.27565 l -0.829069,-3.94758 0.243844,-8.65433 0.341381,-10.17263 1.072914,-4.30186 2.633513,-9.31225 2.584752,-4.251261 6.925172,-10.122011 6.096102,-6.123819 11.411909,-9.464092 6.583791,-3.795755 10.046382,-6.731143 8.680855,-4.504299 5.852258,-2.024402 13.557741,-2.834165 c 0,0 7.071481,-0.60732 7.461621,-0.60732 0.39015,0 8.241932,0.404877 8.241932,0.404877 0,0 6.33995,0.809764 6.68133,0.809764 0.34139,0 6.09611,1.821967 6.09611,1.821967 l 4.38919,0.961588 14.43557,3.745145 6.53502,3.390877 7.26655,3.846369 5.26704,3.593314 11.31437,10.172624 5.46211,6.427488 c 0,0 9.02224,10.830563 9.16854,11.032993 0.14632,0.20245 5.41335,8.755551 5.41335,8.755551 l 4.82811,12.39947 1.07292,6.42749 0.53646,10.93177 -0.0976,5.36467 -1.90198,8.09762 -2.92613,7.38907 -4.29165,7.08543 c 0,0 -4.58429,3.13782 -4.77936,3.18843 -0.19508,0.0505 -5.26704,2.02441 -5.55965,2.17623 -0.29261,0.15182 -2.09705,2.07501 -2.48721,3.0366 -0.39015,0.96159 -0.73152,3.59332 -0.73152,3.59332 l -1.21923,6.17443 c 0,0 -1.80444,3.79576 -1.95076,4.15004 -0.1463,0.35426 -1.85321,2.27744 -1.85321,2.27744 l -6.14486,4.04881 -8.04687,3.34027 -9.21731,1.31586 -7.75425,0.65793 -2.63351,1.41708 -1.31676,1.16403 c 0,0 -0.63399,0.60732 -0.73153,0.20244 -0.0975,-0.40488 -0.0975,-0.80976 -0.0975,-1.01219 0,-0.20245 0.0975,-1.06282 0.48767,-1.31587 0.39016,-0.25305 2.48722,-1.21464 2.48722,-1.21464 0,0 8.7784,-1.01221 8.7784,-1.01221 l 12.48481,-1.92319 10.82668,-6.5793 3.6089,-8.09761 2.14583,-9.21104 c 0,0 2.04828,-2.58112 2.34091,-2.73295 0.2926,-0.15183 3.60888,-1.72073 3.60888,-1.72073 l 2.92614,-0.55672 4.97442,-4.40308 3.07244,-5.97199 1.80444,-2.83416 0.97538,-6.9842 1.60937,-7.0348 c 0,0 -0.19508,-8.047 -0.19508,-8.65432 0,-0.60732 -0.29261,-4.60552 -0.29261,-4.60552 l -2.38966,-10.88118 -2.63353,-5.061 -5.90103,-10.729341 -5.3158,-6.174431 -8.38825,-9.514697 -6.68132,-5.870777 -8.09563,-7.338461 -9.16854,-4.656126 -8.43701,-4.706741 -17.70308,-4.504298 -11.50943,-1.771352 -10.485312,-0.657929 -2.194599,0.202442 -18.385847,3.036601 -13.265117,7.136021 -12.338514,7.389084 c 0,0 -11.265605,8.097611 -11.509451,8.401262 -0.243837,0.30366 -3.999039,3.694545 -3.999039,3.694545 l -8.924699,10.577497 -2.926132,5.769561 -4.63304,10.62812 -1.658139,8.09761 0.146309,13.96839 3.901505,13.5635 4.535504,5.11162 4.437962,2.53051 4.486729,2.27745 7.022715,1.72075 4.29166,0.65792 7.022707,3.89699 3.462589,3.79576 7.900551,7.13601 5.120727,3.08722 3.950272,1.87257 17.995706,7.23724 6.193641,3.18845 5.169502,3.5427 2.43843,2.12563 4.04782,4.45368 z"
         id="path931" />
    </g>
  </g>
</svg>
