<?xml version="1.0" encoding="UTF-8" standalone="no"?>
<svg
   xmlns:dc="http://purl.org/dc/elements/1.1/"
   xmlns:cc="http://creativecommons.org/ns#"
   xmlns:rdf="http://www.w3.org/1999/02/22-rdf-syntax-ns#"
   xmlns:svg="http://www.w3.org/2000/svg"
   xmlns="http://www.w3.org/2000/svg"
   xmlns:sodipodi="http://sodipodi.sourceforge.net/DTD/sodipodi-0.dtd"
   xmlns:inkscape="http://www.inkscape.org/namespaces/inkscape"
   width="210mm"
   height="297mm"
   viewBox="0 0 210 297"
   version="1.1"
   id="svg8"
   inkscape:version="1.0.2 (e86c870879, 2021-01-15, custom)"
   sodipodi:docname="xylemphloemlongitudnal.svg">
  <defs
     id="defs2" />
  <sodipodi:namedview
     id="base"
     pagecolor="#ffffff"
     bordercolor="#666666"
     borderopacity="1.0"
     inkscape:pageopacity="0.0"
     inkscape:pageshadow="2"
     inkscape:zoom="1.0722411"
     inkscape:cx="566.2645"
     inkscape:cy="1036.559"
     inkscape:document-units="mm"
     inkscape:current-layer="layer1"
     inkscape:document-rotation="0"
     showgrid="false"
     inkscape:window-width="1920"
     inkscape:window-height="1017"
     inkscape:window-x="-8"
     inkscape:window-y="-8"
     inkscape:window-maximized="1" />
  <metadata
     id="metadata5">
    <rdf:RDF>
      <cc:Work
         rdf:about="">
        <dc:format>image/svg+xml</dc:format>
        <dc:type
           rdf:resource="http://purl.org/dc/dcmitype/StillImage" />
        <dc:title />
      </cc:Work>
    </rdf:RDF>
  </metadata>
  <g
     inkscape:label="Layer 1"
     inkscape:groupmode="layer"
     id="layer1">
    <g
       id="g914">
      <g
         id="g1093"
         transform="matrix(1.6608231,0,0,1.8943644,-88.437946,-112.63261)">
        <path
           style="fill:#c8ab37;stroke:#000000;stroke-width:0.665;stroke-linecap:butt;stroke-linejoin:miter;stroke-miterlimit:4;stroke-dasharray:none;stroke-opacity:1"
           d="m 64.829018,98.070427 c 0,0 0.496138,90.793693 0.496138,91.620593 0,0.8269 2.78983,-1.44287 2.78983,-1.44287 l 4.677655,-0.23389 c 0,0 1.87107,-0.23388 2.57271,-0.23388 0.70165,0 1.4033,0.35083 3.50825,0.35083 2.10494,0 7.36731,0.46776 7.36731,0.46776 l 4.20989,0.70165 2.10494,0.93553 0.11694,-91.565129 -1.75412,0.350824 c 0,0 -5.14542,1.520245 -5.84707,1.637185 -0.70165,0.11694 -1.63718,0.11694 -3.50824,0.11694 -1.87106,0 -7.13343,0 -7.95202,-0.23388 -0.81859,-0.23389 -6.314834,-0.935537 -6.314834,-0.935537 z"
           id="path847" />
        <path
           style="fill:#80ffe6;stroke:#000000;stroke-width:0.665;stroke-linecap:butt;stroke-linejoin:miter;stroke-miterlimit:4;stroke-dasharray:none;stroke-opacity:1"
           d="m 71.330871,100.07432 0.0585,21.57569 c 0,0 0.17542,1.22788 0.4093,1.52024 0.23388,0.29235 0.81859,0.76011 0.81859,0.76011 l 1.75412,0.46777 1.16942,0.0585 -0.29236,2.74813 c 0,0 -1.63718,0.64317 -1.988,0.87705 -0.35083,0.23389 -1.46177,0.8186 -1.52024,1.05248 -0.0585,0.23388 0.17541,0.17541 -0.23388,1.40329 -0.4093,1.22789 0.29235,23.09594 0.17541,23.32982 -0.11694,0.23388 -0.35083,7.71813 -0.35083,7.71813 l 1.11095,1.8126 1.46177,0.46776 1.05247,0.17541 0.40929,0.76012 v 1.34483 c 0,0 -2.68965,0.40929 -2.92353,0.93553 -0.23388,0.52624 -1.16942,1.988 -1.16942,1.988 l 0.11694,0.93554 0.0585,18.00897 3.976,-0.17541 2.63119,0.17541 8.1859,0.58471 0.0585,-20.34781 c 0,0 -0.58471,-0.81858 -0.93554,-1.22788 -0.35082,-0.4093 0.17542,-0.4093 -0.93552,-0.76012 -1.11095,-0.35082 -1.69566,-0.17541 -1.75413,-0.52624 -0.0585,-0.35082 0.0585,-1.81259 0.0585,-1.81259 0,0 1.75413,-0.29235 2.04648,-0.5847 0.29235,-0.29236 1.28635,-1.34483 1.34482,-1.57872 0.0585,-0.23388 0.64318,-1.63717 0.64318,-1.63717 l -0.0585,-30.63866 -1.28636,-1.87106 -1.5787,-0.64318 -0.99401,-0.11694 0.23389,-2.33883 c 0,0 1.75412,-0.64318 2.04647,-0.87706 0.29235,-0.23388 1.05248,-0.994 1.16942,-1.46177 0.11694,-0.46776 0.46776,-1.11094 0.46776,-1.69565 0,-0.5847 -0.17541,-20.05545 -0.17541,-20.05545 l -2.51424,0.4093 -5.84707,-0.11694 -4.50225,-0.29236 z"
           id="path849" />
        <path
           style="fill:#55ddff;stroke:#000000;stroke-width:0.565;stroke-linecap:butt;stroke-linejoin:miter;stroke-miterlimit:4;stroke-dasharray:none;stroke-opacity:1"
           d="m 143.83691,98.675197 -0.0827,28.528073 0.90959,0.99228 -0.99228,0.99228 0.33076,26.54351 0.90959,1.24035 -1.07497,0.66152 0.33076,27.03966 0.41345,0.90959 -0.74421,0.66152 v 5.78831 l 1.65381,-0.8269 c 0,0 -0.49615,-0.33077 1.32304,-0.41346 1.81918,-0.0827 2.64608,-0.33076 2.64608,-0.33076 l 3.14222,-0.24807 c 0,0 1.32304,0.16538 2.06725,0.33076 0.74421,0.16538 1.90188,-0.0827 2.39801,0.33076 0.49615,0.41346 1.48843,0.99228 1.48843,0.99228 l 0.57883,0.16539 c 0,0 0.57883,-6.11907 0.24807,-6.20176 -0.33076,-0.0827 -0.8269,-0.90959 -0.8269,-0.90959 l 0.57883,-0.74421 0.16538,-27.20504 -0.57883,-0.41345 0.33076,-1.15766 0.33076,-26.70889 -1.07497,-0.99228 0.74421,-0.74421 0.24807,-28.445383 -1.6538,1.240351 -1.32305,0.496142 c 0,0 -0.49614,0.0827 -1.32304,0.16538 -0.8269,0.0827 -2.14994,0.16538 -2.89415,0.0827 -0.74421,-0.0827 -1.73649,-0.0827 -2.97684,-0.16538 -1.24035,-0.0827 -2.56339,-0.330762 -2.89415,-0.413452 -0.33077,-0.08269 -2.39802,-1.240351 -2.39802,-1.240351 z"
           id="path851" />
        <path
           style="fill:#afe9dd;stroke:#000000;stroke-width:0.565;stroke-linecap:butt;stroke-linejoin:miter;stroke-miterlimit:4;stroke-dasharray:none;stroke-opacity:1"
           d="m 145.41327,100.36667 0.17541,26.37029 0.87706,-1.52024 1.57871,-0.994 c 0,0 0.23388,-0.17542 1.34483,-0.46777 1.11094,-0.29235 2.3973,-0.35082 2.3973,-0.35082 0,0 1.34482,0.35082 1.63718,0.40929 0.29235,0.0585 1.69565,0.52624 1.69565,0.52624 l 0.994,1.16941 1.69565,0.87706 -0.16291,-26.635962"
           id="path855" />
        <path
           style="fill:#afe9dd;stroke:#000000;stroke-width:0.565;stroke-linecap:butt;stroke-linejoin:miter;stroke-miterlimit:4;stroke-dasharray:none;stroke-opacity:1"
           d="m 145.64715,129.60202 1.81259,2.16342 1.46177,0.35082 c 0,0 1.63718,0.23389 1.87106,0.23389 0.23389,0 1.34483,-0.0585 1.69566,-0.0585 0.35082,0 1.22788,-0.0585 1.87106,-0.29236 0.64318,-0.23388 2.22188,-1.05247 2.22188,-1.05247 l 0.93554,-1.46177 0.23388,25.08394 c 0,0 -2.51424,-2.28036 -3.04048,-2.3973 -0.52623,-0.11694 -0.93553,-0.11694 -1.92953,-0.23388 -0.994,-0.11695 -1.28636,0.0585 -2.22189,0.0585 -0.93553,0 -1.87106,0.23388 -2.63118,0.5847 -0.76012,0.35083 -2.33883,1.57871 -2.33883,1.57871 l -0.17541,0.58471 z"
           id="path857" />
        <path
           style="fill:#afe9dd;stroke:#000000;stroke-width:0.565;stroke-linecap:butt;stroke-linejoin:miter;stroke-miterlimit:4;stroke-dasharray:none;stroke-opacity:1"
           d="m 145.64715,157.90185 1.92954,1.69565 c 0,0 0.5847,0.87706 0.81858,0.93553 0.23389,0.0585 0.81859,0.23388 1.52024,0.23388 0.70165,0 0.99401,0.11694 1.8126,0 0.81859,-0.11694 3.15742,-0.76012 3.15742,-0.76012 l 1.988,-1.22788 0.81859,-1.05248 0.11694,25.37629 c 0,0 -1.81259,-1.40329 -2.16342,-1.63718 -0.35082,-0.23388 -0.29235,-0.29235 -1.22788,-0.46776 -0.93553,-0.17541 -1.87106,-0.35082 -2.8066,-0.29235 -0.93553,0.0585 -1.11094,0 -2.22188,0.29235 -1.11095,0.29235 -1.75412,0.70165 -1.75412,0.70165 l -2.10495,1.92953 z"
           id="path859" />
        <path
           style="fill:#afe9dd;stroke:#000000;stroke-width:0.565;stroke-linecap:butt;stroke-linejoin:miter;stroke-miterlimit:4;stroke-dasharray:none;stroke-opacity:1"
           d="m 145.51559,190.74777 0.0292,-4.09295 2.1488,1.988 2.19265,0.70165 0.84782,0.0439 c 0,0 2.32422,0.11694 2.45577,0.0731 0.13156,-0.0439 1.02324,-0.23388 1.57871,-0.61394 0.55547,-0.38006 0.89168,-0.76012 1.16942,-0.89168 0.27773,-0.13156 1.22788,-1.12556 1.22788,-1.12556 l 0.57009,-0.54085 v 4.92616"
           id="path861" />
        <path
           style="fill:#d5fff6;stroke:#000000;stroke-width:0.565;stroke-linecap:butt;stroke-linejoin:miter;stroke-miterlimit:4;stroke-dasharray:none;stroke-opacity:1"
           d="m 148.40989,183.64358 c 0,0 -0.62856,-0.19003 -0.67241,-0.13156 -0.0438,0.0585 -0.33621,0.23388 -0.39468,0.33621 -0.0585,0.10232 -0.11694,0.45314 -0.0877,0.52623 0.0292,0.0731 0.59932,0.62856 0.59932,0.62856 l 0.77474,0.27774 c 0,0 0.20465,0.13156 0.45315,-0.0731 0.2485,-0.20465 0.0438,-0.62856 0.0438,-0.78935 0,-0.1608 -0.32159,-0.61395 -0.43853,-0.71627 -0.11694,-0.10232 -0.27774,-0.0585 -0.27774,-0.0585 z"
           id="path863" />
        <path
           id="path863-1"
           style="fill:#d5fff6;stroke:#000000;stroke-width:0.565;stroke-linecap:butt;stroke-linejoin:miter;stroke-miterlimit:4;stroke-dasharray:none;stroke-opacity:1"
           d="m 150.80202,186.26695 c -0.22563,-0.0381 -0.47747,-0.1958 -0.69758,-0.10462 -0.12917,0.11152 -0.30192,0.18791 -0.38363,0.34332 -0.0444,0.16754 -0.13647,0.36575 -0.0416,0.53084 0.16434,0.20692 0.36302,0.38696 0.55386,0.56974 0.16155,0.0908 0.35254,0.1322 0.52531,0.20465 0.19446,0.0525 0.39665,0.19824 0.59952,0.0967 0.26878,-0.10696 0.27152,-0.42806 0.19883,-0.66299 -0.0339,-0.25949 -0.13149,-0.50353 -0.29934,-0.70695 -0.10821,-0.15 -0.24185,-0.33404 -0.45537,-0.2707 z" />
        <path
           id="path863-1-9"
           style="fill:#d5fff6;stroke:#000000;stroke-width:0.565;stroke-linecap:butt;stroke-linejoin:miter;stroke-miterlimit:4;stroke-dasharray:none;stroke-opacity:1"
           d="m 151.13237,183.52972 c -0.22563,-0.0381 -0.47747,-0.1958 -0.69758,-0.10462 -0.12917,0.11152 -0.30192,0.18791 -0.38363,0.34332 -0.0444,0.16754 -0.13647,0.36575 -0.0416,0.53084 0.16434,0.20692 0.36302,0.38696 0.55386,0.56974 0.16155,0.0908 0.35254,0.1322 0.52531,0.20465 0.19446,0.0525 0.39665,0.19824 0.59952,0.0967 0.26878,-0.10696 0.27152,-0.42806 0.19883,-0.66299 -0.0339,-0.25949 -0.13149,-0.50353 -0.29934,-0.70695 -0.10821,-0.15 -0.24185,-0.33404 -0.45537,-0.2707 z" />
        <path
           id="path863-1-6"
           style="fill:#d5fff6;stroke:#000000;stroke-width:0.565;stroke-linecap:butt;stroke-linejoin:miter;stroke-miterlimit:4;stroke-dasharray:none;stroke-opacity:1"
           d="m 153.61307,185.30756 c -0.22563,-0.0381 -0.47747,-0.1958 -0.69758,-0.10462 -0.12917,0.11152 -0.30192,0.18791 -0.38363,0.34332 -0.0444,0.16754 -0.13647,0.36575 -0.0416,0.53084 0.16434,0.20692 0.36302,0.38696 0.55386,0.56974 0.16155,0.0908 0.35254,0.1322 0.52531,0.20465 0.19446,0.0525 0.39665,0.19824 0.59952,0.0967 0.26878,-0.10696 0.27152,-0.42806 0.19883,-0.66299 -0.0339,-0.25949 -0.13149,-0.50353 -0.29934,-0.70695 -0.10821,-0.15 -0.24185,-0.33404 -0.45537,-0.2707 z" />
        <path
           id="path863-1-3"
           style="fill:#d5fff6;stroke:#000000;stroke-width:0.565;stroke-linecap:butt;stroke-linejoin:miter;stroke-miterlimit:4;stroke-dasharray:none;stroke-opacity:1"
           d="m 153.69575,181.91726 c -0.22563,-0.0381 -0.47747,-0.1958 -0.69758,-0.10462 -0.12917,0.11152 -0.30192,0.18791 -0.38363,0.34332 -0.0444,0.16754 -0.13647,0.36575 -0.0416,0.53084 0.16434,0.20692 0.36302,0.38696 0.55386,0.56974 0.16155,0.0908 0.35254,0.1322 0.52531,0.20465 0.19446,0.0525 0.39665,0.19824 0.59952,0.0967 0.26878,-0.10696 0.27152,-0.42806 0.19883,-0.66299 -0.0339,-0.25949 -0.13149,-0.50353 -0.29934,-0.70695 -0.10821,-0.15 -0.24185,-0.33404 -0.45537,-0.2707 z" />
        <path
           id="path863-1-4"
           style="fill:#d5fff6;stroke:#000000;stroke-width:0.565;stroke-linecap:butt;stroke-linejoin:miter;stroke-miterlimit:4;stroke-dasharray:none;stroke-opacity:1"
           d="m 156.17646,184.27393 c -0.22563,-0.0381 -0.47747,-0.1958 -0.69758,-0.10462 -0.12917,0.11152 -0.30192,0.18791 -0.38363,0.34332 -0.0444,0.16754 -0.13647,0.36575 -0.0416,0.53084 0.16434,0.20692 0.36302,0.38696 0.55386,0.56974 0.16155,0.0908 0.35254,0.1322 0.52531,0.20465 0.19446,0.0525 0.39665,0.19824 0.59952,0.0967 0.26878,-0.10696 0.27152,-0.42806 0.19883,-0.66299 -0.0339,-0.25949 -0.13149,-0.50353 -0.29934,-0.70695 -0.10821,-0.15 -0.24185,-0.33404 -0.45537,-0.2707 z" />
        <path
           id="path863-1-2"
           style="fill:#d5fff6;stroke:#000000;stroke-width:0.565;stroke-linecap:butt;stroke-linejoin:miter;stroke-miterlimit:4;stroke-dasharray:none;stroke-opacity:1"
           d="m 148.89973,154.75357 c -0.22563,-0.0381 -0.47747,-0.1958 -0.69758,-0.10462 -0.12917,0.11152 -0.30192,0.18791 -0.38363,0.34332 -0.0444,0.16754 -0.13647,0.36575 -0.0416,0.53084 0.16434,0.20692 0.36302,0.38696 0.55386,0.56974 0.16155,0.0908 0.35254,0.1322 0.52531,0.20465 0.19446,0.0525 0.39665,0.19824 0.59952,0.0967 0.26878,-0.10696 0.27152,-0.42806 0.19883,-0.66299 -0.0339,-0.25949 -0.13149,-0.50353 -0.29934,-0.70695 -0.10821,-0.15 -0.24185,-0.33404 -0.45537,-0.2707 z" />
        <path
           id="path863-1-66"
           style="fill:#d5fff6;stroke:#000000;stroke-width:0.565;stroke-linecap:butt;stroke-linejoin:miter;stroke-miterlimit:4;stroke-dasharray:none;stroke-opacity:1"
           d="m 152.20733,154.42281 c -0.22563,-0.0381 -0.47747,-0.1958 -0.69758,-0.10462 -0.12917,0.11152 -0.30192,0.18791 -0.38363,0.34332 -0.0444,0.16754 -0.13647,0.36575 -0.0416,0.53084 0.16434,0.20692 0.36302,0.38696 0.55386,0.56974 0.16155,0.0908 0.35254,0.1322 0.52531,0.20465 0.19446,0.0525 0.39665,0.19824 0.59952,0.0967 0.26878,-0.10696 0.27152,-0.42806 0.19883,-0.66299 -0.0339,-0.25949 -0.13149,-0.50353 -0.29934,-0.70695 -0.10821,-0.15 -0.24185,-0.33404 -0.45537,-0.2707 z" />
        <path
           id="path863-1-1"
           style="fill:#d5fff6;stroke:#000000;stroke-width:0.565;stroke-linecap:butt;stroke-linejoin:miter;stroke-miterlimit:4;stroke-dasharray:none;stroke-opacity:1"
           d="m 154.77073,153.18246 c -0.22563,-0.0381 -0.47747,-0.1958 -0.69758,-0.10462 -0.12917,0.11152 -0.30192,0.18791 -0.38363,0.34332 -0.0444,0.16754 -0.13647,0.36575 -0.0416,0.53084 0.16434,0.20692 0.36302,0.38696 0.55386,0.56974 0.16155,0.0908 0.35254,0.1322 0.52531,0.20465 0.19446,0.0525 0.39665,0.19824 0.59952,0.0967 0.26878,-0.10696 0.27152,-0.42806 0.19883,-0.66299 -0.0339,-0.25949 -0.13149,-0.50353 -0.29934,-0.70695 -0.10821,-0.15 -0.24185,-0.33404 -0.45537,-0.2707 z" />
        <path
           id="path863-1-5"
           style="fill:#d5fff6;stroke:#000000;stroke-width:0.565;stroke-linecap:butt;stroke-linejoin:miter;stroke-miterlimit:4;stroke-dasharray:none;stroke-opacity:1"
           d="m 154.64669,156.57276 c -0.22563,-0.0381 -0.47747,-0.1958 -0.69758,-0.10462 -0.12917,0.11152 -0.30192,0.18791 -0.38363,0.34332 -0.0444,0.16754 -0.13647,0.36575 -0.0416,0.53084 0.16434,0.20692 0.36302,0.38696 0.55386,0.56974 0.16155,0.0908 0.35254,0.1322 0.52531,0.20465 0.19446,0.0525 0.39665,0.19824 0.59952,0.0967 0.26878,-0.10696 0.27152,-0.42806 0.19883,-0.66299 -0.0339,-0.25949 -0.13149,-0.50353 -0.29934,-0.70695 -0.10821,-0.15 -0.24185,-0.33404 -0.45537,-0.2707 z" />
        <path
           id="path863-1-0"
           style="fill:#d5fff6;stroke:#000000;stroke-width:0.565;stroke-linecap:butt;stroke-linejoin:miter;stroke-miterlimit:4;stroke-dasharray:none;stroke-opacity:1"
           d="m 151.2564,156.40738 c -0.22563,-0.0381 -0.47747,-0.1958 -0.69758,-0.10462 -0.12917,0.11152 -0.30192,0.18791 -0.38363,0.34332 -0.0444,0.16754 -0.13647,0.36575 -0.0416,0.53084 0.16434,0.20692 0.36302,0.38696 0.55386,0.56974 0.16155,0.0908 0.35254,0.1322 0.52531,0.20465 0.19446,0.0525 0.39665,0.19824 0.59952,0.0967 0.26878,-0.10696 0.27152,-0.42806 0.19883,-0.66299 -0.0339,-0.25949 -0.13149,-0.50353 -0.29934,-0.70695 -0.10821,-0.15 -0.24185,-0.33404 -0.45537,-0.2707 z" />
        <path
           id="path863-1-8"
           style="fill:#d7f4ee;stroke:#000000;stroke-width:0.565;stroke-linecap:butt;stroke-linejoin:miter;stroke-miterlimit:4;stroke-dasharray:none;stroke-opacity:1"
           d="m 147.53534,126.26684 c -0.22563,-0.0381 -0.47747,-0.1958 -0.69758,-0.10462 -0.12917,0.11152 -0.30192,0.18791 -0.38363,0.34332 -0.0444,0.16754 -0.13647,0.36575 -0.0416,0.53084 0.16434,0.20692 0.36302,0.38696 0.55386,0.56974 0.16155,0.0908 0.35254,0.1322 0.52531,0.20465 0.19446,0.0525 0.39665,0.19824 0.59952,0.0967 0.26878,-0.10696 0.27152,-0.42806 0.19883,-0.66299 -0.0339,-0.25949 -0.13149,-0.50353 -0.29934,-0.70695 -0.10821,-0.15 -0.24185,-0.33404 -0.45537,-0.2707 z" />
        <path
           id="path863-1-7"
           style="fill:#d7f4ee;stroke:#000000;stroke-width:0.565;stroke-linecap:butt;stroke-linejoin:miter;stroke-miterlimit:4;stroke-dasharray:none;stroke-opacity:1"
           d="m 151.09102,125.64667 c -0.22563,-0.0381 -0.47747,-0.1958 -0.69758,-0.10462 -0.12917,0.11152 -0.30192,0.18791 -0.38363,0.34332 -0.0444,0.16754 -0.13647,0.36575 -0.0416,0.53084 0.16434,0.20692 0.36302,0.38696 0.55386,0.56974 0.16155,0.0908 0.35254,0.1322 0.52531,0.20465 0.19446,0.0525 0.39665,0.19824 0.59952,0.0967 0.26878,-0.10696 0.27152,-0.42806 0.19883,-0.66299 -0.0339,-0.25949 -0.13149,-0.50353 -0.29934,-0.70695 -0.10821,-0.15 -0.24185,-0.33404 -0.45537,-0.2707 z" />
        <path
           id="path863-1-72"
           style="fill:#d7f4ee;stroke:#000000;stroke-width:0.565;stroke-linecap:butt;stroke-linejoin:miter;stroke-miterlimit:4;stroke-dasharray:none;stroke-opacity:1"
           d="m 154.93611,127.21778 c -0.22563,-0.0381 -0.47747,-0.1958 -0.69758,-0.10462 -0.12917,0.11152 -0.30192,0.18791 -0.38363,0.34332 -0.0444,0.16754 -0.13647,0.36575 -0.0416,0.53084 0.16434,0.20692 0.36302,0.38696 0.55386,0.56974 0.16155,0.0908 0.35254,0.1322 0.52531,0.20465 0.19446,0.0525 0.39665,0.19824 0.59952,0.0967 0.26878,-0.10696 0.27152,-0.42806 0.19883,-0.66299 -0.0339,-0.25949 -0.13149,-0.50353 -0.29934,-0.70695 -0.10821,-0.15 -0.24185,-0.33404 -0.45537,-0.2707 z" />
        <path
           id="path863-1-99"
           style="fill:#d7f4ee;stroke:#000000;stroke-width:0.565;stroke-linecap:butt;stroke-linejoin:miter;stroke-miterlimit:4;stroke-dasharray:none;stroke-opacity:1"
           d="m 152.24868,129.28503 c -0.22563,-0.0381 -0.47747,-0.1958 -0.69758,-0.10462 -0.12917,0.11152 -0.30192,0.18791 -0.38363,0.34332 -0.0444,0.16754 -0.13647,0.36575 -0.0416,0.53084 0.16434,0.20692 0.36302,0.38696 0.55386,0.56974 0.16155,0.0908 0.35254,0.1322 0.52531,0.20465 0.19446,0.0525 0.39665,0.19824 0.59952,0.0967 0.26878,-0.10696 0.27152,-0.42806 0.19883,-0.66299 -0.0339,-0.25949 -0.13149,-0.50353 -0.29934,-0.70695 -0.10821,-0.15 -0.24185,-0.33404 -0.45537,-0.2707 z" />
        <path
           id="path863-1-18"
           style="fill:#d7f4ee;stroke:#000000;stroke-width:0.565;stroke-linecap:butt;stroke-linejoin:miter;stroke-miterlimit:4;stroke-dasharray:none;stroke-opacity:1"
           d="m 149.18915,129.32638 c -0.22563,-0.0381 -0.47747,-0.1958 -0.69758,-0.10462 -0.12917,0.11152 -0.30192,0.18791 -0.38363,0.34332 -0.0444,0.16754 -0.13647,0.36575 -0.0416,0.53084 0.16434,0.20692 0.36302,0.38696 0.55386,0.56974 0.16155,0.0908 0.35254,0.1322 0.52531,0.20465 0.19446,0.0525 0.39665,0.19824 0.59952,0.0967 0.26878,-0.10696 0.27152,-0.42806 0.19883,-0.66299 -0.0339,-0.25949 -0.13149,-0.50353 -0.29934,-0.70695 -0.10821,-0.15 -0.24185,-0.33404 -0.45537,-0.2707 z" />
        <path
           style="fill:none;stroke:#000000;stroke-width:0.665;stroke-linecap:butt;stroke-linejoin:miter;stroke-miterlimit:4;stroke-dasharray:none;stroke-opacity:1"
           d="m 77.704181,182.7519 c 0.0585,-0.81859 -0.17541,-13.38979 -0.17541,-13.38979 l -1.59861,2.28181 3.12155,-0.12404 -1.52294,-2.15777"
           id="path1025" />
        <path
           style="fill:none;stroke:#000000;stroke-width:0.665;stroke-linecap:butt;stroke-linejoin:miter;stroke-miterlimit:4;stroke-dasharray:none;stroke-opacity:1"
           d="m 80.064661,153.92757 0.0827,-7.27673 -0.99229,1.71582 1.98456,-0.0413 -0.99227,-1.67448"
           id="path1027" />
        <path
           style="fill:none;stroke:#000000;stroke-width:0.665;stroke-linecap:butt;stroke-linejoin:miter;stroke-miterlimit:4;stroke-dasharray:none;stroke-opacity:1"
           d="m 79.651211,122.65005 0.16538,-7.85556 -1.13699,1.96389 2.17062,0.0207 -1.09565,-1.92254"
           id="path1029" />
        <path
           style="fill:none;stroke:#000000;stroke-width:0.565;stroke-linecap:butt;stroke-linejoin:miter;stroke-miterlimit:4;stroke-dasharray:none;stroke-opacity:1"
           d="m 154.33855,176.9 0.16538,-6.86327 v -0.16538 l -1.11631,1.81918 2.1086,-0.16538 -0.99229,-1.6538"
           id="path1031" />
        <path
           style="fill:none;stroke:#000000;stroke-width:0.565;stroke-linecap:butt;stroke-linejoin:miter;stroke-miterlimit:4;stroke-dasharray:none;stroke-opacity:1"
           d="m 148.88101,169.16848 0.0413,5.74696"
           id="path1033" />
        <path
           style="fill:none;stroke:#000000;stroke-width:0.565;stroke-linecap:butt;stroke-linejoin:miter;stroke-miterlimit:4;stroke-dasharray:none;stroke-opacity:1"
           d="m 147.80604,173.42702 2.27397,-0.0724 -1.1577,1.56077 z"
           id="path1035" />
        <path
           style="fill:none;stroke:#000000;stroke-width:0.565;stroke-linecap:butt;stroke-linejoin:miter;stroke-miterlimit:4;stroke-dasharray:none;stroke-opacity:1"
           d="m 154.93806,147.02821 0.0207,-5.54023 -1.30112,2.00815 2.54348,-0.007 -1.24236,-2.00084"
           id="path1037" />
        <path
           style="fill:none;stroke:#000000;stroke-width:0.565;stroke-linecap:butt;stroke-linejoin:miter;stroke-miterlimit:4;stroke-dasharray:none;stroke-opacity:1"
           d="m 148.42621,135.20353 -0.062,5.16813 -1.01295,-1.46775 2.06725,0.0207 -1.09564,1.36438"
           id="path1039" />
        <path
           style="fill:none;stroke:#000000;stroke-width:0.565;stroke-linecap:butt;stroke-linejoin:miter;stroke-miterlimit:4;stroke-dasharray:none;stroke-opacity:1"
           d="m 152.91215,104.13274 0.0207,6.16041"
           id="path1041" />
        <path
           style="fill:none;stroke:#000000;stroke-width:0.565;stroke-linecap:butt;stroke-linejoin:miter;stroke-miterlimit:4;stroke-dasharray:none;stroke-opacity:1"
           d="m 151.71314,108.57733 2.50138,-0.0827 -1.28167,1.79851 z"
           id="path1043" />
        <path
           style="fill:none;stroke:#000000;stroke-width:0.565;stroke-linecap:butt;stroke-linejoin:miter;stroke-miterlimit:4;stroke-dasharray:none;stroke-opacity:1"
           d="m 148.61227,119.45107 0.0413,-6.42915 -1.0543,1.75717 2.12927,-0.062 -1.07497,-1.6538"
           id="path1045" />
        <text
           xml:space="preserve"
           style="font-size:10.5833px;line-height:1.25;font-family:sans-serif;letter-spacing:0px;word-spacing:0px;stroke-width:0.264583"
           x="61.277306"
           y="75.778046"
           id="text1049"><tspan
             sodipodi:role="line"
             id="tspan1047"
             x="61.277306"
             y="75.778046"
             style="stroke-width:0.264583">xylem</tspan></text>
        <text
           xml:space="preserve"
           style="font-size:10.5833px;line-height:1.25;font-family:sans-serif;letter-spacing:0px;word-spacing:0px;stroke-width:0.264583"
           x="134.71651"
           y="75.31028"
           id="text1053"><tspan
             sodipodi:role="line"
             id="tspan1051"
             x="134.71651"
             y="75.31028"
             style="stroke-width:0.264583">phloem</tspan></text>
      </g>
      <text
         xml:space="preserve"
         style="font-size:10.5833px;line-height:1.25;font-family:sans-serif;letter-spacing:0px;word-spacing:0px;stroke-width:0.264583"
         x="14.307671"
         y="273.24158"
         id="text871"><tspan
           id="tspan869"
           x="14.307671"
           y="273.24158"
           style="font-style:italic;font-variant:normal;font-weight:normal;font-stretch:normal;font-size:8.46667px;font-family:sans-serif;-inkscape-font-specification:'sans-serif Italic';stroke-width:0.264583"
           sodipodi:role="line">longtitudnal view of xylem and phloem</tspan></text>
    </g>
  </g>
</svg>
